<?xml version="1.0" standalone="no"?>
<!DOCTYPE svg PUBLIC "-//W3C//DTD SVG 1.1//EN" "http://www.w3.org/Graphics/SVG/1.1/DTD/svg11.dtd" >
<svg>
<metadata>
Created by FontForge 20090622 at Mon Mar 27 08:48:30 2017
 By deploy user
Copyright (c) 1992 Image Club Graphics, Inc.
</metadata>
<defs>
<font id="BenguiatBold" horiz-adv-x="584" >
  <font-face 
    font-family="Benguiat"
    font-weight="7"
    font-stretch="normal"
    units-per-em="1328"
    panose-1="0 0 0 0 0 0 0 0 0 0"
    ascent="1062"
    descent="-266"
    x-height="754"
    cap-height="1001"
    bbox="-226 -393 1734 1364"
    underline-thickness="20"
    underline-position="-156"
    unicode-range="U+0020-U+25CA"
  />
<missing-glyph horiz-adv-x="1001" 
d="M62 0v1001h877v-1001h-877zM877 62v877h-753v-877h753z" />
    <glyph glyph-name=".notdef" horiz-adv-x="1001" 
d="M62 0v1001h877v-1001h-877zM877 62v877h-753v-877h753z" />
    <glyph glyph-name=".null" unicode="&#xd7;" horiz-adv-x="0" 
 />
    <glyph glyph-name=".null" unicode="&#x141;" horiz-adv-x="0" 
 />
    <glyph glyph-name=".null" unicode="&#xfd;" horiz-adv-x="0" 
 />
    <glyph glyph-name="nonmarkingreturn" horiz-adv-x="420" 
 />
    <glyph glyph-name="space" unicode=" " horiz-adv-x="420" 
 />
    <glyph glyph-name="exclam" unicode="!" horiz-adv-x="483" 
d="M444 1001q-40 -92 -59 -160.5t-32.5 -168t-13.5 -179.5q0 -78 15 -185q-35 9 -67.5 13t-69.5 4q-69 0 -134 -17q16 89 19.5 158t3.5 186q0 88 -12.5 164t-42.5 185h393zM387 127q0 -70 -52.5 -117.5t-123.5 -47.5q-65 0 -114 42t-49 106q1 10 1 15q6 64 51.5 107.5
t110.5 43.5q75 0 125.5 -41.5t50.5 -107.5z" />
    <glyph glyph-name="quotedbl" unicode="&#x22;" horiz-adv-x="441" 
d="M399 700h-130v303h130v-303zM176 700h-130v303h130v-303z" />
    <glyph glyph-name="numbersign" unicode="#" horiz-adv-x="999" 
d="M962 769l-32 -129h-139l-68 -241h144l-37 -131h-141l-78 -268h-157l76 270h-162l-73 -270h-164l75 270h-155l33 129h150l67 239h-155l37 130h154l63 236h164l-61 -236l163 2l57 234h164l-62 -235h137zM627 638h-160l-68 -239h164z" />
    <glyph glyph-name="dollar" unicode="$" horiz-adv-x="760" 
d="M689 350q-39 -65 -113 -104q-66 -35 -128 -35v-138q0 -14 1 -19q2 -8 8 -17q10 -11 24 -14v-25h-215v24q8 2 21 11q18 17 18 39v142q-33 3 -62.5 7l-47.5 6.5t-42 10t-36 7.5q-4 0 -17.5 -3t-25 -9t-22.5 -16l-19 318l31 2q9 -64 37 -107.5t84 -77.5q33 -20 75 -31
t82 -11q48 0 85.5 15.5t53.5 46.5q4 6 6 14.5t2 14.5q0 27 -27 50q-23 19 -58 30l-208 68q-42 14 -78 50q-40 39 -56 90q-11 36 -11 67q0 64 45 132q37 58 108 88q54 23 99 23v74q0 14 -1.5 21.5t-7.5 18.5q-11 15 -28 19v26h220v-24q-15 -4 -24 -14t-12 -21t-3 -24v-76
l53 -5l74 -14q9 0 25.5 2t42.5 16l18 -243l-26 -6q-14 36 -35 61q-15 18 -56 52q-28 23 -69 30.5t-108 7.5q-31 0 -58 -18q-23 -15 -23 -36q0 -13 11 -30t67 -37q10 -4 60 -18l99 -30q39 -9 67 -20q60 -23 89 -55t43.5 -70t14.5 -79q0 -39 -12 -78t-35 -79z" />
    <glyph glyph-name="percent" unicode="%" horiz-adv-x="1491" 
d="M627 728q0 -137 -73 -229q-80 -101 -215 -101q-133 0 -211.5 84t-78.5 215q0 134 79 231q83 102 208 102q122 0 206.5 -87.5t84.5 -214.5zM1064 978q-29 -11 -50 -32q-10 -10 -23 -32t-18 -37l-333 -790l-8 -20.5t-2 -20.5q6 -21 26 -28v-20h-227v22q9 4 17.5 8.5
t20.5 13.5t23.5 26t19.5 36l341 803q4 7 9.5 18.5t5.5 23.5q0 7 -2 10q-8 16 -24 20v23h224v-24zM1450 303q0 -135 -73 -228q-80 -102 -214 -102q-132 0 -211 85t-79 215q0 133 79 230q84 103 208 103q122 0 206 -88t84 -215zM443 716q0 91 -21 152q-28 80 -83 80
q-58 0 -84 -82q-20 -62 -20 -160q0 -101 16 -151q25 -78 93 -78q51 0 77 81q22 67 22 158zM1267 291q0 90 -22 153q-28 79 -82 79q-44 0 -69 -50q-31 -63 -31 -195q0 -103 14 -149q23 -76 91 -76q50 0 77 81q22 67 22 157z" />
    <glyph glyph-name="ampersand" unicode="&#x26;" horiz-adv-x="1355" 
d="M1320 711q0 -81 -46.5 -141t-124.5 -73q-17 -3 -33 -3q-40 0 -75.5 13t-59.5 33q6 -47 6 -80q0 -40 -8 -81q54 -64 104 -134q21 -29 65 -111q33 -61 58 -84q7 -6 16 -9q2 -1 32 -4v-37h-396q0 15 -3 26.5t-10 36.5q-8 22 -12.5 31t-18.5 33q-71 -83 -169 -120
q-85 -32 -199 -32q-158 0 -272 92q-121 98 -121 246q0 100 66 184q60 76 147 108q-40 40 -58.5 78.5t-18.5 92.5q0 112 112 182q101 63 237 63q155 0 234 -59q73 -55 73 -146q-2 -20 -7 -33.5t-18 -36.5l48 -29q20 -12 72 -27.5t95 -15.5q15 0 29 1.5t30 10.5q25 14 35 30
t10 31q0 7 -1 11q-4 10 -4 11q-12 23 -37 23q-11 0 -24.5 -6t-31.5 -31q-3 -4 -7 -11l-27 25q6 23 48 62q52 49 98 49q77 0 125 -55q42 -49 42 -114zM675 816q0 45 -26 76t-67 31q-38 0 -65.5 -23.5t-27.5 -60.5t29 -76q23 -32 49 -48l33 -21l26 18q19 13 34 42.5t15 61.5z
M881 477q5 31 5 40v15q0 52 -26 108q-20 45 -55 80q-12 -14 -23.5 -24.5t-30.5 -22t-40.5 -19t-35.5 -9.5l93 -76zM753 208q-67 71 -115.5 114.5t-125.5 102.5l-87 63q-47 32 -91 59q-30 -53 -30 -116q0 -102 67.5 -189t164.5 -98q23 -3 41 -3q65 0 130 39z" />
    <glyph glyph-name="quotesingle" unicode="'" horiz-adv-x="211" 
d="M172 700h-130v303h130v-303z" />
    <glyph glyph-name="parenleft" unicode="(" horiz-adv-x="518" 
d="M485 1033q-26 -8 -30 -9q-26 -11 -36 -26q-65 -104 -100 -224q-38 -131 -38 -278q0 -179 46 -362t93 -228q20 -20 40 -26l20 -4l-109 -102q-160 135 -242 319q-77 174 -77 378q0 169 70 327q52 118 143 229q42 51 109 116z" />
    <glyph glyph-name="parenright" unicode=")" horiz-adv-x="514" 
d="M472 471q0 -204 -77 -378q-81 -184 -242 -319l-109 102q10 1 20 4q20 6 40 26q46 44 92.5 229t46.5 361q0 146 -38 278q-34 119 -100 224q-10 15 -36 26q-4 1 -30 9l111 110q62 -60 108 -116q92 -112 143 -228q71 -161 71 -328z" />
    <glyph glyph-name="asterisk" unicode="*" horiz-adv-x="511" 
d="M479 803q-7 1 -15 1h-12h-28q-36 0 -89 -20q21 -33 50 -57q16 -13 27.5 -20.5t31.5 -16.5l-119 -84q-8 42 -28 81q-15 28 -34 49q-11 -14 -20 -28.5t-16 -30.5q-16 -36 -20 -74l-120 89q42 13 74 44q23 21 39 50q-24 10 -47.5 13.5t-48.5 3.5q-28 0 -58 -10l52 141
q20 -22 42.5 -35.5t44.5 -22.5t38 -13v27q0 17 -2 29.5t-8 29.5q-10 29 -23 52h146q-8 -12 -14 -25t-11 -28q-8 -28 -8 -58v-27q42 9 81 36q26 18 44 41z" />
    <glyph glyph-name="plus" unicode="+" horiz-adv-x="803" 
d="M761 289h-298v-291h-131v291h-285v130h285v294h135v-294h294v-130z" />
    <glyph glyph-name="comma" unicode="," horiz-adv-x="491" 
d="M454 159l-186 -314h-235q13 11 19.5 17t15.5 17.5t19 29t11 21.5l62 140l7 18q7 17 8.5 26.5t1.5 12.5v7q0 11 -3 25h280z" />
    <glyph glyph-name="hyphen" unicode="-" horiz-adv-x="508" 
d="M467 496l-107 -254q-7 13 -18 22t-25 14.5t-23 5.5h-134q-13 0 -21 -1.5t-20 -6.5q-29 -11 -48 -34l-23 12l110 255q6 -16 17 -23q17 -12 39 -12h165q13 0 20 1t17 6q17 8 30 25z" />
    <glyph glyph-name="period" unicode="." horiz-adv-x="429" 
d="M391 136q0 -68 -51 -116t-121 -48q-69 0 -118.5 46t-49.5 114q0 64 48.5 109.5t115.5 45.5q71 0 123.5 -42.5t52.5 -108.5z" />
    <glyph glyph-name="slash" unicode="/" horiz-adv-x="779" 
d="M747 1046q-20 -8 -33 -23q-13 -12 -28 -43q-2 -5 -6 -14l-366 -1022q-2 -7 -6 -19t-4 -18q0 -4 3.5 -17t26.5 -20v-25h-278v25q17 5 33.5 17.5t26.5 30.5q4 7 16 39l354 1002q3 6 4 10q9 26 9 42q0 9 -3 15q-6 13 -24 19v22h275v-21z" />
    <glyph glyph-name="zero" unicode="0" horiz-adv-x="1004" 
d="M960 519q0 -224 -129 -373t-329 -149q-218 0 -341 157q-112 142 -112 356q0 217 121 376q130 170 328 170q205 0 333.5 -150.5t128.5 -386.5zM666 535q0 155 -30 256q-40 136 -127 136q-7 -1 -11 -1q-75 -7 -120 -139q-39 -115 -39 -256q0 -154 35 -262q45 -137 133 -137
q64 0 102 67q32 56 46 157q11 80 11 179z" />
    <glyph glyph-name="one" unicode="1" horiz-adv-x="622" 
d="M587 -2h-507v40q36 0 68 26q21 17 30.5 40t9.5 55v606q0 33 -4 51.5t-20 34.5q-12 12 -30.5 16.5t-40.5 4.5q-24 0 -30 -3l-11 40l421 108v-859q2 -20 4 -30q6 -32 17 -45q35 -44 93 -44v-41z" />
    <glyph glyph-name="two" unicode="2" horiz-adv-x="999" 
d="M957 279l-133 -310q-10 16 -23.5 21.5t-19.5 6.5t-17 1l-731 -1l144 112q58 44 119 101q123 115 195 221q102 151 102 278q0 90 -52 139q-47 44 -123 44q-52 0 -103.5 -23t-89.5 -67q-20 -23 -31 -63.5t-11 -78.5l-34 -9l-63 261l139 60q58 25 129.5 39t143.5 14
q151 0 257 -52q120 -59 145 -168q4 -14 6 -34t2 -38q0 -90 -47 -175t-127 -150l-243 -197l306 2q24 0 41.5 4.5t36.5 15.5q33 21 51 55z" />
    <glyph glyph-name="three" unicode="3" horiz-adv-x="957" 
d="M918 387q0 -191 -154 -296q-135 -92 -337 -92q-102 0 -229 44q-103 36 -148 71l110 250l33 -14q-4 -14 -7 -29t-3 -27q0 -23 9 -52q19 -65 79 -98q55 -30 132 -30q94 0 164.5 60.5t70.5 149.5q0 99 -74 151q-64 45 -163 45q-45 0 -104.5 -4.5t-65.5 -6.5l-3 7l374 314
h-310h-33q-28 -2 -49 -14t-32.5 -24t-20.5 -31l-28 12l101 284q10 -17 28 -25q7 -4 14 -5q5 -1 25 -1h520l46 -104l-278 -223q146 0 232 -68q101 -80 101 -244z" />
    <glyph glyph-name="four" unicode="4" horiz-adv-x="1030" 
d="M999 420l-56 -209l-19 3q0 6 -0.5 13.5t-7.5 14.5t-18 8.5t-21 1.5h-84v-113q0 -27 6.5 -47t24.5 -36q9 -8 19 -14q17 -10 38 -10v-34h-468v38q40 0 70 34q13 15 19 32.5t6 38.5v112h-366h-23.5t-27 -5t-33.5 -20v28v19.5t3 25.5q8 46 30 84l115 188l73 138q33 76 33 121
q0 13 -1 19q-4 21 -14 36l-23 28q64 42 122 97.5t102 117.5l14 -30q15 -33 21 -60t6 -63q0 -69 -22.5 -133t-65.5 -132q-30 -48 -92 -130l-159 -208h302v358q48 0 82 9t74 34q59 36 90 83t42 115v-599h82q37 0 43.5 3.5l13.5 7.5q28 13 49 41z" />
    <glyph glyph-name="five" unicode="5" horiz-adv-x="977" 
d="M938 368q0 -164 -139.5 -275.5t-332.5 -111.5q-122 0 -236.5 32t-178.5 80l129 239l27 -14q-3 -18 -3 -38q0 -23 3.5 -43.5t11.5 -40.5q23 -52 85 -78q53 -22 130 -22q91 0 158 51q71 54 71 137q0 82 -78 130q-71 44 -167 44q-72 0 -187 -33q-95 -27 -109 -38
q36 91 54 159.5t31 165.5q6 40 8 76t2 74q0 36 -1.5 94.5t-1.5 65.5q14 -10 26.5 -13.5t21.5 -5.5h12h495q23 0 50 7q9 2 16 5q4 2 16 7l-69 -262h-22q-8 14 -16 21q-19 16 -44 16h-383v-50q0 -13 -3 -24.5t-4 -17.5q-4 -20 -4 -21q-5 -13 -7 -20q23 9 104.5 18.5t142.5 9.5
q178 0 285 -87t107 -237z" />
    <glyph glyph-name="six" unicode="6" horiz-adv-x="991" 
d="M955 344q0 -161 -131 -270q-126 -105 -297 -105q-203 0 -344 140t-141 351q0 243 153 403q159 166 417 166q101 0 206 -26l67 -17l-53 -268h-27q0 35 -9 61.5t-30 55.5q-27 37 -67.5 56t-84.5 19q-55 0 -112 -27q-79 -38 -133 -129q-48 -81 -48 -145l-2 -65q55 64 128 95
t149 31q154 0 244 -64q115 -82 115 -262zM672 323q0 86 -37 149q-43 72 -115 72t-124 -69.5t-52 -155.5q0 -92 47 -159q52 -74 132 -74q75 0 115 77q34 66 34 160z" />
    <glyph glyph-name="seven" unicode="7" horiz-adv-x="902" 
d="M854 1056q0 -20 1 -54t1 -49v-30q-3 -21 -4 -32q-13 -95 -73.5 -206.5l-118.5 -215.5q-69 -131 -91 -238q-4 -21 -9 -53t-5 -50v-24t1 -28l1 -77h-370q15 77 31 125q13 39 47 113t111 155q34 36 141 135q88 82 129 137q27 37 41 67q8 19 13 43h-447h-35q-29 0 -49 -2.5
t-39 -10.5t-28 -19.5t-19 -33.5l-34 7l89 311q10 -11 20.5 -17t22 -7t27.5 -1l553 1q12 0 29 1t34.5 15.5t22.5 37.5h7z" />
    <glyph glyph-name="eight" unicode="8" horiz-adv-x="1029" 
d="M991 273q0 -132 -116 -209q-84 -56 -222 -79q-78 -13 -139 -13q-69 0 -139 12q-134 23 -215 78q-112 76 -112 206q0 113 79 184q97 87 218 87q-78 0 -153 51q-95 64 -95 169q0 114 95 183q71 52 189 75q76 15 142 15q70 0 140 -13q117 -22 187 -71q94 -66 94 -174
q0 -85 -65 -148q-81 -78 -173 -88q35 0 92 -22q78 -30 128 -82q65 -68 65 -161zM662 763q0 64 -39 111t-102 47q-60 0 -101 -47t-41 -111q0 -68 37.5 -121t98.5 -53q63 0 105 53t42 121zM683 290q0 80 -44 138q-48 63 -121 63t-120.5 -60.5t-47.5 -140.5q0 -86 38 -141
q45 -64 130 -64q74 0 121 64q44 59 44 141z" />
    <glyph glyph-name="nine" unicode="9" horiz-adv-x="1008" 
d="M970 507q0 -250 -152.5 -393.5t-408.5 -143.5q-113 0 -241 30l-80 19l66 266h27q0 -35 9 -61.5t30 -55.5q29 -40 68.5 -59t87.5 -19q46 0 99 17q101 32 161 118q56 80 56 172l4 66q-57 -69 -144 -103q-74 -29 -160 -29q-128 0 -218 63q-122 85 -122 261q0 151 122 260.5
t283 109.5q227 0 367 -135q146 -141 146 -383zM663 687q0 84 -43 150q-47 73 -118 73q-11 0 -17 -1q-59 -7 -102.5 -78.5t-43.5 -154.5q0 -90 34 -147q41 -70 123 -70q80 0 125 65q42 61 42 163z" />
    <glyph glyph-name="colon" unicode=":" horiz-adv-x="428" 
d="M387 580q0 -68 -51.5 -115.5t-121.5 -47.5q-68 0 -118 46t-50 113q0 66 48.5 111t115.5 45q71 0 124 -43t53 -109zM387 133q0 -68 -52 -116t-121 -48q-67 0 -117.5 46.5t-50.5 113.5q0 66 48.5 111t115.5 45q71 0 124 -43t53 -109z" />
    <glyph glyph-name="semicolon" unicode=";" horiz-adv-x="456" 
d="M408 572q0 -68 -51.5 -116t-121.5 -48q-67 0 -117.5 46.5t-50.5 113.5q0 65 48.5 110t115.5 45q72 0 124.5 -42.5t52.5 -108.5zM400 207l-186 -314h-235q13 11 19.5 17t15.5 17.5t19 29t11 21.5l62 140l7 18q7 17 8.5 26.5t1.5 12.5v7q0 11 -3 25h280z" />
    <glyph glyph-name="less" unicode="&#x3c;" horiz-adv-x="845" 
d="M806 676l-584 -276l581 -275v-137l-753 351v127l756 347v-137z" />
    <glyph glyph-name="equal" unicode="=" horiz-adv-x="780" 
d="M745 452h-695v131h695v-131zM745 232h-695v131h695v-131z" />
    <glyph glyph-name="greater" unicode="&#x3e;" horiz-adv-x="851" 
d="M807 339l-753 -351v137l581 275l-584 276v137l756 -347v-127z" />
    <glyph glyph-name="question" unicode="?" horiz-adv-x="878" 
d="M839 751q0 -78 -62 -144q-45 -48 -116 -85q-54 -28 -63 -28q-58 -23 -89 -37q-94 -42 -110 -67q-9 -15 -9 -30q0 -10 4 -18l10 -24q-10 1 -17 2q-50 7 -74 7q-20 0 -43 -4.5t-43.5 -13.5t-46.5 -26q-9 26 -12 36q-6 18 -6 33q0 16 6 42q13 53 84 104q210 150 223 166
q44 57 44 115q0 60 -45 99t-114 39q-41 0 -81.5 -14.5t-81 -47t-63 -90.5t-22.5 -100v-11q2 -7 2 -9h-39l-23 341q10 -10 15 -14q18 -14 30 -13q113 33 199.5 53t172.5 20q151 0 252 -65q118 -76 118 -216zM481 131q0 -68 -51.5 -114.5t-122.5 -46.5q-67 0 -116 45.5
t-49 111.5q0 65 48.5 110t116.5 45q69 0 121.5 -43t52.5 -108z" />
    <glyph glyph-name="at" unicode="@" horiz-adv-x="1036" 
d="M1005 579q0 -148 -95 -265t-224 -117q-55 0 -82 54q-8 18 -16 54l-40 -45q-49 -58 -127 -58t-129 62.5t-51 145.5q0 124 104 216q94 83 193 83q38 0 65.5 -14.5t37.5 -46.5l13 -37l27 82l114 3l-103 -383q-5 -18 -5 -36q0 -20 6 -31.5t20 -11.5q81 0 150.5 108t69.5 226
q0 154 -120 246q-109 84 -267 84q-170 0 -291 -121t-121 -291q0 -177 123.5 -303.5t298.5 -126.5q128 0 220 49q66 36 108 92l28 50h88l-39 -67q-57 -78 -138 -125q-115 -67 -269 -67q-203 0 -347.5 144.5t-144.5 348.5q0 200 142 343t342 143q183 0 317 -106
q142 -112 142 -282zM629 558q0 52 -20 84.5t-58 32.5q-65 0 -127.5 -110t-62.5 -214q0 -46 20 -76q24 -35 70 -35q66 0 125 120q53 109 53 198z" />
    <glyph glyph-name="A" unicode="A" horiz-adv-x="1223" 
d="M1185 -1h-518v39q26 5 39 12q40 24 40 78q0 18 -2 28q-7 47 -59 105q-56 63 -125 94q-27 12 -79.5 21.5t-86.5 9.5l-71 -203q-13 -36 -13 -79q0 -21 5 -29q12 -18 27 -26.5t34 -11.5v-37h-332v38q20 6 30 12.5t30 23.5q26 21 39 39.5t25 51.5l277 711q5 12 9 24t4 22
q0 14 -6.5 23.5t-13 12.5t-13.5 5v38h443v-44q-24 0 -33 -17q-4 -8 -4 -16t3 -18q1 -2 7 -20l260 -781l11 -19q13 -21 25 -29.5t22 -12t26 -6.5v-39zM652 441l-112 354l-96 -281q12 0 30 -1t53 -11t76 -31q30 -16 49 -30z" />
    <glyph glyph-name="B" unicode="B" horiz-adv-x="1117" 
d="M1085 255q-15 -117 -123 -189q-101 -67 -236 -67l-676 1v38q39 0 64 26q11 12 17.5 32.5t6.5 34.5v726q0 25 -1 32q-4 24 -17.5 40.5t-28 24.5t-34.5 8v39h717q76 -6 114 -18q114 -38 114 -138q0 -81 -95 -154q-96 -57 -97 -58l-56 -26q19 0 86 -24q100 -36 160 -92
q87 -81 87 -194v-15q0 -7 -1 -15t-1 -12zM697 804q0 61 -73 82q-24 7 -73 9q-23 0 -35 -1q-38 -5 -51.5 -25.5t-13.5 -49.5v-213l50 16q66 26 98 46q98 61 98 136zM762 306q0 74 -43 137q-29 43 -81 79q-37 26 -43 26l-148 -51v-327v-15q0 -16 2.5 -24t8.5 -14
q15 -16 42 -16h75q66 0 120 47q67 58 67 158z" />
    <glyph glyph-name="C" unicode="C" horiz-adv-x="1127" 
d="M1091 300l-119 -331l-13 13q-6 5 -12.5 8.5t-16.5 3.5q-78 -7 -148 -12.5t-121 -5.5t-87.5 3.5t-74.5 12.5q-219 56 -333 194t-114 341q0 232 150.5 366.5t409.5 134.5q43 0 103 -10q132 -22 153 -22q26 0 46 7q9 3 16.5 8t27.5 22l80 -422l-30 -16q0 35 -44 104
q-51 80 -118 132q-84 65 -170 65q-148 0 -228 -107q-70 -94 -70 -240q0 -138 69 -257q80 -137 215 -169q55 -13 105 -13q100 0 174 54q66 49 118 147z" />
    <glyph glyph-name="D" unicode="D" horiz-adv-x="1190" 
d="M1152 499q0 -225 -113 -353q-129 -146 -390 -146h-597v38q32 0 56 26q8 9 16.5 31.5t8.5 41.5v726q0 26 -1 33q-4 24 -17 40t-26.5 21t-36.5 5v39h547q223 0 385 -142q168 -147 168 -360zM831 499q0 163 -94 288q-90 120 -197 120q-27 0 -52.5 -11t-33.5 -38.5t-8 -66.5
v-558q0 -60 13 -82.5t44 -35t67 -12.5q107 0 184 111.5t77 284.5z" />
    <glyph glyph-name="E" unicode="E" horiz-adv-x="1047" 
d="M1017 364l-130 -383l-34 10q-17 5 -38 7t-44 2h-729v38q30 5 38.5 9.5t20.5 17.5q16 19 20.5 38.5t4.5 50.5v710v11q0 26 -2.5 39.5t-14.5 27t-24 17t-34 3.5v39h660q5 -1 18 -1q37 0 85 8q25 4 27 4q10 2 27 9l73 -338l-33 -25q-23 99 -101 168q-45 39 -107 59t-122 20
q-67 0 -99 -24q-21 -16 -29.5 -39t-8.5 -54v-109h141q20 0 38.5 5.5t35.5 19.5q34 30 34 73q0 10 -1 15l30 9l67 -381l-38 -6q-4 20 -20 51q-20 38 -45 60t-57 35.5t-54 13.5h-128v-286v-24v-16q0 -33 5 -56t23 -48t51 -37.5t76 -12.5q47 0 96.5 14t90.5 37q61 35 117 99
q63 71 80 137z" />
    <glyph glyph-name="F" unicode="F" horiz-adv-x="972" 
d="M941 674l-36 -9q-13 57 -35.5 93.5t-66 73.5t-102.5 54t-120 17q-76 0 -106 -24q-17 -14 -22 -31t-5 -45v-21v-103h121q25 0 45.5 2.5t45.5 12.5q43 18 43 72q0 15 -2 22l29 9l54 -408l-31 -2q-2 26 -22 70q-26 58 -60 82q-28 20 -68 27.5t-70 7.5h-89v-392q0 -49 9 -80
t34 -49q22 -15 49 -15v-39h-492v39q21 3 33.5 9t27 22t19 36t4.5 51v708v22q0 21 -2.5 32.5t-12 23t-20.5 16t-40 4.5v39h648h33h22q16 0 30.5 0.5t32.5 3.5t32.5 8.5t21.5 7.5z" />
    <glyph glyph-name="G" unicode="G" horiz-adv-x="1245" 
d="M1205 570q-41 0 -71 -34q-16 -17 -20.5 -37t-4.5 -51v-298v-38q2 -17 12 -35t22.5 -25.5t36.5 -13.5v-38h-500q-180 0 -287 36q-133 45 -225 162q-59 75 -90 166.5t-31 187.5q0 103 38 193.5t116 158.5q75 64 174 93.5t217 29.5q64 0 120 -6.5t128 -21.5q37 -8 68 -8
q35 0 57 12l35 28l41 -343l-25 -13q-17 48 -73 114q-43 51 -86 71q-107 49 -191 49q-131 0 -207 -112q-63 -93 -77 -240q-1 -9 -1.5 -17t-0.5 -20q0 -151 77 -275q90 -146 236 -146q65 0 96 41q26 35 26 94v239q0 34 -4.5 47t-16.5 25q-23 22 -52 22q-11 0 -16 -1v38h479
v-34z" />
    <glyph glyph-name="H" unicode="H" horiz-adv-x="1171" 
d="M1135 962q-14 -3 -27 -5q-22 -6 -36 -26t-18.5 -44t-4.5 -57l2 -680q0 -29 5.5 -53.5t16.5 -36.5q22 -22 60 -22v-38h-485v38q42 0 67 30q12 15 16.5 33.5t4.5 42.5v486h-297v-484q0 -28 3.5 -44t17.5 -33q27 -31 68 -31v-38h-478v38q20 4 27.5 7.5t26.5 19.5
q10 9 20 45.5t10 69.5l-2 654v14q0 33 -3 49t-15 32.5t-27 23t-38 9.5v39h482v-39q-12 0 -31 -5.5t-30 -19.5q-31 -41 -31 -110v-95h299v92q0 54 -5.5 75t-18.5 39q-9 12 -34 19q-9 2 -27 5v39h482v-39z" />
    <glyph glyph-name="I" unicode="I" horiz-adv-x="566" 
d="M533 962q-31 -6 -42 -12.5t-21 -20.5q-14 -19 -17.5 -42.5t-3.5 -60.5v-673q0 -29 5.5 -53.5t16.5 -35.5t26 -18.5t34 -7.5v-38h-485v38q40 0 67 33q13 15 17.5 33t4.5 43v676q0 43 -4 68t-19 45q-8 11 -23 16.5t-43 9.5v39h487v-39z" />
    <glyph glyph-name="J" unicode="J" horiz-adv-x="996" 
d="M945 962q-26 -5 -39 -10.5t-24.5 -21.5t-15 -33.5t-3.5 -42.5v-30v-528q0 -159 -109 -242.5t-323 -83.5q-110 0 -234 54q-106 46 -154 96l179 307l32 -16q-14 -27 -19.5 -52t-5.5 -58q0 -85 41 -139q48 -63 138 -63q77 0 113 58q29 47 29 125v538v24.5t1 24.5
q0 21 -3.5 37.5t-13.5 30t-29 19.5t-30 6v39h470v-39z" />
    <glyph glyph-name="K" unicode="K" horiz-adv-x="1231" 
d="M1193 0h-535v38h27q22 3 35 20q6 9 6 28q0 55 -38.5 158t-79.5 161l-101 144l-55 -51v-353q0 -30 6.5 -52t24.5 -36q12 -10 26 -14.5t33 -4.5v-38h-490v38q27 0 50 19q18 14 25 41.5t7 55.5q-1 24 -1 28v646v31q0 26 -3.5 44t-14 32.5t-30.5 20.5t-31 6v39h482v-39
q-31 -6 -42 -12.5t-21 -20.5q-15 -20 -18.5 -42.5t-3.5 -61.5l-2 -189l175 150q35 27 63.5 62t28.5 60q0 12 -7.5 23t-25 19.5t-38.5 11.5v39h437v-39q-53 -10 -104 -30q-68 -27 -138 -81q-34 -26 -94 -82l-25 -23q58 -69 106 -137q43 -61 96 -144q7 -11 129 -305
q41 -99 72 -114q11 -5 22.5 -6.5t19.5 -1.5h27v-38z" />
    <glyph glyph-name="L" unicode="L" horiz-adv-x="972" 
d="M951 394l-128 -419q-16 13 -29.5 18t-25 6.5t-28.5 1.5h-13q-2 0 -5 -1h-681v38q35 0 57 23q14 15 18 33t4 48v706v17.5t1 17.5q0 16 -2.5 26t-11.5 21q-13 16 -26 24t-31 8v39h471v-39q-19 -3 -33.5 -10.5t-28.5 -23t-18.5 -36.5t-4.5 -53l-1 -631q0 -41 5.5 -62
t30.5 -32q17 -8 36 -12t40 -4q48 0 98.5 18.5t102.5 53.5t101 105q43 61 72 132z" />
    <glyph glyph-name="M" unicode="M" horiz-adv-x="1265" 
d="M1229 962q-22 -3 -34.5 -9t-22.5 -20q-17 -25 -22 -48t-5 -61v-681q-1 -21 -1 -30q0 -15 2.5 -25t10.5 -21q22 -29 63 -29v-38h-479v38q20 0 36.5 8.5t29.5 23.5t17.5 32t4.5 38v16v629l-294 -590l-281 605v-651q0 -23 2 -39t12 -34q20 -38 72 -38v-38h-296v38
q17 0 31.5 4t27 20.5t19 50.5t6.5 82v613q0 38 -2 60q-5 56 -20 72q-11 14 -27.5 17t-30.5 5v39h513v-39q-20 -8 -29 -22q-6 -12 -6 -25q0 -9 2 -17.5t7 -21.5l103 -237l122 243q7 12 10 23t3 20t-2 13q-3 9 -8 14q-3 3 -13 10v39h479v-39z" />
    <glyph glyph-name="N" unicode="N" horiz-adv-x="1067" 
d="M1030 962l-24 -4q-18 -5 -33 -24q-18 -23 -22.5 -56.5t-4.5 -61.5v-666q0 -16 3 -37.5t12.5 -37.5t27 -25.5t38.5 -11.5v-39h-302v39q13 0 26 4q49 16 49 82q0 44 -21 83q-14 27 -54 74l-460 540l-1 -670q0 -25 3.5 -42.5t12 -33.5t23.5 -24.5t39 -12.5v-39h-291v39
q19 2 26 3.5t19 8.5q21 13 30 53.5t9 91.5v613v25q0 32 -4 61t-14 40q-21 23 -58 28v39h572v-39q-10 0 -17.5 -5.5t-14.5 -15t-7 -19.5q0 -14 9 -31q4 -8 14 -21l201 -252l-1 226v12q0 27 -3 41t-15 30.5t-28.5 24t-40.5 10.5v39h302v-39z" />
    <glyph glyph-name="O" unicode="O" horiz-adv-x="1198" 
d="M1164 492q0 -232 -142 -371q-149 -146 -410 -146q-249 0 -403 149.5t-154 375.5q0 227 161 379q157 148 383 148q241 0 392 -123q173 -141 173 -412zM833 509q0 141 -59 256q-68 132 -173 132q-87 0 -150.5 -120.5t-63.5 -263.5q0 -146 61 -269q69 -139 170 -139
q116 0 171 133q44 106 44 271z" />
    <glyph glyph-name="P" unicode="P" horiz-adv-x="1065" 
d="M1021 865q2 -6 3.5 -21t1.5 -29q0 -93 -84 -164q-70 -59 -205 -108q-87 -32 -252 -75l-44 -11l1 -291q0 -32 2.5 -52.5t18 -40t32.5 -26.5q2 -1 36 -9v-38h-480v38q19 4 31.5 9.5t23.5 17.5q18 19 23 37t5 52v654q-1 17 -1 27q-5 60 -22 88q-12 21 -25.5 30t-33.5 9v39
h714q90 0 142 -17q95 -31 113 -119zM705 791q0 53 -47 84q-41 27 -102 27q-45 0 -76 -14q-19 -8 -26.5 -27.5t-7.5 -44.5v-242l32 4q76 10 146 68q81 67 81 145z" />
    <glyph glyph-name="Q" unicode="Q" horiz-adv-x="1268" 
d="M1212 130q15 -25 15 -120q0 -33 -4.5 -62t-13.5 -50q-26 -55 -76 -84q-44 -25 -97 -25q-32 0 -60.5 9t-47.5 25q-43 34 -92 104q-42 59 -43 72q-70 -28 -160 -28q-137 0 -263 56q-141 63 -225 176q-96 130 -96 305q0 236 167 386q159 143 392 143q248 0 408 -154
t160 -384q0 -136 -52 -236.5t-163 -183.5q26 -31 68 -53q33 -17 62 -17q9 0 13 1q51 7 69 44q11 23 11 63zM825 586q-19 129 -74 213q-66 101 -164 101q-95 0 -150 -117q-47 -100 -47 -234q0 -75 13.5 -154.5t29.5 -117.5q42 28 88 41.5t103 13.5q58 0 99.5 -15.5
t90.5 -53.5q12 33 18 77.5t6 89.5q0 71 -13 156zM704 123q-20 36 -44 59t-62 42q-53 27 -104 27h-17t-28 -4q14 -39 34.5 -63t57.5 -45q49 -28 96 -28q31 0 67 12z" />
    <glyph glyph-name="R" unicode="R" horiz-adv-x="1202" 
d="M1154 -1h-504v36q27 3 49 16q12 7 12 27q0 27 -22 76q-15 33 -83 155q-20 35 -50.5 77l-60.5 83l-53 -25v-282q0 -32 4.5 -52.5t16.5 -35.5q16 -20 31 -27q7 -3 35 -9v-38h-477v38q17 0 27.5 4.5t25.5 16.5q20 16 26 37t6 55l2 655q0 31 -1 48q-4 53 -15.5 73t-26.5 27.5
t-36 7.5v39h700q117 0 178.5 -36t70.5 -104q2 -18 2 -26q0 -74 -57 -139q-41 -46 -107 -85q-50 -29 -58 -29q53 -67 92.5 -124.5t82.5 -129.5q23 -39 77 -173q40 -98 66 -109q19 -8 47 -13v-34zM689 786q0 52 -43 82q-37 26 -94 26q-39 0 -73 -14q-19 -8 -26.5 -26.5
t-7.5 -43.5v-251l35 11q76 26 134 76q75 65 75 140z" />
    <glyph glyph-name="S" unicode="S" horiz-adv-x="1020" 
d="M982 323q0 -122 -90 -209q-74 -71 -196 -110q-100 -32 -191 -32q-73 0 -164 12l-186 24q-13 0 -21.5 -1.5t-20 -9t-22.5 -15.5l-39 414l36 4q3 -30 25 -82q28 -67 65 -106q53 -56 125.5 -86t141.5 -30q76 0 130 33t66 93q2 9 2 25q0 37 -21.5 64.5t-57.5 39.5l-264 87
q-95 31 -148 92q-58 67 -58 162q0 131 102 222q91 81 239 111q36 7 76 7q52 0 116 -13l132 -26q8 0 11 1q22 6 46 18q18 11 28 16l34 -325l-36 -11q-3 15 -20 46q-40 75 -87 107q-38 26 -87 42t-94 16q-39 0 -68 -12.5t-43 -38.5q-9 -16 -13 -28q-7 -20 -7 -42q0 -33 24 -59
q30 -32 93 -52l240 -77q95 -31 148.5 -100t53.5 -171z" />
    <glyph glyph-name="T" unicode="T" horiz-adv-x="1030" 
d="M993 680l-30 -9q-17 60 -59 110q-47 56 -101.5 82.5t-126.5 26.5l1 -682v-20q0 -35 5.5 -63t23 -50t38.5 -29.5t53 -7.5v-39h-548v39q5 -1 14 -1q39 0 74 33q21 20 25 41t4 64v715q-60 0 -103 -16.5t-93 -56.5q-25 -21 -50 -61q-30 -48 -39 -82l-30 6l72 346
q13 -12 33 -21q8 -3 22.5 -4t16.5 -1q26 1 29 1h600q15 0 27 0.5t33.5 6t41.5 16.5z" />
    <glyph glyph-name="U" unicode="U" horiz-adv-x="1119" 
d="M1077 962q-31 -4 -53 -32q-18 -22 -24 -59t-6 -72v-13v-4v-485q0 -137 -105 -228q-99 -86 -251 -100q-20 -1 -37.5 -2.5t-41.5 -1.5q-183 0 -300 72q-130 80 -130 226v600q0 29 -3 42.5t-16 28.5q-25 28 -58 28v39h487v-39q-19 0 -35 -7.5t-33 -23.5t-24 -34.5t-7 -45.5
v-592q0 -72 69 -116q61 -39 146 -39q83 0 146.5 51.5t63.5 128.5v474v53q0 49 -6 79t-26 48q-27 24 -63 24v39h307v-39z" />
    <glyph glyph-name="V" unicode="V" horiz-adv-x="1132" 
d="M1090 962q-17 -6 -30.5 -15.5t-26 -23t-19.5 -24.5q-10 -16 -16 -36l-261 -718q-11 -31 -11 -56q0 -20 9 -32q13 -19 42 -19v-39h-418v39q14 2 24 7t16 17.5t6 27.5q0 22 -8 46l-231 702q-8 21 -13 33q-16 36 -32.5 52t-35 25t-41.5 14v39h504v-39q-42 4 -70 -31
q-6 -7 -9 -18t-3 -22q0 -18 7 -40t8 -26l168 -525l197 539q8 21 12.5 37.5t4.5 32.5q0 14 -6 26q-18 27 -57 27v39h290v-39z" />
    <glyph glyph-name="W" unicode="W" horiz-adv-x="1523" 
d="M1488 951q-22 -5 -38.5 -14t-27.5 -25t-18 -33.5t-11 -35.5l-150 -696q-2 -8 -5 -27t-3 -26q0 -19 9 -37q5 -10 16 -14.5t23 -4.5v-38h-487v38q29 0 40 24q5 10 5 22q0 7 -4 29l-84 502l-88 -467l-7 -42t-3 -28q0 -21 8 -30.5t28 -9.5v-38h-448v38q26 0 39 25q5 12 5 32
q0 22 -3 42.5t-4 26.5l-118 669q-5 22 -9 34q-12 38 -27.5 55.5t-31 25.5t-42.5 14v39h504v-39q-22 0 -38.5 -8.5t-32.5 -27.5q-9 -10 -13.5 -28t-4.5 -35q0 -13 1 -21.5l2 -16.5l100 -656l122 649l6 39.5t3 35.5q0 24 -8 37q-20 32 -57 32v39h441v-39q-16 -2 -30 -12
q-10 -7 -21 -22q-7 -10 -10.5 -23t-3.5 -27q0 -13 1 -22.5t3 -18.5l101 -690l140 699q5 25 5 43q0 25 -12 41q-15 20 -46 25v46h284v-50z" />
    <glyph glyph-name="X" unicode="X" horiz-adv-x="1190" 
d="M1159 0h-550v38q40 0 62 36q8 13 8 30q0 24 -18 52l-165 275l-142 -256q-11 -20 -18 -43t-7 -37q0 -22 10.5 -35t22.5 -17.5t25 -4.5v-38h-334v38q19 6 33.5 13.5t37.5 23t51 45.5q9 10 25 30l233 382l-186 319q-20 28 -32 42q-39 45 -71 57q-12 4 -24 7.5t-22 4.5v39
h546v-39q-12 2 -29.5 -3.5t-24.5 -19.5q-8 -11 -8 -26q0 -10 2.5 -17.5t8.5 -19.5l114 -196l110 164l15 25q14 26 14 43q0 8 -3 14q-7 18 -30.5 27.5t-35.5 8.5v39h331v-39q-23 -5 -38 -9.5t-33 -15.5q-26 -16 -53 -46q-16 -18 -32 -42l-180 -271l273 -448q13 -21 27 -39
t28 -28q30 -22 59 -25v-38z" />
    <glyph glyph-name="Y" unicode="Y" horiz-adv-x="1141" 
d="M1095 962q-15 -7 -33 -19q-13 -9 -28 -21q-28 -21 -57 -60q-14 -19 -34 -50l-226 -361v-277q0 -50 11 -79.5t37 -43.5t49 -14q7 0 11 1v-38h-520v38q32 0 49.5 8.5t30.5 28.5q20 30 20 64v323l-243 392q-11 18 -21 37q-11 17 -26 32q-30 29 -69 39v39h545v-39
q-25 -4 -43 -27q-11 -15 -11 -33q0 -17 8 -35q2 -5 19 -36l126 -224l146 247q16 26 16 48q0 14 -5.5 27.5t-20.5 23t-27 9.5v39h296v-39z" />
    <glyph glyph-name="Z" unicode="Z" horiz-adv-x="1049" 
d="M1022 1001l-543 -894q18 -3 52 -3q69 0 133 13q84 17 143 53q67 41 108 85t75 114l27 -14l-135 -384q-6 14 -23 23q-6 4 -14 5t-19 1h-12h-772l535 888q-21 3 -44 3q-71 0 -145.5 -24.5t-135.5 -75.5q-37 -32 -63 -66.5t-44 -72.5l-32 14l84 364q9 -11 25 -21q9 -4 20 -6
t22 -2h758z" />
    <glyph glyph-name="bracketleft" unicode="[" horiz-adv-x="489" 
d="M452 1107q-23 -4 -45 -17q-13 -7 -27 -23q-5 -5 -17 -21l-86 -104v-882l91 -120q6 -8 13.5 -17t16.5 -15q24 -16 49 -19v-7h-290v9q9 5 10 7q2 9 0 16.5t-16 23.5l-60 77q-3 5 -9.5 11t-11.5 10q-4 4 -17 6v10q8 3 14 10.5t7.5 15.5t1.5 16v820q0 15 -6 22.5t-14 10.5v10
q15 7 28.5 16.5t22.5 23.5l53 70q6 9 9.5 18.5t0.5 15.5q-1 5 -9 7v8h291v-9z" />
    <glyph glyph-name="backslash" unicode="\" horiz-adv-x="712" 
d="M669 0h-278v25q22 6 29 26q2 8 2 11q0 8 -4 19t-6 18l-295 802q-5 14 -9 22q-11 23 -24 35q-17 16 -33 23v21h275v-22q-18 -6 -22.5 -16t-4.5 -19q0 -18 8 -41q1 -4 5 -10l282 -782q11 -33 20 -46.5t22 -22.5q5 -4 15.5 -9.5t17.5 -8.5v-25z" />
    <glyph glyph-name="bracketright" unicode="]" horiz-adv-x="480" 
d="M444 43q-12 -2 -16 -6q-5 -4 -7 -6q-9 -8 -14 -15l-61 -77q-8 -10 -12 -17t-4 -15q0 -5 1 -8q0 -5 9 -7v-9h-290v7q14 1 24.5 5.5t23.5 13t21 17.5q2 2 11 15l91 120v882l-87 104l-16 21q-13 14 -27 22.5t-22.5 12t-23.5 5.5v9h291v-9q-7 0 -9 -6q-3 -7 -0.5 -14
t10.5 -20l53 -70q9 -14 23 -23q12 -10 28 -17v-10q-9 -4 -14.5 -11.5t-5.5 -22.5v-819q0 -19 10 -32q3 -5 13 -11v-9z" />
    <glyph glyph-name="asciicircum" unicode="^" horiz-adv-x="587" 
d="M556 898l-35 -64l-218 68l-226 -68l-30 64l249 144z" />
    <glyph glyph-name="underscore" unicode="_" horiz-adv-x="939" 
d="M974 -237h-967v46h967v-46z" />
    <glyph glyph-name="grave" unicode="`" horiz-adv-x="419" 
d="M382 836l-46 -48l-190 75q-99 37 -99 112q0 30 21 63q31 47 81 47q29 0 55 -15.5t48 -48.5z" />
    <glyph glyph-name="a" unicode="a" horiz-adv-x="955" 
d="M917 0h-278q-22 0 -35 6.5t-27 26.5q-9 12 -17 36.5t-6 35.5q-37 -60 -111.5 -93t-156.5 -33q-75 0 -135 28t-83 79q-11 23 -16 47.5t-5 46.5q0 112 121.5 195t318.5 113l61 9l-1 50q0 43 -30 71t-56.5 30.5t-35.5 2.5h-14q-106 0 -194 -81q-27 -24 -43 -46t-31 -55
l-29 5l32 266q9 -7 16 -11.5l15.5 -9.5t24.5 -5q27 0 108 21q57 15 76 18q39 7 83.5 12.5t80.5 5.5q57 0 104.5 -12t96.5 -42q40 -26 62.5 -74.5t22.5 -108.5v-357q0 -10 -0.5 -19t-0.5 -17q0 -20 3.5 -34.5t15 -31t24.5 -23.5t39 -14v-38zM551 345v65q-21 12 -100 -27
q-95 -47 -118 -132q-3 -12 -3 -26q0 -37 22 -65t60 -28q15 0 35 6q45 15 74.5 76.5t29.5 130.5z" />
    <glyph glyph-name="b" unicode="b" horiz-adv-x="1033" 
d="M909 112q-62 -66 -144 -91q-68 -21 -175 -21h-539v38q23 0 36.5 5t27 20t18 35.5t4.5 42.5v24v692q0 38 -5 55q-8 26 -32 40q-19 10 -46 10v39l363 22l-4 -259q12 4 74 4q83 0 150 -10q93 -14 146 -45q97 -56 154.5 -160t57.5 -215q0 -65 -21 -122.5t-65 -103.5zM548 100
q70 21 108 94q35 67 35 156q0 105 -44 188q-48 90 -128 112q-17 4 -45.5 6.5t-47.5 2.5h-17v-534q13 -7 26 -13q39 -18 73 -18q19 0 40 6z" />
    <glyph glyph-name="c" unicode="c" horiz-adv-x="886" 
d="M857 248l-105 -271q-7 6 -10 8q-6 5 -16.5 7t-30.5 2t-87 -6t-111 -6q-192 0 -318 123t-126 301q0 169 111 263q89 75 242 99q24 3 52 3q41 0 95 -6q127 -14 132 -14q9 0 17 1.5t14 5.5l20 14l66 -292l-29 -12q-7 27 -28.5 67.5t-43.5 60.5q-59 57 -141 57
q-84 0 -139 -59q-63 -68 -63 -192q0 -89 52 -176q62 -103 156 -115q20 -3 39 -3q75 0 134 40t89 112z" />
    <glyph glyph-name="d" unicode="d" horiz-adv-x="1025" 
d="M988 0h-576q-151 0 -253 97q-106 100 -106 258q0 168 89 269q71 81 199 117q92 26 199 26q51 0 80 -3q6 0 15 -3v97q0 27 -4.5 41.5t-20.5 31.5q-12 13 -35.5 22t-32.5 9v39l374 17v-890q0 -18 2.5 -29t10.5 -25q19 -32 59 -36v-38zM637 141v517q-31 0 -55.5 -2
t-54.5 -11q-78 -24 -123.5 -111t-45.5 -189q0 -91 34 -156q38 -72 110 -94q18 -5 31 -5q36 0 76 29z" />
    <glyph glyph-name="e" unicode="e" horiz-adv-x="941" 
d="M912 468l-544 -106q0 -103 64.5 -179.5t162.5 -76.5q70 0 145 46q89 54 121 142l30 -17l-95 -290q-18 11 -27 15.5t-17 4.5q-4 0 -143 -17q-74 -9 -113 -9q-27 0 -53 3q-167 20 -278 128q-117 113 -117 272q0 169 127.5 280t311.5 111q182 0 284 -81q91 -72 141 -226z
M603 504q1 5 1 16q0 53 -32 95.5t-81 42.5q-12 0 -24 -3q-61 -14 -92 -88q-21 -50 -21 -103q0 -12 1 -13z" />
    <glyph glyph-name="f" unicode="f" horiz-adv-x="670" 
d="M691 1038l-62 -215l-30 14q2 5 2 11v12q0 36 -19 67q-22 36 -56 40q-47 5 -80 -35.5t-33 -108.5v-79h104h13q18 0 37.5 5.5t34.5 15.5l-42 -138q-8 7 -11 9q-5 4 -12 7q-12 6 -23 6h-101v-506q0 -21 2.5 -33t14 -31.5t31.5 -29.5t49 -10v-39h-466v39q31 0 58 25
q16 17 20.5 34t4.5 45v514h-81v38q21 3 36.5 9.5t29.5 19.5q15 81 34 151t61 105q54 45 140 65q68 16 152 16q53 0 94.5 -5t59.5 -10z" />
    <glyph glyph-name="g" unicode="g" horiz-adv-x="1060" 
d="M1017 -41q0 -159 -165 -244q-138 -71 -339 -71q-158 0 -250 22q-117 28 -225 108l152 206l25 -8q0 -9 -0.5 -18t-0.5 -18q0 -29 9 -56q19 -56 89 -86q62 -27 148 -27q80 0 148 24.5t94 67.5q18 29 18 57q0 34 -25.5 55.5t-59.5 21.5l-160 -8q-180 0 -290 79
q-130 94 -130 282q0 171 128.5 289.5t304.5 118.5h508v-34q-33 0 -58.5 -25.5t-25.5 -54.5v-437q0 -35 2.5 -50.5t14.5 -41.5q7 -15 54 -61q34 -33 34 -91zM633 145v516q-31 0 -56 -2t-54 -10q-78 -24 -123.5 -111t-45.5 -189q0 -90 36.5 -159.5t107.5 -91.5q6 -2 14.5 -3
t14.5 -1q38 0 78 29z" />
    <glyph glyph-name="h" unicode="h" horiz-adv-x="1045" 
d="M997 0h-445v39q16 2 28 5t27.5 18t22 30.5t6.5 38.5v371q0 52 -20.5 78t-52.5 26q-51 0 -96 -50q-33 -38 -43 -80t-10 -105v-225q0 -29 8 -51.5t27.5 -39t48.5 -16.5v-39h-428v39q23 8 42 27q13 14 17 31t4 43v23v694q0 38 -5 54q-8 26 -32 40q-19 10 -46 10v42l364 21
l6 -399q8 23 98 77q111 66 202 66q23 0 42 -4q79 -17 117.5 -65.5t38.5 -120.5v-462q0 -19 6.5 -32t22.5 -30q9 -8 20.5 -10.5t29.5 -4.5v-39z" />
    <glyph glyph-name="i" unicode="i" horiz-adv-x="553" 
d="M423 988q0 -60 -40.5 -103.5t-98.5 -43.5q-9 -1 -14 -1q-59 0 -103 38q-47 41 -47 97q0 62 47.5 104.5t112.5 42.5q67 0 105 -37t38 -97zM508 -1h-460v39q20 0 35 6t28.5 20t18 32.5t4.5 40.5q-1 21 -1 29v432q0 36 -5 54q-8 27 -29.5 39t-47.5 12v41l371 19v-615
q0 -45 6 -62.5t19 -28.5t28 -15t33 -4v-39z" />
    <glyph glyph-name="j" unicode="j" horiz-adv-x="463" 
d="M422 980q0 -58 -42.5 -98.5t-100.5 -40.5q-66 0 -113 36q-51 39 -51 99q0 62 47.5 104.5t112.5 42.5q67 0 107 -41t40 -102zM409 -46q0 -88 -32 -152.5t-102 -99.5q-51 -25 -102 -35.5t-107 -10.5q-100 0 -198 34q-76 26 -94 46l122 223l21 -13q-12 -17 -12 -45
q0 -47 25 -85q30 -46 84 -55q14 -2 21 -2q46 0 69 40q20 34 20 84l-3 715v14q0 31 -5 50t-24 31q-11 6 -21 8.5t-25 2.5v41l363 19v-810z" />
    <glyph glyph-name="k" unicode="k" horiz-adv-x="1097" 
d="M1054 0h-502v38q22 0 34.5 4.5t24.5 20t12 42.5q0 28 -14.5 64t-36.5 70l-103 148l-46 -44v-197q0 -30 6.5 -52t24.5 -37q14 -11 27.5 -15t32.5 -4v-38h-460v38q37 0 64 28q10 10 16 26t6 44q-1 20 -1 28v690q0 47 -8.5 65.5t-29.5 30.5t-44 12v39l367 19v-577l193 189
q19 18 22 22q9 12 6 27q-3 17 -28 25t-35 4v35h421v-33q-53 -5 -91.5 -16.5t-88.5 -36.5q-43 -22 -71.5 -42.5t-62.5 -54.5l103 -144q29 -43 76 -137q61 -123 74 -146q41 -72 70 -86q10 -5 22 -7.5t20 -3.5v-38z" />
    <glyph glyph-name="l" unicode="l" horiz-adv-x="545" 
d="M510 0h-460v38q39 0 64 28q13 13 17.5 34t4.5 43v24v687q0 38 -5 55q-8 26 -32 40q-6 3 -19 8t-27 5v39l371 19v-872q0 -33 5 -55t22 -36q12 -10 26 -14.5t33 -4.5v-38z" />
    <glyph glyph-name="m" unicode="m" horiz-adv-x="1500" 
d="M1466 -1h-447v39q29 5 55 28q17 16 22 35t5 51v24v312q0 48 -15 80q-18 39 -53 39t-83 -42q-24 -21 -37.5 -66t-13.5 -94l1 -288q0 -20 6.5 -34t22.5 -29q11 -10 26.5 -12.5t24.5 -3.5v-39h-450v39q11 2 24 5t29 18t23.5 36t7.5 48v344q0 60 -20 89.5t-51 29.5
q-44 0 -88 -50q-26 -30 -37 -85q-7 -37 -7 -82v-19v-224q0 -31 7 -52.5t25 -36.5q8 -6 19.5 -11.5t31.5 -9.5v-38h-442v38q18 4 25.5 8t20.5 16q19 18 26 52q4 20 4 51v433q0 39 -4 55q-7 27 -30 40q-11 6 -21 8.5t-25 2.5v41l322 21q10 -16 16 -29.5t11 -29.5
q15 -51 15 -92q4 12 47 49q54 47 109 76q75 39 140 39q19 0 39 -3q71 -14 104 -55q20 -25 46 -98l32 34q29 32 97 68q89 48 161 48q7 0 16.5 -1t21.5 -3q70 -14 111 -51q45 -41 45 -102v-433q0 -30 3.5 -60t14.5 -43q26 -32 67 -42v-39z" />
    <glyph glyph-name="n" unicode="n" horiz-adv-x="1051" 
d="M1010 0h-455v38q18 3 29 7.5t23 14.5q20 17 28 39t8 51v340q0 60 -19.5 90t-50.5 30q-49 0 -103 -56q-33 -33 -45 -99q-7 -37 -7 -84l-2 -203q0 -33 12 -63t31.5 -46.5t50.5 -20.5v-38h-456v38q21 6 25 8q11 5 21 15q20 19 27 53q4 20 4 53l2 432q0 25 -4 43
q-9 39 -31 52q-11 6 -21 8.5t-25 2.5v41l327 21q9 -16 14.5 -30t11 -30.5t11 -37t5.5 -50.5q6 17 54 57q121 101 251 101q22 0 46 -3q77 -12 119 -73q39 -57 39 -138v-445q0 -38 29 -63q12 -11 22.5 -14t28.5 -3v-38z" />
    <glyph glyph-name="o" unicode="o" horiz-adv-x="994" 
d="M956 381q0 -183 -117 -290q-124 -114 -350 -114q-216 0 -332 108q-109 101 -109 274q0 179 125.5 296.5t328.5 117.5q211 0 335 -112q119 -108 119 -280zM653 381q0 110 -32 182q-41 91 -124 91q-74 0 -110 -86q-28 -67 -28 -170q0 -122 37 -205q44 -98 123 -98
q74 0 108 97q26 74 26 189z" />
    <glyph glyph-name="p" unicode="p" horiz-adv-x="1037" 
d="M1000 361q0 -150 -78 -239q-65 -74 -180 -106q-86 -24 -195 -24q-48 0 -96 6q-15 2 -38 6l-1 -181q0 -29 5.5 -49t23.5 -37q28 -28 64 -28v-37h-472v37q46 0 73 41q11 16 14 28.5t3 33.5v813q0 18 -2.5 29t-10.5 25q-21 34 -59 38v38h576q154 0 265 -122
q108 -119 108 -272zM546 99q73 18 115 94q39 70 39 162q0 101 -45 180q-49 87 -136 110q-27 7 -53 8.5t-54 1.5v-517q18 -16 32 -26q27 -19 61 -19q18 0 41 6z" />
    <glyph glyph-name="q" unicode="q" horiz-adv-x="1048" 
d="M1019 -327h-472v37q35 0 64 27q18 17 23.5 36t5.5 50l-1 181q-22 -4 -38 -6q-48 -6 -97 -6q-112 0 -194 23q-115 32 -179 106q-79 91 -79 241q0 154 107 271q111 122 266 122h576v-37q-38 -6 -59 -38q-7 -11 -10 -26t-3 -29v-813q0 -20 3.5 -33t13.5 -28q26 -41 73 -41
v-37zM640 139v517q-28 0 -53.5 -1.5t-53.5 -9.5q-87 -23 -136 -109q-45 -78 -45 -180q0 -94 39.5 -166t114.5 -91q9 -2 19.5 -3.5t21.5 -1.5q34 0 60 18z" />
    <glyph glyph-name="r" unicode="r" horiz-adv-x="752" 
d="M719 757l-55 -201q-31 20 -50 29q-26 12 -51 12q-24 0 -48.5 -13t-52.5 -41q-24 -25 -38.5 -70t-14.5 -102v-203q0 -33 12 -62.5t31.5 -46.5t50.5 -21v-38h-456v38q21 6 25 8q11 5 21 15q20 19 27 53q4 20 4 53v433q0 34 -8.5 59.5t-27 35.5t-44.5 10v42l326 21
q9 -16 14.5 -30t11 -30.5t11 -37t5.5 -50.5q10 22 44 60q45 50 86 69q52 23 96 23q19 0 38 -4t43 -11z" />
    <glyph glyph-name="s" unicode="s" horiz-adv-x="862" 
d="M820 288q0 -141 -122 -227q-113 -80 -277 -80q-55 0 -132.5 12.5t-155.5 26.5q-18 0 -39 -13q-12 -7 -23 -15l-19 296l28 7q7 -38 25.5 -72t50.5 -63q38 -36 90.5 -55t109.5 -19q64 0 109 26q50 29 64 84q1 4 1 12q0 25 -33 43q-25 13 -66 23l-209 51q-73 17 -119 67
t-46 118q0 131 109 203q96 63 237 63q46 0 106 -8q143 -19 148 -19q9 0 19.5 2.5t23 8.5t19.5 9l10 -220l-26 -4q-15 38 -74 83q-50 39 -102 43q-9 0 -31.5 1t-34.5 1q-44 0 -71 -10.5t-37 -44.5q-2 -8 -2 -11q0 -21 31 -36q20 -9 60 -19l177 -46q94 -25 142 -70
q59 -56 59 -148z" />
    <glyph glyph-name="t" unicode="t" horiz-adv-x="740" 
d="M707 240l-76 -213q-22 -19 -95.5 -38.5t-140.5 -19.5q-44 0 -74 10q-78 28 -116 65q-48 48 -48 124v474h-107v35q28 13 45 25q23 17 41 42q37 51 37 119q0 38 -14 75q67 13 135 38q75 28 141 69v-310h114q24 0 48 4q20 2 48 10l-45 -117l-24 7l-31 3h-106v-423
q0 -31 17 -53t48 -39q14 -8 31 -8q32 0 66.5 24.5t50.5 58.5l24 52z" />
    <glyph glyph-name="u" unicode="u" horiz-adv-x="1046" 
d="M1008 0l-349 -1q-13 34 -17.5 58t-4.5 43q0 14 3 34q-4 -12 -48 -47q-53 -42 -116 -70q-83 -37 -158 -37q-23 0 -47 3q-76 13 -111 78q-29 54 -29 140v423q0 38 -27.5 61t-54.5 23v36l369 24v-468q0 -68 14 -105q18 -47 56 -47q29 0 68 28q48 34 70 115q15 56 15 112v195
q0 22 -11.5 48t-32 43t-53.5 20v38l378 23l1 -625q0 -31 6.5 -51t22 -32.5t27 -18t29.5 -5.5v-38z" />
    <glyph glyph-name="v" unicode="v" horiz-adv-x="988" 
d="M948 717q-19 -5 -31.5 -10.5t-27.5 -17.5q-23 -19 -37 -44q-4 -7 -24 -57l-186 -464l-7 -17q-7 -17 -7 -28t7 -23.5t26 -17.5v-39h-346v39q11 0 19.5 4.5t14 13.5t5.5 18q0 5 -3.5 16l-5.5 17l-197 534q-13 34 -37 53t-55 23v39h463v-40q-37 5 -58 -25q-10 -14 -10 -32
q0 -8 1 -13q1 -6 7 -25l116 -382l141 363q7 17 10.5 32.5t3.5 29.5q0 15 -6 26q-13 24 -47 27v39h271v-39z" />
    <glyph glyph-name="w" unicode="w" horiz-adv-x="1328" 
d="M1291 714q-22 -4 -31.5 -7.5t-27 -18t-37.5 -59.5q-7 -16 -16 -43l-135 -437q-11 -31 -15.5 -46t-4.5 -26q0 -9 3 -20t24 -19v-39l-315 1v38l11 7q10 7 10 19q0 6 -4 17.5l-9 26.5l-74 254l-84 -243q-3 -9 -9 -25t-6 -24q0 -10 5.5 -20t19.5 -12v-38h-326v38q14 5 21 18
q4 7 4 15t-1 12l-8 23l-123 504q-8 35 -17 52q-12 23 -38 38.5t-60 15.5v39h464v-40q-30 0 -51 -25q-12 -15 -12 -36q0 -5 2 -16t3 -19l73 -381l184 518h113l151 -516l92 360q4 17 9 35.5t5 30.5q0 13 -6 22q-16 26 -47 26v42h263v-42z" />
    <glyph glyph-name="x" unicode="x" horiz-adv-x="1024" 
d="M981 -1h-469l1 39q25 -3 37 13q7 8 7 20q0 10 -4.5 20t-14.5 26l-106 167l-127 -163q-4 -5 -9.5 -19t-5.5 -24q0 -11 6 -19q16 -21 35 -21v-38h-282v38q26 7 53 23q17 9 45 35l24 22l202 258l-159 257q-15 21 -25 31q-30 32 -54 42l-16.5 6t-15.5 3v41h470v-45
q-17 4 -37 -8q-15 -9 -17 -23q-2 -24 13 -47l67 -105l76 95q9 12 15.5 27t6.5 25q0 4 -2 10q-5 12 -20 19t-24 7v45h285v-45q-37 -6 -72 -26q-23 -13 -45 -36q-2 -3 -27 -32l-139 -179l233 -338q10 -13 22 -24.5t25 -22.5q8 -8 20 -10.5t28 -4.5v-39z" />
    <glyph glyph-name="y" unicode="y" horiz-adv-x="986" 
d="M952 715q-22 -5 -35.5 -11t-28.5 -18q-20 -17 -40.5 -48.5t-32.5 -62.5l-311 -707q-36 -81 -86 -126q-55 -49 -136 -61q-21 -3 -43 -3q-50 0 -95.5 15t-86.5 49l92 202l32 -11q-1 -21 -1 -30q0 -18 3.5 -31t13.5 -26q24 -30 66 -30q55 0 97 44q48 50 48 130
q0 32 -8.5 68.5t-26.5 76.5l-223 490q-9 19 -17 39q-10 19 -25.5 29.5t-30 14.5t-33.5 4v42h491v-44q-1 1 -14 1q-16 0 -31.5 -4.5t-22 -17.5t-6.5 -29q0 -10 2.5 -18.5t8.5 -26.5l115 -311l108 280q6 15 11 36t5 36t-2.5 23.5t-10.5 17.5t-23.5 12.5t-28.5 3.5v41h306v-39z
" />
    <glyph glyph-name="z" unicode="z" horiz-adv-x="871" 
d="M837 756l-407 -650q4 -1 36 -4.5t61 -3.5q43 0 74.5 4.5t60.5 18.5q56 27 89 59t60 88l25 -10l-88 -287q-5 11 -17 18q-16 11 -40 11h-650l405 648q-20 6 -54 6q-48 0 -95.5 -13t-82.5 -43q-26 -21 -44.5 -49t-28.5 -55l-24 10l63 275q7 -10 20 -16.5t30 -6.5h607z" />
    <glyph glyph-name="braceleft" unicode="{" horiz-adv-x="384" 
d="M361 1007q-26 -7 -42 -17t-30.5 -30t-20 -40.5t-5.5 -48.5v-290q0 -34 -8 -57.5t-25 -40t-38 -29.5t-35 -16q12 -3 33 -15t35 -27.5t21 -37.5t7 -37l-1 -322q0 -32 4.5 -50.5t21.5 -41.5q27 -37 75 -48h-65q-19 0 -55 10.5t-56 23.5q-34 22 -43 45.5t-9 86.5v264
q0 35 -3 51.5t-16 39.5q-25 42 -71 59q14 4 35 18q29 19 42 40.5t16.5 38t3.5 46.5v266q0 44 13 74t45 55q39 30 81 30h90z" />
    <glyph glyph-name="bar" unicode="|" horiz-adv-x="170" 
d="M133 -328h-90v1331h90v-1331z" />
    <glyph glyph-name="braceright" unicode="}" horiz-adv-x="386" 
d="M353 436q-47 -18 -71 -60q-12 -20 -15.5 -40t-3.5 -51v-263q0 -64 -8.5 -87t-43.5 -46q-21 -14 -55 -23.5t-56 -9.5h-65q46 10 74 48q15 19 20.5 41t5.5 51v321q0 16 6 37.5t21 37t34.5 27.5t33.5 15q-14 3 -34 15.5t-35 27t-22 29.5q-14 29 -14 71v291q0 27 -5 47
t-20 41q-28 37 -73 48h89q44 0 82 -31q31 -23 44 -54.5t13 -73.5v-267q0 -29 3.5 -45.5t16.5 -37t42 -40.5q23 -16 36 -19z" />
    <glyph glyph-name="asciitilde" unicode="~" horiz-adv-x="874" 
d="M815 946l-65 -84q-28 -36 -71 -55.5t-88 -19.5q-39 0 -81 17l-50 21l-122 47q-24 8 -42 8q-24 0 -51 -12q-20 -9 -35 -26q-8 -9 -27 -37l-27 -37l-90 62l45 63q23 32 46 51.5t58 34.5q42 16 80 16q42 0 94 -20l112 -43q43 -16 49 -18q24 -7 51 -7q40 0 68 36l49 63z" />
    <glyph glyph-name="Adieresis" unicode="&#xc4;" horiz-adv-x="1216" 
d="M1185 -3h-518v39q26 5 39 12q40 24 40 78q0 18 -2 28q-7 47 -59 105q-56 63 -125 94q-27 12 -79.5 21.5t-86.5 9.5l-71 -203q-13 -36 -13 -79q0 -21 5 -29q12 -18 27 -26.5t34 -11.5v-37h-332v38q20 6 30 12.5t30 23.5q26 21 39 39.5t25 51.5l277 711q5 12 9 24t4 22
q0 14 -6.5 23.5t-13 12.5t-13.5 5v38h443v-44q-24 0 -33 -17q-4 -8 -4 -16t3 -18q1 -2 7 -20l260 -781l11 -19q13 -21 25 -29.5t22 -12t26 -6.5v-39zM652 439l-112 354l-96 -281q12 0 30 -1t53 -11t76 -31q30 -16 49 -30zM895 1171q0 -47 -30.5 -80.5t-79.5 -33.5
t-86.5 33.5t-37.5 82.5t34 84t84 35q54 0 85 -35t31 -86zM610 1171q0 -47 -30.5 -80.5t-78.5 -33.5q-51 0 -87.5 33t-36.5 83q0 49 34 84t84 35q55 0 85 -34.5t30 -86.5z" />
    <glyph glyph-name="Aring" unicode="&#xc5;" horiz-adv-x="1226" 
d="M774 1194q0 -55 -38.5 -93.5t-93.5 -38.5t-93.5 38.5t-38.5 93.5t38.5 93.5t93.5 38.5t93.5 -38.5t38.5 -93.5zM705 1194q0 27 -18 45t-45 18t-45 -18t-18 -45t18 -45t45 -18t45 18t18 45zM1194 -3h-518v39q26 5 39 12q40 24 40 78q0 18 -2 28q-7 47 -59 105
q-56 63 -125 94q-27 12 -79.5 21.5t-86.5 9.5l-71 -203q-13 -36 -13 -79q0 -21 5 -29q12 -18 27 -26.5t34 -11.5v-37h-332v38q20 6 30 12.5t30 23.5q26 21 39 39.5t25 51.5l277 711q5 12 9 24t4 22q0 14 -6.5 23.5t-13 12.5t-13.5 5v38h443v-44q-24 0 -33 -17q-4 -8 -4 -16
t3 -18q1 -2 7 -20l260 -781l11 -19q13 -21 25 -29.5t22 -12t26 -6.5v-39zM661 439l-112 354l-96 -281q12 0 30 -1t53 -11t76 -31q30 -16 49 -30z" />
    <glyph glyph-name="Ccedilla" unicode="&#xc7;" horiz-adv-x="1119" 
d="M1091 300l-119 -331l-13 13q-8 8 -15 10q-3 1 -13 1q-12 0 -58 -5t-72 -5l-116 -8l-89 -52q-9 -5 -6 -11q3 -5 34 3.5t40 8.5q58 0 89 -34q28 -31 28 -76q0 -88 -82 -135l-203 -57l-20 -15l-50 119q1 -3 22.5 -10t46.5 -7q23 0 45 6.5t44 24.5q17 14 25.5 29.5t8.5 30.5
q0 24 -17 40t-44 16q-20 0 -40 -9.5t-49 -32.5q-9 -7 -24 -21l5 141q14 -6 25 -6h11q7 0 10 2l89 48l-83 14q-212 49 -330.5 190.5t-118.5 344.5q0 232 150.5 366.5t409.5 134.5q43 0 103 -10q132 -22 153 -22q26 0 46 7q9 3 16.5 8t27.5 22l80 -422l-30 -16q0 35 -44 104
q-51 80 -118 132q-84 65 -170 65q-148 0 -228 -107q-70 -94 -70 -240q0 -138 69 -257q80 -137 215 -169q55 -13 105 -13q100 0 174 54q66 49 118 147z" />
    <glyph glyph-name="Eacute" unicode="&#xc9;" horiz-adv-x="1057" 
d="M1028 362l-130 -383l-34 10q-17 5 -38 7t-44 2h-729v38q30 5 38.5 9.5t20.5 17.5q16 19 20.5 38.5t4.5 50.5v710v11q0 26 -2.5 39.5t-14.5 27t-24 17t-34 3.5v39h660q5 -1 18 -1q37 0 85 8q25 4 27 4q10 2 27 9l73 -338l-33 -25q-23 99 -101 168q-45 39 -107 59t-122 20
q-67 0 -99 -24q-21 -16 -29.5 -39t-8.5 -54v-109h141q20 0 38.5 5.5t35.5 19.5q34 30 34 73q0 10 -1 15l30 9l67 -381l-38 -6q-4 20 -20 51q-20 38 -45 60t-57 35.5t-54 13.5h-128v-286v-24v-16q0 -33 5 -56t23 -48t51 -37.5t76 -12.5q47 0 96.5 14t90.5 37q61 35 117 99
q63 71 80 137zM647 1310q21 -33 21 -63q0 -73 -99 -112l-190 -74l-46 47l130 186q44 63 103 63q49 0 81 -47z" />
    <glyph glyph-name="Ntilde" unicode="&#xd1;" horiz-adv-x="1065" 
d="M1016 960l-24 -4q-18 -5 -33 -24q-18 -23 -22.5 -56.5t-4.5 -61.5v-666q0 -16 3 -37.5t12.5 -37.5t27 -25.5t38.5 -11.5v-39h-302v39q13 0 26 4q49 16 49 82q0 44 -21 83q-14 27 -54 74l-460 540l-1 -670q0 -25 3.5 -42.5t12 -33.5t23.5 -24.5t39 -12.5v-39h-291v39
q19 2 26 3.5t19 8.5q21 13 30 53.5t9 91.5v613v25q0 32 -4 61t-14 40q-21 23 -58 28v39h572v-39q-10 0 -17.5 -5.5t-14.5 -15t-7 -19.5q0 -14 9 -31q4 -8 14 -21l201 -252l-1 226v12q0 27 -3 41t-15 30.5t-28.5 24t-40.5 10.5v39h302v-39zM893 1242l-65 -84
q-28 -36 -71 -55.5t-88 -19.5q-39 0 -81 17l-50 21l-122 47q-24 8 -42 8q-24 0 -51 -12q-20 -9 -35 -26q-8 -9 -27 -37l-27 -37l-90 62l45 63q23 32 46 51.5t58 34.5q42 16 80 16q42 0 94 -20l112 -43q43 -16 49 -18q24 -7 51 -7q40 0 68 36l49 63z" />
    <glyph glyph-name="Odieresis" unicode="&#xd6;" horiz-adv-x="1191" 
d="M1150 490q0 -232 -142 -371q-149 -146 -410 -146q-249 0 -403 149.5t-154 375.5q0 227 161 379q157 148 383 148q241 0 392 -123q173 -141 173 -412zM819 507q0 141 -59 256q-68 132 -173 132q-87 0 -150.5 -120.5t-63.5 -263.5q0 -146 61 -269q69 -139 170 -139
q116 0 171 133q44 106 44 271zM881 1181q0 -47 -30.5 -80.5t-79.5 -33.5t-86.5 33.5t-37.5 82.5t34 84t84 35q54 0 85 -35t31 -86zM596 1181q0 -47 -30.5 -80.5t-78.5 -33.5q-51 0 -87.5 33t-36.5 83q0 49 34 84t84 35q55 0 85 -34.5t30 -86.5z" />
    <glyph glyph-name="Udieresis" unicode="&#xdc;" horiz-adv-x="1113" 
d="M1077 974q-31 -4 -53 -32q-18 -22 -24 -59t-6 -72v-13v-4v-485q0 -137 -105 -228q-99 -86 -251 -100q-20 -1 -37.5 -2.5t-41.5 -1.5q-183 0 -300 72q-130 80 -130 226v600q0 29 -3 42.5t-16 28.5q-25 28 -58 28v39h487v-39q-19 0 -35 -7.5t-33 -23.5t-24 -34.5t-7 -45.5
v-592q0 -72 69 -116q61 -39 146 -39q83 0 146.5 51.5t63.5 128.5v474v53q0 49 -6 79t-26 48q-27 24 -63 24v39h307v-39zM863 1175q0 -47 -30.5 -80.5t-79.5 -33.5t-86.5 33.5t-37.5 82.5t34 84t84 35q54 0 85 -35t31 -86zM578 1175q0 -47 -30.5 -80.5t-78.5 -33.5
q-51 0 -87.5 33t-36.5 83q0 49 34 84t84 35q55 0 85 -34.5t30 -86.5z" />
    <glyph glyph-name="aacute" unicode="&#xe1;" horiz-adv-x="957" 
d="M917 7h-278q-22 0 -35 6.5t-27 26.5q-9 12 -17 36.5t-6 35.5q-37 -60 -111.5 -93t-156.5 -33q-75 0 -135 28t-83 79q-11 23 -16 47.5t-5 46.5q0 112 121.5 195t318.5 113l61 9l-1 50q0 43 -30 71t-56.5 30.5t-35.5 2.5h-14q-106 0 -194 -81q-27 -24 -43 -46t-31 -55
l-29 5l32 266q9 -7 16 -11.5l15.5 -9.5t24.5 -5q27 0 108 21q57 15 76 18q39 7 83.5 12.5t80.5 5.5q57 0 104.5 -12t96.5 -42q40 -26 62.5 -74.5t22.5 -108.5v-357q0 -10 -0.5 -19t-0.5 -17q0 -20 3.5 -34.5t15 -31t24.5 -23.5t39 -14v-38zM551 352v65q-21 12 -100 -27
q-95 -47 -118 -132q-3 -12 -3 -26q0 -37 22 -65t60 -28q15 0 35 6q45 15 74.5 76.5t29.5 130.5zM671 1106q21 -33 21 -63q0 -73 -99 -112l-190 -74l-46 47l130 186q44 63 103 63q49 0 81 -47z" />
    <glyph glyph-name="agrave" unicode="&#xe0;" horiz-adv-x="953" 
d="M917 7h-278q-22 0 -35 6.5t-27 26.5q-9 12 -17 36.5t-6 35.5q-37 -60 -111.5 -93t-156.5 -33q-75 0 -135 28t-83 79q-11 23 -16 47.5t-5 46.5q0 112 121.5 195t318.5 113l61 9l-1 50q0 43 -30 71t-56.5 30.5t-35.5 2.5h-14q-106 0 -194 -81q-27 -24 -43 -46t-31 -55
l-29 5l32 266q9 -7 16 -11.5l15.5 -9.5t24.5 -5q27 0 108 21q57 15 76 18q39 7 83.5 12.5t80.5 5.5q57 0 104.5 -12t96.5 -42q40 -26 62.5 -74.5t22.5 -108.5v-357q0 -10 -0.5 -19t-0.5 -17q0 -20 3.5 -34.5t15 -31t24.5 -23.5t39 -14v-38zM551 352v65q-21 12 -100 -27
q-95 -47 -118 -132q-3 -12 -3 -26q0 -37 22 -65t60 -28q15 0 35 6q45 15 74.5 76.5t29.5 130.5zM689 911l-46 -48l-190 75q-99 37 -99 112q0 30 21 63q31 47 81 47q29 0 55 -15.5t48 -48.5z" />
    <glyph glyph-name="acircumflex" unicode="&#xe2;" horiz-adv-x="962" 
d="M931 7h-278q-22 0 -35 6.5t-27 26.5q-9 12 -17 36.5t-6 35.5q-37 -60 -111.5 -93t-156.5 -33q-75 0 -135 28t-83 79q-11 23 -16 47.5t-5 46.5q0 112 121.5 195t318.5 113l61 9l-1 50q0 43 -30 71t-56.5 30.5t-35.5 2.5h-14q-106 0 -194 -81q-27 -24 -43 -46t-31 -55
l-29 5l32 266q9 -7 16 -11.5l15.5 -9.5t24.5 -5q27 0 108 21q57 15 76 18q39 7 83.5 12.5t80.5 5.5q57 0 104.5 -12t96.5 -42q40 -26 62.5 -74.5t22.5 -108.5v-357q0 -10 -0.5 -19t-0.5 -17q0 -20 3.5 -34.5t15 -31t24.5 -23.5t39 -14v-38zM565 352v65q-21 12 -100 -27
q-95 -47 -118 -132q-3 -12 -3 -26q0 -37 22 -65t60 -28q15 0 35 6q45 15 74.5 76.5t29.5 130.5zM753 919l-35 -64l-218 68l-226 -68l-30 64l249 144z" />
    <glyph glyph-name="adieresis" unicode="&#xe4;" horiz-adv-x="961" 
d="M763 972q0 -47 -30.5 -80.5t-79.5 -33.5t-86.5 33.5t-37.5 82.5t34 84t84 35q54 0 85 -35t31 -86zM478 972q0 -47 -30.5 -80.5t-78.5 -33.5q-51 0 -87.5 33t-36.5 83q0 49 34 84t84 35q55 0 85 -34.5t30 -86.5zM926 7h-278q-22 0 -35 6.5t-27 26.5q-9 12 -17 36.5
t-6 35.5q-37 -60 -111.5 -93t-156.5 -33q-75 0 -135 28t-83 79q-11 23 -16 47.5t-5 46.5q0 112 121.5 195t318.5 113l61 9l-1 50q0 43 -30 71t-56.5 30.5t-35.5 2.5h-14q-106 0 -194 -81q-27 -24 -43 -46t-31 -55l-29 5l32 266q9 -7 16 -11.5l15.5 -9.5t24.5 -5q27 0 108 21
q57 15 76 18q39 7 83.5 12.5t80.5 5.5q57 0 104.5 -12t96.5 -42q40 -26 62.5 -74.5t22.5 -108.5v-357q0 -10 -0.5 -19t-0.5 -17q0 -20 3.5 -34.5t15 -31t24.5 -23.5t39 -14v-38zM560 352v65q-21 12 -100 -27q-95 -47 -118 -132q-3 -12 -3 -26q0 -37 22 -65t60 -28q15 0 35 6
q45 15 74.5 76.5t29.5 130.5z" />
    <glyph glyph-name="atilde" unicode="&#xe3;" horiz-adv-x="952" 
d="M917 7h-278q-22 0 -35 6.5t-27 26.5q-9 12 -17 36.5t-6 35.5q-37 -60 -111.5 -93t-156.5 -33q-75 0 -135 28t-83 79q-11 23 -16 47.5t-5 46.5q0 112 121.5 195t318.5 113l61 9l-1 50q0 43 -30 71t-56.5 30.5t-35.5 2.5h-14q-106 0 -194 -81q-27 -24 -43 -46t-31 -55
l-29 5l32 266q9 -7 16 -11.5l15.5 -9.5t24.5 -5q27 0 108 21q57 15 76 18q39 7 83.5 12.5t80.5 5.5q57 0 104.5 -12t96.5 -42q40 -26 62.5 -74.5t22.5 -108.5v-357q0 -10 -0.5 -19t-0.5 -17q0 -20 3.5 -34.5t15 -31t24.5 -23.5t39 -14v-38zM551 352v65q-21 12 -100 -27
q-95 -47 -118 -132q-3 -12 -3 -26q0 -37 22 -65t60 -28q15 0 35 6q45 15 74.5 76.5t29.5 130.5zM854 1034l-65 -84q-28 -36 -71 -55.5t-88 -19.5q-39 0 -81 17l-50 21l-122 47q-24 8 -42 8q-24 0 -51 -12q-20 -9 -35 -26q-8 -9 -27 -37l-27 -37l-90 62l45 63q23 32 46 51.5
t58 34.5q42 16 80 16q42 0 94 -20l112 -43q43 -16 49 -18q24 -7 51 -7q40 0 68 36l49 63z" />
    <glyph glyph-name="aring" unicode="&#xe5;" horiz-adv-x="958" 
d="M636 978q0 -55 -38.5 -93.5t-93.5 -38.5t-93.5 38.5t-38.5 93.5t38.5 93.5t93.5 38.5t93.5 -38.5t38.5 -93.5zM567 978q0 27 -18 45t-45 18t-45 -18t-18 -45t18 -45t45 -18t45 18t18 45zM915 7h-278q-22 0 -35 6.5t-27 26.5q-9 12 -17 36.5t-6 35.5q-37 -60 -111.5 -93
t-156.5 -33q-75 0 -135 28t-83 79q-11 23 -16 47.5t-5 46.5q0 112 121.5 195t318.5 113l61 9l-1 50q0 43 -30 71t-56.5 30.5t-35.5 2.5h-14q-106 0 -194 -81q-27 -24 -43 -46t-31 -55l-29 5l32 266q9 -7 16 -11.5l15.5 -9.5t24.5 -5q27 0 108 21q57 15 76 18q39 7 83.5 12.5
t80.5 5.5q57 0 104.5 -12t96.5 -42q40 -26 62.5 -74.5t22.5 -108.5v-357q0 -10 -0.5 -19t-0.5 -17q0 -20 3.5 -34.5t15 -31t24.5 -23.5t39 -14v-38zM549 352v65q-21 12 -100 -27q-95 -47 -118 -132q-3 -12 -3 -26q0 -37 22 -65t60 -28q15 0 35 6q45 15 74.5 76.5t29.5 130.5
z" />
    <glyph glyph-name="ccedilla" unicode="&#xe7;" horiz-adv-x="893" 
d="M857 248l-105 -271q-7 6 -10 8q-6 5 -17.5 7t-28.5 2q-18 0 -45 -3q-64 -7 -87 -7l-71 -2l-87 -47q-10 -5 -11 -6q-2 -2 0 -4t32 4.5t41 6.5q58 0 90 -34q28 -30 28 -75q0 -88 -82 -135l-204 -58l-19 -14l-50 119q1 -2 11 -6q26 -11 55 -11q24 0 46.5 6.5t44 23
t32.5 33.5t11 31q0 22 -19.5 37.5t-47.5 15.5q-18 0 -39.5 -9.5t-50.5 -30.5l-25 -20l1 137q15 -5 29 -5h11q7 0 10 2l98 50l-14 3q-129 29 -222 130q-109 118 -109 280q0 169 111 263q89 75 242 99q24 3 52 3q41 0 95 -6q127 -14 132 -14q9 0 17 1.5t14 5.5l20 14l66 -292
l-29 -12q-7 27 -28.5 67.5t-43.5 60.5q-59 57 -141 57q-84 0 -139 -59q-63 -68 -63 -192q0 -89 52 -176q62 -103 156 -115q20 -3 39 -3q75 0 134 40t89 112z" />
    <glyph glyph-name="eacute" unicode="&#xe9;" horiz-adv-x="937" 
d="M912 466l-544 -106q0 -103 64.5 -179.5t162.5 -76.5q70 0 145 46q89 54 121 142l30 -17l-95 -290q-18 11 -27 15.5t-17 4.5q-4 0 -143 -17q-74 -9 -113 -9q-27 0 -53 3q-167 20 -278 128q-117 113 -117 272q0 169 127.5 280t311.5 111q182 0 284 -81q91 -72 141 -226z
M603 502q1 5 1 16q0 53 -32 95.5t-81 42.5q-12 0 -24 -3q-61 -14 -92 -88q-21 -50 -21 -103q0 -12 1 -13zM650 1103q21 -33 21 -63q0 -73 -99 -112l-190 -74l-46 47l130 186q44 63 103 63q49 0 81 -47z" />
    <glyph glyph-name="egrave" unicode="&#xe8;" horiz-adv-x="934" 
d="M912 475l-544 -106q0 -103 64.5 -179.5t162.5 -76.5q70 0 145 46q89 54 121 142l30 -17l-95 -290q-18 11 -27 15.5t-17 4.5q-4 0 -143 -17q-74 -9 -113 -9q-27 0 -53 3q-167 20 -278 128q-117 113 -117 272q0 169 127.5 280t311.5 111q182 0 284 -81q91 -72 141 -226z
M603 511q1 5 1 16q0 53 -32 95.5t-81 42.5q-12 0 -24 -3q-61 -14 -92 -88q-21 -50 -21 -103q0 -12 1 -13zM712 901l-46 -48l-190 75q-99 37 -99 112q0 30 21 63q31 47 81 47q29 0 55 -15.5t48 -48.5z" />
    <glyph glyph-name="ecircumflex" unicode="&#xea;" horiz-adv-x="939" 
d="M912 466l-544 -106q0 -103 64.5 -179.5t162.5 -76.5q70 0 145 46q89 54 121 142l30 -17l-95 -290q-18 11 -27 15.5t-17 4.5q-4 0 -143 -17q-74 -9 -113 -9q-27 0 -53 3q-167 20 -278 128q-117 113 -117 272q0 169 127.5 280t311.5 111q182 0 284 -81q91 -72 141 -226z
M603 502q1 5 1 16q0 53 -32 95.5t-81 42.5q-12 0 -24 -3q-61 -14 -92 -88q-21 -50 -21 -103q0 -12 1 -13zM779 923l-35 -64l-218 68l-226 -68l-30 64l249 144z" />
    <glyph glyph-name="edieresis" unicode="&#xeb;" horiz-adv-x="934" 
d="M912 457l-544 -106q0 -103 64.5 -179.5t162.5 -76.5q70 0 145 46q89 54 121 142l30 -17l-95 -290q-18 11 -27 15.5t-17 4.5q-4 0 -143 -17q-74 -9 -113 -9q-27 0 -53 3q-167 20 -278 128q-117 113 -117 272q0 169 127.5 280t311.5 111q182 0 284 -81q91 -72 141 -226z
M603 493q1 5 1 16q0 53 -32 95.5t-81 42.5q-12 0 -24 -3q-61 -14 -92 -88q-21 -50 -21 -103q0 -12 1 -13zM759 967q0 -47 -30.5 -80.5t-79.5 -33.5t-86.5 33.5t-37.5 82.5t34 84t84 35q54 0 85 -35t31 -86zM474 967q0 -47 -30.5 -80.5t-78.5 -33.5q-51 0 -87.5 33t-36.5 83
q0 49 34 84t84 35q55 0 85 -34.5t30 -86.5z" />
    <glyph glyph-name="iacute" unicode="&#xed;" horiz-adv-x="547" 
d="M509 -1h-460v36q35 0 64 30q13 13 17.5 31.5t4.5 40.5q-1 21 -1 29v432q0 36 -5 54q-8 27 -29.5 39t-47.5 12v41l371 19v-615q0 -45 6 -62.5t20 -29t28 -17.5t32 -6v-34zM438 1102q21 -33 21 -63q0 -73 -99 -112l-190 -74l-46 47l130 186q44 63 103 63q49 0 81 -47z" />
    <glyph glyph-name="igrave" unicode="&#xec;" horiz-adv-x="542" 
d="M509 -4h-460v35q19 0 34 7.5t29 22t18.5 33t4.5 40.5q-1 20 -1 28v432q0 37 -6 59t-28 34.5t-48 12.5v41l371 19v-616q0 -45 6 -62.5t19.5 -28.5t29 -17t31.5 -6v-34zM430 907l-46 -48l-190 75q-99 37 -99 112q0 30 21 63q31 47 81 47q29 0 55 -15.5t48 -48.5z" />
    <glyph glyph-name="icircumflex" unicode="&#xee;" horiz-adv-x="570" 
d="M536 -1h-460v36q35 0 64 30q13 13 17.5 31.5t4.5 40.5q-1 21 -1 29v432q0 36 -5 54q-8 27 -29.5 39t-47.5 12v41l371 19v-615q0 -45 6 -62.5t20 -29t28 -17.5t32 -6v-34zM542 923l-35 -64l-218 68l-226 -68l-30 64l249 144z" />
    <glyph glyph-name="idieresis" unicode="&#xef;" horiz-adv-x="605" 
d="M554 -1h-460v36q36 0 65 30q13 15 17 33t4 44v24v432q0 38 -5 54q-8 27 -32 40q-11 6 -21 8.5t-24 2.5v41l370 19v-615q0 -46 6 -62.5t21 -29.5q29 -23 59 -23v-34zM560 971q0 -47 -30.5 -80.5t-79.5 -33.5t-86.5 33.5t-37.5 82.5t34 84t84 35q54 0 85 -35t31 -86z
M275 971q0 -47 -30.5 -80.5t-78.5 -33.5q-51 0 -87.5 33t-36.5 83q0 49 34 84t84 35q55 0 85 -34.5t30 -86.5z" />
    <glyph glyph-name="ntilde" unicode="&#xf1;" horiz-adv-x="1036" 
d="M1010 -2h-455v38q18 3 29 7.5t23 14.5q20 17 28 39t8 51v340q0 60 -19.5 90t-50.5 30q-49 0 -103 -56q-33 -33 -45 -99q-7 -37 -7 -84l-2 -203q0 -33 12 -63t31.5 -46.5t50.5 -20.5v-38h-456v38q21 6 25 8q11 5 21 15q20 19 27 53q4 20 4 53l2 432q0 25 -4 43
q-9 39 -31 52q-11 6 -21 8.5t-25 2.5v41l327 21q9 -16 14.5 -30t11 -30.5t11 -37t5.5 -50.5q6 17 54 57q121 101 251 101q22 0 46 -3q77 -12 119 -73q39 -57 39 -138v-445q0 -38 29 -63q12 -11 22.5 -14t28.5 -3v-38zM895 1031l-65 -84q-28 -36 -71 -55.5t-88 -19.5
q-39 0 -81 17l-50 21l-122 47q-24 8 -42 8q-24 0 -51 -12q-20 -9 -35 -26q-8 -9 -27 -37l-27 -37l-90 62l45 63q23 32 46 51.5t58 34.5q42 16 80 16q42 0 94 -20l112 -43q43 -16 49 -18q24 -7 51 -7q40 0 68 36l49 63z" />
    <glyph glyph-name="oacute" unicode="&#xf3;" horiz-adv-x="996" 
d="M956 388q0 -183 -117 -290q-124 -114 -350 -114q-216 0 -332 108q-109 101 -109 274q0 179 125.5 296.5t328.5 117.5q211 0 335 -112q119 -108 119 -280zM653 388q0 110 -32 182q-41 91 -124 91q-74 0 -110 -86q-28 -67 -28 -170q0 -122 37 -205q44 -98 123 -98
q74 0 108 97q26 74 26 189zM645 1107q21 -33 21 -63q0 -73 -99 -112l-190 -74l-46 47l130 186q44 63 103 63q49 0 81 -47z" />
    <glyph glyph-name="ograve" unicode="&#xf2;" horiz-adv-x="990" 
d="M956 397q0 -183 -117 -290q-124 -114 -350 -114q-216 0 -332 108q-109 101 -109 274q0 179 125.5 296.5t328.5 117.5q211 0 335 -112q119 -108 119 -280zM653 397q0 110 -32 182q-41 91 -124 91q-74 0 -110 -86q-28 -67 -28 -170q0 -122 37 -205q44 -98 123 -98
q74 0 108 97q26 74 26 189zM657 903l-46 -48l-190 75q-99 37 -99 112q0 30 21 63q31 47 81 47q29 0 55 -15.5t48 -48.5z" />
    <glyph glyph-name="ocircumflex" unicode="&#xf4;" horiz-adv-x="990" 
d="M956 379q0 -183 -117 -290q-124 -114 -350 -114q-216 0 -332 108q-109 101 -109 274q0 179 125.5 296.5t328.5 117.5q211 0 335 -112q119 -108 119 -280zM653 379q0 110 -32 182q-41 91 -124 91q-74 0 -110 -86q-28 -67 -28 -170q0 -122 37 -205q44 -98 123 -98
q74 0 108 97q26 74 26 189zM750 919l-35 -64l-218 68l-226 -68l-30 64l249 144z" />
    <glyph glyph-name="odieresis" unicode="&#xf6;" horiz-adv-x="994" 
d="M956 388q0 -183 -117 -290q-124 -114 -350 -114q-216 0 -332 108q-109 101 -109 274q0 179 125.5 296.5t328.5 117.5q211 0 335 -112q119 -108 119 -280zM653 388q0 110 -32 182q-41 91 -124 91q-74 0 -110 -86q-28 -67 -28 -170q0 -122 37 -205q44 -98 123 -98
q74 0 108 97q26 74 26 189zM763 967q0 -47 -30.5 -80.5t-79.5 -33.5t-86.5 33.5t-37.5 82.5t34 84t84 35q54 0 85 -35t31 -86zM478 967q0 -47 -30.5 -80.5t-78.5 -33.5q-51 0 -87.5 33t-36.5 83q0 49 34 84t84 35q55 0 85 -34.5t30 -86.5z" />
    <glyph glyph-name="otilde" unicode="&#xf5;" horiz-adv-x="981" 
d="M947 388q0 -183 -117 -290q-124 -114 -350 -114q-216 0 -332 108q-109 101 -109 274q0 179 125.5 296.5t328.5 117.5q211 0 335 -112q119 -108 119 -280zM644 388q0 110 -32 182q-41 91 -124 91q-74 0 -110 -86q-28 -67 -28 -170q0 -122 37 -205q44 -98 123 -98
q74 0 108 97q26 74 26 189zM880 1031l-65 -84q-28 -36 -71 -55.5t-88 -19.5q-39 0 -81 17l-50 21l-122 47q-24 8 -42 8q-24 0 -51 -12q-20 -9 -35 -26q-8 -9 -27 -37l-27 -37l-90 62l45 63q23 32 46 51.5t58 34.5q42 16 80 16q42 0 94 -20l112 -43q43 -16 49 -18
q24 -7 51 -7q40 0 68 36l49 63z" />
    <glyph glyph-name="uacute" unicode="&#xfa;" horiz-adv-x="1035" 
d="M1008 -2l-349 -1q-13 34 -17.5 58t-4.5 43q0 14 3 34q-4 -12 -48 -47q-53 -42 -116 -70q-83 -37 -158 -37q-23 0 -47 3q-76 13 -111 78q-29 54 -29 140v423q0 38 -27.5 61t-54.5 23v36l369 24v-468q0 -68 14 -105q18 -47 56 -47q29 0 68 28q48 34 70 115q15 56 15 112
v195q0 22 -11.5 48t-32 43t-53.5 20v38l378 23l1 -625q0 -31 6.5 -51t22 -32.5t27 -18t29.5 -5.5v-38zM677 1110q21 -33 21 -63q0 -73 -99 -112l-190 -74l-46 47l130 186q44 63 103 63q49 0 81 -47z" />
    <glyph glyph-name="ugrave" unicode="&#xf9;" horiz-adv-x="1037" 
d="M1008 -2l-349 -1q-13 34 -17.5 58t-4.5 43q0 14 3 34q-4 -12 -48 -47q-53 -42 -116 -70q-83 -37 -158 -37q-23 0 -47 3q-76 13 -111 78q-29 54 -29 140v423q0 38 -27.5 61t-54.5 23v36l369 24v-468q0 -68 14 -105q18 -47 56 -47q29 0 68 28q48 34 70 115q15 56 15 112
v195q0 22 -11.5 48t-32 43t-53.5 20v38l378 23l1 -625q0 -31 6.5 -51t22 -32.5t27 -18t29.5 -5.5v-38zM699 903l-46 -48l-190 75q-99 37 -99 112q0 30 21 63q31 47 81 47q29 0 55 -15.5t48 -48.5z" />
    <glyph glyph-name="ucircumflex" unicode="&#xfb;" horiz-adv-x="1041" 
d="M1008 -2l-349 -1q-13 34 -17.5 58t-4.5 43q0 14 3 34q-4 -12 -48 -47q-53 -42 -116 -70q-83 -37 -158 -37q-23 0 -47 3q-76 13 -111 78q-29 54 -29 140v423q0 38 -27.5 61t-54.5 23v36l369 24v-468q0 -68 14 -105q18 -47 56 -47q29 0 68 28q48 34 70 115q15 56 15 112
v195q0 22 -11.5 48t-32 43t-53.5 20v38l378 23l1 -625q0 -31 6.5 -51t22 -32.5t27 -18t29.5 -5.5v-38zM794 923l-35 -64l-218 68l-226 -68l-30 64l249 144z" />
    <glyph glyph-name="udieresis" unicode="&#xfc;" horiz-adv-x="1044" 
d="M1017 -2l-349 -1q-13 34 -17.5 58t-4.5 43q0 14 3 34q-4 -12 -48 -47q-53 -42 -116 -70q-83 -37 -158 -37q-23 0 -47 3q-76 13 -111 78q-29 54 -29 140v423q0 38 -27.5 61t-54.5 23v36l369 24v-468q0 -68 14 -105q18 -47 56 -47q29 0 68 28q48 34 70 115q15 56 15 112
v195q0 22 -11.5 48t-32 43t-53.5 20v38l378 23l1 -625q0 -31 6.5 -51t22 -32.5t27 -18t29.5 -5.5v-38zM775 969q0 -47 -30.5 -80.5t-79.5 -33.5t-86.5 33.5t-37.5 82.5t34 84t84 35q54 0 85 -35t31 -86zM490 969q0 -47 -30.5 -80.5t-78.5 -33.5q-51 0 -87.5 33t-36.5 83
q0 49 34 84t84 35q55 0 85 -34.5t30 -86.5z" />
    <glyph glyph-name="dagger" unicode="&#x2020;" horiz-adv-x="753" 
d="M637 507q-7 -1 -13 -1h-7q-32 0 -77 15t-54 17l-66 13q5 -47 19.5 -98t44.5 -108q-13 -34 -24.5 -67.5t-17.5 -70.5q-13 -83 -22 -198t-9 -186q0 -15 1 -31t1 -22h-55q0 68 -7 167q-11 162 -37 270q-16 69 -42 142q15 26 24 47t18 49.5t14 50.5t9 52l-66 -14
q-76 -16 -98 -19t-53 -3q-33 0 -52 24t-19 58q0 31 19 55t41 26.5t28 2.5h7q29 0 61 -9l65 -18l67 -14l-13 107q-4 29 -17.5 94.5t-13.5 97.5q0 47 24 72t58 25q35 0 62.5 -25.5t27.5 -67.5q0 -46 -11 -96q-18 -81 -20 -97l-14 -106l69 10q8 1 71 13q43 8 73 8q38 0 60 -23
t22 -54q0 -32 -20.5 -58t-57.5 -30z" />
    <glyph glyph-name="degree" unicode="&#xb0;" horiz-adv-x="325" 
d="M295 903q0 -56 -36.5 -88.5t-84.5 -32.5q-52 0 -87 31q-40 36 -40 97q0 56 38 90q34 30 83 30q52 0 87 -31q40 -35 40 -96zM243 906q0 34 -20 53t-49 19q-30 0 -50.5 -17t-20.5 -51t21 -53t50 -19q27 0 48 18t21 50z" />
    <glyph glyph-name="cent" unicode="&#xa2;" horiz-adv-x="936" 
d="M842 828l-52 -237l-24 1q3 9 -4 53t-28 66q-26 28 -61 37l-109 -458q20 -5 32 -7t20 -2q60 0 113 39q58 42 71 105l28 -11l-66 -244q-16 12 -27.5 14.5t-23.5 2.5q-13 0 -47 -5t-56.5 -7.5t-27.5 -2.5q-11 0 -26.5 1.5t-17.5 1.5l-23 -91l-4 -16t-2 -15q0 -13 9.5 -23
t21.5 -11v-20h-170v20q17 4 27.5 14.5t14.5 21.5q1 4 6 26l26 105q-118 20 -197 107q-86 94 -86 229q0 130 63 211q53 68 146 100q73 25 160 25h17.5t17.5 1q12 0 21.5 -0.5t16.5 -0.5l21 86q1 6 3.5 16.5t2.5 19.5q0 11 -3.5 18.5t-10 10.5t-16.5 5v18h180v-18
q-17 -5 -31.5 -17t-19.5 -24.5t-10 -37.5l-19 -87q6 -1 18 -3.5t25 -7l30 -10t45 -5.5q8 0 26 6zM576 757q-86 -25 -123 -68q-52 -62 -52 -166q0 -59 19 -104t58 -82z" />
    <glyph glyph-name="sterling" unicode="&#xa3;" horiz-adv-x="1091" 
d="M1054 276l-107 -295q-58 0 -93 5.5t-88.5 24.5t-102.5 53q-13 -26 -127 -62q-88 -28 -179 -28q-47 0 -92 7q-102 16 -160 67q-53 47 -53 105q0 61 56 101q61 44 169 44q38 0 104 -20q57 -17 62 -22q1 8 2.5 15.5t1.5 17.5q0 64 -45 115t-106 51q-53 0 -95 -24t-63 -66
l-26 14l88 198q2 -5 5 -9q1 -1 9 -5t17 -3h78l-15 31q-14 29 -19.5 53.5t-5.5 60.5q0 146 146 241q129 84 286 84q130 0 209 -57q57 -41 86 -111l20 -67l-191 -134l-17 21q19 19 30 42q17 37 17 74q0 59 -42 91q-32 25 -70 25q-61 0 -108.5 -64.5t-47.5 -137.5
q0 -26 7.5 -50t22.5 -43q27 -33 63.5 -49.5t78.5 -16.5q57 0 110 30q37 21 63 57l17 -13l-74 -199q-3 15 -18 23q-8 4 -19 4h-160q42 -41 61 -85.5t19 -103.5q0 -65 -29 -120q24 -10 45.5 -15t43.5 -5q47 0 100 31q38 23 68.5 60.5t40.5 71.5zM418 157l-37 17q-27 13 -47 19
t-48 6q-38 0 -59 -17t-21 -41q0 -22 19.5 -39t53.5 -17q28 0 51 6q36 9 56 31z" />
    <glyph glyph-name="section" unicode="&#xa7;" horiz-adv-x="836" 
d="M794 377q-12 -53 -34 -87t-65 -64q50 -50 62 -73q20 -39 20 -116q0 -133 -114 -207q-100 -65 -247 -65q-53 0 -136 15q-151 27 -158 25q-20 -6 -30 -11q-3 -2 -28 -17l-23 308l31 11q25 -101 100.5 -161.5t178.5 -60.5q133 0 191 35q48 29 48 84q0 38 -22.5 61t-61.5 36
l-304 102q-64 20 -100.5 69t-42.5 118q-1 6 -1 19q0 58 35 116q31 52 74 77q-42 39 -60 72q-22 41 -22 96q0 119 97 199q92 76 220 76q48 0 122.5 -8.5t152.5 -16.5q13 2 24.5 5.5t29.5 9.5l13 -244l-32 -8q-20 48 -61 86q-34 31 -84.5 47.5t-102.5 16.5t-93.5 -14.5
t-59.5 -39.5q-14 -20 -14 -45q0 -32 23.5 -60.5t57.5 -38.5l215 -66q77 -25 128 -66q80 -65 80 -159q0 -18 -1 -27t-6 -29zM635 392q-13 20 -63 42q-50 19 -52 20l-262 93q-19 -18 -30 -37.5t-11 -40.5q0 -23 14.5 -45.5t62.5 -42.5q12 -5 68 -23l250 -84q35 33 35 76
q0 13 -2.5 22t-9.5 20z" />
    <glyph glyph-name="bullet" unicode="&#x2022;" horiz-adv-x="412" 
d="M379 376q0 -69 -50.5 -116t-121.5 -47q-69 0 -118.5 45.5t-49.5 113.5q0 65 48.5 110.5t115.5 45.5q71 0 123.5 -43t52.5 -109z" />
    <glyph glyph-name="paragraph" unicode="&#xb6;" horiz-adv-x="822" 
d="M787 -171h-222v1031h-109v-1031h-228v37q20 0 34 7.5t31 24.5q12 12 20 31t8 33v489q-125 0 -201 89q-71 83 -71 206q0 107 80.5 182.5t189.5 75.5h459v-41q-25 -7 -38.5 -15.5t-23.5 -26.5t-14.5 -38.5t-4.5 -61.5l3 -847q0 -31 2.5 -47.5t15.5 -33.5q27 -31 69 -31v-33
z" />
    <glyph glyph-name="germandbls" unicode="&#xdf;" horiz-adv-x="1162" 
d="M1130 297q0 -146 -103 -240q-96 -88 -244 -101q-12 0 -25.5 -1t-20.5 -1q-62 0 -131 28l52 183l32 -6q0 -44 7 -59q13 -27 57 -35q6 -1 17 -1q53 0 89 50.5t36 111.5q0 84 -58 148q-47 52 -119 80.5t-94 55.5t-22 64q0 58 37 91l78 57q24 21 35.5 45t11.5 50
q0 37 -22.5 62.5t-59.5 25.5q-82 0 -111 -91q-18 -57 -18 -179v-566q0 -38 -10.5 -72.5t-28.5 -68.5q-37 -68 -136 -104q-86 -31 -189 -31q-57 0 -97.5 8.5t-61.5 24.5q12 30 17 54.5t5 45v34.5l25 -2q4 -27 21 -47.5t45 -20.5q16 0 33 6.5t42.5 24t41.5 63.5t16 97l1 408
h-55q-9 0 -18 -3l-12 -4q-17 -6 -27 -14l45 134q13 -11 22 -13l18 -2h30l6 145q0 137 125 223q115 79 271 79q126 0 209 -45q97 -53 97 -151q0 -77 -64 -145q-58 -62 -120 -71q118 0 218 -92q107 -98 107 -233z" />
    <glyph glyph-name="registered" unicode="&#xae;" horiz-adv-x="1053" 
d="M530 7q-232 0 -368 153q-123 138 -123 339q0 199 123 338q136 154 368 154q233 0 369 -153q123 -138 123 -339q0 -199 -123 -338q-137 -154 -369 -154zM530 59q208 0 330 137q110 123 110 302q0 178 -110 302q-123 138 -330 138t-329 -137q-110 -124 -110 -303
q0 -178 110 -302q122 -137 329 -137zM796 228l-7 1l-44 2l-44 -3l-10 -1l-216 279l4 13l27 -1q57 0 101 32q48 35 43 87q0 40 -22 66t-66 33q-17 3 -35 3q-21 0 -36 -1.5t-30 -6.5l-12 -3v-432q0 -19 11 -31q6 -8 22 -10t20 -2l19 -2v-22h-12q-7 0 -46 2.5t-50 2.5
q-25 0 -51 -2t-46 -3h-13v24l22 1q9 0 20 1.5t20.5 11.5t9.5 29v404q0 15 -2 21q-2 5 -8 12.5t-24.5 10t-29.5 2.5h-8v23h13l98 -3q33 0 69 0.5t75 1.5l13 1q49 0 85 -15q48 -20 64 -61q9 -24 9 -46q0 -34 -19 -64t-54 -53q-11 -7 -32 -15.5t-40 -12.5l-7 -2l174 -229
q4 -3 6 -5q8 -7 14 -10l20 -5h5v-23z" />
    <glyph glyph-name="copyright" unicode="&#xa9;" horiz-adv-x="1049" 
d="M526 10q-233 0 -369 153q-123 138 -123 339q0 199 123 338q137 154 369 154q233 0 369 -153q123 -138 123 -339q0 -199 -123 -338q-137 -154 -369 -154zM526 63q207 0 329 137q110 124 110 302q0 179 -109 302q-122 138 -330 138q-207 0 -329 -137q-110 -124 -110 -303
t109 -302q121 -137 330 -137zM734 297l-13 -34l-18 -9q-28 -13 -72.5 -25t-87.5 -12q-128 0 -209 66t-93 180q-1 11 -1.5 23.5t-0.5 19.5q0 116 74 191q63 63 153 79q14 3 30.5 4t35.5 1q25 0 48.5 -2.5t37.5 -5.5q75 -15 102 -24l11 -3l-17 -116h-23v48l-1 8q0 16 -31 33
t-62 23q-12 2 -29 4.5t-39 2.5q-24 0 -41 -4q-86 -19 -129 -84q-39 -58 -39 -143q0 -23 3 -47q10 -89 75 -151t150 -62q55 0 92.5 9.5t70.5 27.5l18 10z" />
    <glyph glyph-name="trademark" unicode="&#x2122;" horiz-adv-x="1122" 
d="M432 1003l-5 -115h-20l-5 45q-2 17 -8.5 24t-18.5 7l-109 1v-388q0 -10 1 -15q1 -7 6.5 -13.5t17.5 -8t22 -2.5l16 -1v-20h-11q-1 0 -33 2t-53 2q-18 0 -40 -1.5t-46 -2.5h-13v21l20 2q27 0 36.5 10t9.5 27v388l-109 -3q-12 -2 -14 -4q-6 -6 -8 -19l-8 -51h-21l-4 114
l12 -1l187 -3l186 3zM1087 980h-9q-15 0 -28.5 -2t-19.5 -8q-10 -14 -10 -31v-362q0 -17 10 -28q6 -7 17.5 -8.5t21.5 -2.5l16 -1v-20h-11q-1 0 -33 2t-53 2q-18 0 -40 -1.5t-46 -2.5h-12v21l19 2q27 0 36 9.5t9 27.5v338l-190 -405h-14l-191 403v-336q0 -17 10 -28
q6 -7 17.5 -8.5t21.5 -2.5l16 -1v-20h-11q-1 0 -33 2t-53 2q-12 0 -32 -2t-25 -2h-12v21l19 2q27 0 36 9.5t9 27.5v362q0 16 -1 19q-5 7 -8 12t-17 7.5t-31 2.5h-7v21h12l46 -3q22 0 38 1t30 2h7l183 -387l72 148l46 95q23 46 39 82l19 49l4 13h10q2 0 24 -2t35 -2
q12 0 33 2t23 2h8v-21z" />
    <glyph glyph-name="acute" unicode="&#xb4;" horiz-adv-x="417" 
d="M358 1048q21 -33 21 -63q0 -73 -99 -112l-190 -74l-46 47l130 186q44 63 103 63q49 0 81 -47z" />
    <glyph glyph-name="dieresis" unicode="&#xa8;" horiz-adv-x="609" 
d="M574 904q0 -47 -30.5 -80.5t-79.5 -33.5t-86.5 33.5t-37.5 82.5t34 84t84 35q54 0 85 -35t31 -86zM289 904q0 -47 -30.5 -80.5t-78.5 -33.5q-51 0 -87.5 33t-36.5 83q0 49 34 84t84 35q55 0 85 -34.5t30 -86.5z" />
    <glyph glyph-name="notequal" unicode="&#x2260;" horiz-adv-x="883" 
d="M845 225h-459l-137 -245l-73 39l103 202h-229v92h287l118 210h-400v84h442l138 245l76 -42l-111 -203h245v-84h-298l-111 -214h409v-84z" />
    <glyph glyph-name="AE" unicode="&#xc6;" horiz-adv-x="1671" 
d="M1643 365l-131 -382l-33 10q-21 5 -34 6t-37 1h-11l-752 -1l13 45q44 4 76.5 32.5t32.5 81.5q1 13 1 17q0 47 -37 103.5t-94 85.5q-23 12 -74 21.5t-83 9.5l-127 -203q-17 -28 -29 -63t-7 -46q6 -16 20 -25.5t31 -11.5l-13 -48h-332l14 52q19 6 34 13t35 20q29 19 48 39
t40 52l467 711q15 22 21.5 36.5t6.5 23.5q0 4 -3 12.5t-7 11.5q-3 2 -14 5l8 33l64 -4h597q15 -1 28.5 -1.5t17.5 -0.5q14 0 29.5 1t32.5 4.5t25 5.5q17 7 27 10l73 -337l-34 -26q-12 56 -34 93.5t-66.5 75.5t-106 58t-121.5 20q-68 0 -100 -24q-21 -16 -29.5 -39t-8.5 -53
v-110h141q21 0 39 5.5t34 20.5q35 32 35 74q0 9 -1 14l29 8l68 -380l-38 -7q-4 21 -20 52q-20 37 -45 59t-58 35.5t-54 13.5h-127v-285v-24v-16q0 -33 5 -56.5t23 -48t51 -37t76 -12.5q47 0 96.5 14t90.5 37q59 34 116 99q63 72 81 136zM745 453l-1 353l-180 -283
q12 0 29 -1t50 -10.5t64 -29.5q20 -13 38 -29z" />
    <glyph glyph-name="Oslash" unicode="&#xd8;" horiz-adv-x="1218" 
d="M1164 492q0 -228 -129 -368q-138 -149 -387 -149q-27 0 -58.5 0.5t-79.5 8.5q-4 -9 -4 -22q0 -3 3.5 -16t26.5 -20v-25h-278v25q17 5 33.5 17.5t26.5 30.5q4 7 16 39l8 23q-135 65 -211 186.5t-76 277.5q0 202 134.5 346.5t340.5 174.5q28 4 52.5 6t53.5 2q27 0 56 -3
q3 9 6 20.5t3 21.5q0 8 -3 14q-6 13 -24 19v22h275v-21q-20 -8 -33 -23q-13 -12 -28 -43q-2 -5 -6 -14l-14 -39q135 -57 212 -175q84 -129 84 -316zM644 889q-9 4 -22 6t-27 2q-21 0 -44 -6q-82 -21 -126 -140q-38 -102 -38 -238q0 -53 11 -106t34 -116zM833 509
q0 53 -14.5 112.5t-38.5 116.5l-58 -159l-107 -295l-55 -161q19 -9 38.5 -14t40.5 -5q9 1 13 1q80 9 124 75q35 53 48 152q9 69 9 177z" />
    <glyph glyph-name="infinity" unicode="&#x221e;" horiz-adv-x="1161" 
d="M1056 356q0 -98 -64 -161q-60 -59 -143 -59q-56 0 -114 24q-65 27 -116 75l-65 61l-66 -61q-51 -48 -113.5 -73.5t-116.5 -25.5q-83 0 -143 59q-64 63 -64 161q0 85 62 143t149 58q52 0 105.5 -24.5t104.5 -70.5l81 -73l82 73q51 46 103.5 70.5t106.5 24.5
q86 0 148.5 -58.5t62.5 -142.5zM983 350q0 56 -42 93t-102 37q-34 0 -60.5 -9.5t-82.5 -51.5l-98 -73l91 -84q34 -31 68.5 -44t80.5 -13q65 0 105 42t40 103zM509 346l-98 73q-43 33 -67 44q-35 17 -77 17q-60 0 -101.5 -36.5t-41.5 -93.5q0 -61 40 -103t105 -42
q49 0 81.5 12.5t67.5 44.5z" />
    <glyph glyph-name="plusminus" unicode="&#xb1;" horiz-adv-x="668" 
d="M598 404h-243v-241h-62v241h-240l1 68h239v241h65v-241h240v-68zM592 -2h-549v52h549v-52z" />
    <glyph glyph-name="lessequal" unicode="&#x2264;" horiz-adv-x="821" 
d="M781 877l-656 -299l653 -310v-89l-736 344v96l739 354v-96zM774 0h-728v79h728v-79z" />
    <glyph glyph-name="greaterequal" unicode="&#x2265;" horiz-adv-x="833" 
d="M795 523l-748 -344v89l666 310l-670 299v96l752 -354v-96zM792 0h-742v79h742v-79z" />
    <glyph glyph-name="yen" unicode="&#xa5;" horiz-adv-x="1146" 
d="M1095 962q-15 -7 -33 -19q-13 -9 -28 -21q-28 -21 -57 -60q-14 -19 -34 -50l-158 -252h127v-131h-195v-89h195v-131h-195v-35q0 -50 11 -79.5t37 -43.5t49 -14q7 0 11 1v-38h-520v38q32 0 49.5 8.5t30.5 28.5q20 30 20 64v70h-188v131h188v89h-188v131h127l-182 294
q-11 18 -21 37q-11 17 -26 32q-30 29 -69 39v39h545v-39q-25 -4 -43 -27q-11 -15 -11 -33q0 -17 8 -35q2 -5 19 -36l126 -224l146 247q16 26 16 48q0 14 -5.5 27.5t-20.5 23t-27 9.5v39h296v-39z" />
    <glyph glyph-name="mu" unicode="&#xb5;" horiz-adv-x="842" 
d="M817 143l-9 -44q-10 -53 -64 -91q-49 -35 -96 -35q-9 0 -13 1q-47 6 -85 46q-41 43 -41 95l-37 -36q-45 -45 -94.5 -73t-87.5 -28q-37 0 -81 20q-54 24 -83 64v-51q0 -43 15 -86q35 -101 35 -148q0 -38 -19 -66t-53 -28q-31 0 -49.5 25t-18.5 60q0 44 11 81
q30 100 31 110l3 40v717h122v-494q0 -61 36.5 -107t93.5 -46q58 0 116 45q63 49 63 107v495h118v-557q0 -44 21 -81t55 -37q8 0 12 1q24 4 39.5 20t22.5 42l11 39h26z" />
    <glyph glyph-name="partialdiff" unicode="&#x2202;" horiz-adv-x="677" 
d="M643 543q0 -206 -85 -371q-96 -187 -245 -187q-15 0 -23 1q-121 11 -188 84.5t-67 184.5q0 121 78.5 211t194.5 90q51 0 91 -16q33 -13 82 -49l41 -29l11 69q6 41 6 83q0 139 -57 236q-65 110 -179 110q-34 0 -67.5 -11.5l-66.5 -22.5l-24 -7l-52 64l58 17q36 10 65 15
t64 5q164 0 268 -152q95 -139 95 -325zM511 411l-37 36q-20 19 -40.5 30.5t-49.5 18.5q-17 3 -32 3q-67 0 -120 -58q-48 -52 -70 -133q-12 -44 -12 -90q0 -69 29.5 -121.5t89.5 -71.5q20 -6 37 -6q73 0 125 97q39 73 61 189z" />
    <glyph glyph-name="summation" unicode="&#x3a3;" horiz-adv-x="994" 
d="M965 161q-13 -40 -22.5 -77.5t-17.5 -80t-11.5 -75.5t-3.5 -71l-98 19h-786l488 536l-479 597l89 -8h744l2 -219h-29q0 39 -11 66t-39 52.5t-56.5 31.5t-79.5 6h-401l386 -465l-413 -465h552q27 0 47 7.5t44 25.5q59 45 66 120h29z" />
    <glyph glyph-name="product" unicode="&#x220f;" horiz-adv-x="1148" 
d="M1113 -124h-428v25l36 2q29 0 45 4t31 18.5t18.5 29t3.5 38.5v27v904h-501v-896q0 -52 7.5 -71t27.5 -34q16 -12 32.5 -15t46.5 -3h27v-29h-428v31h34h11q21 0 35.5 3.5t29.5 14.5q21 17 27 46q3 16 3 58v816q0 59 -44 97q-13 11 -22 17q-20 13 -44 13l-23 2v29h1075v-31
l-30 -1q-19 0 -32.5 -6.5t-31.5 -20.5q-26 -21 -35 -49t-9 -71v-807q0 -34 5 -54t23 -36.5t35 -22t44 -5.5l31 -1v-22z" />
    <glyph glyph-name="pi" unicode="&#x3c0;" horiz-adv-x="818" 
d="M791 218l-4 -32q-10 -84 -59 -140q-53 -60 -130 -60q-67 0 -100 70q-27 58 -27 150q0 16 0.5 25.5t3.5 37.5l34 315h-172l-59 -465q-7 -53 -31 -94q-29 -48 -67 -48q-9 0 -18 3q-25 7 -39 17q-18 13 -21.5 29.5t-3.5 27.5q0 28 22 53q65 75 68 82l16 35q9 20 9 38l35 317
h-48q-18 0 -34.5 -0.5t-37.5 -9t-46 -37.5q-19 -23 -25 -39l-25 9l9 21q38 85 43 93q26 43 71.5 65.5t95.5 22.5h531v-120h-192l-20 -350q0 -49 26.5 -87t69.5 -38q34 0 58 23.5t33 60.5l6 25h28z" />
    <glyph glyph-name="integral" unicode="&#x222b;" horiz-adv-x="414" 
d="M374 1058q-3 -23 -19.5 -36.5t-39.5 -13.5q-13 0 -27 10q-20 15 -25 17q-6 3 -11 3q-21 0 -21 -68q0 -39 5 -96q13 -148 13 -174v-425q0 -161 -20 -258q-34 -164 -120 -164h-10q-7 1 -23 5t-32 21t-16 38q0 23 15 38t37 15q17 0 35 -22q10 -12 21 -16q23 -6 31 25t8 95
q0 27 -2 82t-2 79v589q0 175 37 253q31 66 89 66q32 0 56.5 -18t20.5 -45z" />
    <glyph glyph-name="ordfeminine" unicode="&#xaa;" horiz-adv-x="592" 
d="M550 544h-167q-12 0 -20.5 4.5t-15 14t-11.5 24t-4 21.5q-22 -36 -66.5 -55.5t-93.5 -19.5q-46 0 -81.5 16.5t-49.5 46t-14 57.5q0 67 73.5 117.5t191.5 67.5l37 6l2 30q0 25 -19.5 42.5t-47.5 19.5q-41 0 -72.5 -10.5t-61.5 -38.5t-44 -60l-18 3l19 160l19 -13
q6 -3 15 -3q16 0 50 9q51 13 61 15q38 6 54.5 7.5t43.5 1.5q34 0 62 -6.5t55.5 -23.5t40.5 -46t13 -65v-214v-17q0 -18 1.5 -25.5t9.5 -18.5q14 -20 38 -27v-20zM589 514l-96 -106l-17 5l-19 2h-320q-14 0 -31 -2.5t-29 -6t-19.5 -6.5t-15.5 -8h-20l90 105l32 -5l33 -3h301
q10 0 19.5 1.5t17 3t26.5 7.5t24 10l4 3h20zM331 753v38q-7 4 -39 -7q-76 -26 -92 -88q-2 -10 -2 -16q0 -22 13 -39t36 -17q10 0 21 4q27 9 45 46t18 79z" />
    <glyph glyph-name="ordmasculine" unicode="&#xba;" horiz-adv-x="614" 
d="M579 779q0 -111 -72 -176.5t-208 -65.5q-129 0 -197 61.5t-68 165.5q0 106 80 179t192 73q127 0 200 -65t73 -172zM589 514l-96 -106l-17 5l-19 2h-320q-14 0 -31 -2.5t-29 -6t-19.5 -6.5t-15.5 -8h-20l90 105l32 -5l33 -3h301q10 0 19.5 1.5t17 3t26.5 7.5t24 10l4 3h20
zM397 779q0 66 -19 109q-24 55 -74 55q-45 0 -66 -51q-17 -41 -17 -103q0 -74 22 -123q26 -58 74 -58q45 0 65 57q15 42 15 114z" />
    <glyph glyph-name="Omega" unicode="&#x3a9;" horiz-adv-x="1043" 
d="M1006 -2h-402l19 199q96 44 145 129q46 81 46 193q0 141 -53 211q-68 90 -233 90q-155 0 -229 -89q-64 -77 -64 -212q0 -112 47.5 -195.5t143.5 -126.5l20 -199h-403v210h26q0 -28 12 -47t30.5 -27.5t41.5 -8.5h221v41q-132 23 -213 122t-81 234q0 158 127 250
q122 88 319 88q206 0 325 -88.5t119 -249.5q0 -136 -81 -234.5t-213 -121.5v-41h220q49 0 71 35q14 19 14 48h25v-210z" />
    <glyph glyph-name="ae" unicode="&#xe6;" horiz-adv-x="1456" 
d="M1401 468l-544 -106q0 -103 64.5 -179.5t162.5 -76.5q70 0 145 46q89 54 121 142l30 -17l-95 -290q-4 2 -16 9q-17 10 -26.5 10.5t-20.5 1.5t-23 1q-34 0 -116 -12.5t-161 -12.5q-86 0 -169 68q-27 22 -66 68l-28 -36q-43 -44 -110 -69q-97 -37 -234 -37q-74 0 -151.5 34
t-95.5 74q-11 23 -16 47.5t-5 46.5q0 113 121.5 196t318.5 112l61 9l-1 50q0 43 -30 71t-56.5 30.5t-35.5 2.5h-14q-106 0 -194 -81q-27 -24 -43 -46t-31 -55l-29 5l32 266q9 -7 16 -11.5t17 -10t28 -5.5q30 0 105 20l69.5 19t65 13t55.5 4q86 0 149 -40l48 -41
q61 35 131 59q82 28 146 28q182 0 284 -81q91 -72 141 -226zM1092 504q1 5 1 16q0 53 -32 95.5t-81 42.5q-12 0 -24 -3q-61 -14 -92 -88q-21 -50 -21 -103q0 -12 1 -13zM551 345v65q-21 12 -100 -27q-95 -47 -118 -132q-3 -12 -3 -26q0 -37 22 -65t60 -28q15 0 35 6
q45 15 74.5 76.5t29.5 130.5z" />
    <glyph glyph-name="oslash" unicode="&#xf8;" horiz-adv-x="1000" 
d="M956 381q0 -183 -117 -290q-124 -114 -350 -114h-21q-7 -20 -10 -30q-9 -32 -6 -38q0 -4 7.5 -9t15.5 -5v-14h-191v14q6 0 15 4.5t12 5.5q21 7 35 46q4 13 11 38q-152 31 -230.5 129t-78.5 241q0 179 125.5 296.5t328.5 117.5l38 -2l17 64q2 5 3.5 13t1.5 13q0 7 -3 12
q-7 11 -20 11v12h193v-11q-14 -5 -28 -14t-24 -29q-3 -6 -8 -19l-18 -70q142 -38 222 -137t80 -235zM507 649q-75 0 -115 -83q-33 -69 -33 -168q0 -61 10.5 -115.5t32.5 -102.5l28 121q40 172 52 229.5zM653 381q0 51 -10.5 104t-30.5 93q0 -5 -28.5 -124l-55.5 -234
l-29 -125q75 0 118 97q36 82 36 189z" />
    <glyph glyph-name="questiondown" unicode="&#xbf;" horiz-adv-x="856" 
d="M728 616q0 -66 -48.5 -111t-116.5 -45q-69 0 -121.5 43t-52.5 108q0 68 51.5 114.5t122.5 46.5q66 0 115.5 -45.5t49.5 -110.5zM817 -244q-10 10 -15 14q-18 14 -30 13q-113 -33 -199.5 -53t-171.5 -20q-152 0 -253 65q-118 76 -118 216q0 79 62 145q43 45 117 84
q54 28 63 28q58 23 89 37q94 43 110 68q9 14 9 28q0 7 -4 19l-10 24q17 -3 39 -5.5t49 -2.5h26q10 2 14 3q30 5 49.5 13.5t46.5 27.5q2 -7 11 -36q6 -19 6 -34t-6 -41q-12 -53 -84 -104q-208 -148 -222 -166q-44 -57 -44 -115q0 -60 45.5 -99.5t113.5 -39.5q41 0 81.5 14.5
t81 47.5t64.5 95q21 53 21 96q0 9 -2 19h38z" />
    <glyph glyph-name="exclamdown" unicode="&#xa1;" horiz-adv-x="456" 
d="M426 609q0 -64 -47.5 -107.5t-114.5 -43.5q-75 0 -125.5 41.5t-50.5 107.5q0 69 51.5 116.5t124.5 47.5q67 0 114.5 -47.5t47.5 -114.5zM424 -268h-393q38 89 58 161.5t33.5 174t13.5 174.5q0 81 -16 184q42 -11 70 -14.5t68 -3.5q39 0 66 3.5t68 14.5
q-15 -84 -19 -155.5t-4 -188.5q0 -88 14 -173q11 -68 41 -177z" />
    <glyph glyph-name="logicalnot" unicode="&#xac;" horiz-adv-x="1058" 
d="M1017 0h-81v344h-904v75h985v-419z" />
    <glyph glyph-name="radical" unicode="&#x221a;" horiz-adv-x="697" 
d="M666 1099l-190 -1163l-310 613l-117 -60l-20 41l182 86l249 -490l163 979z" />
    <glyph glyph-name="florin" unicode="&#x192;" horiz-adv-x="662" 
d="M638 1050q-19 -50 -72 -50q-12 0 -23 10q-18 16 -24.5 19t-9.5 3q-31 0 -47 -152q-11 -101 -20 -138l-7 -28h136l-7 -55h-144l-82 -411q-19 -93 -41 -164q-35 -113 -77 -176q-54 -82 -118 -82h-18q-9 3 -13 4q-16 4 -27.5 19t-11.5 32q0 5 2 13q8 23 24.5 36.5t39.5 13.5
q18 0 27.5 -18t19.5 -21q42 -13 73 136l27 144l95 475h-148l3 56h167l7 37q20 98 43 164q30 89 68 139q43 58 95 58q25 0 45 -15.5t20 -37.5q0 -3 -2 -11z" />
    <glyph glyph-name="approxequal" unicode="&#x2248;" horiz-adv-x="876" 
d="M838 527l-30 -34q-39 -46 -81.5 -66.5t-102.5 -20.5q-37 0 -75 12l-75 24l-123 33l-51 14t-47 7q-14 0 -31 -3q-35 -7 -57.5 -20.5t-49.5 -41.5l-25 -26l-64 41l21 22q39 41 78.5 62.5t93.5 30.5q24 3 45 3q27 0 51.5 -5t66.5 -17l108 -33l58 -20q30 -10 57 -10
q11 0 16 1q78 0 131 56l27 28zM838 289l-30 -34q-75 -87 -184 -87q-37 0 -75 12l-75 24l-123 34l-49.5 13.5t-47.5 6.5q-14 0 -32 -3q-58 -11 -107 -62l-25 -26l-64 41l21 22q39 41 78.5 62.5t93.5 30.5q10 2 22 3t23 1q30 0 57 -6q9 -2 61 -17l108 -32q32 -11 65 -20.5
t66 -9.5q78 0 131 56l27 28z" />
    <glyph glyph-name="Delta" unicode="&#x2206;" horiz-adv-x="981" 
d="M938 0h-895l478 1004zM761 65l-296 700l-328 -700h624z" />
    <glyph glyph-name="guillemotleft" unicode="&#xab;" horiz-adv-x="709" 
d="M679 532l-204 -146l199 -141v-148l-282 221v141l287 213v-140zM319 532l-204 -146l200 -141v-148l-283 221v141l287 213v-140z" />
    <glyph glyph-name="guillemotright" unicode="&#xbb;" horiz-adv-x="713" 
d="M686 318l-283 -221v148l199 141l-203 146v140l287 -213v-141zM325 318l-282 -221v148l199 141l-204 146v140l287 -213v-141z" />
    <glyph glyph-name="ellipsis" unicode="&#x2026;" horiz-adv-x="1270" 
d="M1240 139q0 -68 -51.5 -116t-121.5 -48q-67 0 -117.5 46.5t-50.5 113.5q0 65 48.5 110t115.5 45q72 0 124.5 -42.5t52.5 -108.5zM803 136q0 -68 -51 -116t-121 -48q-69 0 -118.5 46t-49.5 114q0 64 48.5 109.5t115.5 45.5q71 0 123.5 -42.5t52.5 -108.5zM373 136
q0 -68 -51 -116t-121 -48q-69 0 -118.5 46t-49.5 114q0 64 48.5 109.5t115.5 45.5q71 0 123.5 -42.5t52.5 -108.5z" />
    <glyph glyph-name="nonbreakingspace" unicode="&#xa0;" horiz-adv-x="840" 
 />
    <glyph glyph-name="Agrave" unicode="&#xc0;" horiz-adv-x="1216" 
d="M1185 -1h-518v39q26 5 39 12q40 24 40 78q0 18 -2 28q-7 47 -59 105q-56 63 -125 94q-27 12 -79.5 21.5t-86.5 9.5l-71 -203q-13 -36 -13 -79q0 -21 5 -29q12 -18 27 -26.5t34 -11.5v-37h-332v38q20 6 30 12.5t30 23.5q26 21 39 39.5t25 51.5l277 711q5 12 9 24t4 22
q0 14 -6.5 23.5t-13 12.5t-13.5 5v38h443v-44q-24 0 -33 -17q-4 -8 -4 -16t3 -18q1 -2 7 -20l260 -781l11 -19q13 -21 25 -29.5t22 -12t26 -6.5v-39zM652 441l-112 354l-96 -281q12 0 30 -1t53 -11t76 -31q30 -16 49 -30zM824 1115l-46 -48l-190 75q-99 37 -99 112
q0 30 21 63q31 47 81 47q29 0 55 -15.5t48 -48.5z" />
    <glyph glyph-name="Atilde" unicode="&#xc3;" horiz-adv-x="1222" 
d="M1185 -7h-518v39q26 5 39 12q40 24 40 78q0 18 -2 28q-7 47 -59 105q-56 63 -125 94q-27 12 -79.5 21.5t-86.5 9.5l-71 -203q-13 -36 -13 -79q0 -21 5 -29q12 -18 27 -26.5t34 -11.5v-37h-332v38q20 6 30 12.5t30 23.5q26 21 39 39.5t25 51.5l277 711q5 12 9 24t4 22
q0 14 -6.5 23.5t-13 12.5t-13.5 5v38h443v-44q-24 0 -33 -17q-4 -8 -4 -16t3 -18q1 -2 7 -20l260 -781l11 -19q13 -21 25 -29.5t22 -12t26 -6.5v-39zM652 435l-112 354l-96 -281q12 0 30 -1t53 -11t76 -31q30 -16 49 -30zM1039 1242l-65 -84q-28 -36 -71 -55.5t-88 -19.5
q-39 0 -81 17l-50 21l-122 47q-24 8 -42 8q-24 0 -51 -12q-20 -9 -35 -26q-8 -9 -27 -37l-27 -37l-90 62l45 63q23 32 46 51.5t58 34.5q42 16 80 16q42 0 94 -20l112 -43q43 -16 49 -18q24 -7 51 -7q40 0 68 36l49 63z" />
    <glyph glyph-name="Otilde" unicode="&#xd5;" horiz-adv-x="1200" 
d="M1164 492q0 -232 -142 -371q-149 -146 -410 -146q-249 0 -403 149.5t-154 375.5q0 227 161 379q157 148 383 148q241 0 392 -123q173 -141 173 -412zM833 509q0 141 -59 256q-68 132 -173 132q-87 0 -150.5 -120.5t-63.5 -263.5q0 -146 61 -269q69 -139 170 -139
q116 0 171 133q44 106 44 271zM1005 1245l-65 -84q-28 -36 -71 -55.5t-88 -19.5q-39 0 -81 17l-50 21l-122 47q-24 8 -42 8q-24 0 -51 -12q-20 -9 -35 -26q-8 -9 -27 -37l-27 -37l-90 62l45 63q23 32 46 51.5t58 34.5q42 16 80 16q42 0 94 -20l112 -43q43 -16 49 -18
q24 -7 51 -7q40 0 68 36l49 63z" />
    <glyph glyph-name="OE" unicode="&#x152;" horiz-adv-x="1788" 
d="M1734 364l-130 -383l-34 10q-17 5 -38 7t-44 2h-673q-40 -11 -83.5 -18t-90.5 -7q-267 0 -430 146t-163 379q0 202 134.5 346.5t340.5 174.5q28 4 52.5 6t53.5 2q100 0 185 -28h614q5 -1 18 -1q37 0 85 8q25 4 27 4q10 2 27 9l73 -338l-33 -25q-23 99 -101 168
q-45 39 -107 59t-122 20q-67 0 -99 -24q-21 -16 -29.5 -39t-8.5 -54v-109h141q20 0 38.5 5.5t35.5 19.5q34 30 34 73q0 10 -1 15l30 9l67 -381l-38 -6q-4 20 -20 51q-20 38 -45 60t-57 35.5t-54 13.5h-128v-286v-24v-16q0 -33 5 -56t23 -48t51 -37.5t76 -12.5q47 0 96.5 14
t90.5 37q61 35 117 99q63 71 80 137zM826 509q-14 152 -65 256q-65 132 -170 132q-23 0 -47 -6q-82 -21 -126 -140q-38 -102 -38 -238q0 -151 65 -273q73 -136 182 -136q12 0 18 1q80 9 124 75q35 53 48 152q9 69 9 177z" />
    <glyph glyph-name="oe" unicode="&#x153;" horiz-adv-x="1541" 
d="M1507 459l-544 -106q0 -103 64.5 -179.5t162.5 -76.5q70 0 145 46q89 54 121 142l30 -17l-95 -290q-18 11 -27 15.5t-17 4.5q-4 0 -143 -17q-74 -9 -113 -9q-27 0 -53 3q-135 17 -236 92q-60 -44 -141 -67t-185 -23q-216 0 -332 108q-109 101 -109 274q0 179 125.5 296.5
t328.5 117.5q97 0 174 -25t137 -73q57 42 130.5 66.5t151.5 24.5q182 0 284 -81q91 -72 141 -226zM1198 495q1 5 1 16q0 53 -32 95.5t-81 42.5q-12 0 -24 -3q-61 -14 -92 -88q-21 -50 -21 -103q0 -12 1 -13zM640 381q0 110 -32 182q-41 91 -124 91q-74 0 -110 -86
q-28 -67 -28 -170q0 -122 37 -205q44 -98 123 -98q74 0 108 97q26 74 26 189z" />
    <glyph glyph-name="endash" unicode="&#x2013;" horiz-adv-x="794" 
d="M757 491l-109 -244q-8 17 -26 29q-15 8 -32 8q-16 -1 -26 -1h-391q-27 0 -40 -1.5t-29 -10t-28 -23.5l-23 14l100 245q6 -13 21 -21q7 -5 16 -7.5t26 -2.5h421q6 0 18 -1t17 -1q11 0 16 1q7 1 17.5 6.5t16 10t12.5 13.5z" />
    <glyph glyph-name="emdash" unicode="&#x2014;" horiz-adv-x="1155" 
d="M1117 495l-69 -245q-7 14 -21 21q-18 10 -42 10h-809h-18t-17 1q-20 0 -35 -7.5t-27 -22.5l-23 13l108 245q10 -19 27 -29q7 -4 17 -6t17 -2h23l749 1q13 0 30.5 0.5t35.5 9.5t31 25z" />
    <glyph glyph-name="quotedblleft" unicode="&#x201c;" horiz-adv-x="731" 
d="M701 701h-183l-174 327h237q-3 -9 -5 -18v-11q1 -7 1 -11q2 -15 8.5 -29l9.5 -20zM407 701h-183l-175 327h238q-3 -9 -5 -18v-11q1 -7 1 -11q2 -15 8.5 -29l9.5 -20z" />
    <glyph glyph-name="quotedblright" unicode="&#x201d;" horiz-adv-x="717" 
d="M694 1028l-174 -328h-184l107 238q4 9 9.5 22.5t8.5 27.5q2 18 -5 40h238zM400 1028l-174 -328h-184l106 238l10.5 24t7 21t1.5 17q0 10 -5 28h238z" />
    <glyph glyph-name="quoteleft" unicode="&#x2018;" horiz-adv-x="444" 
d="M408 708h-183l-174 328h238q-6 -17 -6 -30q1 -6 1 -10q2 -13 8 -27l10 -23z" />
    <glyph glyph-name="quoteright" unicode="&#x2019;" horiz-adv-x="480" 
d="M405 1032l-174 -327h-183l106 238l10.5 24t7 20.5t1.5 16.5q0 11 -5 28h237z" />
    <glyph glyph-name="divide" unicode="&#xf7;" horiz-adv-x="919" 
d="M448 508q-43 0 -66 25.5t-23 63.5q0 36 23.5 62.5t65.5 26.5t67 -28q22 -25 22 -61t-23.5 -62.5t-65.5 -26.5zM875 330h-836l-1 94h836zM448 70q-42 0 -65 26t-23 63t22.5 63t65.5 26q42 0 67 -28q22 -25 22 -61t-23.5 -62.5t-65.5 -26.5z" />
    <glyph glyph-name="lozenge" unicode="&#x25ca;" horiz-adv-x="665" 
d="M643 494l-256 -496h-84l-260 503l260 479h84zM565 494l-221 414l-221 -409l223 -439z" />
    <glyph glyph-name="ydieresis" unicode="&#xff;" horiz-adv-x="996" 
d="M803 970q0 -47 -30.5 -80.5t-79.5 -33.5t-86.5 33.5t-37.5 82.5t34 84t84 35q54 0 85 -35t31 -86zM518 970q0 -47 -30.5 -80.5t-78.5 -33.5q-51 0 -87.5 33t-36.5 83q0 49 34 84t84 35q55 0 85 -34.5t30 -86.5zM964 715q-22 -5 -35.5 -11t-28.5 -18q-20 -17 -40.5 -48.5
t-32.5 -62.5l-311 -707q-36 -81 -86 -126q-55 -49 -136 -61q-21 -3 -43 -3q-50 0 -95.5 15t-86.5 49l92 202l32 -11q-1 -21 -1 -30q0 -18 3.5 -31t13.5 -26q24 -30 66 -30q55 0 97 44q48 50 48 130q0 32 -8.5 68.5t-26.5 76.5l-223 490q-9 19 -17 39q-10 19 -25.5 29.5
t-30 14.5t-33.5 4v42h491v-44q-1 1 -14 1q-16 0 -31.5 -4.5t-22 -17.5t-6.5 -29q0 -10 2.5 -18.5t8.5 -26.5l115 -311l108 280q6 15 11 36t5 36t-2.5 23.5t-10.5 17.5t-23.5 12.5t-28.5 3.5v41h306v-39z" />
    <glyph glyph-name="Ydieresis" unicode="&#x178;" horiz-adv-x="1144" 
d="M1095 962q-15 -7 -33 -19q-13 -9 -28 -21q-28 -21 -57 -60q-14 -19 -34 -50l-226 -361v-277q0 -50 11 -79.5t37 -43.5t49 -14q7 0 11 1v-38h-520v38q32 0 49.5 8.5t30.5 28.5q20 30 20 64v323l-243 392q-11 18 -21 37q-11 17 -26 32q-30 29 -69 39v39h545v-39
q-25 -4 -43 -27q-11 -15 -11 -33q0 -17 8 -35q2 -5 19 -36l126 -224l146 247q16 26 16 48q0 14 -5.5 27.5t-20.5 23t-27 9.5v39h296v-39zM886 1176q0 -47 -30.5 -80.5t-79.5 -33.5t-86.5 33.5t-37.5 82.5t34 84t84 35q54 0 85 -35t31 -86zM601 1176q0 -47 -30.5 -80.5
t-78.5 -33.5q-51 0 -87.5 33t-36.5 83q0 49 34 84t84 35q55 0 85 -34.5t30 -86.5z" />
    <glyph glyph-name="periodcentered" unicode="&#xb7;" horiz-adv-x="429" 
d="M397 501q0 -68 -51 -116t-121 -48q-69 0 -118.5 46t-49.5 114q0 64 48.5 109.5t115.5 45.5q71 0 123.5 -42.5t52.5 -108.5z" />
    <glyph glyph-name="periodcentered" unicode="&#x2219;" horiz-adv-x="429" 
d="M397 501q0 -68 -51 -116t-121 -48q-69 0 -118.5 46t-49.5 114q0 64 48.5 109.5t115.5 45.5q71 0 123.5 -42.5t52.5 -108.5z" />
    <glyph glyph-name="quotesinglbase" unicode="&#x201a;" horiz-adv-x="480" 
d="M405 78l-174 -327h-183l106 238l10.5 24t7 20.5t1.5 16.5q0 11 -5 28h237z" />
    <glyph glyph-name="quotedblbase" unicode="&#x201e;" horiz-adv-x="717" 
d="M694 80l-174 -328h-184l107 238l9.5 23t8.5 27q2 18 -5 40h238zM400 80l-174 -328h-184l106 238l10.5 24t7 21t1.5 17q0 10 -5 28h238z" />
    <glyph glyph-name="Acircumflex" unicode="&#xc2;" horiz-adv-x="1224" 
d="M1185 -1h-518v39q26 5 39 12q40 24 40 78q0 18 -2 28q-7 47 -59 105q-56 63 -125 94q-27 12 -79.5 21.5t-86.5 9.5l-71 -203q-13 -36 -13 -79q0 -21 5 -29q12 -18 27 -26.5t34 -11.5v-37h-332v38q20 6 30 12.5t30 23.5q26 21 39 39.5t25 51.5l277 711q5 12 9 24t4 22
q0 14 -6.5 23.5t-13 12.5t-13.5 5v38h443v-44q-24 0 -33 -17q-4 -8 -4 -16t3 -18q1 -2 7 -20l260 -781l11 -19q13 -21 25 -29.5t22 -12t26 -6.5v-39zM652 441l-112 354l-96 -281q12 0 30 -1t53 -11t76 -31q30 -16 49 -30zM900 1130l-35 -64l-218 68l-226 -68l-30 64l249 144
z" />
    <glyph glyph-name="Ecircumflex" unicode="&#xca;" horiz-adv-x="1048" 
d="M1017 364l-130 -383l-34 10q-17 5 -38 7t-44 2h-729v38q30 5 38.5 9.5t20.5 17.5q16 19 20.5 38.5t4.5 50.5v710v11q0 26 -2.5 39.5t-14.5 27t-24 17t-34 3.5v39h660q5 -1 18 -1q37 0 85 8q25 4 27 4q10 2 27 9l73 -338l-33 -25q-23 99 -101 168q-45 39 -107 59t-122 20
q-67 0 -99 -24q-21 -16 -29.5 -39t-8.5 -54v-109h141q20 0 38.5 5.5t35.5 19.5q34 30 34 73q0 10 -1 15l30 9l67 -381l-38 -6q-4 20 -20 51q-20 38 -45 60t-57 35.5t-54 13.5h-128v-286v-24v-16q0 -33 5 -56t23 -48t51 -37.5t76 -12.5q47 0 96.5 14t90.5 37q61 35 117 99
q63 71 80 137zM796 1130l-35 -64l-218 68l-226 -68l-30 64l249 144z" />
    <glyph glyph-name="Aacute" unicode="&#xc1;" horiz-adv-x="1232" 
d="M1185 -1h-518v39q26 5 39 12q40 24 40 78q0 18 -2 28q-7 47 -59 105q-56 63 -125 94q-27 12 -79.5 21.5t-86.5 9.5l-71 -203q-13 -36 -13 -79q0 -21 5 -29q12 -18 27 -26.5t34 -11.5v-37h-332v38q20 6 30 12.5t30 23.5q26 21 39 39.5t25 51.5l277 711q5 12 9 24t4 22
q0 14 -6.5 23.5t-13 12.5t-13.5 5v38h443v-44q-24 0 -33 -17q-4 -8 -4 -16t3 -18q1 -2 7 -20l260 -781l11 -19q13 -21 25 -29.5t22 -12t26 -6.5v-39zM652 441l-112 354l-96 -281q12 0 30 -1t53 -11t76 -31q30 -16 49 -30zM798 1312q21 -33 21 -63q0 -73 -99 -112l-190 -74
l-46 47l130 186q44 63 103 63q49 0 81 -47z" />
    <glyph glyph-name="Edieresis" unicode="&#xcb;" horiz-adv-x="1064" 
d="M1017 364l-130 -383l-34 10q-17 5 -38 7t-44 2h-729v38q30 5 38.5 9.5t20.5 17.5q16 19 20.5 38.5t4.5 50.5v710v11q0 26 -2.5 39.5t-14.5 27t-24 17t-34 3.5v39h660q5 -1 18 -1q37 0 85 8q25 4 27 4q10 2 27 9l73 -338l-33 -25q-23 99 -101 168q-45 39 -107 59t-122 20
q-67 0 -99 -24q-21 -16 -29.5 -39t-8.5 -54v-109h141q20 0 38.5 5.5t35.5 19.5q34 30 34 73q0 10 -1 15l30 9l67 -381l-38 -6q-4 20 -20 51q-20 38 -45 60t-57 35.5t-54 13.5h-128v-286v-24v-16q0 -33 5 -56t23 -48t51 -37.5t76 -12.5q47 0 96.5 14t90.5 37q61 35 117 99
q63 71 80 137zM806 1176q0 -47 -30.5 -80.5t-79.5 -33.5t-86.5 33.5t-37.5 82.5t34 84t84 35q54 0 85 -35t31 -86zM521 1176q0 -47 -30.5 -80.5t-78.5 -33.5q-51 0 -87.5 33t-36.5 83q0 49 34 84t84 35q55 0 85 -34.5t30 -86.5z" />
    <glyph glyph-name="Egrave" unicode="&#xc8;" horiz-adv-x="1056" 
d="M1017 364l-130 -383l-34 10q-17 5 -38 7t-44 2h-729v38q30 5 38.5 9.5t20.5 17.5q16 19 20.5 38.5t4.5 50.5v710v11q0 26 -2.5 39.5t-14.5 27t-24 17t-34 3.5v39h660q5 -1 18 -1q37 0 85 8q25 4 27 4q10 2 27 9l73 -338l-33 -25q-23 99 -101 168q-45 39 -107 59t-122 20
q-67 0 -99 -24q-21 -16 -29.5 -39t-8.5 -54v-109h141q20 0 38.5 5.5t35.5 19.5q34 30 34 73q0 10 -1 15l30 9l67 -381l-38 -6q-4 20 -20 51q-20 38 -45 60t-57 35.5t-54 13.5h-128v-286v-24v-16q0 -33 5 -56t23 -48t51 -37.5t76 -12.5q47 0 96.5 14t90.5 37q61 35 117 99
q63 71 80 137zM694 1108l-46 -48l-190 75q-99 37 -99 112q0 30 21 63q31 47 81 47q29 0 55 -15.5t48 -48.5z" />
    <glyph glyph-name="Iacute" unicode="&#xcd;" 
d="M533 962q-31 -6 -42 -12.5t-21 -20.5q-14 -19 -17.5 -42.5t-3.5 -60.5v-673q0 -29 5.5 -53.5t16.5 -35.5t26 -18.5t34 -7.5v-38h-485v38q40 0 67 33q13 15 17.5 33t4.5 43v676q0 43 -4 68t-19 45q-8 11 -23 16.5t-43 9.5v39h487v-39zM454 1312q21 -33 21 -63
q0 -73 -99 -112l-190 -74l-46 47l130 186q44 63 103 63q49 0 81 -47z" />
    <glyph glyph-name="Icircumflex" unicode="&#xce;" 
d="M533 962q-31 -6 -42 -12.5t-21 -20.5q-14 -19 -17.5 -42.5t-3.5 -60.5v-673q0 -29 5.5 -53.5t16.5 -35.5t26 -18.5t34 -7.5v-38h-485v38q40 0 67 33q13 15 17.5 33t4.5 43v676q0 43 -4 68t-19 45q-8 11 -23 16.5t-43 9.5v39h487v-39zM540 1130l-35 -64l-218 68l-226 -68
l-30 64l249 144z" />
    <glyph glyph-name="Idieresis" unicode="&#xcf;" 
d="M533 962q-31 -6 -42 -12.5t-21 -20.5q-14 -19 -17.5 -42.5t-3.5 -60.5v-673q0 -29 5.5 -53.5t16.5 -35.5t26 -18.5t34 -7.5v-38h-485v38q40 0 67 33q13 15 17.5 33t4.5 43v676q0 43 -4 68t-19 45q-8 11 -23 16.5t-43 9.5v39h487v-39zM542 1176q0 -47 -30.5 -80.5
t-79.5 -33.5t-86.5 33.5t-37.5 82.5t34 84t84 35q54 0 85 -35t31 -86zM257 1176q0 -47 -30.5 -80.5t-78.5 -33.5q-51 0 -87.5 33t-36.5 83q0 49 34 84t84 35q55 0 85 -34.5t30 -86.5z" />
    <glyph glyph-name="Igrave" unicode="&#xcc;" 
d="M533 962q-31 -6 -42 -12.5t-21 -20.5q-14 -19 -17.5 -42.5t-3.5 -60.5v-673q0 -29 5.5 -53.5t16.5 -35.5t26 -18.5t34 -7.5v-38h-485v38q40 0 67 33q13 15 17.5 33t4.5 43v676q0 43 -4 68t-19 45q-8 11 -23 16.5t-43 9.5v39h487v-39zM478 1108l-46 -48l-190 75
q-99 37 -99 112q0 30 21 63q31 47 81 47q29 0 55 -15.5t48 -48.5z" />
    <glyph glyph-name="Oacute" unicode="&#xd3;" horiz-adv-x="1216" 
d="M1164 492q0 -232 -142 -371q-149 -146 -410 -146q-249 0 -403 149.5t-154 375.5q0 227 161 379q157 148 383 148q241 0 392 -123q173 -141 173 -412zM833 509q0 141 -59 256q-68 132 -173 132q-87 0 -150.5 -120.5t-63.5 -263.5q0 -146 61 -269q69 -139 170 -139
q116 0 171 133q44 106 44 271zM814 1312q21 -33 21 -63q0 -73 -99 -112l-190 -74l-46 47l130 186q44 63 103 63q49 0 81 -47z" />
    <glyph glyph-name="Ocircumflex" unicode="&#xd4;" horiz-adv-x="1224" 
d="M1164 492q0 -232 -142 -371q-149 -146 -410 -146q-249 0 -403 149.5t-154 375.5q0 227 161 379q157 148 383 148q241 0 392 -123q173 -141 173 -412zM833 509q0 141 -59 256q-68 132 -173 132q-87 0 -150.5 -120.5t-63.5 -263.5q0 -146 61 -269q69 -139 170 -139
q116 0 171 133q44 106 44 271zM884 1130l-35 -64l-218 68l-226 -68l-30 64l249 144z" />
    <glyph glyph-name="Ograve" unicode="&#xd2;" horiz-adv-x="1224" 
d="M1164 492q0 -232 -142 -371q-149 -146 -410 -146q-249 0 -403 149.5t-154 375.5q0 227 161 379q157 148 383 148q241 0 392 -123q173 -141 173 -412zM833 509q0 141 -59 256q-68 132 -173 132q-87 0 -150.5 -120.5t-63.5 -263.5q0 -146 61 -269q69 -139 170 -139
q116 0 171 133q44 106 44 271zM782 1108l-46 -48l-190 75q-99 37 -99 112q0 30 21 63q31 47 81 47q29 0 55 -15.5t48 -48.5z" />
    <glyph glyph-name="Uacute" unicode="&#xda;" horiz-adv-x="1136" 
d="M1077 962q-31 -4 -53 -32q-18 -22 -24 -59t-6 -72v-13v-4v-485q0 -137 -105 -228q-99 -86 -251 -100q-20 -1 -37.5 -2.5t-41.5 -1.5q-183 0 -300 72q-130 80 -130 226v600q0 29 -3 42.5t-16 28.5q-25 28 -58 28v39h487v-39q-19 0 -35 -7.5t-33 -23.5t-24 -34.5t-7 -45.5
v-592q0 -72 69 -116q61 -39 146 -39q83 0 146.5 51.5t63.5 128.5v474v53q0 49 -6 79t-26 48q-27 24 -63 24v39h307v-39zM766 1312q21 -33 21 -63q0 -73 -99 -112l-190 -74l-46 47l130 186q44 63 103 63q49 0 81 -47z" />
    <glyph glyph-name="Ucircumflex" unicode="&#xdb;" horiz-adv-x="1136" 
d="M1077 962q-31 -4 -53 -32q-18 -22 -24 -59t-6 -72v-13v-4v-485q0 -137 -105 -228q-99 -86 -251 -100q-20 -1 -37.5 -2.5t-41.5 -1.5q-183 0 -300 72q-130 80 -130 226v600q0 29 -3 42.5t-16 28.5q-25 28 -58 28v39h487v-39q-19 0 -35 -7.5t-33 -23.5t-24 -34.5t-7 -45.5
v-592q0 -72 69 -116q61 -39 146 -39q83 0 146.5 51.5t63.5 128.5v474v53q0 49 -6 79t-26 48q-27 24 -63 24v39h307v-39zM892 1130l-35 -64l-218 68l-226 -68l-30 64l249 144z" />
    <glyph glyph-name="Ugrave" unicode="&#xd9;" horiz-adv-x="1136" 
d="M1077 962q-31 -4 -53 -32q-18 -22 -24 -59t-6 -72v-13v-4v-485q0 -137 -105 -228q-99 -86 -251 -100q-20 -1 -37.5 -2.5t-41.5 -1.5q-183 0 -300 72q-130 80 -130 226v600q0 29 -3 42.5t-16 28.5q-25 28 -58 28v39h487v-39q-19 0 -35 -7.5t-33 -23.5t-24 -34.5t-7 -45.5
v-592q0 -72 69 -116q61 -39 146 -39q83 0 146.5 51.5t63.5 128.5v474v53q0 49 -6 79t-26 48q-27 24 -63 24v39h307v-39zM782 1108l-46 -48l-190 75q-99 37 -99 112q0 30 21 63q31 47 81 47q29 0 55 -15.5t48 -48.5z" />
    </font>
</defs>
</svg>
