<?xml version="1.0" standalone="no"?>
<!DOCTYPE svg PUBLIC "-//W3C//DTD SVG 1.1//EN" "http://www.w3.org/Graphics/SVG/1.1/DTD/svg11.dtd" >
<svg>
<metadata>
Created by FontForge 20090622 at Wed Mar  1 15:19:26 2017
 By deploy user
Copyright (c) 2014, Vaibhav Singh (design) and Rosetta Type Foundry s.r.o. (post-production).
</metadata>
<defs>
<font id="Eczar-Bold" horiz-adv-x="0" >
  <font-face 
    font-family="Eczar"
    font-weight="700"
    font-stretch="normal"
    units-per-em="1000"
    panose-1="2 0 6 3 4 3 0 0 0 4"
    ascent="800"
    descent="-200"
    x-height="479"
    cap-height="662"
    bbox="-610 -594 2247 1110"
    underline-thickness="93"
    underline-position="-26"
    unicode-range="U+000D-U+A8FB"
  />
<missing-glyph horiz-adv-x="512" 
d="M465 458v-435h-418v435h418zM361 138v206h-207v-206h207z" />
    <glyph glyph-name=".notdef" horiz-adv-x="512" 
d="M465 458v-435h-418v435h418zM361 138v206h-207v-206h207z" />
    <glyph glyph-name="uni0000" horiz-adv-x="450" 
 />
    <glyph glyph-name="uni0000" horiz-adv-x="450" 
 />
    <glyph glyph-name="uni000D" unicode="&#xd;" horiz-adv-x="515" 
 />
    <glyph glyph-name="space" unicode=" " horiz-adv-x="265" 
 />
    <glyph glyph-name="uni00A0" unicode="&#xa0;" horiz-adv-x="265" 
 />
    <glyph glyph-name="uni2002" unicode="&#x2002;" horiz-adv-x="500" 
 />
    <glyph glyph-name="uni2003" unicode="&#x2003;" horiz-adv-x="950" 
 />
    <glyph glyph-name="uni2009" unicode="&#x2009;" horiz-adv-x="100" 
 />
    <glyph glyph-name="exclam" unicode="!" horiz-adv-x="349" 
d="M71 697q44 19 106 19q65 0 101 -21l-46 -443h-117zM171 183q81 -35 100 -102q-19 -67 -85 -101q-72 21 -105 85q11 74 90 118z" />
    <glyph glyph-name="quotedbl" unicode="&#x22;" horiz-adv-x="442" 
d="M11 437q42 105 42 194l-1 15l47 47l111 -22q5 -43 -25.5 -127t-75.5 -142zM240 437q42 105 42 194l-1 15l47 47l111 -22q5 -43 -25.5 -127t-75.5 -142z" />
    <glyph glyph-name="numbersign" unicode="#" horiz-adv-x="621" 
d="M467 324l-18 -117h89v-85h-102l-20 -133l-90 11l19 122h-108l-20 -133l-90 11l19 122h-92v85h105l18 117h-94v83h106l19 123l90 -10l-17 -113h107l19 123l90 -10l-17 -113h87v-83h-100zM376 324h-108l-18 -117h108z" />
    <glyph glyph-name="dollar" unicode="$" horiz-adv-x="598" 
d="M564 186q0 -79 -52.5 -130.5t-137.5 -67.5v-133h-123v129q-120 14 -199 58l1 2l-1 30q0 94 18 161h81l65 -145q57 -20 116 -22q54 25 54 75t-68 86l-122 59l-39 22q-106 64 -106 167q0 77 54.5 130.5t145.5 68.5v109h122v-106q90 -8 161 -35q-4 -121 -21 -191h-92
l-39 122q-50 20 -116 22q-45 -27 -45 -75q0 -33 31.5 -55.5t103 -54t114 -59.5t68.5 -68.5t26 -98.5z" />
    <glyph glyph-name="percent" unicode="%" horiz-adv-x="831" 
d="M42 433q0 70 47 122t112 52q66 0 113 -52t47 -124q0 -69 -44.5 -117.5t-110.5 -48.5q-67 0 -115.5 49.5t-48.5 118.5zM600 602l71 -58l-455 -574l-72 59zM225 354q30 26 30 79q0 34 -16 58.5t-45 24.5l-23 -4q-27 -29 -27 -77q0 -34 17 -58t50 -24zM469 149
q0 69 47.5 120.5t111.5 51.5q66 0 113 -52t47 -122t-44.5 -118.5t-110.5 -48.5q-67 0 -115.5 49.5t-48.5 119.5zM653 69q30 26 30 79q0 35 -16 59t-45 24l-23 -4q-27 -32 -27 -77q0 -34 17.5 -58t50.5 -24z" />
    <glyph glyph-name="ampersand" unicode="&#x26;" horiz-adv-x="701" 
d="M696 308q-69 45 -115 48q31 -63 31 -131q0 -113 -81.5 -183t-212.5 -70t-218.5 65.5t-87.5 166.5q0 57 29.5 98.5t77.5 63.5q-86 43 -86 128q0 74 68 124t174 50q114 0 210 -44l-53 -136l-182 76q-26 -11 -43.5 -36.5t-17.5 -55.5q0 -41 30 -73l105 -38l-17 -74
q-63 1 -99 -29t-36 -77q0 -53 42 -82t102 -29q58 0 100 23q55 43 55 124q0 54 -25 104l-56 -34l-38 71q190 115 282 115q62 0 105 -42z" />
    <glyph glyph-name="quotesingle" unicode="'" horiz-adv-x="186" 
d="M-27 499q32 78 32 169l-2 34l45 47l111 -16q2 -60 -24 -138t-65 -131z" />
    <glyph glyph-name="parenleft" unicode="(" horiz-adv-x="358" 
d="M217 -155q-186 223 -186 458q0 232 191 429l100 -56q-116 -187 -116 -369q0 -181 113 -405z" />
    <glyph glyph-name="parenright" unicode=")" horiz-adv-x="358" 
d="M39 -98q113 224 113 405q0 182 -116 369l100 56q191 -197 191 -429q0 -235 -186 -458z" />
    <glyph glyph-name="asterisk" unicode="*" horiz-adv-x="418" 
d="M132 584l-116 67l53 124l83 -122l30 131l134 -15l-102 -129l-62 13l10 -14zM228 653l134 15l28 -130l-153 54zM196 543l-101 -89l-99 93l158 42zM255 584l53 -123l-116 -67l6 164z" />
    <glyph glyph-name="plus" unicode="+" horiz-adv-x="570" 
d="M516 207h-178v-183h-107v183h-177v99h177v185h107v-185h178v-99z" />
    <glyph glyph-name="comma" unicode="," horiz-adv-x="308" 
d="M49 -91q64 54 69 111l-54 46q12 74 88 115q98 -36 98 -122q0 -57 -46.5 -114.5t-111.5 -86.5z" />
    <glyph glyph-name="hyphen" unicode="-" horiz-adv-x="463" 
d="M33 312l21 42h304l56 -90l-21 -42h-304z" />
    <glyph glyph-name="period" unicode="." horiz-adv-x="290" 
d="M206 -42q-27 11 -60 36t-50 49q40 79 89 108q60 -25 105 -85q-25 -68 -84 -108z" />
    <glyph glyph-name="slash" unicode="/" horiz-adv-x="422" 
d="M321 731l103 -45l-306 -807l-105 43z" />
    <glyph glyph-name="zero" unicode="0" horiz-adv-x="602" 
d="M24 324q0 146 79.5 244t200.5 98q119 0 195.5 -93.5t76.5 -241.5q0 -154 -75 -250t-199 -96t-201 95.5t-77 243.5zM259 569q-26 -31 -40 -97.5t-14 -136.5q0 -99 28.5 -177t84.5 -78q15 0 27 5q26 32 39.5 95.5t13.5 136.5q0 105 -28 180t-83 75z" />
    <glyph glyph-name="one" unicode="1" horiz-adv-x="454" 
d="M454 53l-3 -53h-418l-6 33q51 30 136 53v415l-118 -48l-35 66l252 151l74 -52v-544z" />
    <glyph glyph-name="two" unicode="2" horiz-adv-x="599" 
d="M558 207q-5 -107 -35 -207l-17 2v-2h-449l-21 90l221 238q88 101 88 163q0 39 -26.5 65t-77.5 26l-14 -1l-50 -176h-110q-18 68 -18 167l1 31q112 67 234 67q105 0 171.5 -56.5t66.5 -142.5q0 -54 -33 -108.5t-114 -136.5l-140 -141l4 -7l164 27l78 121z" />
    <glyph glyph-name="three" unicode="3" horiz-adv-x="591" 
d="M392 345q67 -8 111.5 -56.5t44.5 -114.5q0 -84 -75 -139t-193 -55q-126 0 -238 52l47 160q83 -49 139 -76.5t104 -33.5q34 34 34 79t-35.5 77.5t-96.5 32.5l-56 -2l-5 86h10q71 3 115 37t44 85q0 46 -35 75t-92 29l-44 -150l-102 1q-13 52 -13 128l2 48l-1 1
q93 61 227 61q104 0 170 -48t66 -123q0 -48 -32.5 -90t-95.5 -64z" />
    <glyph glyph-name="four" unicode="4" horiz-adv-x="614" 
d="M480 157v-91l73 -13l-3 -53h-350l-6 33q38 23 119 51v73h-265l-35 93l337 420l67 -15l63 -1v-390l110 3l4 -80l-31 -30h-83zM313 260v141l7 84l-156 -228z" />
    <glyph glyph-name="five" unicode="5" horiz-adv-x="573" 
d="M296 404q104 -2 172.5 -60t68.5 -148q0 -95 -70.5 -157t-182.5 -62q-59 0 -127 18.5t-122 51.5l53 157q59 -50 127.5 -83t126.5 -41q37 38 37 84q0 57 -47.5 86.5t-123.5 29.5q-41 0 -88 -15l-53 56l30 329h360v-1l48 1q2 -37 -3.5 -101t-15.5 -101h-106l-23 106l-123 7
l-14 -167q24 10 76 10z" />
    <glyph glyph-name="six" unicode="6" horiz-adv-x="582" 
d="M233 343q61 55 140 55q78 0 130.5 -55t52.5 -139q0 -97 -67.5 -160.5t-173.5 -63.5q-123 0 -202 79t-79 204q0 100 50.5 192.5t156 150t260.5 53.5v-165l-187 40q-51 -27 -79.5 -100t-28.5 -156q0 -93 35 -155t99 -58q52 35 52 112q0 47 -21.5 80t-55.5 33q-26 0 -59 -22
z" />
    <glyph glyph-name="seven" unicode="7" horiz-adv-x="510" 
d="M515 555q-155 -272 -272 -577l-164 56q139 299 282 505l-7 8l-182 -7l-18 -106h-114q-18 77 -18 184l1 32h447z" />
    <glyph glyph-name="eight" unicode="8" horiz-adv-x="570" 
d="M408 352q125 -78 125 -183q0 -85 -69 -138t-178 -53t-179 51.5t-70 131.5q0 51 30 95.5t85 73.5q-95 64 -95 153q0 80 65 132.5t166 52.5q95 0 157 -47t62 -119q0 -95 -99 -150zM235 575q-24 -28 -24 -61q0 -35 26.5 -59t81.5 -53q48 41 48 95q0 38 -24 63t-62 25
q-23 0 -46 -10zM351 67q22 35 22 67q0 40 -25 69t-88 65q-59 -45 -59 -113q0 -41 26 -69t72 -28q28 0 52 9z" />
    <glyph glyph-name="nine" unicode="9" horiz-adv-x="570" 
d="M338 248q-47 -19 -95 -19q-91 0 -153.5 62t-62.5 155q0 97 68.5 160.5t175.5 63.5q122 0 197 -84.5t75 -217.5q0 -164 -114 -271.5t-286 -107.5l-33 1l-28 169l194 -46q51 30 76 99.5t25 154.5q0 88 -27 148.5t-80 60.5l-17 -2q-24 -11 -37.5 -43t-13.5 -71
q0 -52 27 -87.5t72 -35.5l27 3z" />
    <glyph glyph-name="colon" unicode=":" horiz-adv-x="362" 
d="M268 390q-19 -67 -85 -101q-72 23 -105 85q11 76 90 117q82 -37 100 -101zM268 81q-19 -67 -85 -101q-72 21 -105 85q11 74 90 118q81 -35 100 -102z" />
    <glyph glyph-name="semicolon" unicode=";" horiz-adv-x="312" 
d="M254 390q-19 -67 -85 -101q-72 23 -105 85q11 76 90 117q82 -37 100 -101zM49 -91q64 54 69 111l-54 46q12 74 88 115q98 -36 98 -122q0 -57 -46.5 -114.5t-111.5 -86.5z" />
    <glyph glyph-name="less" unicode="&#x3c;" horiz-adv-x="577" 
d="M511 412l-298 -167l1 -6l299 -153l-48 -92l-399 208l-4 70l402 228z" />
    <glyph glyph-name="equal" unicode="=" horiz-adv-x="580" 
d="M526 304h-472v89h472v-89zM526 118h-472v89h472v-89z" />
    <glyph glyph-name="greater" unicode="&#x3e;" horiz-adv-x="577" 
d="M112 500l402 -228l-3 -70l-399 -208l-49 92l300 153l1 6l-299 167z" />
    <glyph glyph-name="question" unicode="?" horiz-adv-x="641" 
d="M307 719q107 0 174.5 -57t67.5 -143q0 -67 -48 -114l-81 -72q-41 -39 -49 -84h-144q-1 55 21 91.5t60 74t51.5 59t13.5 48.5q0 62 -56 87q-26 0 -50 -6l-55 -146h-101q-10 43 -16.5 99t-4.5 80l-1 2q94 81 218 81zM308 183q81 -35 100 -102q-19 -67 -85 -101
q-72 21 -105 85q11 74 90 118z" />
    <glyph glyph-name="at" unicode="@" horiz-adv-x="1083" 
d="M556 730q158 0 268 -59.5t164.5 -154.5t54.5 -200q0 -128 -75 -220.5t-198 -112.5q-116 -7 -160 73l-106 -69l-35 -3q-65 0 -108 38t-43 91q0 33 20.5 65.5t60.5 52.5l190 5v77q0 77 -46 100q-31 -2 -56 -11l-24 -112l-99 -1q-19 63 -19 124l1 28q62 23 139.5 39
t122.5 16q41 0 81 -20t61 -52q11 -19 12 -76v-224q0 -28 18 -28q20 0 44.5 29t39.5 80t15 104q0 131 -86.5 211.5t-231.5 80.5q-153 0 -248.5 -91.5t-95.5 -237.5q0 -136 90 -263l-92 -57q-82 77 -123.5 168.5t-41.5 184.5q0 113 60 210.5t174.5 156t271.5 58.5zM489 124
q0 -26 17 -43q30 2 83 19v74q-100 5 -100 -50z" />
    <glyph glyph-name="A" unicode="A" horiz-adv-x="730" 
d="M742 53l-1 -53h-339l-6 32q28 20 80 45l-35 95h-220l-40 -105l86 -14l-1 -53h-280l-6 32q35 24 84 46l214 527l-15 41l156 40l251 -622zM409 256l-78 210l-79 -210h157z" />
    <glyph glyph-name="B" unicode="B" horiz-adv-x="693" 
d="M509 350q73 -15 113 -60.5t40 -105.5q0 -82 -70.5 -131.5t-191.5 -52.5h-370l-6 32q38 26 85 47v520l-71 10l1 53q134 8 338 8q114 0 185 -48t71 -123q0 -49 -32 -92.5t-92 -56.5zM290 568v-188h45q59 0 88.5 28.5t29.5 69.5q0 34 -18.5 65t-48.5 40zM360 85l15 -1
q49 0 75 31t26 73q0 47 -31.5 83t-78.5 37h-76v-215z" />
    <glyph glyph-name="C" unicode="C" horiz-adv-x="597" 
d="M589 72l-210 -89q-131 -5 -214 44t-119.5 128t-36.5 167q0 94 39.5 176t118.5 133t192 51q121 0 211 -65l1 -19q0 -81 -25 -173h-108l-30 134q-63 24 -130 27q-44 -39 -65.5 -103t-21.5 -135q0 -110 51.5 -180t148.5 -68l170 54z" />
    <glyph glyph-name="D" unicode="D" horiz-adv-x="732" 
d="M372 670q110 0 189 -48t119.5 -124.5t40.5 -160.5q0 -147 -94 -240.5t-248 -96.5h-349l-6 32q38 26 85 47v520l-71 10l1 53q151 8 333 8zM357 92q79 0 127 66.5t48 169.5q0 79 -31.5 150t-84.5 105l-126 -15v-466q34 -10 67 -10z" />
    <glyph glyph-name="E" unicode="E" horiz-adv-x="643" 
d="M593 208q2 -98 -12 -208h-551l-6 32q38 26 85 47v519l-75 11l1 53h553l1 -23q0 -92 -19 -179h-100l-18 102l-162 11v-202l209 17v-108l-209 9v-196l168 13l36 110z" />
    <glyph glyph-name="F" unicode="F" horiz-adv-x="623" 
d="M583 659l1 -24q0 -97 -19 -181h-100l-19 109l-161 11v-223l222 17v-114l-222 10v-192l122 -19l-1 -53h-375l-6 32q39 26 79 44v522l-74 11l1 53h553z" />
    <glyph glyph-name="G" unicode="G" horiz-adv-x="708" 
d="M614 238v-170l-222 -88l-31 -1q-123 0 -202 50.5t-114.5 128t-35.5 161.5q0 157 104.5 260t271.5 103q129 0 218 -61l1 -22q0 -75 -23 -160h-107l-31 121q-75 27 -161 26q-45 -37 -68.5 -102t-23.5 -139q0 -115 55.5 -185.5t148.5 -70.5l57 5v127q-65 29 -95 50l6 33h327
l1 -47z" />
    <glyph glyph-name="H" unicode="H" horiz-adv-x="829" 
d="M805 53l-1 -53h-350l-6 32q38 26 85 47v204h-243v-215l91 -15l-1 -53h-350l-6 32q38 26 85 47v518l-77 12l1 53h336l6 -32q-36 -26 -85 -47v-206h243v220l-77 12l1 53h336l6 -32q-36 -26 -85 -47v-515z" />
    <glyph glyph-name="I" unicode="I" horiz-adv-x="405" 
d="M381 53l-1 -53h-350l-6 32q38 26 85 47v518l-77 12l1 53h336l6 -32q-36 -26 -85 -47v-515z" />
    <glyph glyph-name="J" unicode="J" horiz-adv-x="406" 
d="M384 630q-36 -26 -85 -47v-437q-2 -177 -138 -264q-61 -39 -151 -70l-35 57q82 51 112.5 113t31.5 156v457l-85 14l1 53h343z" />
    <glyph glyph-name="K" unicode="K" horiz-adv-x="753" 
d="M746 53l-1 -53h-231l-195 274l-29 -31v-177l79 -13l-1 -53h-338l-6 32q38 26 85 47v518l-77 12l1 53h336l6 -32q-36 -26 -85 -47v-209l209 225l-65 10l1 53h265l6 -32q-27 -18 -90 -42l-179 -189l248 -334z" />
    <glyph glyph-name="L" unicode="L" horiz-adv-x="619" 
d="M616 209q0 -131 -14 -209h-572l-6 32q38 26 85 47v518l-77 12l1 53h336l6 -32q-36 -26 -85 -47v-490l178 17l45 145l103 -9v-37z" />
    <glyph glyph-name="M" unicode="M" horiz-adv-x="981" 
d="M956 47l-1 -47h-343l-6 32q32 23 85 47l-1 224l14 178l-176 -465l-128 -23l-175 484l15 -174l-3 -235l85 -21l-1 -47h-292l-6 32q40 28 88 48l12 502l-84 21l1 47h296l-1 -1l168 -469l175 470h258l6 -32q-33 -24 -86 -47l8 -501z" />
    <glyph glyph-name="N" unicode="N" horiz-adv-x="788" 
d="M764 630q-36 -25 -80 -44l-5 -586l-160 -13l-299 449l14 -121v-248l88 -14l-1 -53h-291l-6 32q38 26 85 47v517l-73 13l1 53h245l-1 -1l293 -450l-14 125v257l-99 16l1 53h296z" />
    <glyph glyph-name="O" unicode="O" horiz-adv-x="687" 
d="M341 682q146 0 240.5 -100.5t94.5 -259.5q0 -155 -91 -248.5t-237 -93.5q-148 0 -242.5 95.5t-94.5 250.5q0 157 93 256.5t237 99.5zM266 572q-29 -26 -47 -86.5t-18 -139.5q0 -122 43.5 -195.5t121.5 -73.5q25 0 47 8q33 31 53 94t20 140q0 118 -43 192t-115 74
q-30 0 -62 -13z" />
    <glyph glyph-name="P" unicode="P" horiz-adv-x="657" 
d="M285 233v-161l122 -19l-1 -53h-375l-6 32q39 26 79 44v522l-74 11l1 53l345 8q119 1 194 -61.5t75 -161.5q0 -90 -71.5 -150.5t-181.5 -62.5zM285 568v-234q35 -8 67 -8q54 0 82 35.5t28 88.5q0 40 -14 78.5t-39 54.5z" />
    <glyph glyph-name="Q" unicode="Q" horiz-adv-x="724" 
d="M658 -192l-287 173l-23 -1q-148 0 -242.5 95.5t-94.5 250.5q0 157 93 256.5t237 99.5q146 0 240.5 -100.5t94.5 -259.5q0 -112 -46 -189.5t-124 -116.5l233 -56zM201 346q0 -122 43.5 -195.5t121.5 -73.5q25 0 47 8q33 31 53 94t20 140q0 118 -43 192t-115 74
q-30 0 -62 -13q-29 -26 -47 -86.5t-18 -139.5z" />
    <glyph glyph-name="R" unicode="R" horiz-adv-x="719" 
d="M713 53l-1 -53h-224l-132 252l-66 -1v-185l83 -13l-1 -53h-342l-6 32q38 26 85 47v519l-75 11l1 53l339 8q120 0 197.5 -59.5t77.5 -149.5q0 -58 -35 -107.5t-95 -76.5l133 -215zM290 344q28 -7 56 -7q118 0 118 121q0 82 -51 125l-123 -15v-224z" />
    <glyph glyph-name="S" unicode="S" horiz-adv-x="600" 
d="M564 186q0 -92 -72.5 -148.5t-188.5 -56.5q-61 0 -131.5 16t-119.5 45l1 2l-1 30q0 94 18 161h81l65 -145q57 -20 116 -22q54 25 54 75t-68 86l-122 59l-39 22q-106 64 -106 167q0 91 75 148t194 57q112 0 214 -38q-4 -121 -21 -191h-92l-39 122q-50 20 -116 22
q-45 -27 -45 -75q0 -33 31.5 -55.5t103 -54t114 -59.5t68.5 -68.5t26 -98.5z" />
    <glyph glyph-name="T" unicode="T" horiz-adv-x="668" 
d="M661 668q2 -33 -4 -108.5t-15 -123.5h-94l-15 140l-108 10v-517l98 -16l-1 -53h-370l-6 32q29 20 98 50v504l-109 -10l-15 -140h-93q-20 87 -20 202l1 30l328 -4l324 4h1z" />
    <glyph glyph-name="U" unicode="U" horiz-adv-x="755" 
d="M748 630q-36 -26 -85 -47v-297q-1 -162 -74.5 -234t-194.5 -72q-141 0 -223.5 81.5t-86.5 224.5v311l-77 12l1 53h336l6 -32q-36 -26 -85 -47v-322q0 -91 40 -136t107 -45q49 0 83 25q42 46 43 179v312l-83 13l1 53h286z" />
    <glyph glyph-name="V" unicode="V" horiz-adv-x="724" 
d="M447 2l1 -1q-71 -12 -162 -17l-217 614l-72 11l1 53h331l6 -32q-36 -25 -80 -44l103 -326l13 -137h8l156 472l-88 14l1 53h272l6 -32q-30 -22 -77 -43z" />
    <glyph glyph-name="W" unicode="W" horiz-adv-x="1017" 
d="M1019 630q-32 -23 -73 -41l-169 -588q-64 -12 -159 -17l-106 337l-23 -117l-62 -203h-1q-62 -12 -158 -17l-197 614l-68 11l1 53h327l6 -32q-28 -21 -80 -45l87 -321l7 -141h6l104 361l-43 137l170 37l105 -378l9 -157h2l127 471l-95 15l1 53h276z" />
    <glyph glyph-name="X" unicode="X" horiz-adv-x="713" 
d="M727 53l-1 -53h-326l-6 32q25 18 57 33l-122 180l-117 -179l79 -13l-1 -53h-286l-6 32q37 25 86 47l181 260l-176 260l-65 10l1 53h309l6 -32l-51 -30l110 -162l99 159l-76 12l1 53h266l6 -32q-33 -23 -83 -46l-153 -233l195 -287z" />
    <glyph glyph-name="Y" unicode="Y" horiz-adv-x="672" 
d="M424 66l84 -13l-1 -53h-334l-6 32q34 24 82 45v168l-188 354l-64 10l1 53h288l6 -32l-52 -31l87 -163l28 -87h6l125 249l-71 11l1 53h257l6 -32q-32 -23 -87 -48l-168 -314v-202z" />
    <glyph glyph-name="Z" unicode="Z" horiz-adv-x="660" 
d="M624 223q-3 -82 -25 -220v-3l-518 -1l-49 80l376 499l-196 -14l-40 -135h-99q-11 69 -11 146l4 87h514l39 -77l-368 -490l214 8l53 134z" />
    <glyph glyph-name="bracketleft" unicode="[" horiz-adv-x="417" 
d="M389 650l-130 -34v-642l130 -34l-6 -62h-295v834h295z" />
    <glyph glyph-name="backslash" unicode="\" horiz-adv-x="410" 
d="M-29 681l127 50l308 -809l-128 -48z" />
    <glyph glyph-name="bracketright" unicode="]" horiz-adv-x="418" 
d="M329 712v-834h-295l-6 62l130 34v642l-130 34l6 62h295z" />
    <glyph glyph-name="asciicircum" unicode="^" horiz-adv-x="497" 
d="M292 650l193 -274l-81 -53l-152 216h-7l-143 -218l-86 53l186 276h90z" />
    <glyph glyph-name="underscore" unicode="_" horiz-adv-x="532" 
d="M522 -217h-512v89h512v-89z" />
    <glyph glyph-name="grave" unicode="`" horiz-adv-x="299" 
d="M169 558l-99 94l-51 43l108 95l154 -188l-87 -68z" />
    <glyph glyph-name="a" unicode="a" horiz-adv-x="563" 
d="M556 57l-132 -74q-28 1 -56 21t-46 52l-106 -69l-34 -3q-65 0 -108.5 38t-43.5 92q0 75 81 118l190 4v82q0 77 -46 101q-32 -2 -56 -12l-24 -110l-98 -2q-19 54 -19 114l2 37q60 23 139 39.5t122 16.5q89 0 141 -73q11 -19 12 -76v-229q0 -26 25 -26l27 1l24 2zM201 125
q0 -26 17 -43q30 2 83 19v74q-100 2 -100 -50z" />
    <glyph glyph-name="b" unicode="b" horiz-adv-x="573" 
d="M335 491l34 3q83 0 134.5 -66.5t51.5 -165.5q0 -123 -80 -201.5t-211 -78.5q-97 0 -209 38l1 1v616l-75 13l-4 50q84 30 198 37l54 -50v-273zM316 76q61 53 61 156q0 59 -27 100t-72 41q-24 0 -49 -12v-278q27 -9 59 -9z" />
    <glyph glyph-name="c" unicode="c" horiz-adv-x="463" 
d="M306 -13l-44 -3q-108 0 -179.5 71.5t-71.5 183.5q0 113 72 187t181 74q70 0 125 -33.5t74 -96.5l-137 -77q-43 85 -100 116q-48 -52 -48 -144q0 -75 36.5 -122t103.5 -47q47 0 109 30l24 -55z" />
    <glyph glyph-name="d" unicode="d" horiz-adv-x="592" 
d="M588 57l-133 -74q-30 1 -60 24t-47 61l-114 -85q-97 -1 -160 70.5t-63 180.5q0 114 74 188.5t192 74.5l56 -5v145l-74 13l-5 50q84 30 198 37l54 -50v-562q0 -27 25 -27l26 1l25 2zM191 252q0 -61 26.5 -101.5t72.5 -40.5q22 0 43 8v271q-40 18 -86 17q-56 -54 -56 -154z
" />
    <glyph glyph-name="e" unicode="e" horiz-adv-x="500" 
d="M426 229l-252 2q7 -65 46.5 -100t99.5 -35q53 0 127 38l25 -57l-157 -89l-46 -3q-111 0 -184.5 70t-73.5 179q0 111 74.5 188.5t180.5 77.5q97 0 158 -58.5t60 -154.5zM239 417q-48 -30 -61 -110l150 9q-6 41 -30.5 70.5t-58.5 30.5z" />
    <glyph glyph-name="f" unicode="f" horiz-adv-x="385" 
d="M256 360v-272q50 -14 91 -39l-2 -49h-327l-2 35q28 17 66 30v296l-74 -1l-2 55l76 44v74q0 93 59 155.5t145 62.5q78 0 149 -49l-90 -151q-64 63 -151 90l61 -168h112l2 -49l-51 -64h-62z" />
    <glyph glyph-name="g" unicode="g" horiz-adv-x="580" 
d="M189 119q81 -1 174 -16.5t168 -39.5q14 -34 14 -66q0 -96 -93.5 -170t-219.5 -74q-84 0 -148 37.5t-70 116.5l104 93l-53 3l-21 74q58 60 114 94q-61 21 -94.5 62.5t-33.5 92.5q0 75 67.5 126.5t169.5 51.5q81 0 142 -33q30 84 135 90l28 -142l-35 3q-32 0 -60 -11
q25 -37 25 -82q0 -75 -67 -124t-172 -49l-30 1zM224 420q-26 -22 -26 -90q0 -44 20 -73t57 -29q14 0 27 4q33 23 33 87q0 42 -23 74.5t-59 32.5q-14 0 -29 -6zM259 -119q50 0 96 16t68 45q-86 34 -242 52q-33 -30 -33 -55q0 -58 111 -58z" />
    <glyph glyph-name="h" unicode="h" horiz-adv-x="643" 
d="M563 85q38 -17 66 -36l-2 -49h-237v277q0 101 -64 101q-29 0 -63 -17v-281l54 -31l-2 -49h-298l-2 35q37 21 75 34v568l-74 13l-5 50q84 30 198 37l54 -50v-274q80 61 149 82q94 -3 139 -72q11 -20 12 -91v-247z" />
    <glyph glyph-name="i" unicode="i" horiz-adv-x="345" 
d="M182 551q-69 31 -119 91q40 77 99 120q67 -35 113 -102q-33 -66 -93 -109zM259 84q44 -15 72 -35l-2 -49h-317l-2 35q35 20 76 34v330l-74 14l-5 48q89 34 198 37l54 -48v-366z" />
    <glyph glyph-name="j" unicode="j" horiz-adv-x="328" 
d="M183 550q-74 35 -119 92q39 75 99 120q70 -38 113 -102q-32 -65 -93 -110zM207 498l54 -48v-495q0 -67 -69.5 -115.5t-184.5 -58.5l-17 42q94 31 98 113v463l-75 14l-5 48q89 34 198 37h1z" />
    <glyph glyph-name="k" unicode="k" horiz-adv-x="608" 
d="M544 76q20 -20 46 -35l-8 -47h-171q-20 12 -48 55l-100 161v-210h-247l-2 35q35 20 76 34v567l-76 14l-5 50q84 30 198 37v-1l2 1l54 -50v-429l110 146l-52 9l-5 49q85 32 202 36l47 -67l-146 -179z" />
    <glyph glyph-name="l" unicode="l" horiz-adv-x="351" 
d="M259 84q44 -15 72 -35l-2 -49h-317l-2 35q35 20 76 34v568l-74 13l-5 50q84 30 198 37l54 -50v-603z" />
    <glyph glyph-name="m" unicode="m" horiz-adv-x="948" 
d="M858 86q48 -17 77 -37l-3 -49h-247v277q0 101 -64 101q-28 0 -62 -16l1 -280q31 -13 60 -33l-3 -49h-230v277q0 101 -64 101q-25 0 -60 -15v-282q36 -16 58 -32l-2 -49h-301l-2 35q31 18 74 33v331l-74 14l-5 48q89 34 198 37l54 -54v-28q79 58 146 79q94 -3 139 -72
l6 -13q81 62 153 85q94 -3 139 -72q11 -20 12 -91v-246z" />
    <glyph glyph-name="n" unicode="n" horiz-adv-x="650" 
d="M565 84q44 -15 72 -35l-3 -49h-242v277q0 101 -64 101q-29 0 -65 -18v-279q36 -16 58 -32l-2 -49h-301l-2 35q31 18 74 33v331l-74 14l-5 48q89 34 198 37l54 -54v-32q81 61 151 83q94 -3 139 -72q11 -20 12 -91v-248z" />
    <glyph glyph-name="o" unicode="o" horiz-adv-x="527" 
d="M11 243q0 113 71 185t180 72t179 -73t70 -189q0 -115 -68.5 -186.5t-176.5 -71.5q-110 0 -182.5 74.5t-72.5 188.5zM299 75q37 28 37 152q0 177 -81 177q-25 0 -39 -11q-30 -40 -30 -152q0 -76 21 -123.5t64 -47.5q14 0 28 5z" />
    <glyph glyph-name="p" unicode="p" horiz-adv-x="602" 
d="M328 -6q-36 0 -71 7v-111q60 -24 95 -43l-2 -49h-330l-2 35l66 26v540l-73 14l-5 48q89 34 198 37v-1l53 -47v-37l105 78l34 3q82 0 134.5 -66.5t52.5 -166.5q0 -117 -71 -192t-184 -75zM305 373q-22 0 -48 -12v-274q45 -12 86 -9q25 24 40.5 66.5t15.5 87.5
q0 58 -25 99.5t-69 41.5z" />
    <glyph glyph-name="q" unicode="q" horiz-adv-x="583" 
d="M515 -122l54 -31l-2 -49h-325l-2 35q46 27 102 42v188l-100 -74q-98 -1 -160.5 71t-62.5 178q0 116 79 189.5t205 73.5q53 0 111.5 -14t100.5 -36v-573zM298 114q18 0 44 8v271q-40 18 -86 17q-56 -50 -56 -154q0 -60 26 -101t72 -41z" />
    <glyph glyph-name="r" unicode="r" horiz-adv-x="496" 
d="M263 328v-237q67 -16 109 -42l-2 -49h-352l-2 35q31 18 74 33v331l-74 14l-5 48q89 34 198 37l54 -75v-18l79 89q15 5 38 5q40 0 73.5 -20t46.5 -56l-115 -145q-67 56 -107 61z" />
    <glyph glyph-name="s" unicode="s" horiz-adv-x="459" 
d="M189 381q0 -18 13 -32.5t93 -56t108 -77t28 -80.5q0 -68 -56 -111.5t-149 -43.5q-105 0 -209 54l57 131q87 -67 180 -100q18 16 18 37q0 19 -14.5 34t-92 54.5t-105 74t-27.5 78.5q0 70 61.5 113.5t159.5 43.5q91 0 155 -33l2 -35q0 -52 -17 -105h-88l-31 91l-46 5
q-40 -12 -40 -42z" />
    <glyph glyph-name="t" unicode="t" horiz-adv-x="402" 
d="M289 111q35 0 80 9l7 -52l-165 -85q-50 -2 -91.5 31.5t-41.5 78.5v268h-73l-3 54q33 28 85 58l55 134h79l25 -134h138l1 -50l-50 -63h-84v-206q0 -43 38 -43z" />
    <glyph glyph-name="u" unicode="u" horiz-adv-x="634" 
d="M630 57l-133 -74q-29 2 -58.5 25t-47.5 60q-80 -61 -161 -85q-51 0 -96.5 32t-51.5 80l-3 57v247l-74 14l-5 48q89 34 198 37l54 -48v-264q0 -83 63 -83q31 0 60 13v286l-56 14l-5 48q80 32 180 34l54 -48v-326q0 -26 25 -26l26 1l25 2z" />
    <glyph glyph-name="v" unicode="v" horiz-adv-x="556" 
d="M559 430l-49 -28l-120 -303l-41 -96q-36 -11 -102 -11q-41 0 -62 4l-144 392l-64 36l1 55h218l79 -253l14 -76h14q31 162 52 329h201z" />
    <glyph glyph-name="w" unicode="w" horiz-adv-x="793" 
d="M795 430l-46 -27l-142 -398q-45 -14 -103 -14q-32 0 -57 5l-53 151l-61 -142q-40 -13 -105 -13q-39 0 -60 4l-135 395l-56 33l1 55h210l96 -343h14l51 141l-66 190l176 8l89 -339h13l27 343h204z" />
    <glyph glyph-name="x" unicode="x" horiz-adv-x="584" 
d="M490 94q50 -17 91 -45l-2 -49h-275l-2 35l32 17l-79 106l-30 -80q25 -11 51 -29l-2 -49h-276l-2 35l57 27l144 173l-111 149l-72 40v55h264l3 -49l-22 -14l62 -86l26 78l-36 16v55h246l3 -49l-59 -30l-126 -146z" />
    <glyph glyph-name="y" unicode="y" horiz-adv-x="570" 
d="M572 430l-49 -26l-51 -176l-36 -110q-42 -119 -109 -201t-187 -147l-90 156q132 40 224 90l-98 28l-124 338l-76 42l1 55h225l70 -243l8 -80h16q48 190 68 323h205z" />
    <glyph glyph-name="z" unicode="z" horiz-adv-x="525" 
d="M446 144l55 14q-16 -92 -36 -176l-331 43l-57 -43l-61 51l271 378l-104 -16l-39 -97h-92q-9 47 -9 106l4 69v6h372l33 21l56 -53l-253 -344l144 28z" />
    <glyph glyph-name="braceleft" unicode="{" horiz-adv-x="529" 
d="M433 -145q-116 7 -196 58t-80 119v126q-1 64 -21 85t-72 25l6 59q46 4 66 24.5t21 78.5v108q0 79 78 130.5t205 60.5l6 -109h-117l13 -186q0 -70 -57 -130v-9q57 -62 57 -131l-13 -188l114 -12z" />
    <glyph glyph-name="bar" unicode="|" horiz-adv-x="323" 
d="M96 735h128l1 -960h-129v960z" />
    <glyph glyph-name="braceright" unicode="}" horiz-adv-x="532" 
d="M87 -36l114 12l-12 173q-6 76 56 146v9q-62 68 -56 145l12 171h-117l6 109q127 -9 205 -60.5t78 -130.5v-108q1 -58 21 -78.5t66 -24.5l6 -59q-52 -4 -72 -25t-21 -85v-126q0 -68 -80 -119t-196 -58z" />
    <glyph glyph-name="asciitilde" unicode="~" horiz-adv-x="605" 
d="M70 229q51 77 78.5 108t54.5 31q35 0 205 -88l87 71l45 -38q-49 -81 -76.5 -113.5t-55.5 -32.5q-27 0 -119 46q-68 36 -86 36q-21 0 -79 -60z" />
    <glyph glyph-name="exclamdown" unicode="&#xa1;" horiz-adv-x="349" 
d="M71 -201q44 -19 106 -19q65 0 101 21l-46 443h-117zM171 313q81 35 100 102q-19 67 -85 101q-72 -21 -105 -85q11 -74 90 -118z" />
    <glyph glyph-name="cent" unicode="&#xa2;" horiz-adv-x="475" 
d="M451 86l-137 -75v-128h-98v124q-91 14 -148 79t-57 157t56.5 158.5t148.5 82.5v115h98v-115q119 -22 149 -118l-137 -72q-44 79 -100 109q-48 -48 -48 -135q0 -71 36.5 -115t103.5 -44q48 0 109 28z" />
    <glyph glyph-name="sterling" unicode="&#xa3;" horiz-adv-x="591" 
d="M547 224q9 -51 9 -142q0 -54 -4 -79l1 -3h-531l-6 32q37 25 86 47q30 61 30 122l-4 45h-104l-6 35l43 40h47l-9 26q-28 72 -28 114q0 87 74.5 148t184.5 61q106 0 204 -49l1 -40q0 -96 -14 -152h-88l-63 131q-33 11 -73 16q-43 -27 -43 -88q0 -35 17 -99l12 -52h136
l6 -35l-43 -40h-89q3 -90 -47 -165l164 10l55 124z" />
    <glyph glyph-name="currency" unicode="&#xa4;" horiz-adv-x="510" 
d="M439 357q0 -70 -37 -120l58 -63l-50 -49l-59 64q-45 -28 -97 -28q-54 0 -95 26l-53 -64l-52 47l55 62q-40 54 -40 125q0 66 37 116l-58 65l53 47l57 -64q46 29 100 29q55 0 98 -27l52 61l54 -45l-57 -63q34 -50 34 -119zM305 257q32 25 32 91q0 45 -24 76.5t-75 31.5
l-33 -3q-34 -32 -34 -90q0 -45 25.5 -77.5t74.5 -32.5z" />
    <glyph glyph-name="yen" unicode="&#xa5;" horiz-adv-x="663" 
d="M401 236v-48h130l6 -35l-43 -36h-93v-51l84 -13l-1 -53h-334l-6 32q34 24 82 45v40h-125l-6 35l43 36h88v48h-125l-6 35l43 35h56l-156 293l-64 10l1 53h288l6 -32l-52 -31l87 -163l28 -87h6l125 249l-71 11l1 53h257l6 -32q-32 -23 -87 -48l-148 -276h110l6 -35l-43 -35
h-93z" />
    <glyph glyph-name="brokenbar" unicode="&#xa6;" horiz-adv-x="322" 
d="M96 616h128v-258h-128v258zM96 182h128v-258h-128v258z" />
    <glyph glyph-name="section" unicode="&#xa7;" horiz-adv-x="541" 
d="M415 129q63 -50 63 -118q0 -69 -57.5 -114.5t-143.5 -45.5q-114 0 -210 60l68 124q79 -66 185 -92q30 19 30 49q0 20 -15 34.5t-100 51.5q-84 39 -127.5 77t-43.5 96q0 79 81 128q-72 53 -72 124q0 73 64.5 120.5t164.5 47.5q93 0 169 -34h1l1 -34q0 -66 -14 -122h-88
l-37 103q-32 7 -56 7l-16 -1q-45 -20 -45 -63q0 -35 46 -60l134 -67q103 -58 103 -142q0 -80 -85 -129zM190 280q0 -31 26.5 -49t84.5 -42l35 -14l13 -6q24 23 24 48q0 36 -30.5 58t-114.5 58l-8 4q-30 -27 -30 -57z" />
    <glyph glyph-name="dieresis" unicode="&#xa8;" horiz-adv-x="512" 
d="M225 644q-21 -64 -80 -95q-68 22 -99 80q10 71 83 110q77 -31 96 -95zM469 644q-21 -64 -81 -95q-68 22 -99 80q11 71 84 110q77 -31 96 -95z" />
    <glyph glyph-name="copyright" unicode="&#xa9;" horiz-adv-x="784" 
d="M392 -24q-150 0 -254.5 103t-104.5 253t104 254.5t252 104.5q150 0 255.5 -105.5t105.5 -254.5t-103.5 -252t-254.5 -103zM389 53q120 0 201.5 81.5t81.5 198.5q0 115 -82 197.5t-198 82.5t-198 -82t-82 -201q0 -117 79.5 -197t197.5 -80zM430 136l-24 -1
q-91 0 -148.5 54.5t-57.5 140.5q0 87 57.5 143t147.5 56q116 0 165 -109l-110 -60q-34 74 -86 98q-43 -43 -43 -109q0 -51 34 -83.5t96 -32.5q31 0 79 16l18 -45z" />
    <glyph glyph-name="ordfeminine" unicode="&#xaa;" horiz-adv-x="441" 
d="M225 458v49q0 49 -31 63l-40 -4l-17 -75l-72 -2q-11 52 -9 102q87 37 189 37q59 -4 93 -53q7 -15 7 -53v-131q0 -17 16 -17l35 2l3 -29l-92 -52q-48 2 -73 51l-71 -48l-26 -2q-46 0 -72.5 24t-26.5 58q0 49 51 78zM161 362q23 1 64 12v42l-11 1q-65 5 -65 -32
q0 -15 12 -23zM411 255v-63h-380v63h380z" />
    <glyph glyph-name="guillemotleft" unicode="&#xab;" horiz-adv-x="619" 
d="M220 476l83 -56l-88 -167l94 -158l-88 -62l-167 181v79zM476 476l83 -56l-88 -167l94 -158l-88 -62l-167 181v79z" />
    <glyph glyph-name="logicalnot" unicode="&#xac;" horiz-adv-x="592" 
d="M538 0h-107v179h-377v99h484v-278z" />
    <glyph glyph-name="uni00AD" unicode="&#xad;" horiz-adv-x="463" 
d="M33 312l21 42h304l56 -90l-21 -42h-304z" />
    <glyph glyph-name="registered" unicode="&#xae;" horiz-adv-x="574" 
d="M289 776q117 0 194.5 -77t77.5 -194q0 -118 -78 -195.5t-197 -77.5q-120 0 -197 77.5t-77 193.5q0 118 78.5 195.5t198.5 77.5zM282 289q96 0 157.5 59.5t61.5 154.5q0 96 -60.5 156.5t-154.5 60.5q-93 0 -153.5 -61.5t-60.5 -159.5q0 -94 58 -152t152 -58zM406 407
l29 -4v-25h-99l-55 99h-26v-69l36 -5l-1 -25h-146l-3 16l38 19v199l-34 4v27h149q55 0 86.5 -23.5t31.5 -59.5q0 -54 -56 -74zM255 516l20 -2q55 0 55 43q0 32 -29 49l-46 -6v-84z" />
    <glyph glyph-name="macron" unicode="&#xaf;" horiz-adv-x="443" 
d="M418 666l5 -53l-47 -46h-311l-6 74q51 25 113 25h246z" />
    <glyph glyph-name="degree" unicode="&#xb0;" horiz-adv-x="369" 
d="M30 517q0 60 40 100t98 40q59 0 100 -40t41 -100q0 -62 -38 -100t-99 -38q-59 0 -100.5 39.5t-41.5 98.5zM201 459q18 20 18 50q0 27 -15.5 48t-41.5 21q-16 0 -30 -7q-16 -21 -16 -49q0 -27 15.5 -47t43.5 -20q14 0 26 4z" />
    <glyph glyph-name="plusminus" unicode="&#xb1;" horiz-adv-x="554" 
d="M500 337h-170v-177h-107v177h-169v97h169v176h107v-176h170v-97zM495 0h-439v97h439v-97z" />
    <glyph glyph-name="twosuperior" unicode="&#xb2;" horiz-adv-x="322" 
d="M295 516l-16 -98h-233l-19 49l74 66q78 73 78 114q0 22 -13.5 37.5t-33.5 17.5l-32 -99h-59q-11 44 -11 92l1 15q57 41 126 41q56 0 91 -30t35 -73q0 -75 -129 -156l4 -7z" />
    <glyph glyph-name="threesuperior" unicode="&#xb3;" horiz-adv-x="331" 
d="M236 585q29 -6 47.5 -28t18.5 -53q0 -47 -41.5 -71.5t-101.5 -24.5q-71 0 -129 27l24 96q65 -52 118 -71q24 12 24 37q0 19 -15.5 33t-43.5 14h-33l-2 50h27q29 3 43.5 19t14.5 35q0 20 -13.5 34.5t-36.5 16.5l-38 -76h-50q-8 30 -8 78l1 17q50 33 122 33
q53 0 87.5 -27.5t34.5 -65.5q0 -51 -50 -71v-2z" />
    <glyph glyph-name="foursuperior" unicode="&#x2074;" horiz-adv-x="330" 
d="M310 547v-37l-18 -21h-39v-34l37 -8v-29h-200l-3 15q29 19 68 29v27h-136l-21 48l168 213v1h2l85 -15v-190zM155 545v37l13 72l-79 -110z" />
    <glyph glyph-name="acute" unicode="&#xb4;" horiz-adv-x="299" 
d="M18 602l154 188l108 -95l-51 -43l-99 -94l-25 -24z" />
    <glyph glyph-name="uni00B5" unicode="&#xb5;" horiz-adv-x="603" 
d="M599 57l-133 -74q-29 1 -59 25t-47 61q-75 -55 -155 -83q-27 1 -57 33h-5l83 -208q-13 -16 -53 -29.5t-81 -13.5q-25 0 -43 5l-1 700q97 22 173 20v-307q0 -83 68 -83q25 0 55 11v359q97 22 173 20v-369q0 -26 25 -26l26 1l25 2z" />
    <glyph glyph-name="paragraph" unicode="&#xb6;" horiz-adv-x="693" 
d="M580 -104l83 -10l-1 -51h-82v-1h-109v753l-74 4v-757h-109v1h-104l-6 42q33 15 110 35v667q-50 -19 -79 -61t-29 -101q0 -63 39 -127l-38 -37q-83 24 -132 86t-49 134q0 97 79.5 157.5t210.5 60.5l36 -1l341 -44l-7 -69l-80 4v-685z" />
    <glyph glyph-name="periodcentered" unicode="&#xb7;" horiz-adv-x="282" 
d="M140 182q-27 11 -60 36t-50 49q40 79 89 108q60 -25 105 -85q-25 -68 -84 -108z" />
    <glyph glyph-name="cedilla" unicode="&#xb8;" horiz-adv-x="286" 
d="M126 -57q53 0 91.5 -24.5t38.5 -59.5q0 -55 -57 -92t-146 -38l-19 34q46 16 71.5 39.5t25.5 45.5q0 43 -72 37l-27 45l63 76h67z" />
    <glyph glyph-name="onesuperior" unicode="&#xb9;" horiz-adv-x="272" 
d="M253 446v-28h-225l-3 15q30 22 65 32v187l-59 -23l-19 38l138 77v1l1 -1l1 1l1 -2l43 -27h1v-254z" />
    <glyph glyph-name="ordmasculine" unicode="&#xba;" horiz-adv-x="435" 
d="M81 581.5q51 49.5 125 49.5q72 0 120.5 -50t48.5 -126t-48.5 -123t-122.5 -47q-75 0 -124.5 48.5t-49.5 123.5t51 124.5zM231 356q7 5 14 27.5t7 57.5q0 112 -56 112l-19 -4q-23 -14 -23 -92q0 -102 59 -102zM391 192h-374v63h374v-63z" />
    <glyph glyph-name="guillemotright" unicode="&#xbb;" horiz-adv-x="619" 
d="M142 33l-88 62l95 158l-88 167l83 56l165 -183v-79zM398 33l-88 62l95 158l-88 167l83 56l165 -183v-79z" />
    <glyph glyph-name="onequarter" unicode="&#xbc;" horiz-adv-x="786" 
d="M253 365v-28h-225l-3 15q30 22 65 32v187l-59 -23l-19 38l138 77v1l1 -1l1 1l1 -2l43 -27h1v-254zM649 690l64 -64l-586 -613l-66 62zM766 129v-37l-18 -21h-39v-34l37 -8v-29h-200l-3 15q29 19 68 29v27h-136l-21 48l168 213v1h2l85 -15v-190zM611 127v37l13 72
l-79 -110z" />
    <glyph glyph-name="onehalf" unicode="&#xbd;" horiz-adv-x="765" 
d="M253 365v-28h-225l-3 15q30 22 65 32v187l-59 -23l-19 38l138 77v1l1 -1l1 1l1 -2l43 -27h1v-254zM649 690l64 -64l-586 -613l-66 62zM753 98l-16 -98h-233l-19 49l74 66q78 73 78 114q0 22 -13.5 37.5t-33.5 17.5l-32 -99h-59q-11 44 -11 92l1 15q57 41 126 41
q56 0 91 -30t35 -73q0 -75 -129 -156l4 -7z" />
    <glyph glyph-name="threequarters" unicode="&#xbe;" horiz-adv-x="823" 
d="M232 504q29 -6 47.5 -28t18.5 -53q0 -47 -41.5 -71.5t-101.5 -24.5q-71 0 -129 27l24 96q65 -52 118 -71q24 12 24 37q0 19 -15.5 33t-43.5 14h-33l-2 50h27q29 3 43.5 19t14.5 35q0 20 -13.5 34.5t-36.5 16.5l-38 -76h-50q-8 30 -8 78l1 17q50 33 122 33
q53 0 87.5 -27.5t34.5 -65.5q0 -51 -50 -71v-2zM687 690l64 -64l-586 -613l-66 62zM803 129v-37l-18 -21h-39v-34l37 -8v-29h-200l-3 15q29 19 68 29v27h-136l-21 48l168 213v1h2l85 -15v-190zM648 127v37l13 72l-79 -110z" />
    <glyph glyph-name="questiondown" unicode="&#xbf;" horiz-adv-x="641" 
d="M330 -249q-107 0 -174.5 57t-67.5 143q0 67 48 114l81 72q41 39 49 84h144q1 -55 -21 -91.5t-60 -74t-51.5 -59t-13.5 -48.5q0 -62 56 -87q26 0 50 6l55 146h101q10 -43 16.5 -99t4.5 -80l1 -2q-94 -81 -218 -81zM329 287q-81 35 -100 102q19 67 85 101q72 -21 105 -85
q-11 -74 -90 -118z" />
    <glyph glyph-name="Agrave" unicode="&#xc0;" horiz-adv-x="730" 
d="M742 53l-1 -53h-339l-6 32q28 20 80 45l-35 95h-220l-40 -105l86 -14l-1 -53h-280l-6 32q35 24 84 46l214 527l-15 41l156 40l251 -622zM409 256l-78 210l-79 -210h157zM457 686q-63 27 -259 100l62 124l244 -143z" />
    <glyph glyph-name="Aacute" unicode="&#xc1;" horiz-adv-x="730" 
d="M742 53l-1 -53h-339l-6 32q28 20 80 45l-35 95h-220l-40 -105l86 -14l-1 -53h-280l-6 32q35 24 84 46l214 527l-15 41l156 40l251 -622zM409 256l-78 210l-79 -210h157zM457 910l62 -124q-196 -73 -259 -100l-47 81z" />
    <glyph glyph-name="Acircumflex" unicode="&#xc2;" horiz-adv-x="730" 
d="M742 53l-1 -53h-339l-6 32q28 20 80 45l-35 95h-220l-40 -105l86 -14l-1 -53h-280l-6 32q35 24 84 46l214 527l-15 41l156 40l251 -622zM409 256l-78 210l-79 -210h157zM295 926h120l155 -165l-59 -57l-157 114l-151 -114l-62 57z" />
    <glyph glyph-name="Atilde" unicode="&#xc3;" horiz-adv-x="730" 
d="M742 53l-1 -53h-339l-6 32q28 20 80 45l-35 95h-220l-40 -105l86 -14l-1 -53h-280l-6 32q35 24 84 46l214 527l-15 41l156 40l251 -622zM409 256l-78 210l-79 -210h157zM128 763q51 77 78.5 108t54.5 31q35 0 205 -88l87 71l45 -38q-49 -81 -76.5 -113.5t-55.5 -32.5
q-27 0 -119 46q-68 36 -86 36q-21 0 -79 -60z" />
    <glyph glyph-name="Adieresis" unicode="&#xc4;" horiz-adv-x="730" 
d="M742 53l-1 -53h-339l-6 32q28 20 80 45l-35 95h-220l-40 -105l86 -14l-1 -53h-280l-6 32q35 24 84 46l214 527l-15 41l156 40l251 -622zM409 256l-78 210l-79 -210h157zM322 822q-21 -64 -80 -95q-68 22 -99 80q10 71 83 110q77 -31 96 -95zM566 822q-21 -64 -81 -95
q-68 22 -99 80q11 71 84 110q77 -31 96 -95z" />
    <glyph glyph-name="Aring" unicode="&#xc5;" horiz-adv-x="730" 
d="M742 53l-1 -53h-339l-6 32q28 20 80 45l-35 95h-220l-40 -105l86 -14l-1 -53h-280l-6 32q35 24 84 46l214 527l-15 41l156 40l251 -622zM409 256l-78 210l-79 -210h157zM231 832q0 53 35 88.5t88 35.5q52 0 87.5 -36t35.5 -91q0 -52 -33 -85.5t-86 -33.5q-54 0 -90.5 34
t-36.5 88zM296 816q0 -26 17.5 -42t42.5 -16t41 16t16 41q0 26 -17 42.5t-41 16.5q-25 0 -42 -16.5t-17 -41.5z" />
    <glyph glyph-name="AE" unicode="&#xc6;" horiz-adv-x="964" 
d="M924 208q2 -98 -12 -208l-12 1v-1h-540l-6 34q31 25 85 46v92h-184l-54 -106l84 -13l-1 -53h-280l-6 34q16 12 97 52l267 512l-73 11l1 53h628l1 -23q0 -92 -19 -179h-100l-18 101l-168 10v-201l215 18v-108l-215 9v-191l175 10l36 108zM439 256v281l-142 -281h142z" />
    <glyph glyph-name="Ccedilla" unicode="&#xc7;" horiz-adv-x="597" 
d="M329 -57q53 0 91.5 -24.5t38.5 -59.5q0 -55 -57 -92t-146 -38l-19 34q46 16 71.5 39.5t25.5 45.5q0 43 -72 37l-27 45l48 58q-129 20 -201.5 109t-72.5 225q0 94 39.5 176t118.5 133t192 51q121 0 211 -65l1 -19q0 -81 -25 -173h-108l-30 134q-63 24 -130 27
q-44 -39 -65.5 -103t-21.5 -135q0 -110 51.5 -180t148.5 -68l170 54l28 -82l-210 -89l-11 -1l-16 1z" />
    <glyph glyph-name="Egrave" unicode="&#xc8;" horiz-adv-x="643" 
d="M593 208q2 -98 -12 -208h-551l-6 32q38 26 85 47v519l-75 11l1 53h553l1 -23q0 -92 -19 -179h-100l-18 102l-162 11v-202l209 17v-108l-209 9v-196l168 13l36 110zM425 686q-63 27 -259 100l62 124l244 -143z" />
    <glyph glyph-name="Eacute" unicode="&#xc9;" horiz-adv-x="643" 
d="M593 208q2 -98 -12 -208h-551l-6 32q38 26 85 47v519l-75 11l1 53h553l1 -23q0 -92 -19 -179h-100l-18 102l-162 11v-202l209 17v-108l-209 9v-196l168 13l36 110zM425 910l62 -124q-196 -73 -259 -100l-47 81z" />
    <glyph glyph-name="Ecircumflex" unicode="&#xca;" horiz-adv-x="643" 
d="M593 208q2 -98 -12 -208h-551l-6 32q38 26 85 47v519l-75 11l1 53h553l1 -23q0 -92 -19 -179h-100l-18 102l-162 11v-202l209 17v-108l-209 9v-196l168 13l36 110zM263 926h120l155 -165l-59 -57l-157 114l-151 -114l-62 57z" />
    <glyph glyph-name="Edieresis" unicode="&#xcb;" horiz-adv-x="643" 
d="M593 208q2 -98 -12 -208h-551l-6 32q38 26 85 47v519l-75 11l1 53h553l1 -23q0 -92 -19 -179h-100l-18 102l-162 11v-202l209 17v-108l-209 9v-196l168 13l36 110zM290 822q-21 -64 -80 -95q-68 22 -99 80q10 71 83 110q77 -31 96 -95zM534 822q-21 -64 -81 -95
q-68 22 -99 80q11 71 84 110q77 -31 96 -95z" />
    <glyph glyph-name="Igrave" unicode="&#xcc;" horiz-adv-x="405" 
d="M381 53l-1 -53h-350l-6 32q38 26 85 47v518l-77 12l1 53h336l6 -32q-36 -26 -85 -47v-515zM304 686q-63 27 -259 100l62 124l244 -143z" />
    <glyph glyph-name="Iacute" unicode="&#xcd;" horiz-adv-x="405" 
d="M381 53l-1 -53h-350l-6 32q38 26 85 47v518l-77 12l1 53h336l6 -32q-36 -26 -85 -47v-515zM303 910l62 -124q-196 -73 -259 -100l-47 81z" />
    <glyph glyph-name="Icircumflex" unicode="&#xce;" horiz-adv-x="405" 
d="M381 53l-1 -53h-350l-6 32q38 26 85 47v518l-77 12l1 53h336l6 -32q-36 -26 -85 -47v-515zM142 926h120l155 -165l-59 -57l-157 114l-151 -114l-62 57z" />
    <glyph glyph-name="Idieresis" unicode="&#xcf;" horiz-adv-x="405" 
d="M381 53l-1 -53h-350l-6 32q38 26 85 47v518l-77 12l1 53h336l6 -32q-36 -26 -85 -47v-515zM168 822q-21 -64 -80 -95q-68 22 -99 80q10 71 83 110q77 -31 96 -95zM412 822q-21 -64 -81 -95q-68 22 -99 80q11 71 84 110q77 -31 96 -95z" />
    <glyph glyph-name="Eth" unicode="&#xd0;" horiz-adv-x="756" 
d="M372 670q110 0 189 -48t119.5 -124.5t40.5 -160.5q0 -147 -94 -240.5t-248 -96.5h-349l-6 32q38 26 85 47v189h-90l-6 35l43 43h53v253l-71 10l1 53q151 8 333 8zM357 92q79 0 127 66.5t48 169.5q0 79 -31.5 150t-84.5 105l-126 -15v-222h128l6 -35l-43 -43h-91v-166
q34 -10 67 -10z" />
    <glyph glyph-name="Ntilde" unicode="&#xd1;" horiz-adv-x="788" 
d="M764 630q-36 -25 -80 -44l-5 -586l-160 -13l-299 449l14 -121v-248l88 -14l-1 -53h-291l-6 32q38 26 85 47v517l-73 13l1 53h245l-1 -1l293 -450l-14 125v257l-99 16l1 53h296zM148 763q51 77 78.5 108t54.5 31q35 0 205 -88l87 71l45 -38q-49 -81 -76.5 -113.5
t-55.5 -32.5q-27 0 -119 46q-68 36 -86 36q-21 0 -79 -60z" />
    <glyph glyph-name="Ograve" unicode="&#xd2;" horiz-adv-x="687" 
d="M341 682q146 0 240.5 -100.5t94.5 -259.5q0 -155 -91 -248.5t-237 -93.5q-148 0 -242.5 95.5t-94.5 250.5q0 157 93 256.5t237 99.5zM266 572q-29 -26 -47 -86.5t-18 -139.5q0 -122 43.5 -195.5t121.5 -73.5q25 0 47 8q33 31 53 94t20 140q0 118 -43 192t-115 74
q-30 0 -62 -13zM447 686q-63 27 -259 100l62 124l244 -143z" />
    <glyph glyph-name="Oacute" unicode="&#xd3;" horiz-adv-x="687" 
d="M341 682q146 0 240.5 -100.5t94.5 -259.5q0 -155 -91 -248.5t-237 -93.5q-148 0 -242.5 95.5t-94.5 250.5q0 157 93 256.5t237 99.5zM266 572q-29 -26 -47 -86.5t-18 -139.5q0 -122 43.5 -195.5t121.5 -73.5q25 0 47 8q33 31 53 94t20 140q0 118 -43 192t-115 74
q-30 0 -62 -13zM447 910l62 -124q-196 -73 -259 -100l-47 81z" />
    <glyph glyph-name="Ocircumflex" unicode="&#xd4;" horiz-adv-x="687" 
d="M341 682q146 0 240.5 -100.5t94.5 -259.5q0 -155 -91 -248.5t-237 -93.5q-148 0 -242.5 95.5t-94.5 250.5q0 157 93 256.5t237 99.5zM266 572q-29 -26 -47 -86.5t-18 -139.5q0 -122 43.5 -195.5t121.5 -73.5q25 0 47 8q33 31 53 94t20 140q0 118 -43 192t-115 74
q-30 0 -62 -13zM285 926h120l155 -165l-59 -57l-157 114l-151 -114l-62 57z" />
    <glyph glyph-name="Otilde" unicode="&#xd5;" horiz-adv-x="687" 
d="M341 682q146 0 240.5 -100.5t94.5 -259.5q0 -155 -91 -248.5t-237 -93.5q-148 0 -242.5 95.5t-94.5 250.5q0 157 93 256.5t237 99.5zM266 572q-29 -26 -47 -86.5t-18 -139.5q0 -122 43.5 -195.5t121.5 -73.5q25 0 47 8q33 31 53 94t20 140q0 118 -43 192t-115 74
q-30 0 -62 -13zM118 763q51 77 78.5 108t54.5 31q35 0 205 -88l87 71l45 -38q-49 -81 -76.5 -113.5t-55.5 -32.5q-27 0 -119 46q-68 36 -86 36q-21 0 -79 -60z" />
    <glyph glyph-name="Odieresis" unicode="&#xd6;" horiz-adv-x="687" 
d="M341 682q146 0 240.5 -100.5t94.5 -259.5q0 -155 -91 -248.5t-237 -93.5q-148 0 -242.5 95.5t-94.5 250.5q0 157 93 256.5t237 99.5zM266 572q-29 -26 -47 -86.5t-18 -139.5q0 -122 43.5 -195.5t121.5 -73.5q25 0 47 8q33 31 53 94t20 140q0 118 -43 192t-115 74
q-30 0 -62 -13zM312 822q-21 -64 -80 -95q-68 22 -99 80q10 71 83 110q77 -31 96 -95zM556 822q-21 -64 -81 -95q-68 22 -99 80q11 71 84 110q77 -31 96 -95z" />
    <glyph glyph-name="multiply" unicode="&#xd7;" horiz-adv-x="557" 
d="M497 390l-147 -150l147 -148l-74 -74l-145 150l-144 -149l-72 71l145 148l-147 151l75 72l146 -150l143 149z" />
    <glyph glyph-name="Oslash" unicode="&#xd8;" horiz-adv-x="708" 
d="M558 605q118 -103 118 -283q0 -155 -91 -248.5t-237 -93.5q-64 0 -122 20l-50 -90l-75 41l48 88q-138 95 -138 287q0 157 93 256.5t237 99.5q76 0 144 -31l52 95l75 -43zM201 346q0 -97 27 -163l196 356q-40 46 -96 46q-30 0 -62 -13q-29 -26 -47 -86.5t-18 -139.5z
M413 85q33 31 53 94t20 140q0 69 -16 126l-187 -340q36 -28 83 -28q25 0 47 8z" />
    <glyph glyph-name="Ugrave" unicode="&#xd9;" horiz-adv-x="755" 
d="M748 630q-36 -26 -85 -47v-297q-1 -162 -74.5 -234t-194.5 -72q-141 0 -223.5 81.5t-86.5 224.5v311l-77 12l1 53h336l6 -32q-36 -26 -85 -47v-322q0 -91 40 -136t107 -45q49 0 83 25q42 46 43 179v312l-83 13l1 53h286zM481 686q-63 27 -259 100l62 124l244 -143z" />
    <glyph glyph-name="Uacute" unicode="&#xda;" horiz-adv-x="755" 
d="M748 630q-36 -26 -85 -47v-297q-1 -162 -74.5 -234t-194.5 -72q-141 0 -223.5 81.5t-86.5 224.5v311l-77 12l1 53h336l6 -32q-36 -26 -85 -47v-322q0 -91 40 -136t107 -45q49 0 83 25q42 46 43 179v312l-83 13l1 53h286zM481 910l62 -124q-196 -73 -259 -100l-47 81z" />
    <glyph glyph-name="Ucircumflex" unicode="&#xdb;" horiz-adv-x="755" 
d="M748 630q-36 -26 -85 -47v-297q-1 -162 -74.5 -234t-194.5 -72q-141 0 -223.5 81.5t-86.5 224.5v311l-77 12l1 53h336l6 -32q-36 -26 -85 -47v-322q0 -91 40 -136t107 -45q49 0 83 25q42 46 43 179v312l-83 13l1 53h286zM319 926h120l155 -165l-59 -57l-157 114
l-151 -114l-62 57z" />
    <glyph glyph-name="Udieresis" unicode="&#xdc;" horiz-adv-x="755" 
d="M748 630q-36 -26 -85 -47v-297q-1 -162 -74.5 -234t-194.5 -72q-141 0 -223.5 81.5t-86.5 224.5v311l-77 12l1 53h336l6 -32q-36 -26 -85 -47v-322q0 -91 40 -136t107 -45q49 0 83 25q42 46 43 179v312l-83 13l1 53h286zM346 822q-21 -64 -80 -95q-68 22 -99 80
q10 71 83 110q77 -31 96 -95zM590 822q-21 -64 -81 -95q-68 22 -99 80q11 71 84 110q77 -31 96 -95z" />
    <glyph glyph-name="Yacute" unicode="&#xdd;" horiz-adv-x="672" 
d="M424 66l84 -13l-1 -53h-334l-6 32q34 24 82 45v168l-188 354l-64 10l1 53h288l6 -32l-52 -31l87 -163l28 -87h6l125 249l-71 11l1 53h257l6 -32q-32 -23 -87 -48l-168 -314v-202zM457 910l62 -124q-196 -73 -259 -100l-47 81z" />
    <glyph glyph-name="Thorn" unicode="&#xde;" horiz-adv-x="644" 
d="M295 143v-75l91 -15l-1 -53h-352l-6 34q20 15 87 47v503l-79 13l1 53h334l6 -33q-14 -10 -81 -44v-49h84q108 0 176.5 -55.5t68.5 -137.5q0 -78 -64 -131t-165 -56zM295 419v-186l41 -5q53 0 81.5 28.5t28.5 71.5q0 63 -57 104z" />
    <glyph glyph-name="germandbls" unicode="&#xdf;" horiz-adv-x="647" 
d="M453 374q6 -23 38 -49l72 -56q68 -59 68 -132q0 -72 -54.5 -113.5t-137.5 -41.5q-70 0 -145 26l41 144q60 -53 114 -64q18 21 18 42q0 22 -12.5 38t-57.5 47.5t-66.5 57.5t-25.5 66q71 104 71 169q0 43 -27 74l-28 3q-44 0 -73 -18l6 -131v-436h-242l-2 35q31 18 72 33
v287l-80 -1l-2 55q36 32 82 54q0 89 38 135t93 67.5t104 21.5q91 0 155.5 -52.5t64.5 -124.5q0 -73 -84 -136z" />
    <glyph glyph-name="agrave" unicode="&#xe0;" horiz-adv-x="563" 
d="M556 57l-132 -74q-28 1 -56 21t-46 52l-106 -69l-34 -3q-65 0 -108.5 38t-43.5 92q0 75 81 118l190 4v82q0 77 -46 101q-32 -2 -56 -12l-24 -110l-98 -2q-19 54 -19 114l2 37q60 23 139 39.5t122 16.5q89 0 141 -73q11 -19 12 -76v-229q0 -26 25 -26l27 1l24 2zM201 125
q0 -26 17 -43q30 2 83 19v74q-100 2 -100 -50zM253 553l-99 94l-51 43l108 95l154 -188l-87 -68z" />
    <glyph glyph-name="aacute" unicode="&#xe1;" horiz-adv-x="563" 
d="M556 57l-132 -74q-28 1 -56 21t-46 52l-106 -69l-34 -3q-65 0 -108.5 38t-43.5 92q0 75 81 118l190 4v82q0 77 -46 101q-32 -2 -56 -12l-24 -110l-98 -2q-19 54 -19 114l2 37q60 23 139 39.5t122 16.5q89 0 141 -73q11 -19 12 -76v-229q0 -26 25 -26l27 1l24 2zM201 125
q0 -26 17 -43q30 2 83 19v74q-100 2 -100 -50zM166 597l154 188l108 -95l-51 -43l-99 -94l-25 -24z" />
    <glyph glyph-name="acircumflex" unicode="&#xe2;" horiz-adv-x="563" 
d="M556 57l-132 -74q-28 1 -56 21t-46 52l-106 -69l-34 -3q-65 0 -108.5 38t-43.5 92q0 75 81 118l190 4v82q0 77 -46 101q-32 -2 -56 -12l-24 -110l-98 -2q-19 54 -19 114l2 37q60 23 139 39.5t122 16.5q89 0 141 -73q11 -19 12 -76v-229q0 -26 25 -26l27 1l24 2zM201 125
q0 -26 17 -43q30 2 83 19v74q-100 2 -100 -50zM213 738h115l131 -156l-55 -53l-138 109l-122 -114l-65 50z" />
    <glyph glyph-name="atilde" unicode="&#xe3;" horiz-adv-x="563" 
d="M556 57l-132 -74q-28 1 -56 21t-46 52l-106 -69l-34 -3q-65 0 -108.5 38t-43.5 92q0 75 81 118l190 4v82q0 77 -46 101q-32 -2 -56 -12l-24 -110l-98 -2q-19 54 -19 114l2 37q60 23 139 39.5t122 16.5q89 0 141 -73q11 -19 12 -76v-229q0 -26 25 -26l27 1l24 2zM201 125
q0 -26 17 -43q30 2 83 19v74q-100 2 -100 -50zM51 589q54 90 84.5 119t64.5 29q21 0 71 -28.5t94 -61.5l82 83l54 -39q-78 -152 -138 -152q-18 0 -40 11.5t-67.5 42t-60.5 30.5t-33 -17.5t-54 -60.5z" />
    <glyph glyph-name="adieresis" unicode="&#xe4;" horiz-adv-x="563" 
d="M556 57l-132 -74q-28 1 -56 21t-46 52l-106 -69l-34 -3q-65 0 -108.5 38t-43.5 92q0 75 81 118l190 4v82q0 77 -46 101q-32 -2 -56 -12l-24 -110l-98 -2q-19 54 -19 114l2 37q60 23 139 39.5t122 16.5q89 0 141 -73q11 -19 12 -76v-229q0 -26 25 -26l27 1l24 2zM201 125
q0 -26 17 -43q30 2 83 19v74q-100 2 -100 -50zM233 639q-21 -64 -80 -95q-68 22 -99 80q10 71 83 110q77 -31 96 -95zM477 639q-21 -64 -81 -95q-68 22 -99 80q11 71 84 110q77 -31 96 -95z" />
    <glyph glyph-name="aring" unicode="&#xe5;" horiz-adv-x="563" 
d="M556 57l-132 -74q-28 1 -56 21t-46 52l-106 -69l-34 -3q-65 0 -108.5 38t-43.5 92q0 75 81 118l190 4v82q0 77 -46 101q-32 -2 -56 -12l-24 -110l-98 -2q-19 54 -19 114l2 37q60 23 139 39.5t122 16.5q89 0 141 -73q11 -19 12 -76v-229q0 -26 25 -26l27 1l24 2zM201 125
q0 -26 17 -43q30 2 83 19v74q-100 2 -100 -50zM142 650q0 53 35 88.5t88 35.5q52 0 87.5 -36t35.5 -91q0 -52 -33 -85.5t-86 -33.5q-54 0 -90.5 34t-36.5 88zM207 634q0 -26 17.5 -42t42.5 -16t41 16t16 41q0 26 -17 42.5t-41 16.5q-25 0 -42 -16.5t-17 -41.5z" />
    <glyph glyph-name="ae" unicode="&#xe6;" horiz-adv-x="793" 
d="M713 229l-248 2q6 -68 46 -101.5t100 -33.5q59 0 129 38l25 -57l-157 -89l-46 -3q-124 0 -198 84l-148 -82l-34 -3q-65 0 -108.5 38t-43.5 92q0 75 81 118l192 4l-1 85q-3 72 -46 92q-35 -2 -56 -11l-24 -110l-104 3q-14 50 -14 101l3 45q65 25 140.5 41t132.5 16
q41 -1 81 -45q66 47 144 47q97 0 158 -58.5t60 -154.5l-7 -1zM532 417q-50 -32 -63 -110l152 10q-6 41 -30.5 70t-58.5 30zM218 82q31 2 115 30q-16 30 -23 63h-6q-103 2 -103 -50q0 -26 17 -43z" />
    <glyph glyph-name="ccedilla" unicode="&#xe7;" horiz-adv-x="463" 
d="M306 -13l-38 -3l-23 -41q53 0 91.5 -24.5t38.5 -59.5q0 -55 -57 -92t-146 -38l-19 34q46 16 71.5 39.5t25.5 45.5q0 43 -72 37l-27 45l50 60q-84 19 -137 86t-53 163q0 113 72 187t181 74q70 0 125 -33.5t74 -96.5l-137 -77q-43 85 -100 116q-48 -52 -48 -144
q0 -75 36.5 -122t103.5 -47q47 0 109 30l24 -55z" />
    <glyph glyph-name="egrave" unicode="&#xe8;" horiz-adv-x="500" 
d="M426 229l-252 2q7 -65 46.5 -100t99.5 -35q53 0 127 38l25 -57l-157 -89l-46 -3q-111 0 -184.5 70t-73.5 179q0 111 74.5 188.5t180.5 77.5q97 0 158 -58.5t60 -154.5zM239 417q-48 -30 -61 -110l150 9q-6 41 -30.5 70.5t-58.5 30.5zM249 553l-99 94l-51 43l108 95
l154 -188l-87 -68z" />
    <glyph glyph-name="eacute" unicode="&#xe9;" horiz-adv-x="500" 
d="M426 229l-252 2q7 -65 46.5 -100t99.5 -35q53 0 127 38l25 -57l-157 -89l-46 -3q-111 0 -184.5 70t-73.5 179q0 111 74.5 188.5t180.5 77.5q97 0 158 -58.5t60 -154.5zM239 417q-48 -30 -61 -110l150 9q-6 41 -30.5 70.5t-58.5 30.5zM162 597l154 188l108 -95l-51 -43
l-99 -94l-25 -24z" />
    <glyph glyph-name="ecircumflex" unicode="&#xea;" horiz-adv-x="500" 
d="M426 229l-252 2q7 -65 46.5 -100t99.5 -35q53 0 127 38l25 -57l-157 -89l-46 -3q-111 0 -184.5 70t-73.5 179q0 111 74.5 188.5t180.5 77.5q97 0 158 -58.5t60 -154.5zM239 417q-48 -30 -61 -110l150 9q-6 41 -30.5 70.5t-58.5 30.5zM209 738h115l131 -156l-55 -53
l-138 109l-122 -114l-65 50z" />
    <glyph glyph-name="edieresis" unicode="&#xeb;" horiz-adv-x="500" 
d="M426 229l-252 2q7 -65 46.5 -100t99.5 -35q53 0 127 38l25 -57l-157 -89l-46 -3q-111 0 -184.5 70t-73.5 179q0 111 74.5 188.5t180.5 77.5q97 0 158 -58.5t60 -154.5zM239 417q-48 -30 -61 -110l150 9q-6 41 -30.5 70.5t-58.5 30.5zM229 639q-21 -64 -80 -95
q-68 22 -99 80q10 71 83 110q77 -31 96 -95zM473 639q-21 -64 -81 -95q-68 22 -99 80q11 71 84 110q77 -31 96 -95z" />
    <glyph glyph-name="igrave" unicode="&#xec;" horiz-adv-x="331" 
d="M259 81q36 -16 58 -32l-2 -49h-301l-2 35q31 18 74 33v325l-74 14l-5 48q89 34 198 37l54 -48v-363zM147 553l-99 94l-51 43l108 95l154 -188l-87 -68z" />
    <glyph glyph-name="iacute" unicode="&#xed;" horiz-adv-x="331" 
d="M259 81q36 -16 58 -32l-2 -49h-301l-2 35q31 18 74 33v325l-74 14l-5 48q89 34 198 37l54 -48v-363zM60 597l154 188l108 -95l-51 -43l-99 -94l-25 -24z" />
    <glyph glyph-name="icircumflex" unicode="&#xee;" horiz-adv-x="331" 
d="M259 81q36 -16 58 -32l-2 -49h-301l-2 35q31 18 74 33v325l-74 14l-5 48q89 34 198 37l54 -48v-363zM107 738h115l131 -156l-55 -53l-138 109l-122 -114l-65 50z" />
    <glyph glyph-name="idieresis" unicode="&#xef;" horiz-adv-x="331" 
d="M259 81q36 -16 58 -32l-2 -49h-301l-2 35q31 18 74 33v325l-74 14l-5 48q89 34 198 37l54 -48v-363zM127 639q-21 -64 -80 -95q-68 22 -99 80q10 71 83 110q77 -31 96 -95zM371 639q-21 -64 -81 -95q-68 22 -99 80q11 71 84 110q77 -31 96 -95z" />
    <glyph glyph-name="eth" unicode="&#xf0;" horiz-adv-x="541" 
d="M427 608q103 -189 103 -351q0 -127 -69.5 -205.5t-179.5 -78.5q-111 0 -187.5 75.5t-76.5 189.5q0 104 64 171.5t158 67.5q49 0 89 -21l-39 93l-67 -28l-67 43l-8 40l91 40l-45 70l121 61l56 -72l84 37l51 -99zM315 68q51 55 51 180q0 47 -9 90q-49 42 -105 49
q-26 -21 -42 -66t-16 -94q0 -67 31.5 -114t89.5 -45z" />
    <glyph glyph-name="ntilde" unicode="&#xf1;" horiz-adv-x="650" 
d="M565 84q44 -15 72 -35l-3 -49h-242v277q0 101 -64 101q-29 0 -65 -18v-279q36 -16 58 -32l-2 -49h-301l-2 35q31 18 74 33v331l-74 14l-5 48q89 34 198 37l54 -54v-32q81 61 151 83q94 -3 139 -72q11 -20 12 -91v-248zM111 589q54 90 84.5 119t64.5 29q21 0 71 -28.5
t94 -61.5l82 83l54 -39q-78 -152 -138 -152q-18 0 -40 11.5t-67.5 42t-60.5 30.5t-33 -17.5t-54 -60.5z" />
    <glyph glyph-name="ograve" unicode="&#xf2;" horiz-adv-x="527" 
d="M11 243q0 113 71 185t180 72t179 -73t70 -189q0 -115 -68.5 -186.5t-176.5 -71.5q-110 0 -182.5 74.5t-72.5 188.5zM299 75q37 28 37 152q0 177 -81 177q-25 0 -39 -11q-30 -40 -30 -152q0 -76 21 -123.5t64 -47.5q14 0 28 5zM249 553l-99 94l-51 43l108 95l154 -188
l-87 -68z" />
    <glyph glyph-name="oacute" unicode="&#xf3;" horiz-adv-x="527" 
d="M11 243q0 113 71 185t180 72t179 -73t70 -189q0 -115 -68.5 -186.5t-176.5 -71.5q-110 0 -182.5 74.5t-72.5 188.5zM299 75q37 28 37 152q0 177 -81 177q-25 0 -39 -11q-30 -40 -30 -152q0 -76 21 -123.5t64 -47.5q14 0 28 5zM162 597l154 188l108 -95l-51 -43l-99 -94
l-25 -24z" />
    <glyph glyph-name="ocircumflex" unicode="&#xf4;" horiz-adv-x="527" 
d="M11 243q0 113 71 185t180 72t179 -73t70 -189q0 -115 -68.5 -186.5t-176.5 -71.5q-110 0 -182.5 74.5t-72.5 188.5zM299 75q37 28 37 152q0 177 -81 177q-25 0 -39 -11q-30 -40 -30 -152q0 -76 21 -123.5t64 -47.5q14 0 28 5zM209 738h115l131 -156l-55 -53l-138 109
l-122 -114l-65 50z" />
    <glyph glyph-name="otilde" unicode="&#xf5;" horiz-adv-x="527" 
d="M11 243q0 113 71 185t180 72t179 -73t70 -189q0 -115 -68.5 -186.5t-176.5 -71.5q-110 0 -182.5 74.5t-72.5 188.5zM299 75q37 28 37 152q0 177 -81 177q-25 0 -39 -11q-30 -40 -30 -152q0 -76 21 -123.5t64 -47.5q14 0 28 5zM47 589q54 90 84.5 119t64.5 29
q21 0 71 -28.5t94 -61.5l82 83l54 -39q-78 -152 -138 -152q-18 0 -40 11.5t-67.5 42t-60.5 30.5t-33 -17.5t-54 -60.5z" />
    <glyph glyph-name="odieresis" unicode="&#xf6;" horiz-adv-x="527" 
d="M11 243q0 113 71 185t180 72t179 -73t70 -189q0 -115 -68.5 -186.5t-176.5 -71.5q-110 0 -182.5 74.5t-72.5 188.5zM299 75q37 28 37 152q0 177 -81 177q-25 0 -39 -11q-30 -40 -30 -152q0 -76 21 -123.5t64 -47.5q14 0 28 5zM229 639q-21 -64 -80 -95q-68 22 -99 80
q10 71 83 110q77 -31 96 -95zM473 639q-21 -64 -81 -95q-68 22 -99 80q11 71 84 110q77 -31 96 -95z" />
    <glyph glyph-name="divide" unicode="&#xf7;" horiz-adv-x="596" 
d="M386 438q-21 -64 -76 -90q-65 17 -96 77q9 65 81 106q71 -30 91 -93zM542 207h-488v99h488v-99zM385 71q-22 -65 -76 -91q-63 16 -96 77q9 65 81 106q71 -30 91 -92z" />
    <glyph glyph-name="oslash" unicode="&#xf8;" horiz-adv-x="536" 
d="M453 414q58 -69 58 -176q0 -115 -68.5 -186.5t-176.5 -71.5q-49 0 -95 17l-58 -85l-86 60l56 83q-72 74 -72 188q0 113 71 185t180 72q56 0 107 -23l42 62l88 -57zM186 241l1 -33l116 171q-19 25 -48 25q-25 0 -39 -11q-30 -40 -30 -152zM299 75q37 28 37 166l-106 -156
q17 -15 41 -15q14 0 28 5z" />
    <glyph glyph-name="ugrave" unicode="&#xf9;" horiz-adv-x="634" 
d="M630 57l-133 -74q-29 2 -58.5 25t-47.5 60q-80 -61 -161 -85q-51 0 -96.5 32t-51.5 80l-3 57v247l-74 14l-5 48q89 34 198 37l54 -48v-264q0 -83 63 -83q31 0 60 13v286l-56 14l-5 48q80 32 180 34l54 -48v-326q0 -26 25 -26l26 1l25 2zM282 553l-99 94l-51 43l108 95
l154 -188l-87 -68z" />
    <glyph glyph-name="uacute" unicode="&#xfa;" horiz-adv-x="634" 
d="M630 57l-133 -74q-29 2 -58.5 25t-47.5 60q-80 -61 -161 -85q-51 0 -96.5 32t-51.5 80l-3 57v247l-74 14l-5 48q89 34 198 37l54 -48v-264q0 -83 63 -83q31 0 60 13v286l-56 14l-5 48q80 32 180 34l54 -48v-326q0 -26 25 -26l26 1l25 2zM195 597l154 188l108 -95l-51 -43
l-99 -94l-25 -24z" />
    <glyph glyph-name="ucircumflex" unicode="&#xfb;" horiz-adv-x="634" 
d="M630 57l-133 -74q-29 2 -58.5 25t-47.5 60q-80 -61 -161 -85q-51 0 -96.5 32t-51.5 80l-3 57v247l-74 14l-5 48q89 34 198 37l54 -48v-264q0 -83 63 -83q31 0 60 13v286l-56 14l-5 48q80 32 180 34l54 -48v-326q0 -26 25 -26l26 1l25 2zM242 738h115l131 -156l-55 -53
l-138 109l-122 -114l-65 50z" />
    <glyph glyph-name="udieresis" unicode="&#xfc;" horiz-adv-x="634" 
d="M630 57l-133 -74q-29 2 -58.5 25t-47.5 60q-80 -61 -161 -85q-51 0 -96.5 32t-51.5 80l-3 57v247l-74 14l-5 48q89 34 198 37l54 -48v-264q0 -83 63 -83q31 0 60 13v286l-56 14l-5 48q80 32 180 34l54 -48v-326q0 -26 25 -26l26 1l25 2zM262 639q-21 -64 -80 -95
q-68 22 -99 80q10 71 83 110q77 -31 96 -95zM506 639q-21 -64 -81 -95q-68 22 -99 80q11 71 84 110q77 -31 96 -95z" />
    <glyph glyph-name="yacute" unicode="&#xfd;" horiz-adv-x="570" 
d="M572 430l-49 -26l-51 -176l-36 -110q-42 -119 -109 -201t-187 -147l-90 156q132 40 224 90l-98 28l-124 338l-76 42l1 55h225l70 -243l8 -80h16q48 190 68 323h205zM198 597l154 188l108 -95l-51 -43l-99 -94l-25 -24z" />
    <glyph glyph-name="thorn" unicode="&#xfe;" horiz-adv-x="585" 
d="M277 -18l-38 2v-94q46 -18 94 -43l-2 -49h-329l-2 35l66 26v581h1v186l-86 23l-4 48q91 34 210 40l54 -50v-274l107 78l34 3q83 0 134.5 -66.5t51.5 -165.5q0 -123 -80 -201.5t-211 -78.5zM291 373q-21 0 -50 -12v-277q30 -10 60 -10l28 2q61 53 61 156q0 59 -27 100
t-72 41z" />
    <glyph glyph-name="ydieresis" unicode="&#xff;" horiz-adv-x="570" 
d="M572 430l-49 -26l-51 -176l-36 -110q-42 -119 -109 -201t-187 -147l-90 156q132 40 224 90l-98 28l-124 338l-76 42l1 55h225l70 -243l8 -80h16q48 190 68 323h205zM265 639q-21 -64 -80 -95q-68 22 -99 80q10 71 83 110q77 -31 96 -95zM509 639q-21 -64 -81 -95
q-68 22 -99 80q11 71 84 110q77 -31 96 -95z" />
    <glyph glyph-name="Amacron" unicode="&#x100;" horiz-adv-x="730" 
d="M742 53l-1 -53h-339l-6 32q28 20 80 45l-35 95h-220l-40 -105l86 -14l-1 -53h-280l-6 32q35 24 84 46l214 527l-15 41l156 40l251 -622zM409 256l-78 210l-79 -210h157zM568 841l5 -53l-47 -46h-365l-6 74q49 25 113 25h300z" />
    <glyph glyph-name="amacron" unicode="&#x101;" horiz-adv-x="563" 
d="M556 57l-132 -74q-28 1 -56 21t-46 52l-106 -69l-34 -3q-65 0 -108.5 38t-43.5 92q0 75 81 118l190 4v82q0 77 -46 101q-32 -2 -56 -12l-24 -110l-98 -2q-19 54 -19 114l2 37q60 23 139 39.5t122 16.5q89 0 141 -73q11 -19 12 -76v-229q0 -26 25 -26l27 1l24 2zM201 125
q0 -26 17 -43q30 2 83 19v74q-100 2 -100 -50zM457 661l5 -53l-47 -46h-311l-6 74q51 25 113 25h246z" />
    <glyph glyph-name="Abreve" unicode="&#x102;" horiz-adv-x="730" 
d="M742 53l-1 -53h-339l-6 32q28 20 80 45l-35 95h-220l-40 -105l86 -14l-1 -53h-280l-6 32q35 24 84 46l214 527l-15 41l156 40l251 -622zM409 256l-78 210l-79 -210h157zM525 881q-7 -79 -53.5 -119t-112.5 -40q-69 0 -117 41t-56 116l99 6q10 -72 65 -72q58 0 64 70z" />
    <glyph glyph-name="abreve" unicode="&#x103;" horiz-adv-x="563" 
d="M556 57l-132 -74q-28 1 -56 21t-46 52l-106 -69l-34 -3q-65 0 -108.5 38t-43.5 92q0 75 81 118l190 4v82q0 77 -46 101q-32 -2 -56 -12l-24 -110l-98 -2q-19 54 -19 114l2 37q60 23 139 39.5t122 16.5q89 0 141 -73q11 -19 12 -76v-229q0 -26 25 -26l27 1l24 2zM201 125
q0 -26 17 -43q30 2 83 19v74q-100 2 -100 -50zM435 710q-1 -79 -49 -122t-117 -43q-71 0 -119.5 45.5t-52.5 119.5l98 5q8 -77 67 -77q27 0 44.5 20.5t17.5 55.5z" />
    <glyph glyph-name="Aogonek" unicode="&#x104;" horiz-adv-x="730" 
d="M670 0q-63 -38 -96 -71t-33 -69q0 -24 15 -38.5t41 -14.5q35 0 78 26l24 -50l-126 -67l-21 -1q-58 0 -94 33t-36 80t42.5 92.5t122.5 79.5h-185l-6 32q28 20 80 45l-35 95h-220l-40 -105l86 -14l-1 -53h-280l-6 32q35 24 84 46l214 527l-15 41l156 40l251 -622l72 -11
l-1 -53h-71zM409 256l-78 210l-79 -210h157z" />
    <glyph glyph-name="aogonek" unicode="&#x105;" horiz-adv-x="548" 
d="M377 -109q0 -53 57 -53q34 0 78 25l23 -51l-126 -66l-20 -1q-57 0 -94 33t-37 80q0 81 110 146q-28 18 -46 52l-106 -69l-34 -3q-65 0 -108.5 38t-43.5 92q0 75 81 118l190 4v82q0 77 -46 101q-32 -2 -56 -12l-24 -110l-98 -2q-19 54 -19 114l2 37q60 23 139 39.5
t122 16.5q89 0 141 -73q11 -19 12 -76v-229q0 -26 25 -26l27 1l24 2l6 -44l-55 -31q-61 -37 -92.5 -68.5t-31.5 -66.5zM201 125q0 -26 17 -43q30 2 83 19v74q-100 2 -100 -50z" />
    <glyph glyph-name="Cacute" unicode="&#x106;" horiz-adv-x="597" 
d="M589 72l-210 -89q-131 -5 -214 44t-119.5 128t-36.5 167q0 94 39.5 176t118.5 133t192 51q121 0 211 -65l1 -19q0 -81 -25 -173h-108l-30 134q-63 24 -130 27q-44 -39 -65.5 -103t-21.5 -135q0 -110 51.5 -180t148.5 -68l170 54zM437 910l62 -124q-196 -73 -259 -100
l-47 81z" />
    <glyph glyph-name="cacute" unicode="&#x107;" horiz-adv-x="463" 
d="M306 -13l-44 -3q-108 0 -179.5 71.5t-71.5 183.5q0 113 72 187t181 74q70 0 125 -33.5t74 -96.5l-137 -77q-43 85 -100 116q-48 -52 -48 -144q0 -75 36.5 -122t103.5 -47q47 0 109 30l24 -55zM163 597l154 188l108 -95l-51 -43l-99 -94l-25 -24z" />
    <glyph glyph-name="Ccaron" unicode="&#x10c;" horiz-adv-x="597" 
d="M589 72l-210 -89q-131 -5 -214 44t-119.5 128t-36.5 167q0 94 39.5 176t118.5 133t192 51q121 0 211 -65l1 -19q0 -81 -25 -173h-108l-30 134q-63 24 -130 27q-44 -39 -65.5 -103t-21.5 -135q0 -110 51.5 -180t148.5 -68l170 54zM336 801l135 120l68 -61l-150 -147
l-118 -2l-148 137l80 73z" />
    <glyph glyph-name="ccaron" unicode="&#x10d;" horiz-adv-x="463" 
d="M306 -13l-44 -3q-108 0 -179.5 71.5t-71.5 183.5q0 113 72 187t181 74q70 0 125 -33.5t74 -96.5l-137 -77q-43 85 -100 116q-48 -52 -48 -144q0 -75 36.5 -122t103.5 -47q47 0 109 30l24 -55zM265 628l119 142l74 -63l-133 -169l-125 -2l-146 154l88 79z" />
    <glyph glyph-name="Dcaron" unicode="&#x10e;" horiz-adv-x="732" 
d="M372 670q110 0 189 -48t119.5 -124.5t40.5 -160.5q0 -147 -94 -240.5t-248 -96.5h-349l-6 32q38 26 85 47v520l-71 10l1 53q151 8 333 8zM357 92q79 0 127 66.5t48 169.5q0 79 -31.5 150t-84.5 105l-126 -15v-466q34 -10 67 -10zM363 801l135 120l68 -61l-150 -147
l-118 -2l-148 137l80 73z" />
    <glyph glyph-name="dcaron" unicode="&#x10f;" horiz-adv-x="743" 
d="M588 57l-133 -74q-30 1 -60 24t-47 61l-114 -85q-97 -1 -160 70.5t-63 180.5q0 114 74 188.5t192 74.5l56 -5v145l-74 13l-5 50q84 30 198 37l54 -50v-562q0 -27 25 -27l26 1l25 2zM191 252q0 -61 26.5 -101.5t72.5 -40.5q22 0 43 8v271q-40 18 -86 17q-56 -54 -56 -154z
M713 810q33 -43 33 -99t-34 -113.5t-92 -104.5l-54 43q52 80 52 125q0 37 -33 44v48z" />
    <glyph glyph-name="Dcroat" unicode="&#x110;" horiz-adv-x="756" 
d="M372 670q110 0 189 -48t119.5 -124.5t40.5 -160.5q0 -147 -94 -240.5t-248 -96.5h-349l-6 32q38 26 85 47v189h-90l-6 35l43 43h53v253l-71 10l1 53q151 8 333 8zM357 92q79 0 127 66.5t48 169.5q0 79 -31.5 150t-84.5 105l-126 -15v-222h128l6 -35l-43 -43h-91v-166
q34 -10 67 -10z" />
    <glyph glyph-name="dcroat" unicode="&#x111;" horiz-adv-x="606" 
d="M557 99l25 2l6 -44l-133 -74q-30 1 -60 24t-47 61l-114 -85q-97 -1 -160 70.5t-63 180.5q0 114 74 188.5t192 74.5l56 -5v40h-109l-6 35l43 36h72v34l-74 13l-5 50q84 30 198 37l54 -50v-84h87l6 -35l-43 -36h-50v-410q0 -24 25 -24zM191 252q0 -61 26.5 -101.5
t72.5 -40.5q22 0 43 8v271q-40 18 -86 17q-56 -54 -56 -154z" />
    <glyph glyph-name="Emacron" unicode="&#x112;" horiz-adv-x="643" 
d="M593 208q2 -98 -12 -208h-551l-6 32q38 26 85 47v519l-75 11l1 53h553l1 -23q0 -92 -19 -179h-100l-18 102l-162 11v-202l209 17v-108l-209 9v-196l168 13l36 110zM536 841l5 -53l-47 -46h-365l-6 74q49 25 113 25h300z" />
    <glyph glyph-name="emacron" unicode="&#x113;" horiz-adv-x="500" 
d="M426 229l-252 2q7 -65 46.5 -100t99.5 -35q53 0 127 38l25 -57l-157 -89l-46 -3q-111 0 -184.5 70t-73.5 179q0 111 74.5 188.5t180.5 77.5q97 0 158 -58.5t60 -154.5zM239 417q-48 -30 -61 -110l150 9q-6 41 -30.5 70.5t-58.5 30.5zM453 661l5 -53l-47 -46h-311l-6 74
q51 25 113 25h246z" />
    <glyph glyph-name="Edotaccent" unicode="&#x116;" horiz-adv-x="643" 
d="M593 208q2 -98 -12 -208h-551l-6 32q38 26 85 47v519l-75 11l1 53h553l1 -23q0 -92 -19 -179h-100l-18 102l-162 11v-202l209 17v-108l-209 9v-196l168 13l36 110zM414 822q-20 -64 -79 -95q-69 20 -100 80q10 70 84 110q80 -32 95 -95z" />
    <glyph glyph-name="edotaccent" unicode="&#x117;" horiz-adv-x="500" 
d="M426 229l-252 2q7 -65 46.5 -100t99.5 -35q53 0 127 38l25 -57l-157 -89l-46 -3q-111 0 -184.5 70t-73.5 179q0 111 74.5 188.5t180.5 77.5q97 0 158 -58.5t60 -154.5zM239 417q-48 -30 -61 -110l150 9q-6 41 -30.5 70.5t-58.5 30.5zM353 639q-20 -64 -79 -95
q-69 20 -100 80q10 70 84 110q80 -32 95 -95z" />
    <glyph glyph-name="Eogonek" unicode="&#x118;" horiz-adv-x="646" 
d="M610 -219l-126 -67l-21 -1q-58 0 -94 33t-36 80q0 48 44 94t126 80h-473l-6 32q38 26 85 47v519l-75 11l1 53h553l1 -23q0 -92 -19 -179h-100l-18 102l-162 11v-202l209 17v-108l-209 9v-196l168 13l36 110l99 -8q2 -96 -12 -206l3 -2q-65 -40 -98.5 -73t-33.5 -69
q0 -24 15 -38.5t41 -14.5q35 0 78 26z" />
    <glyph glyph-name="eogonek" unicode="&#x119;" horiz-adv-x="515" 
d="M426 229l-252 2q7 -65 46.5 -100t99.5 -35q53 0 127 38l25 -57q-112 -68 -142.5 -99.5t-30.5 -65.5q0 -53 56 -53q35 0 77 24l24 -50l-126 -67l-20 -1q-55 0 -92.5 33.5t-37.5 80.5q0 55 57 108q-101 11 -163.5 79t-62.5 168q0 111 74.5 188.5t180.5 77.5q97 0 158 -58.5
t60 -154.5zM239 417q-48 -30 -61 -110l150 9q-6 41 -30.5 70.5t-58.5 30.5z" />
    <glyph glyph-name="Ecaron" unicode="&#x11a;" horiz-adv-x="643" 
d="M593 208q2 -98 -12 -208h-551l-6 32q38 26 85 47v519l-75 11l1 53h553l1 -23q0 -92 -19 -179h-100l-18 102l-162 11v-202l209 17v-108l-209 9v-196l168 13l36 110zM323 801l135 120l68 -61l-150 -147l-118 -2l-148 137l80 73z" />
    <glyph glyph-name="ecaron" unicode="&#x11b;" horiz-adv-x="500" 
d="M426 229l-252 2q7 -65 46.5 -100t99.5 -35q53 0 127 38l25 -57l-157 -89l-46 -3q-111 0 -184.5 70t-73.5 179q0 111 74.5 188.5t180.5 77.5q97 0 158 -58.5t60 -154.5zM239 417q-48 -30 -61 -110l150 9q-6 41 -30.5 70.5t-58.5 30.5zM264 628l119 142l74 -63l-133 -169
l-125 -2l-146 154l88 79z" />
    <glyph glyph-name="Gbreve" unicode="&#x11e;" horiz-adv-x="708" 
d="M614 238v-170l-222 -88l-31 -1q-123 0 -202 50.5t-114.5 128t-35.5 161.5q0 157 104.5 260t271.5 103q129 0 218 -61l1 -22q0 -75 -23 -160h-107l-31 121q-75 27 -161 26q-45 -37 -68.5 -102t-23.5 -139q0 -115 55.5 -185.5t148.5 -70.5l57 5v127q-65 29 -95 50l6 33h327
l1 -47zM524 881q-7 -79 -53.5 -119t-112.5 -40q-69 0 -117 41t-56 116l99 6q10 -72 65 -72q58 0 64 70z" />
    <glyph glyph-name="gbreve" unicode="&#x11f;" horiz-adv-x="580" 
d="M189 119q81 -1 174 -16.5t168 -39.5q14 -34 14 -66q0 -96 -93.5 -170t-219.5 -74q-84 0 -148 37.5t-70 116.5l104 93l-53 3l-21 74q58 60 114 94q-61 21 -94.5 62.5t-33.5 92.5q0 75 67.5 126.5t169.5 51.5q81 0 142 -33q30 84 135 90l28 -142l-35 3q-32 0 -60 -11
q25 -37 25 -82q0 -75 -67 -124t-172 -49l-30 1zM224 420q-26 -22 -26 -90q0 -44 20 -73t57 -29q14 0 27 4q33 23 33 87q0 42 -23 74.5t-59 32.5q-14 0 -29 -6zM259 -119q50 0 96 16t68 45q-86 34 -242 52q-33 -30 -33 -55q0 -58 111 -58zM435 710q-1 -79 -49 -122t-117 -43
q-71 0 -119.5 45.5t-52.5 119.5l98 5q8 -77 67 -77q27 0 44.5 20.5t17.5 55.5z" />
    <glyph glyph-name="uni0122" unicode="&#x122;" horiz-adv-x="708" 
d="M614 238v-170l-222 -88l-31 -1q-123 0 -202 50.5t-114.5 128t-35.5 161.5q0 157 104.5 260t271.5 103q129 0 218 -61l1 -22q0 -75 -23 -160h-107l-31 121q-75 27 -161 26q-45 -37 -68.5 -102t-23.5 -139q0 -115 55.5 -185.5t148.5 -70.5l57 5v127q-65 29 -95 50l6 33h327
l1 -47zM383 -67q55 -26 55 -81q0 -44 -33 -93.5t-71 -72.5l-52 37q32 41 32 78q0 32 -26 51l-2 37z" />
    <glyph glyph-name="uni0123" unicode="&#x123;" horiz-adv-x="580" 
d="M189 119q81 -1 174 -16.5t168 -39.5q14 -34 14 -66q0 -96 -93.5 -170t-219.5 -74q-84 0 -148 37.5t-70 116.5l104 93l-53 3l-21 74q58 60 114 94q-61 21 -94.5 62.5t-33.5 92.5q0 75 67.5 126.5t169.5 51.5q81 0 142 -33q30 84 135 90l28 -142l-35 3q-32 0 -60 -11
q25 -37 25 -82q0 -75 -67 -124t-172 -49l-30 1zM224 420q-26 -22 -26 -90q0 -44 20 -73t57 -29q14 0 27 4q33 23 33 87q0 42 -23 74.5t-59 32.5q-14 0 -29 -6zM259 -119q50 0 96 16t68 45q-86 34 -242 52q-33 -30 -33 -55q0 -58 111 -58zM331 775q55 -26 55 -81
q0 -44 -33 -93.5t-71 -72.5l-52 37q32 41 32 78q0 32 -26 51l-2 37z" />
    <glyph glyph-name="Imacron" unicode="&#x12a;" horiz-adv-x="421" 
d="M39 732l-6 74q49 25 113 25h243l5 -53l-47 -46h-308zM296 68l91 -15l-1 -53h-350l-6 32q38 26 85 47v518l-77 12l1 53h336l6 -32q-36 -26 -85 -47v-515z" />
    <glyph glyph-name="imacron" unicode="&#x12b;" horiz-adv-x="354" 
d="M19 569l-6 74q51 25 113 25h207l5 -53l-47 -46h-272zM269 81q36 -16 58 -32l-2 -49h-301l-2 35q31 18 74 33v325l-74 14l-5 48q89 34 198 37l54 -48v-363z" />
    <glyph glyph-name="Iogonek" unicode="&#x12e;" horiz-adv-x="405" 
d="M295 0q-63 -38 -96 -71t-33 -69q0 -24 15 -38.5t41 -14.5q35 0 78 26l24 -50l-126 -67l-21 -1q-58 0 -94 33t-36 80t42.5 92.5t122.5 79.5h-182l-6 32q38 26 85 47v518l-77 12l1 53h336l6 -32q-36 -26 -85 -47v-515l91 -15l-1 -53h-85z" />
    <glyph glyph-name="iogonek" unicode="&#x12f;" horiz-adv-x="352" 
d="M182 551q-69 31 -119 91q40 77 99 120q67 -35 113 -102q-33 -66 -93 -109zM290 0q-120 -73 -120 -133q0 -53 57 -53q34 0 78 25l23 -51l-126 -66l-20 -1q-57 0 -94 33t-37 80q0 45 38.5 88.5t111.5 77.5h-189l-2 35q35 20 76 34v330l-74 14l-5 48q89 34 198 37l54 -48
v-366q44 -15 72 -35l-2 -49h-39z" />
    <glyph glyph-name="Idotaccent" unicode="&#x130;" horiz-adv-x="405" 
d="M381 53l-1 -53h-350l-6 32q38 26 85 47v518l-77 12l1 53h336l6 -32q-36 -26 -85 -47v-515zM292 822q-20 -64 -79 -95q-69 20 -100 80q10 70 84 110q80 -32 95 -95z" />
    <glyph glyph-name="dotlessi" unicode="&#x131;" horiz-adv-x="331" 
d="M259 81q36 -16 58 -32l-2 -49h-301l-2 35q31 18 74 33v325l-74 14l-5 48q89 34 198 37l54 -48v-363z" />
    <glyph glyph-name="uni0136" unicode="&#x136;" horiz-adv-x="753" 
d="M746 53l-1 -53h-231l-195 274l-29 -31v-177l79 -13l-1 -53h-338l-6 32q38 26 85 47v518l-77 12l1 53h336l6 -32q-36 -26 -85 -47v-209l209 225l-65 10l1 53h265l6 -32q-27 -18 -90 -42l-179 -189l248 -334zM427 -67q55 -26 55 -81q0 -44 -33 -93.5t-71 -72.5l-52 37
q32 41 32 78q0 32 -26 51l-2 37z" />
    <glyph glyph-name="uni0137" unicode="&#x137;" horiz-adv-x="608" 
d="M544 76q20 -20 46 -35l-8 -47h-171q-20 12 -48 55l-100 161v-210h-247l-2 35q35 20 76 34v567l-76 14l-5 50q84 30 198 37v-1l2 1l54 -50v-429l110 146l-52 9l-5 49q85 32 202 36l47 -67l-146 -179zM346 -67q55 -26 55 -81q0 -44 -33 -93.5t-71 -72.5l-52 37q32 41 32 78
q0 32 -26 51l-2 37z" />
    <glyph glyph-name="Lacute" unicode="&#x139;" horiz-adv-x="619" 
d="M616 209q0 -131 -14 -209h-572l-6 32q38 26 85 47v518l-77 12l1 53h336l6 -32q-36 -26 -85 -47v-490l178 17l45 145l103 -9v-37zM316 910l62 -124q-196 -73 -259 -100l-47 81z" />
    <glyph glyph-name="lacute" unicode="&#x13a;" horiz-adv-x="351" 
d="M259 84q44 -15 72 -35l-2 -49h-317l-2 35q35 20 76 34v568l-74 13l-5 50q84 30 198 37l54 -50v-603zM270 995l62 -124q-196 -73 -259 -100l-47 81z" />
    <glyph glyph-name="uni013B" unicode="&#x13b;" horiz-adv-x="619" 
d="M616 209q0 -131 -14 -209h-572l-6 32q38 26 85 47v518l-77 12l1 53h336l6 -32q-36 -26 -85 -47v-490l178 17l45 145l103 -9v-37zM347 -67q55 -26 55 -81q0 -44 -33 -93.5t-71 -72.5l-52 37q32 41 32 78q0 32 -26 51l-2 37z" />
    <glyph glyph-name="uni013C" unicode="&#x13c;" horiz-adv-x="351" 
d="M259 84q44 -15 72 -35l-2 -49h-317l-2 35q35 20 76 34v568l-74 13l-5 50q84 30 198 37l54 -50v-603zM212 -67q55 -26 55 -81q0 -44 -33 -93.5t-71 -72.5l-52 37q32 41 32 78q0 32 -26 51l-2 37z" />
    <glyph glyph-name="Lcaron" unicode="&#x13d;" horiz-adv-x="631" 
d="M616 209q0 -131 -14 -209h-572l-6 32q38 26 85 47v518l-77 12l1 53h336l6 -32q-36 -26 -85 -47v-490l178 17l45 145l103 -9v-37zM582 758q33 -43 33 -99t-34 -113.5t-92 -104.5l-54 43q52 80 52 125q0 37 -33 44v48z" />
    <glyph glyph-name="lcaron" unicode="&#x13e;" horiz-adv-x="501" 
d="M259 84q44 -15 72 -35l-2 -49h-317l-2 35q35 20 76 34v568l-74 13l-5 50q84 30 198 37l54 -50v-603zM465 800q33 -43 33 -99t-34 -113.5t-92 -104.5l-54 43q52 80 52 125q0 37 -33 44v48z" />
    <glyph glyph-name="Lslash" unicode="&#x141;" horiz-adv-x="635" 
d="M634 209q0 -131 -14 -209h-572l-6 32q38 26 85 47v170l-71 -33l-29 61l100 47v273l-77 12l1 53h336l6 -32q-36 -26 -85 -47v-174l112 53l16 -24l-15 -52l-113 -53v-240l178 17l45 145l103 -9v-37z" />
    <glyph glyph-name="lslash" unicode="&#x142;" horiz-adv-x="432" 
d="M282 380v-296q44 -15 72 -35l-2 -49h-317l-2 35q35 20 76 34v223l-68 -34l-35 67l103 52v260l-74 13l-5 50q84 30 198 37l54 -50v-222l66 33l26 -16v-56z" />
    <glyph glyph-name="Nacute" unicode="&#x143;" horiz-adv-x="788" 
d="M764 630q-36 -25 -80 -44l-5 -586l-160 -13l-299 449l14 -121v-248l88 -14l-1 -53h-291l-6 32q38 26 85 47v517l-73 13l1 53h245l-1 -1l293 -450l-14 125v257l-99 16l1 53h296zM477 910l62 -124q-196 -73 -259 -100l-47 81z" />
    <glyph glyph-name="nacute" unicode="&#x144;" horiz-adv-x="650" 
d="M565 84q44 -15 72 -35l-3 -49h-242v277q0 101 -64 101q-29 0 -65 -18v-279q36 -16 58 -32l-2 -49h-301l-2 35q31 18 74 33v331l-74 14l-5 48q89 34 198 37l54 -54v-32q81 61 151 83q94 -3 139 -72q11 -20 12 -91v-248zM226 597l154 188l108 -95l-51 -43l-99 -94l-25 -24z
" />
    <glyph glyph-name="uni0145" unicode="&#x145;" horiz-adv-x="788" 
d="M764 630q-36 -25 -80 -44l-5 -586l-160 -13l-299 449l14 -121v-248l88 -14l-1 -53h-291l-6 32q38 26 85 47v517l-73 13l1 53h245l-1 -1l293 -450l-14 125v257l-99 16l1 53h296zM422 -67q55 -26 55 -81q0 -44 -33 -93.5t-71 -72.5l-52 37q32 41 32 78q0 32 -26 51l-2 37z
" />
    <glyph glyph-name="uni0146" unicode="&#x146;" horiz-adv-x="650" 
d="M565 84q44 -15 72 -35l-3 -49h-242v277q0 101 -64 101q-29 0 -65 -18v-279q36 -16 58 -32l-2 -49h-301l-2 35q31 18 74 33v331l-74 14l-5 48q89 34 198 37l54 -54v-32q81 61 151 83q94 -3 139 -72q11 -20 12 -91v-248zM363 -67q55 -26 55 -81q0 -44 -33 -93.5t-71 -72.5
l-52 37q32 41 32 78q0 32 -26 51l-2 37z" />
    <glyph glyph-name="Ncaron" unicode="&#x147;" horiz-adv-x="788" 
d="M764 630q-36 -25 -80 -44l-5 -586l-160 -13l-299 449l14 -121v-248l88 -14l-1 -53h-291l-6 32q38 26 85 47v517l-73 13l1 53h245l-1 -1l293 -450l-14 125v257l-99 16l1 53h296zM375 801l135 120l68 -61l-150 -147l-118 -2l-148 137l80 73z" />
    <glyph glyph-name="ncaron" unicode="&#x148;" horiz-adv-x="650" 
d="M565 84q44 -15 72 -35l-3 -49h-242v277q0 101 -64 101q-29 0 -65 -18v-279q36 -16 58 -32l-2 -49h-301l-2 35q31 18 74 33v331l-74 14l-5 48q89 34 198 37l54 -54v-32q81 61 151 83q94 -3 139 -72q11 -20 12 -91v-248zM328 628l119 142l74 -63l-133 -169l-125 -2
l-146 154l88 79z" />
    <glyph glyph-name="Omacron" unicode="&#x14c;" horiz-adv-x="687" 
d="M341 682q146 0 240.5 -100.5t94.5 -259.5q0 -155 -91 -248.5t-237 -93.5q-148 0 -242.5 95.5t-94.5 250.5q0 157 93 256.5t237 99.5zM266 572q-29 -26 -47 -86.5t-18 -139.5q0 -122 43.5 -195.5t121.5 -73.5q25 0 47 8q33 31 53 94t20 140q0 118 -43 192t-115 74
q-30 0 -62 -13zM558 841l5 -53l-47 -46h-365l-6 74q49 25 113 25h300z" />
    <glyph glyph-name="omacron" unicode="&#x14d;" horiz-adv-x="527" 
d="M11 243q0 113 71 185t180 72t179 -73t70 -189q0 -115 -68.5 -186.5t-176.5 -71.5q-110 0 -182.5 74.5t-72.5 188.5zM299 75q37 28 37 152q0 177 -81 177q-25 0 -39 -11q-30 -40 -30 -152q0 -76 21 -123.5t64 -47.5q14 0 28 5zM453 661l5 -53l-47 -46h-311l-6 74
q51 25 113 25h246z" />
    <glyph glyph-name="Ohungarumlaut" unicode="&#x150;" horiz-adv-x="687" 
d="M341 682q146 0 240.5 -100.5t94.5 -259.5q0 -155 -91 -248.5t-237 -93.5q-148 0 -242.5 95.5t-94.5 250.5q0 157 93 256.5t237 99.5zM266 572q-29 -26 -47 -86.5t-18 -139.5q0 -122 43.5 -195.5t121.5 -73.5q25 0 47 8q33 31 53 94t20 140q0 118 -43 192t-115 74
q-30 0 -62 -13zM320 935l95 -84l-175 -141l-73 64zM528 922l95 -85q-68 -50 -174 -141l-73 65z" />
    <glyph glyph-name="ohungarumlaut" unicode="&#x151;" horiz-adv-x="527" 
d="M11 243q0 113 71 185t180 72t179 -73t70 -189q0 -115 -68.5 -186.5t-176.5 -71.5q-110 0 -182.5 74.5t-72.5 188.5zM299 75q37 28 37 152q0 177 -81 177q-25 0 -39 -11q-30 -40 -30 -152q0 -76 21 -123.5t64 -47.5q14 0 28 5zM220 769l105 -77q-37 -32 -168 -163l-78 58z
M430 769l105 -77q-37 -32 -168 -163l-78 58z" />
    <glyph glyph-name="OE" unicode="&#x152;" horiz-adv-x="980" 
d="M951 208q2 -97 -11 -204v-4h-449q-49 -16 -115 -16q-88 0 -167 38t-128.5 116.5t-49.5 192.5q0 154 100.5 251.5t251.5 97.5q60 0 113 -18h449l1 -23q0 -92 -19 -179h-100l-18 101l-171 10v-200l207 17v-108l-207 9v-191l179 11l35 107zM212 337q0 -114 46.5 -185.5
t125.5 -71.5q40 0 73 15v468q-38 17 -90 17q-44 0 -76 -12q-37 -30 -58 -93.5t-21 -137.5z" />
    <glyph glyph-name="oe" unicode="&#x153;" horiz-adv-x="829" 
d="M755 229l-257 2q5 -66 45.5 -100.5t103.5 -34.5q57 0 129 38l24 -57l-156 -89l-42 -3q-95 0 -169 59q-68 -64 -167 -64q-110 0 -182.5 74.5t-72.5 188.5q0 113 71 185t180 72q101 0 167 -64q70 64 166 64q95 0 156.5 -58t61.5 -155zM567 417q-46 -29 -64 -110l153 9
q-6 41 -30.5 70.5t-58.5 30.5zM299 75q37 28 37 152q0 79 -20 128t-62 49q-24 0 -38 -11q-30 -42 -30 -153q0 -75 21 -122.5t64 -47.5q14 0 28 5z" />
    <glyph glyph-name="Racute" unicode="&#x154;" horiz-adv-x="719" 
d="M713 53l-1 -53h-224l-132 252l-66 -1v-185l83 -13l-1 -53h-342l-6 32q38 26 85 47v519l-75 11l1 53l339 8q120 0 197.5 -59.5t77.5 -149.5q0 -58 -35 -107.5t-95 -76.5l133 -215zM290 344q28 -7 56 -7q118 0 118 121q0 82 -51 125l-123 -15v-224zM441 910l62 -124
q-196 -73 -259 -100l-47 81z" />
    <glyph glyph-name="racute" unicode="&#x155;" horiz-adv-x="496" 
d="M263 328v-237q67 -16 109 -42l-2 -49h-352l-2 35q31 18 74 33v331l-74 14l-5 48q89 34 198 37l54 -75v-18l79 89q15 5 38 5q40 0 73.5 -20t46.5 -56l-115 -145q-67 56 -107 61zM164 597l154 188l108 -95l-51 -43l-99 -94l-25 -24z" />
    <glyph glyph-name="uni0156" unicode="&#x156;" horiz-adv-x="719" 
d="M713 53l-1 -53h-224l-132 252l-66 -1v-185l83 -13l-1 -53h-342l-6 32q38 26 85 47v519l-75 11l1 53l339 8q120 0 197.5 -59.5t77.5 -149.5q0 -58 -35 -107.5t-95 -76.5l133 -215zM290 344q28 -7 56 -7q118 0 118 121q0 82 -51 125l-123 -15v-224zM383 -67q55 -26 55 -81
q0 -44 -33 -93.5t-71 -72.5l-52 37q32 41 32 78q0 32 -26 51l-2 37z" />
    <glyph glyph-name="uni0157" unicode="&#x157;" horiz-adv-x="496" 
d="M263 328v-237q67 -16 109 -42l-2 -49h-352l-2 35q31 18 74 33v331l-74 14l-5 48q89 34 198 37l54 -75v-18l79 89q15 5 38 5q40 0 73.5 -20t46.5 -56l-115 -145q-67 56 -107 61zM223 -67q55 -26 55 -81q0 -44 -33 -93.5t-71 -72.5l-52 37q32 41 32 78q0 32 -26 51l-2 37z
" />
    <glyph glyph-name="Rcaron" unicode="&#x158;" horiz-adv-x="719" 
d="M713 53l-1 -53h-224l-132 252l-66 -1v-185l83 -13l-1 -53h-342l-6 32q38 26 85 47v519l-75 11l1 53l339 8q120 0 197.5 -59.5t77.5 -149.5q0 -58 -35 -107.5t-95 -76.5l133 -215zM290 344q28 -7 56 -7q118 0 118 121q0 82 -51 125l-123 -15v-224zM339 801l135 120l68 -61
l-150 -147l-118 -2l-148 137l80 73z" />
    <glyph glyph-name="rcaron" unicode="&#x159;" horiz-adv-x="496" 
d="M263 328v-237q67 -16 109 -42l-2 -49h-352l-2 35q31 18 74 33v331l-74 14l-5 48q89 34 198 37l54 -75v-18l79 89q15 5 38 5q40 0 73.5 -20t46.5 -56l-115 -145q-67 56 -107 61zM266 628l119 142l74 -63l-133 -169l-125 -2l-146 154l88 79z" />
    <glyph glyph-name="Sacute" unicode="&#x15a;" horiz-adv-x="600" 
d="M564 186q0 -92 -72.5 -148.5t-188.5 -56.5q-61 0 -131.5 16t-119.5 45l1 2l-1 30q0 94 18 161h81l65 -145q57 -20 116 -22q54 25 54 75t-68 86l-122 59l-39 22q-106 64 -106 167q0 91 75 148t194 57q112 0 214 -38q-4 -121 -21 -191h-92l-39 122q-50 20 -116 22
q-45 -27 -45 -75q0 -33 31.5 -55.5t103 -54t114 -59.5t68.5 -68.5t26 -98.5zM413 910l62 -124q-196 -73 -259 -100l-47 81z" />
    <glyph glyph-name="sacute" unicode="&#x15b;" horiz-adv-x="459" 
d="M189 381q0 -18 13 -32.5t93 -56t108 -77t28 -80.5q0 -68 -56 -111.5t-149 -43.5q-105 0 -209 54l57 131q87 -67 180 -100q18 16 18 37q0 19 -14.5 34t-92 54.5t-105 74t-27.5 78.5q0 70 61.5 113.5t159.5 43.5q91 0 155 -33l2 -35q0 -52 -17 -105h-88l-31 91l-46 5
q-40 -12 -40 -42zM142 597l154 188l108 -95l-51 -43l-99 -94l-25 -24z" />
    <glyph glyph-name="uni015E" unicode="&#x15e;" horiz-adv-x="600" 
d="M564 186q0 -89 -69.5 -145.5t-179.5 -59.5l-22 -38q53 0 91.5 -24.5t38.5 -59.5q0 -55 -57 -92t-146 -38l-19 34q46 16 71.5 39.5t25.5 45.5q0 43 -72 37l-27 45l45 55q-113 11 -192 57l1 2l-1 30q0 94 18 161h81l65 -145q57 -20 116 -22q54 25 54 75t-68 86l-122 59
l-39 22q-106 64 -106 167q0 91 75 148t194 57q112 0 214 -38q-4 -121 -21 -191h-92l-39 122q-50 20 -116 22q-45 -27 -45 -75q0 -33 31.5 -55.5t103 -54t114 -59.5t68.5 -68.5t26 -98.5z" />
    <glyph glyph-name="uni015F" unicode="&#x15f;" horiz-adv-x="459" 
d="M431 135q0 -62 -47.5 -104.5t-129.5 -49.5l-22 -38q53 0 91.5 -24.5t38.5 -59.5q0 -55 -57 -92t-146 -38l-19 34q46 16 71.5 39.5t25.5 45.5q0 43 -72 37l-27 45l44 53q-82 8 -165 51l57 131q87 -67 180 -100q18 16 18 37q0 19 -14.5 34t-92 54.5t-105 74t-27.5 78.5
q0 70 61.5 113.5t159.5 43.5q91 0 155 -33l2 -35q0 -52 -17 -105h-88l-31 91l-46 5q-40 -12 -40 -42q0 -18 13 -32.5t93 -56t108 -77t28 -80.5z" />
    <glyph glyph-name="Scaron" unicode="&#x160;" horiz-adv-x="600" 
d="M564 186q0 -92 -72.5 -148.5t-188.5 -56.5q-61 0 -131.5 16t-119.5 45l1 2l-1 30q0 94 18 161h81l65 -145q57 -20 116 -22q54 25 54 75t-68 86l-122 59l-39 22q-106 64 -106 167q0 91 75 148t194 57q112 0 214 -38q-4 -121 -21 -191h-92l-39 122q-50 20 -116 22
q-45 -27 -45 -75q0 -33 31.5 -55.5t103 -54t114 -59.5t68.5 -68.5t26 -98.5zM311 801l135 120l68 -61l-150 -147l-118 -2l-148 137l80 73z" />
    <glyph glyph-name="scaron" unicode="&#x161;" horiz-adv-x="459" 
d="M189 381q0 -18 13 -32.5t93 -56t108 -77t28 -80.5q0 -68 -56 -111.5t-149 -43.5q-105 0 -209 54l57 131q87 -67 180 -100q18 16 18 37q0 19 -14.5 34t-92 54.5t-105 74t-27.5 78.5q0 70 61.5 113.5t159.5 43.5q91 0 155 -33l2 -35q0 -52 -17 -105h-88l-31 91l-46 5
q-40 -12 -40 -42zM244 628l119 142l74 -63l-133 -169l-125 -2l-146 154l88 79z" />
    <glyph glyph-name="uni0162" unicode="&#x162;" horiz-adv-x="668" 
d="M661 668q2 -33 -4 -108.5t-15 -123.5h-94l-15 140l-108 10v-517l98 -16l-1 -53h-160l-33 -57q53 0 91.5 -24.5t38.5 -59.5q0 -55 -57 -92t-146 -38l-19 34q46 16 71.5 39.5t25.5 45.5q0 43 -72 37l-27 45l58 70h-141l-6 32q29 20 98 50v504l-109 -10l-15 -140h-93
q-20 87 -20 202l1 30l328 -4l324 4h1z" />
    <glyph glyph-name="uni0163" unicode="&#x163;" horiz-adv-x="402" 
d="M216 -14l-24 -43q53 0 91.5 -24.5t38.5 -59.5q0 -55 -57 -92t-146 -38l-19 34q46 16 71.5 39.5t25.5 45.5q0 43 -72 37l-27 45l54 65q-74 32 -74 106v260h-73l-3 54q33 28 85 58l55 134h79l25 -134h138l1 -50l-50 -63h-84v-206q0 -43 38 -43q35 0 80 9l7 -52z" />
    <glyph glyph-name="Tcaron" unicode="&#x164;" horiz-adv-x="668" 
d="M661 668q2 -33 -4 -108.5t-15 -123.5h-94l-15 140l-108 10v-517l98 -16l-1 -53h-370l-6 32q29 20 98 50v504l-109 -10l-15 -140h-93q-20 87 -20 202l1 30l328 -4l324 4h1zM336 801l135 120l68 -61l-150 -147l-118 -2l-148 137l80 73z" />
    <glyph glyph-name="tcaron" unicode="&#x165;" horiz-adv-x="591" 
d="M289 111q35 0 80 9l7 -52l-165 -85q-50 -2 -91.5 31.5t-41.5 78.5v268h-73l-3 54q33 28 85 58l55 134h79l25 -134h138l1 -50l-50 -63h-84v-206q0 -43 38 -43zM557 798q33 -43 33 -99t-34 -113.5t-92 -104.5l-54 43q52 80 52 125q0 37 -33 44v48z" />
    <glyph glyph-name="Umacron" unicode="&#x16a;" horiz-adv-x="755" 
d="M748 630q-36 -26 -85 -47v-297q-1 -162 -74.5 -234t-194.5 -72q-141 0 -223.5 81.5t-86.5 224.5v311l-77 12l1 53h336l6 -32q-36 -26 -85 -47v-322q0 -91 40 -136t107 -45q49 0 83 25q42 46 43 179v312l-83 13l1 53h286zM592 841l5 -53l-47 -46h-365l-6 74q49 25 113 25
h300z" />
    <glyph glyph-name="umacron" unicode="&#x16b;" horiz-adv-x="634" 
d="M630 57l-133 -74q-29 2 -58.5 25t-47.5 60q-80 -61 -161 -85q-51 0 -96.5 32t-51.5 80l-3 57v247l-74 14l-5 48q89 34 198 37l54 -48v-264q0 -83 63 -83q31 0 60 13v286l-56 14l-5 48q80 32 180 34l54 -48v-326q0 -26 25 -26l26 1l25 2zM486 661l5 -53l-47 -46h-311
l-6 74q51 25 113 25h246z" />
    <glyph glyph-name="Uring" unicode="&#x16e;" horiz-adv-x="755" 
d="M748 630q-36 -26 -85 -47v-297q-1 -162 -74.5 -234t-194.5 -72q-141 0 -223.5 81.5t-86.5 224.5v311l-77 12l1 53h336l6 -32q-36 -26 -85 -47v-322q0 -91 40 -136t107 -45q49 0 83 25q42 46 43 179v312l-83 13l1 53h286zM255 832q0 53 35 88.5t88 35.5q52 0 87.5 -36
t35.5 -91q0 -52 -33 -85.5t-86 -33.5q-54 0 -90.5 34t-36.5 88zM320 816q0 -26 17.5 -42t42.5 -16t41 16t16 41q0 26 -17 42.5t-41 16.5q-25 0 -42 -16.5t-17 -41.5z" />
    <glyph glyph-name="uring" unicode="&#x16f;" horiz-adv-x="634" 
d="M630 57l-133 -74q-29 2 -58.5 25t-47.5 60q-80 -61 -161 -85q-51 0 -96.5 32t-51.5 80l-3 57v247l-74 14l-5 48q89 34 198 37l54 -48v-264q0 -83 63 -83q31 0 60 13v286l-56 14l-5 48q80 32 180 34l54 -48v-326q0 -26 25 -26l26 1l25 2zM171 650q0 53 35 88.5t88 35.5
q52 0 87.5 -36t35.5 -91q0 -52 -33 -85.5t-86 -33.5q-54 0 -90.5 34t-36.5 88zM236 634q0 -26 17.5 -42t42.5 -16t41 16t16 41q0 26 -17 42.5t-41 16.5q-25 0 -42 -16.5t-17 -41.5z" />
    <glyph glyph-name="Uhungarumlaut" unicode="&#x170;" horiz-adv-x="755" 
d="M748 630q-36 -26 -85 -47v-297q-1 -162 -74.5 -234t-194.5 -72q-141 0 -223.5 81.5t-86.5 224.5v311l-77 12l1 53h336l6 -32q-36 -26 -85 -47v-322q0 -91 40 -136t107 -45q49 0 83 25q42 46 43 179v312l-83 13l1 53h286zM354 935l95 -84l-175 -141l-73 64zM562 922
l95 -85q-68 -50 -174 -141l-73 65z" />
    <glyph glyph-name="uhungarumlaut" unicode="&#x171;" horiz-adv-x="634" 
d="M630 57l-133 -74q-29 2 -58.5 25t-47.5 60q-80 -61 -161 -85q-51 0 -96.5 32t-51.5 80l-3 57v247l-74 14l-5 48q89 34 198 37l54 -48v-264q0 -83 63 -83q31 0 60 13v286l-56 14l-5 48q80 32 180 34l54 -48v-326q0 -26 25 -26l26 1l25 2zM253 769l105 -77
q-37 -32 -168 -163l-78 58zM463 769l105 -77q-37 -32 -168 -163l-78 58z" />
    <glyph glyph-name="Uogonek" unicode="&#x172;" horiz-adv-x="755" 
d="M748 630q-36 -26 -85 -47v-310q-6 -230 -173 -280q-58 -37 -87.5 -68t-29.5 -65q0 -24 15 -38.5t41 -14.5q35 0 78 26l24 -50l-126 -67l-21 -1q-58 0 -94 33t-36 80q0 86 123 152q-139 7 -216 92.5t-77 227.5v297l-77 12l1 53h336l6 -32q-36 -26 -85 -47v-322
q0 -91 40 -136t107 -45q49 0 83 25q42 46 43 179v312l-83 13l1 53h286z" />
    <glyph glyph-name="uogonek" unicode="&#x173;" horiz-adv-x="634" 
d="M447 -109q0 -53 57 -53q34 0 78 25l23 -51l-126 -66l-20 -1q-57 0 -94 33t-37 80q0 82 114 147q-31 23 -51 63q-80 -61 -161 -85q-51 0 -96.5 32t-51.5 80l-3 57v247l-74 14l-5 48q89 34 198 37l54 -48v-264q0 -83 63 -83q31 0 60 13v286l-56 14l-5 48q80 32 180 34
l54 -48v-326q0 -26 25 -26l26 1l25 2l6 -44l-87 -48q-96 -63 -96 -118z" />
    <glyph glyph-name="Ydieresis" unicode="&#x178;" horiz-adv-x="672" 
d="M424 66l84 -13l-1 -53h-334l-6 32q34 24 82 45v168l-188 354l-64 10l1 53h288l6 -32l-52 -31l87 -163l28 -87h6l125 249l-71 11l1 53h257l6 -32q-32 -23 -87 -48l-168 -314v-202zM322 822q-21 -64 -80 -95q-68 22 -99 80q10 71 83 110q77 -31 96 -95zM566 822
q-21 -64 -81 -95q-68 22 -99 80q11 71 84 110q77 -31 96 -95z" />
    <glyph glyph-name="Zacute" unicode="&#x179;" horiz-adv-x="660" 
d="M624 223q-3 -82 -25 -220v-3l-518 -1l-49 80l376 499l-196 -14l-40 -135h-99q-11 69 -11 146l4 87h514l39 -77l-368 -490l214 8l53 134zM441 910l62 -124q-196 -73 -259 -100l-47 81z" />
    <glyph glyph-name="zacute" unicode="&#x17a;" horiz-adv-x="525" 
d="M446 144l55 14q-16 -92 -36 -176l-331 43l-57 -43l-61 51l271 378l-104 -16l-39 -97h-92q-9 47 -9 106l4 69v6h372l33 21l56 -53l-253 -344l144 28zM170 597l154 188l108 -95l-51 -43l-99 -94l-25 -24z" />
    <glyph glyph-name="Zdotaccent" unicode="&#x17b;" horiz-adv-x="660" 
d="M624 223q-3 -82 -25 -220v-3l-518 -1l-49 80l376 499l-196 -14l-40 -135h-99q-11 69 -11 146l4 87h514l39 -77l-368 -490l214 8l53 134zM430 822q-20 -64 -79 -95q-69 20 -100 80q10 70 84 110q80 -32 95 -95z" />
    <glyph glyph-name="zdotaccent" unicode="&#x17c;" horiz-adv-x="525" 
d="M446 144l55 14q-16 -92 -36 -176l-331 43l-57 -43l-61 51l271 378l-104 -16l-39 -97h-92q-9 47 -9 106l4 69v6h372l33 21l56 -53l-253 -344l144 28zM361 639q-20 -64 -79 -95q-69 20 -100 80q10 70 84 110q80 -32 95 -95z" />
    <glyph glyph-name="Zcaron" unicode="&#x17d;" horiz-adv-x="660" 
d="M624 223q-3 -82 -25 -220v-3l-518 -1l-49 80l376 499l-196 -14l-40 -135h-99q-11 69 -11 146l4 87h514l39 -77l-368 -490l214 8l53 134zM340 801l135 120l68 -61l-150 -147l-118 -2l-148 137l80 73z" />
    <glyph glyph-name="zcaron" unicode="&#x17e;" horiz-adv-x="525" 
d="M446 144l55 14q-16 -92 -36 -176l-331 43l-57 -43l-61 51l271 378l-104 -16l-39 -97h-92q-9 47 -9 106l4 69v6h372l33 21l56 -53l-253 -344l144 28zM272 628l119 142l74 -63l-133 -169l-125 -2l-146 154l88 79z" />
    <glyph glyph-name="uni0218" unicode="&#x218;" horiz-adv-x="600" 
d="M564 186q0 -92 -72.5 -148.5t-188.5 -56.5q-61 0 -131.5 16t-119.5 45l1 2l-1 30q0 94 18 161h81l65 -145q57 -20 116 -22q54 25 54 75t-68 86l-122 59l-39 22q-106 64 -106 167q0 91 75 148t194 57q112 0 214 -38q-4 -121 -21 -191h-92l-39 122q-50 20 -116 22
q-45 -27 -45 -75q0 -33 31.5 -55.5t103 -54t114 -59.5t68.5 -68.5t26 -98.5zM328 -67q55 -26 55 -81q0 -44 -33 -93.5t-71 -72.5l-52 37q32 41 32 78q0 32 -26 51l-2 37z" />
    <glyph glyph-name="uni0219" unicode="&#x219;" horiz-adv-x="459" 
d="M189 381q0 -18 13 -32.5t93 -56t108 -77t28 -80.5q0 -68 -56 -111.5t-149 -43.5q-105 0 -209 54l57 131q87 -67 180 -100q18 16 18 37q0 19 -14.5 34t-92 54.5t-105 74t-27.5 78.5q0 70 61.5 113.5t159.5 43.5q91 0 155 -33l2 -35q0 -52 -17 -105h-88l-31 91l-46 5
q-40 -12 -40 -42zM267 -67q55 -26 55 -81q0 -44 -33 -93.5t-71 -72.5l-52 37q32 41 32 78q0 32 -26 51l-2 37z" />
    <glyph glyph-name="uni021A" unicode="&#x21a;" horiz-adv-x="668" 
d="M661 668q2 -33 -4 -108.5t-15 -123.5h-94l-15 140l-108 10v-517l98 -16l-1 -53h-370l-6 32q29 20 98 50v504l-109 -10l-15 -140h-93q-20 87 -20 202l1 30l328 -4l324 4h1zM364 -67q55 -26 55 -81q0 -44 -33 -93.5t-71 -72.5l-52 37q32 41 32 78q0 32 -26 51l-2 37z" />
    <glyph glyph-name="uni021B" unicode="&#x21b;" horiz-adv-x="402" 
d="M289 111q35 0 80 9l7 -52l-165 -85q-50 -2 -91.5 31.5t-41.5 78.5v268h-73l-3 54q33 28 85 58l55 134h79l25 -134h138l1 -50l-50 -63h-84v-206q0 -43 38 -43zM227 -67q55 -26 55 -81q0 -44 -33 -93.5t-71 -72.5l-52 37q32 41 32 78q0 32 -26 51l-2 37z" />
    <glyph glyph-name="circumflex" unicode="&#x2c6;" horiz-adv-x="433" 
d="M161 743h115l131 -156l-55 -53l-138 109l-122 -114l-65 50z" />
    <glyph glyph-name="caron" unicode="&#x2c7;" horiz-adv-x="454" 
d="M240 633l119 142l74 -63l-133 -169l-125 -2l-146 154l88 79z" />
    <glyph glyph-name="uni02C9" unicode="&#x2c9;" 
d="M193 666l5 -53l-47 -46h-311l-6 74q51 25 113 25h246z" />
    <glyph glyph-name="breve" unicode="&#x2d8;" horiz-adv-x="386" 
d="M366 715q-1 -79 -49 -122t-117 -43q-71 0 -119.5 45.5t-52.5 119.5l98 5q8 -77 67 -77q27 0 44.5 20.5t17.5 55.5z" />
    <glyph glyph-name="dotaccent" unicode="&#x2d9;" horiz-adv-x="240" 
d="M208 644q-20 -64 -79 -95q-69 20 -100 80q10 70 84 110q80 -32 95 -95z" />
    <glyph glyph-name="ring" unicode="&#x2da;" horiz-adv-x="299" 
d="M26 832q0 53 35 88.5t88 35.5q52 0 87.5 -36t35.5 -91q0 -52 -33 -85.5t-86 -33.5q-54 0 -90.5 34t-36.5 88zM91 816q0 -26 17.5 -42t42.5 -16t41 16t16 41q0 26 -17 42.5t-41 16.5q-25 0 -42 -16.5t-17 -41.5z" />
    <glyph glyph-name="ogonek" unicode="&#x2db;" horiz-adv-x="306" 
d="M277 29q-65 -39 -98.5 -71.5t-33.5 -68.5q0 -53 57 -53q34 0 78 25l23 -51l-126 -66l-20 -1q-57 0 -94 33t-37 80q0 57 59 109t168 86z" />
    <glyph glyph-name="tilde" unicode="&#x2dc;" horiz-adv-x="513" 
d="M31 594q54 90 84.5 119t64.5 29q21 0 71 -28.5t94 -61.5l82 83l54 -39q-78 -152 -138 -152q-18 0 -40 11.5t-67.5 42t-60.5 30.5t-33 -17.5t-54 -60.5z" />
    <glyph glyph-name="hungarumlaut" unicode="&#x2dd;" horiz-adv-x="523" 
d="M171 774l105 -77q-37 -32 -168 -163l-78 58zM381 774l105 -77q-37 -32 -168 -163l-78 58z" />
    <glyph glyph-name="pi" unicode="&#x3c0;" horiz-adv-x="772" 
d="M709 354l-88 5l32 -359l-128 -2l-52 35l-3 335l-87 4l-6 -167q-6 -123 -46.5 -173t-121.5 -50q-79 0 -167 35l51 126q48 -43 98 -80q10 17 14 82l9 237l-53 3l-95 -65l-36 54q20 27 60.5 59t68.5 40h585l4 -90z" />
    <glyph glyph-name="endash" unicode="&#x2013;" horiz-adv-x="577" 
d="M523 320l4 -51l-47 -51h-438l-6 75q52 27 117 27h370z" />
    <glyph glyph-name="emdash" unicode="&#x2014;" horiz-adv-x="1029" 
d="M974 320l5 -51l-47 -51h-890l-6 75q52 27 117 27h821z" />
    <glyph glyph-name="quoteleft" unicode="&#x2018;" horiz-adv-x="257" 
d="M217 708q-57 -49 -68 -113l57 -52q-6 -31 -32.5 -61t-58.5 -39q-91 35 -91 118q0 56 43 108.5t112 85.5z" />
    <glyph glyph-name="quoteright" unicode="&#x2019;" horiz-adv-x="257" 
d="M40 490q58 48 68 114l-57 52q6 30 32.5 60t59.5 39q49 -18 69.5 -51.5t20.5 -67.5q0 -55 -43 -107.5t-112 -85.5z" />
    <glyph glyph-name="quotesinglbase" unicode="&#x201a;" horiz-adv-x="257" 
d="M40 -110q58 48 68 114l-57 52q6 30 32.5 60t59.5 39q49 -18 69.5 -51.5t20.5 -67.5q0 -55 -43 -107.5t-112 -85.5z" />
    <glyph glyph-name="quotedblleft" unicode="&#x201c;" horiz-adv-x="476" 
d="M217 708q-57 -49 -68 -113l57 -52q-6 -31 -32.5 -61t-58.5 -39q-91 35 -91 118q0 56 43 108.5t112 85.5zM436 708q-57 -49 -68 -113l57 -52q-6 -31 -32.5 -61t-58.5 -39q-91 35 -91 118q0 56 43 108.5t112 85.5z" />
    <glyph glyph-name="quotedblright" unicode="&#x201d;" horiz-adv-x="477" 
d="M40 490q58 48 68 114l-57 52q6 30 32.5 60t59.5 39q49 -18 69.5 -51.5t20.5 -67.5q0 -55 -43 -107.5t-112 -85.5zM259 490q58 48 68 114l-57 52q6 30 32.5 60t59.5 39q49 -18 69.5 -51.5t20.5 -67.5q0 -55 -43 -107.5t-112 -85.5z" />
    <glyph glyph-name="quotedblbase" unicode="&#x201e;" horiz-adv-x="477" 
d="M40 -110q58 48 68 114l-57 52q6 30 32.5 60t59.5 39q49 -18 69.5 -51.5t20.5 -67.5q0 -55 -43 -107.5t-112 -85.5zM259 -110q58 48 68 114l-57 52q6 30 32.5 60t59.5 39q49 -18 69.5 -51.5t20.5 -67.5q0 -55 -43 -107.5t-112 -85.5z" />
    <glyph glyph-name="dagger" unicode="&#x2020;" horiz-adv-x="567" 
d="M486 377h-124l-26 -557h-121l-20 557h-151l-6 35l43 57h110l-6 176l40 44l151 -4l-10 -216h157l6 -35z" />
    <glyph glyph-name="daggerdbl" unicode="&#x2021;" horiz-adv-x="571" 
d="M523 226l6 -35l-43 -56h-131l-15 -315h-121l-11 315h-164l-6 35l43 56h123l-5 151h-151l-6 35l43 57h110l-6 176l40 44l151 -4l-10 -216h157l6 -35l-43 -57h-124l-7 -151h164z" />
    <glyph glyph-name="bullet" unicode="&#x2022;" horiz-adv-x="417" 
d="M359 254q-33 -108 -135 -159q-116 38 -166 134q19 119 141 186q124 -52 160 -161z" />
    <glyph glyph-name="ellipsis" unicode="&#x2026;" horiz-adv-x="939" 
d="M287 82q-19 -67 -85 -102q-73 24 -105 86q11 76 90 117q82 -37 100 -101zM593 82q-19 -67 -85 -102q-73 24 -105 86q11 76 90 117q82 -37 100 -101zM899 82q-19 -67 -85 -102q-73 24 -105 86q11 76 90 117q82 -37 100 -101z" />
    <glyph glyph-name="perthousand" unicode="&#x2030;" horiz-adv-x="1195" 
d="M42 435q0 67 46.5 119.5t111.5 52.5q66 0 113.5 -51.5t47.5 -120.5q0 -73 -44.5 -121.5t-111.5 -48.5q-66 0 -114.5 49.5t-48.5 120.5zM571 591l70 -53l-409 -576l-69 55zM233 355q24 25 24 68q0 38 -19.5 65t-48.5 27q-9 0 -24 -5q-21 -27 -21 -62q0 -36 18.5 -65.5
t51.5 -29.5zM469 147q0 67 46.5 119.5t111.5 52.5q66 0 113.5 -51.5t47.5 -120.5q0 -73 -44.5 -121.5t-111.5 -48.5q-66 0 -114.5 49.5t-48.5 120.5zM833 147q0 67 46.5 119.5t111.5 52.5q66 0 113.5 -51.5t47.5 -120.5q0 -73 -44.5 -121.5t-111.5 -48.5q-66 0 -114.5 49.5
t-48.5 120.5zM660 67q24 25 24 68q0 36 -19 64.5t-49 28.5q-10 0 -24 -6q-21 -25 -21 -64q0 -37 19.5 -65t52.5 -28zM1024 67q24 25 24 68q0 36 -19 64.5t-49 28.5q-10 0 -24 -6q-21 -25 -21 -64q0 -37 19.5 -65t52.5 -28z" />
    <glyph glyph-name="guilsinglleft" unicode="&#x2039;" horiz-adv-x="363" 
d="M220 476l83 -56l-92 -167l98 -158l-88 -62l-167 181v79z" />
    <glyph glyph-name="guilsinglright" unicode="&#x203a;" horiz-adv-x="363" 
d="M309 214l-167 -181l-88 62l99 158l-92 167l83 56l165 -183v-79z" />
    <glyph glyph-name="fraction" unicode="&#x2044;" horiz-adv-x="184" 
d="M377 690l64 -64l-586 -613l-66 62z" />
    <glyph glyph-name="Euro" unicode="&#x20ac;" horiz-adv-x="650" 
d="M605 132l27 -79l-185 -75q-147 -3 -232 60t-114 163h-121l-6 25l40 46h73l-2 39l1 25h-82l-6 25l39 46h59q30 123 119 193t214 70q124 0 205 -62h1q-12 -97 -35 -159h-81l-15 90q-60 30 -122 30l-21 -1q-70 -56 -93 -161h299l6 -25l-39 -46h-274v-13l3 -51h264l6 -25
l-39 -46h-211q45 -99 176 -108z" />
    <glyph glyph-name="uni20BD" unicode="&#x20bd;" horiz-adv-x="674" 
d="M294 233v-39h113l5 -38l-42 -35h-76v-49l122 -19l-1 -53h-375l-6 32q39 26 79 44v45h-80l-6 35l43 38h43v45h-80l-6 35l43 43h43v281l-74 11l1 53l345 8q119 1 194 -61.5t75 -161.5q0 -90 -71 -151t-182 -63h-107zM294 572v-252h67q54 0 82 35.5t28 88.5q0 41 -14 82.5
t-39 57.5z" />
    <glyph glyph-name="trademark" unicode="&#x2122;" horiz-adv-x="886" 
d="M185 735l179 2q2 -18 -2.5 -66t-10.5 -63h-60l-13 78l-38 2v-206l47 -9l-1 -25h-202l-3 14q22 18 48 28v198l-40 -2l-13 -78h-61q-12 39 -12 114l1 15zM862 474v-25h-177l-3 14l40 26l-6 100l4 54l-75 -187l-74 -10l-81 200l5 -54l-4 -110l44 -8v-25h-153l-3 14l42 27
l9 213l-36 7l1 25h163l76 -186l74 186h138l3 -14l-36 -24l9 -216z" />
    <glyph glyph-name="uni2126" unicode="&#x2126;" horiz-adv-x="734" 
d="M703 365q0 -87 -44.5 -164t-121.5 -133l143 -15l-1 -53h-270v81q65 65 96.5 144t31.5 154q0 91 -42.5 147.5t-119.5 56.5q-75 0 -117.5 -56.5t-42.5 -147.5q0 -77 34 -156t101 -138v-85h-284l-6 32q49 23 148 38q-177 112 -177 286q0 131 100.5 222.5t240.5 91.5
q138 0 234.5 -88t96.5 -217z" />
    <glyph glyph-name="partialdiff" unicode="&#x2202;" horiz-adv-x="600" 
d="M201 761q166 -51 260.5 -175t94.5 -296q0 -145 -71.5 -234t-188.5 -89q-106 0 -173.5 68t-67.5 177q0 107 67.5 184.5t159.5 77.5l100 -44q-23 90 -79 158t-137 96zM298 60q47 32 72.5 101.5t25.5 152.5l-3 53q-79 0 -128 -52t-49 -130q0 -49 20.5 -84t61.5 -41z" />
    <glyph glyph-name="uni2206" unicode="&#x2206;" horiz-adv-x="725" 
d="M691 33l-41 -33h-604l-6 35l232 598l-1 1l156 40l258 -603h2zM497 71l-172 428l-156 -428h328z" />
    <glyph glyph-name="product" unicode="&#x220f;" horiz-adv-x="827" 
d="M681 -32l91 -15l-1 -53h-271v738h-179v-671l90 -14l-1 -53h-349l-6 32q38 26 85 47v659h-104l-12 68q54 29 105 29h670l4 -53l-44 -44h-78v-670z" />
    <glyph glyph-name="summation" unicode="&#x2211;" horiz-adv-x="684" 
d="M630 -100h-588v66h1l-1 1l183 289l-195 407v72h574l-1 -5q2 -39 -4 -113t-15 -110h-106l-35 114l-176 7l-47 7l153 -328l-201 -318l77 13l218 8l37 118l106 1q9 -37 15 -111t4 -113z" />
    <glyph glyph-name="minus" unicode="&#x2212;" horiz-adv-x="596" 
d="M542 207h-488v99h488v-99z" />
    <glyph glyph-name="uni2215" unicode="&#x2215;" horiz-adv-x="184" 
d="M377 690l64 -64l-586 -613l-66 62z" />
    <glyph glyph-name="uni2219" unicode="&#x2219;" horiz-adv-x="282" 
d="M140 169q-27 11 -60 36t-50 49q40 79 89 108q60 -25 105 -85q-25 -68 -84 -108z" />
    <glyph glyph-name="radical" unicode="&#x221a;" horiz-adv-x="775" 
d="M703 708l-234 -786q-60 -22 -155 -17l-122 410l-93 -61l-63 87l148 132h107l98 -367l191 645z" />
    <glyph glyph-name="infinity" unicode="&#x221e;" horiz-adv-x="766" 
d="M580 528q68 0 116 -55t48 -137q0 -85 -54 -140.5t-133 -55.5q-54 0 -96 29.5t-86 83.5q-75 -111 -169 -111q-73 0 -124.5 52t-51.5 132q0 86 56.5 144.5t134.5 58.5q55 0 99.5 -30t89.5 -82q81 111 170 111zM153 368q0 -42 26.5 -68.5t67.5 -26.5q45 0 84 37
q-79 106 -133 106q-18 0 -31 -8q-14 -21 -14 -40zM608 271q19 21 19 53q0 31 -21 57t-55 26q-47 0 -97 -42q41 -51 69 -75.5t57 -24.5q13 0 28 6z" />
    <glyph glyph-name="integral" unicode="&#x222b;" horiz-adv-x="427" 
d="M218 647q76 -10 160 -96l85 151q-94 49 -163 49q-96 0 -176 -83t-80 -187l167 -556q-75 10 -162 97l-85 -151q105 -51 165 -49q97 0 176.5 82.5t79.5 187.5z" />
    <glyph glyph-name="approxequal" unicode="&#x2248;" horiz-adv-x="575" 
d="M55 310q51 77 78.5 108t54.5 31q35 0 205 -88l87 71l45 -38q-49 -81 -76.5 -113.5t-55.5 -32.5q-27 0 -119 46q-68 36 -86 36q-21 0 -79 -60zM55 116q51 77 78.5 108t54.5 31q35 0 205 -88l87 71l45 -38q-49 -81 -76.5 -113.5t-55.5 -32.5q-27 0 -119 46q-68 36 -86 36
q-21 0 -79 -60z" />
    <glyph glyph-name="notequal" unicode="&#x2260;" horiz-adv-x="580" 
d="M363 304l-60 -97h223v-89h-278l-80 -130l-50 30l62 100h-126v89h181l60 97h-241v89h296l77 124l50 -28l-59 -96h108v-89h-163z" />
    <glyph glyph-name="lessequal" unicode="&#x2264;" horiz-adv-x="596" 
d="M521 534l-314 -160l1 -6l313 -145l-44 -79l-399 188l-8 70l407 208zM542 0h-488v89h488v-89z" />
    <glyph glyph-name="greaterequal" unicode="&#x2265;" horiz-adv-x="596" 
d="M526 402l-8 -70l-399 -188l-43 79l313 145l1 6l-315 160l46 76zM542 89v-89h-488v89h488z" />
    <glyph glyph-name="uni25CA" unicode="&#x25ca;" horiz-adv-x="554" 
d="M516 367l-182 -367l-94 -8l-202 376l182 367l94 8zM392 367l-119 228l-6 -1l-105 -226l120 -228l6 1z" />
    <glyph glyph-name="f_b.liga" horiz-adv-x="983" 
d="M723 491l34 3q83 0 134.5 -66.5t51.5 -165.5q0 -123 -80 -201.5t-211 -78.5q-97 0 -209 38l1 1v580l-233 23l45 -151h105l2 -49l-51 -64h-56v-268q44 -15 85 -43l-2 -49h-321l-2 35q28 17 66 30v296l-74 -1l-2 55l76 44v70q0 90 61.5 149t155.5 59h264l54 -50v-273z
M704 76q61 53 61 156q0 59 -27 100t-72 41q-23 0 -49 -12v-278q27 -9 59 -9z" />
    <glyph glyph-name="f_f.liga" horiz-adv-x="771" 
d="M256 360v-272q50 -14 91 -39l-2 -49h-327l-2 35q28 17 66 30v296l-74 -1l-2 55l76 44v74q0 93 59 155.5t145 62.5q78 0 149 -49l-90 -151q-64 63 -151 90l61 -168h112l2 -49l-51 -64h-62zM641 360v-272q50 -14 91 -39l-2 -49h-327l-2 35q28 17 66 30v296l-74 -1l-2 55
l76 44v74q0 93 59 155.5t145 62.5q78 0 149 -49l-90 -151q-64 63 -151 90l61 -168h112l2 -49l-51 -64h-62z" />
    <glyph glyph-name="f_h.liga" horiz-adv-x="1024" 
d="M948 85q38 -17 66 -36l-2 -49h-237v277q0 101 -64 101q-29 0 -63 -17v-281l54 -31l-2 -49h-298l-2 35q37 21 75 34v530l-264 25l45 -151h105l2 -49l-51 -64h-56v-268q44 -15 85 -43l-2 -49h-321l-2 35q28 17 66 30v296l-74 -1l-2 55l76 44v70q0 90 61.5 149t155.5 59h295
l54 -50v-274q80 61 149 82q94 -3 139 -72q11 -20 12 -91v-247z" />
    <glyph glyph-name="f_i.liga" horiz-adv-x="731" 
d="M256 360v-272q50 -14 91 -39l-2 -49h-327l-2 35q28 17 66 30v296l-74 -1l-2 55l76 44v74q0 93 59 155.5t145 62.5q78 0 149 -49l-90 -151q-64 63 -151 90l61 -168h112l2 -49l-51 -64h-62zM567 551q-69 31 -119 91q40 77 99 120q67 -35 113 -102q-33 -66 -93 -109zM644 84
q44 -15 72 -35l-2 -49h-317l-2 35q35 20 76 34v330l-74 14l-5 48q89 34 198 37l54 -48v-366z" />
    <glyph glyph-name="f_j.liga" horiz-adv-x="713" 
d="M256 360v-272q50 -14 91 -39l-2 -49h-327l-2 35q28 17 66 30v296l-74 -1l-2 55l76 44v74q0 93 59 155.5t145 62.5q78 0 149 -49l-90 -151q-64 63 -151 90l61 -168h112l2 -49l-51 -64h-62zM568 550q-74 35 -119 92q39 75 99 120q70 -38 113 -102q-32 -65 -93 -110z
M592 498l54 -48v-495q0 -67 -69.5 -115.5t-184.5 -58.5l-17 42q94 31 98 113v463l-75 14l-5 48q89 34 198 37h1z" />
    <glyph glyph-name="f_k.liga" horiz-adv-x="1016" 
d="M927 76q20 -20 46 -35l-8 -47h-171q-20 12 -48 55l-100 161v-210h-247l-2 35q35 20 76 34v530l-262 25l45 -151h105l2 -49l-51 -64h-56v-268q44 -15 85 -43l-2 -49h-321l-2 35q28 17 66 30v296l-74 -1l-2 55l76 44v70q0 90 61.5 149t155.5 59h291v-1l2 1l54 -50v-429
l110 146l-52 9l-5 49q85 32 202 36l47 -67l-146 -179z" />
    <glyph glyph-name="f_l.liga" horiz-adv-x="736" 
d="M644 84q44 -15 72 -35l-2 -49h-317l-2 35q35 20 76 34v530l-260 25l45 -151h105l2 -49l-51 -64h-56v-268q44 -15 85 -43l-2 -49h-321l-2 35q28 17 66 30v296l-74 -1l-2 55l76 44v70q0 90 61.5 149t155.5 59h291l54 -50v-603z" />
    <glyph glyph-name="f_t.liga" horiz-adv-x="787" 
d="M256 360v-272q50 -14 91 -39l-2 -49h-327l-2 35q28 17 66 30v296l-74 -1l-2 55l76 44v74q0 93 59 155.5t145 62.5q78 0 149 -49l-90 -151q-64 63 -151 90l61 -168h112l2 -49l-51 -64h-62zM674 111q35 0 80 9l7 -52l-165 -85q-50 -2 -91.5 31.5t-41.5 78.5v268h-73l-3 54
q33 28 85 58l55 134h79l25 -134h138l1 -50l-50 -63h-84v-206q0 -43 38 -43z" />
    <glyph glyph-name="one.dnom" horiz-adv-x="272" 
d="M253 28v-28h-225l-3 15q30 22 65 32v187l-59 -23l-19 38l138 77v1l1 -1l1 1l1 -2l43 -27h1v-254z" />
    <glyph glyph-name="two.dnom" horiz-adv-x="310" 
d="M297 98l-16 -98h-233l-19 49l74 66q78 73 78 114q0 22 -13.5 37.5t-33.5 17.5l-32 -99h-59q-11 44 -11 92l1 15q57 41 126 41q56 0 91 -30t35 -73q0 -75 -129 -156l4 -7z" />
    <glyph glyph-name="three.dnom" horiz-adv-x="310" 
d="M232 167q29 -6 47.5 -28t18.5 -53q0 -47 -41.5 -71.5t-101.5 -24.5q-71 0 -129 27l24 96q65 -52 118 -71q24 12 24 37q0 19 -15.5 33t-43.5 14h-33l-2 50h27q29 3 43.5 19t14.5 35q0 20 -13.5 34.5t-36.5 16.5l-38 -76h-50q-8 30 -8 78l1 17q50 33 122 33
q53 0 87.5 -27.5t34.5 -65.5q0 -51 -50 -71v-2z" />
    <glyph glyph-name="four.dnom" horiz-adv-x="330" 
d="M310 129v-37l-18 -21h-39v-34l37 -8v-29h-200l-3 15q29 19 68 29v27h-136l-21 48l168 213v1h2l85 -15v-190zM155 127v37l13 72l-79 -110z" />
    <glyph glyph-name="one.numr" horiz-adv-x="272" 
d="M253 365v-28h-225l-3 15q30 22 65 32v187l-59 -23l-19 38l138 77v1l1 -1l1 1l1 -2l43 -27h1v-254z" />
    <glyph glyph-name="two.numr" horiz-adv-x="310" 
d="M297 435l-16 -98h-233l-19 49l74 66q78 73 78 114q0 22 -13.5 37.5t-33.5 17.5l-32 -99h-59q-11 44 -11 92l1 15q57 41 126 41q56 0 91 -30t35 -73q0 -75 -129 -156l4 -7z" />
    <glyph glyph-name="three.numr" horiz-adv-x="310" 
d="M232 504q29 -6 47.5 -28t18.5 -53q0 -47 -41.5 -71.5t-101.5 -24.5q-71 0 -129 27l24 96q65 -52 118 -71q24 12 24 37q0 19 -15.5 33t-43.5 14h-33l-2 50h27q29 3 43.5 19t14.5 35q0 20 -13.5 34.5t-36.5 16.5l-38 -76h-50q-8 30 -8 78l1 17q50 33 122 33
q53 0 87.5 -27.5t34.5 -65.5q0 -51 -50 -71v-2z" />
    <glyph glyph-name="four.numr" horiz-adv-x="330" 
d="M310 466v-37l-18 -21h-39v-34l37 -8v-29h-200l-3 15q29 19 68 29v27h-136l-21 48l168 213v1h2l85 -15v-190zM155 464v37l13 72l-79 -110z" />
    <glyph glyph-name="acutecomb" unicode="&#x301;" 
d="M-99 602l154 188l108 -95l-51 -43l-99 -94l-25 -24z" />
    <glyph glyph-name="uni0306" unicode="&#x306;" 
d="M170 715q-1 -79 -49 -122t-117 -43q-71 0 -119.5 45.5t-52.5 119.5l98 5q8 -77 67 -77q27 0 44.5 20.5t17.5 55.5z" />
    <glyph glyph-name="uni030C" unicode="&#x30c;" 
d="M3 633l119 142l74 -63l-133 -169l-125 -2l-146 154l88 79z" />
    <glyph glyph-name="acutecomb.case" 
d="M104 910l62 -124q-196 -73 -259 -100l-47 81z" />
    <glyph glyph-name="uni0306.case" 
d="M170 881q-7 -79 -53.5 -119t-112.5 -40q-69 0 -117 41t-56 116l99 6q10 -72 65 -72q58 0 64 70z" />
    <glyph glyph-name="uni030C.case" 
d="M1 696l135 120l68 -61l-150 -147l-118 -2l-148 137l80 73z" />
    <glyph glyph-name="uni0327.case" 
d="M-5 -57q53 0 91.5 -24.5t38.5 -59.5q0 -55 -57 -92t-146 -38l-19 34q46 16 71.5 39.5t25.5 45.5q0 43 -72 37l-27 45l63 76h67z" />
    <glyph glyph-name="uni0302.case" 
d="M-59 821h120l155 -165l-59 -57l-157 114l-151 -114l-62 57z" />
    <glyph glyph-name="uni0326.case" 
d="M30 -67q55 -26 55 -81q0 -44 -33 -93.5t-71 -72.5l-52 37q32 41 32 78q0 32 -26 51l-2 37z" />
    <glyph glyph-name="uni0308.case" 
d="M-32 644q-21 -64 -80 -95q-68 22 -99 80q10 71 83 110q77 -31 96 -95zM212 644q-21 -64 -81 -95q-68 22 -99 80q11 71 84 110q77 -31 96 -95z" />
    <glyph glyph-name="uni0307.case" 
d="M92 644q-20 -64 -79 -95q-69 20 -100 80q10 70 84 110q80 -32 95 -95z" />
    <glyph glyph-name="dotbelowcomb.case" 
d="M92 -194q-20 -64 -79 -95q-69 22 -100 80q10 72 84 111q81 -35 95 -96z" />
    <glyph glyph-name="gravecomb.case" 
d="M103 686q-63 27 -259 100l62 124l244 -143z" />
    <glyph glyph-name="uni030B.case" 
d="M-24 757l95 -84l-175 -141l-73 64zM184 744l95 -85q-68 -50 -174 -141l-73 65z" />
    <glyph glyph-name="uni0331.case" 
d="M188 -135l5 -53l-47 -46h-331l-6 74q52 25 118 25h261z" />
    <glyph glyph-name="uni0304.case" 
d="M215 841l5 -53l-47 -46h-365l-6 74q49 25 113 25h300z" />
    <glyph glyph-name="uni0328.case" 
d="M-23 11q-65 -40 -98.5 -73t-33.5 -69q0 -24 15 -38.5t41 -14.5q35 0 78 26l24 -50l-126 -67l-21 -1q-58 0 -94 33t-36 80q0 56 59 108.5t168 85.5z" />
    <glyph glyph-name="uni030A.case" 
d="M-123 832q0 53 35 88.5t88 35.5q52 0 87.5 -36t35.5 -91q0 -52 -33 -85.5t-86 -33.5q-54 0 -90.5 34t-36.5 88zM-58 816q0 -26 17.5 -42t42.5 -16t41 16t16 41q0 26 -17 42.5t-41 16.5q-25 0 -42 -16.5t-17 -41.5z" />
    <glyph glyph-name="tildecomb.case" 
d="M-226 763q51 77 78.5 108t54.5 31q35 0 205 -88l87 71l45 -38q-49 -81 -76.5 -113.5t-55.5 -32.5q-27 0 -119 46q-68 36 -86 36q-21 0 -79 -60z" />
    <glyph glyph-name="uni0327" unicode="&#x327;" 
d="M-5 -57q53 0 91.5 -24.5t38.5 -59.5q0 -55 -57 -92t-146 -38l-19 34q46 16 71.5 39.5t25.5 45.5q0 43 -72 37l-27 45l63 76h67z" />
    <glyph glyph-name="uni0302" unicode="&#x302;" 
d="M-52 743h115l131 -156l-55 -53l-138 109l-122 -114l-65 50z" />
    <glyph glyph-name="uni0326" unicode="&#x326;" 
d="M30 -67q55 -26 55 -81q0 -44 -33 -93.5t-71 -72.5l-52 37q32 41 32 78q0 32 -26 51l-2 37z" />
    <glyph glyph-name="uni0308" unicode="&#x308;" 
d="M-32 644q-21 -64 -80 -95q-68 22 -99 80q10 71 83 110q77 -31 96 -95zM212 644q-21 -64 -81 -95q-68 22 -99 80q11 71 84 110q77 -31 96 -95z" />
    <glyph glyph-name="uni0307" unicode="&#x307;" 
d="M92 644q-20 -64 -79 -95q-69 20 -100 80q10 70 84 110q80 -32 95 -95z" />
    <glyph glyph-name="dotbelowcomb" unicode="&#x323;" 
d="M92 -194q-20 -64 -79 -95q-69 22 -100 80q10 72 84 111q81 -35 95 -96z" />
    <glyph glyph-name="gravecomb" unicode="&#x300;" 
d="M-12 558l-99 94l-51 43l108 95l154 -188l-87 -68z" />
    <glyph glyph-name="uni030B" unicode="&#x30b;" 
d="M-41 774l105 -77q-37 -32 -168 -163l-78 58zM169 774l105 -77q-37 -32 -168 -163l-78 58z" />
    <glyph glyph-name="uni0331" unicode="&#x331;" 
d="M188 -135l5 -53l-47 -46h-331l-6 74q52 25 118 25h261z" />
    <glyph glyph-name="uni0304" unicode="&#x304;" 
d="M193 666l5 -53l-47 -46h-311l-6 74q51 25 113 25h246z" />
    <glyph glyph-name="uni0328" unicode="&#x328;" 
d="M10 29q-65 -39 -98.5 -71.5t-33.5 -68.5q0 -53 57 -53q34 0 78 25l23 -51l-126 -66l-20 -1q-57 0 -94 33t-37 80q0 57 59 109t168 86z" />
    <glyph glyph-name="uni030A" unicode="&#x30a;" 
d="M-123 832q0 53 35 88.5t88 35.5q52 0 87.5 -36t35.5 -91q0 -52 -33 -85.5t-86 -33.5q-54 0 -90.5 34t-36.5 88zM-58 816q0 -26 17.5 -42t42.5 -16t41 16t16 41q0 26 -17 42.5t-41 16.5q-25 0 -42 -16.5t-17 -41.5z" />
    <glyph glyph-name="tildecomb" unicode="&#x303;" 
d="M-214 594q54 90 84.5 119t64.5 29q21 0 71 -28.5t94 -61.5l82 83l54 -39q-78 -152 -138 -152q-18 0 -40 11.5t-67.5 42t-60.5 30.5t-33 -17.5t-54 -60.5z" />
    <glyph glyph-name="uni00200326" 
d="M30 -67q55 -26 55 -81q0 -44 -33 -93.5t-71 -72.5l-52 37q32 41 32 78q0 32 -26 51l-2 37z" />
    <glyph glyph-name="uni0312" unicode="&#x312;" 
d="M104 779q-57 -49 -68 -113l57 -52q-6 -31 -32.5 -61t-58.5 -39q-91 35 -91 118q0 56 43 108.5t112 85.5z" />
    <glyph glyph-name="uni0312.case" 
d="M104 779q-57 -49 -68 -113l57 -52q-6 -31 -32.5 -61t-58.5 -39q-91 35 -91 118q0 56 43 108.5t112 85.5z" />
    <glyph glyph-name="uni030C.calt" 
d="M128 757q33 -43 33 -99t-34 -113.5t-92 -104.5l-54 43q52 80 52 125q0 37 -33 44v48z" />
    <glyph glyph-name="uni0904" unicode="&#x904;" horiz-adv-x="859" 
d="M894 538h-177l67 -48v-511l-46 -22l-114 62v192q-15 -6 -34 -6q-31 0 -67 16q7 -27 7 -54q0 -76 -51 -126t-133 -50q-84 0 -170.5 62t-159.5 222l80 51q46 -98 95.5 -147.5t110.5 -49.5q47 0 74 26t27 59q0 55 -50 75l-100 -60l-90 135q56 50 130 54q78 48 78 107
q0 16 -10 26q-38 4 -87.5 -21.5t-95.5 -69.5l-85 111q40 42 91.5 69.5t103.5 27.5q79 0 141.5 -59.5t62.5 -128.5q0 -63 -55 -122q41 -30 93 -30q58 0 94 34v176h-78l-56 75l21 42h129q-13 61 -78 78l-128 26l-43 13q-128 45 -134 246l89 10q13 -93 103 -115l59 -11
q78 -11 120.5 -28.5t73.5 -68.5t36 -150h121l56 -75z" />
    <glyph glyph-name="uni0905" unicode="&#x905;" horiz-adv-x="859" 
d="M894 538h-177l67 -48v-511l-46 -22l-114 62v192q-15 -6 -34 -6q-31 0 -67 16q7 -27 7 -54q0 -76 -51 -126t-133 -50q-84 0 -170.5 62t-159.5 222l80 51q46 -98 95.5 -147.5t110.5 -49.5q47 0 74 26t27 59q0 55 -50 75l-100 -60l-90 135q56 50 130 54q78 48 78 107
q0 16 -10 26q-38 4 -87.5 -21.5t-95.5 -69.5l-85 111q40 42 91.5 69.5t103.5 27.5q79 0 141.5 -59.5t62.5 -128.5q0 -63 -55 -122q41 -30 93 -30q58 0 94 34v176h-78l-56 75l21 42h348l56 -75z" />
    <glyph glyph-name="uni0906" unicode="&#x906;" horiz-adv-x="1162" 
d="M1197 538h-178l67 -48v-511l-46 -22l-114 62v519h-209l67 -48v-511l-46 -22l-114 62v192q-15 -6 -34 -6q-31 0 -67 16q7 -27 7 -54q0 -76 -51 -126t-133 -50q-84 0 -170.5 62t-159.5 222l80 51q46 -98 95.5 -147.5t110.5 -49.5q47 0 74 26t27 59q0 55 -50 75l-100 -60
l-90 135q56 50 130 54q78 48 78 107q0 16 -10 26q-38 4 -87.5 -21.5t-95.5 -69.5l-85 111q40 42 91.5 69.5t103.5 27.5q79 0 141.5 -59.5t62.5 -128.5q0 -63 -55 -122q41 -30 93 -30q58 0 94 34v176h-78l-56 75l21 42h651l56 -75z" />
    <glyph glyph-name="uni0907" unicode="&#x907;" horiz-adv-x="585" 
d="M620 538h-197l67 -48v-137h-241q-81 0 -81 -48q0 -17 18 -35l204 41q78 -28 120 -81.5t42 -115.5q0 -83 -67 -127t-154 -54l123 -104l-120 -87l-127 198q-63 17 -140 71l35 135l74 -1l61 -90l20 -1q65 0 120 37t57 82l-161 -42q-106 31 -173 92.5t-67 127.5
q0 55 47.5 92.5t135.5 37.5h130v57h-346l-57 75l21 42h620l57 -75z" />
    <glyph glyph-name="uni0908" unicode="&#x908;" horiz-adv-x="585" 
d="M620 538h-197l67 -48v-137h-241q-81 0 -81 -48q0 -17 18 -35l204 41q78 -28 120 -81.5t42 -115.5q0 -83 -67 -127t-154 -54l123 -104l-120 -87l-127 198q-63 17 -140 71l35 135l74 -1l61 -90l20 -1q65 0 120 37t57 82l-161 -42q-106 31 -173 92.5t-67 127.5
q0 55 47.5 92.5t135.5 37.5h130v57h-346l-57 75l21 42h357q-83 86 -83 169q0 65 47 109t116 44q45 0 86.5 -18.5t66.5 -47.5l-22 -76q-34 17 -69 17q-41 0 -69.5 -23t-28.5 -66q0 -49 49 -108h170l57 -75z" />
    <glyph glyph-name="uni0909" unicode="&#x909;" horiz-adv-x="583" 
d="M618 538h-192q50 -47 50 -104q0 -55 -41 -97q52 -34 79.5 -83.5t27.5 -102.5q0 -83 -59 -139t-150 -56q-200 0 -336 300l84 46q47 -100 97 -153t113 -53q48 0 77.5 28.5t29.5 67.5q0 59 -52 80l-101 -61l-94 141q57 52 143 57q39 27 39 65q0 37 -36 64h-297l-57 75l21 42
h619l56 -75z" />
    <glyph glyph-name="uni090A" unicode="&#x90a;" horiz-adv-x="855" 
d="M426 538q50 -47 50 -104q0 -55 -41 -97l27 -20q90 99 179 99q79 0 138 -64t59 -144q0 -114 -141 -212l-108 118q59 48 93.5 83.5t34.5 62.5q0 12 -9 20.5t-24 8.5q-55 0 -145 -101l3 -37q0 -83 -59 -139t-150 -56q-200 0 -336 300l84 46q47 -100 97 -153t113 -53
q48 0 77.5 28.5t29.5 67.5q0 59 -52 80l-101 -61l-94 141q57 52 143 57q39 27 39 65q0 37 -36 64h-297l-57 75l21 42h891l57 -75l-21 -42h-465z" />
    <glyph glyph-name="uni090B" unicode="&#x90b;" horiz-adv-x="932" 
d="M501 538l67 -48v-191q23 -6 46 -6q55 0 95 32l-63 93l27 51l148 -4q21 -36 21 -84q0 -40 -16 -69q100 -110 100 -190q0 -55 -41 -101.5t-121 -61.5l-83 87l9 45q102 29 102 93q0 23 -14 48q-31 -35 -80 -56.5t-101 -21.5l-29 2v-177l-46 -22l-114 62v153l-199 -153
l-111 126l242 161q-43 43 -78 43q-25 0 -57 -18.5t-98 -65.5l-99 147q104 82 178 82t153 -77l69 -67v188h-404l-57 75l21 42h964l56 -75l-21 -42h-466z" />
    <glyph glyph-name="uni090B.ss06" horiz-adv-x="942" 
d="M1005 -59q-67 -72 -159 -72q-79 0 -144 58t-65 129q0 101 151 148l-21 34q-74 -67 -171 -67l-28 2v-194l-46 -22l-114 62v153l-199 -153l-111 126l242 161q-43 43 -78 43q-25 0 -57 -18.5t-98 -65.5l-99 147q104 82 178 82t153 -77l69 -67v188h-404l-57 75l21 42h973
l56 -75l-21 -42h-475l67 -48v-189q23 -6 44 -6q56 0 96 32l-62 93l27 52l148 -4q22 -38 22 -84t-22 -77l95 -170l-24 -48q-140 -32 -140 -73q0 -25 32 -25q28 0 74 23t73 50z" />
    <glyph glyph-name="uni0960" unicode="&#x960;" horiz-adv-x="948" 
d="M1060 -185q-67 -71 -159 -71q-76 0 -137 51.5t-61 115.5q0 19 7 36q-92 48 -92 119q0 95 171 138l-23 36q-70 -61 -169 -61l-29 2v-202l-46 -22l-114 62v153l-199 -153l-111 126l242 161q-43 43 -78 43q-25 0 -57 -18.5t-98 -65.5l-99 147q104 82 178 82t153 -77l69 -67
v188h-404l-57 75l21 42h988l56 -75l-21 -42h-490l67 -48v-182q23 -6 45 -6q56 0 94 28l-61 90l27 52l148 -4q21 -36 21 -83q0 -48 -21 -77l95 -164l-24 -48q-61 -10 -109.5 -31t-48.5 -45q0 -14 15 -23q55 43 166 66l58 -81l-22 -44q-132 -27 -132 -64q0 -18 27 -18
q29 0 73.5 23t67.5 51z" />
    <glyph glyph-name="uni090C" unicode="&#x90c;" horiz-adv-x="801" 
d="M836 538h-300l67 -48v-46q58 -26 94 -77.5t36 -109.5q0 -56 -31 -107.5t-79 -108.5t-48 -77q0 -31 30 -31q51 0 109 119l110 -98q-61 -135 -170 -135q-79 0 -144.5 62.5t-65.5 135.5q0 34 14.5 63t52.5 76.5t55 76t17 60.5q0 58 -49 58q-38 0 -66.5 -63t-25.5 -143
l-37 -25l-119 74l-1 21q0 53 18 102q-18 6 -34 6q-35 0 -59.5 -25t-24.5 -65q0 -52 44.5 -97t140.5 -105l-61 -82q-291 163 -291 344q0 76 50.5 125t123.5 49q33 0 62 -12l85 -74q44 54 109 73v84h-448l-57 75l21 42h837l56 -75z" />
    <glyph glyph-name="uni0961" unicode="&#x961;" horiz-adv-x="801" 
d="M908 -189q-62 -110 -165 -110q-66 0 -120 45.5t-62 104.5q-56 24 -88.5 65.5t-32.5 90.5q0 41 20 75t56 79t51.5 72.5t15.5 58.5q0 59 -49 59q-38 0 -66.5 -63t-25.5 -143l-37 -25l-119 74l-1 21q0 53 18 102q-18 6 -34 6q-35 0 -59.5 -25t-24.5 -65q0 -52 44.5 -97
t140.5 -105l-61 -82q-291 163 -291 344q0 76 50.5 125t123.5 49q33 0 62 -12l85 -74q44 54 109 73v84h-448l-57 75l21 42h837l56 -75l-21 -42h-300l67 -48v-46q58 -26 94 -77.5t36 -109.5q0 -57 -31.5 -107.5t-83.5 -108.5t-52 -80q0 -19 14 -30q41 63 136 101l80 -74
l-9 -42q-106 -56 -106 -93q0 -18 20 -18q22 0 58 27t60 68z" />
    <glyph glyph-name="uni090D" unicode="&#x90d;" horiz-adv-x="604" 
d="M639 538h-162l67 -48v-150q0 -87 -30.5 -136.5t-116.5 -86.5l-77 106l64 49v266h-240l67 -48v-312l234 -113q103 -51 143.5 -91.5t40.5 -90.5q0 -64 -48 -112l-145 65q30 40 30 66q0 33 -52 61l-194 94q-171 83 -171 242v239h-49l-57 75l21 42h640l56 -75zM519 885
q-15 -84 -65 -135t-128 -51q-75 0 -142.5 49.5t-106.5 141.5l71 58q57 -116 137 -116q91 0 111 117z" />
    <glyph glyph-name="uni090E" unicode="&#x90e;" horiz-adv-x="604" 
d="M639 538h-162l67 -48v-150q0 -87 -30.5 -136.5t-116.5 -86.5l-77 106l64 49v266h-240l67 -48v-312l234 -113q103 -51 143.5 -91.5t40.5 -90.5q0 -64 -48 -112l-145 65q30 40 30 66q0 33 -52 61l-194 94q-171 83 -171 242v239h-49l-57 75l21 42h427q-13 61 -78 78l-128 26
l-43 13q-128 45 -134 246l89 10q13 -93 103 -115l59 -11q78 -11 120.5 -28.5t73.5 -68.5t36 -150h115l56 -75z" />
    <glyph glyph-name="uni090F" unicode="&#x90f;" horiz-adv-x="604" 
d="M639 538h-162l67 -48v-150q0 -87 -30.5 -136.5t-116.5 -86.5l-77 106l64 49v266h-240l67 -48v-312l234 -113q103 -51 143.5 -91.5t40.5 -90.5q0 -64 -48 -112l-145 65q30 40 30 66q0 33 -52 61l-194 94q-171 83 -171 242v239h-49l-57 75l21 42h640l56 -75z" />
    <glyph glyph-name="uni0910" unicode="&#x910;" horiz-adv-x="604" 
d="M639 538h-162l67 -48v-150q0 -87 -30.5 -136.5t-116.5 -86.5l-77 106l64 49v266h-240l67 -48v-312l234 -113q103 -51 143.5 -91.5t40.5 -90.5q0 -64 -48 -112l-145 65q30 40 30 66q0 33 -52 61l-194 94q-171 83 -171 242v239h-49l-57 75l21 42h417l-49 81q-46 78 -111 78
q-54 0 -131 -52l-85 163q82 51 153 51q123 0 229 -158l103 -163h114l56 -75z" />
    <glyph glyph-name="uni0911" unicode="&#x911;" horiz-adv-x="1162" 
d="M874 696q-75 0 -142.5 49.5t-106.5 141.5l71 58q57 -116 137 -116q91 0 111 117l123 -64q-15 -84 -65 -135t-128 -51zM1197 538h-178l67 -48v-511l-46 -22l-114 62v519h-209l67 -48v-511l-46 -22l-114 62v192q-15 -6 -34 -6q-31 0 -67 16q7 -27 7 -54q0 -76 -51 -126
t-133 -50q-84 0 -170.5 62t-159.5 222l80 51q46 -98 95.5 -147.5t110.5 -49.5q47 0 74 26t27 59q0 55 -50 75l-100 -60l-90 135q56 50 130 54q78 48 78 107q0 16 -10 26q-38 4 -87.5 -21.5t-95.5 -69.5l-85 111q40 42 91.5 69.5t103.5 27.5q79 0 141.5 -59.5t62.5 -128.5
q0 -63 -55 -122q41 -30 93 -30q58 0 94 34v176h-78l-56 75l21 42h651l56 -75z" />
    <glyph glyph-name="uni0912" unicode="&#x912;" horiz-adv-x="1162" 
d="M1197 538h-178l67 -48v-511l-46 -22l-114 62v519h-209l67 -48v-511l-46 -22l-114 62v192q-15 -6 -34 -6q-31 0 -67 16q7 -27 7 -54q0 -76 -51 -126t-133 -50q-84 0 -170.5 62t-159.5 222l80 51q46 -98 95.5 -147.5t110.5 -49.5q47 0 74 26t27 59q0 55 -50 75l-100 -60
l-90 135q56 50 130 54q78 48 78 107q0 16 -10 26q-38 4 -87.5 -21.5t-95.5 -69.5l-85 111q40 42 91.5 69.5t103.5 27.5q79 0 141.5 -59.5t62.5 -128.5q0 -63 -55 -122q41 -30 93 -30q58 0 94 34v176h-78l-56 75l21 42h441q-13 61 -78 78l-128 26l-43 13q-128 45 -134 246
l89 10q13 -93 103 -115l59 -11q78 -11 120.5 -28.5t73.5 -68.5t36 -150h112l56 -75z" />
    <glyph glyph-name="uni0913" unicode="&#x913;" horiz-adv-x="1162" 
d="M1197 538h-178l67 -48v-511l-46 -22l-114 62v519h-209l67 -48v-511l-46 -22l-114 62v192q-15 -6 -34 -6q-31 0 -67 16q7 -27 7 -54q0 -76 -51 -126t-133 -50q-84 0 -170.5 62t-159.5 222l80 51q46 -98 95.5 -147.5t110.5 -49.5q47 0 74 26t27 59q0 55 -50 75l-100 -60
l-90 135q56 50 130 54q78 48 78 107q0 16 -10 26q-38 4 -87.5 -21.5t-95.5 -69.5l-85 111q40 42 91.5 69.5t103.5 27.5q79 0 141.5 -59.5t62.5 -128.5q0 -63 -55 -122q41 -30 93 -30q58 0 94 34v176h-78l-56 75l21 42h404l-44 72q-45 80 -111 80q-53 0 -132 -52l-84 163
q80 51 152 51q128 0 234 -164l94 -150h138l56 -75z" />
    <glyph glyph-name="uni0972" unicode="&#x972;" horiz-adv-x="859" 
d="M894 538h-177l67 -48v-511l-46 -22l-114 62v192q-15 -6 -34 -6q-31 0 -67 16q7 -27 7 -54q0 -76 -51 -126t-133 -50q-84 0 -170.5 62t-159.5 222l80 51q46 -98 95.5 -147.5t110.5 -49.5q47 0 74 26t27 59q0 55 -50 75l-100 -60l-90 135q56 50 130 54q78 48 78 107
q0 16 -10 26q-38 4 -87.5 -21.5t-95.5 -69.5l-85 111q40 42 91.5 69.5t103.5 27.5q79 0 141.5 -59.5t62.5 -128.5q0 -63 -55 -122q41 -30 93 -30q58 0 94 34v176h-78l-56 75l21 42h348l56 -75zM871 880q-15 -84 -65 -135t-128 -51q-75 0 -142.5 49.5t-106.5 141.5l71 58
q57 -116 137 -116q91 0 111 117z" />
    <glyph glyph-name="uni0973" unicode="&#x973;" horiz-adv-x="859" 
d="M894 538h-177l67 -48v-511l-46 -22l-114 62v192q-15 -6 -34 -6q-31 0 -67 16q7 -27 7 -54q0 -76 -51 -126t-133 -50q-84 0 -170.5 62t-159.5 222l80 51q46 -98 95.5 -147.5t110.5 -49.5q47 0 74 26t27 59q0 55 -50 75l-100 -60l-90 135q56 50 130 54q78 48 78 107
q0 16 -10 26q-38 4 -87.5 -21.5t-95.5 -69.5l-85 111q40 42 91.5 69.5t103.5 27.5q79 0 141.5 -59.5t62.5 -128.5q0 -63 -55 -122q41 -30 93 -30q58 0 94 34v176h-78l-56 75l21 42h127v180h111v-180h110l56 -75z" />
    <glyph glyph-name="uni0974" unicode="&#x974;" horiz-adv-x="1162" 
d="M1197 538h-178l67 -48v-511l-46 -22l-114 62v519h-209l67 -48v-511l-46 -22l-114 62v192q-15 -6 -34 -6q-31 0 -67 16q7 -27 7 -54q0 -76 -51 -126t-133 -50q-84 0 -170.5 62t-159.5 222l80 51q46 -98 95.5 -147.5t110.5 -49.5q47 0 74 26t27 59q0 55 -50 75l-100 -60
l-90 135q56 50 130 54q78 48 78 107q0 16 -10 26q-38 4 -87.5 -21.5t-95.5 -69.5l-85 111q40 42 91.5 69.5t103.5 27.5q79 0 141.5 -59.5t62.5 -128.5q0 -63 -55 -122q41 -30 93 -30q58 0 94 34v176h-78l-56 75l21 42h428v180h111v-180h112l56 -75z" />
    <glyph glyph-name="uni0975" unicode="&#x975;" horiz-adv-x="1162" 
d="M1197 538h-178l67 -48v-511l-46 -22l-114 62v519h-209l67 -48v-511l-46 -22l-114 62v192q-15 -6 -34 -6q-31 0 -67 16q7 -27 7 -54q0 -76 -51 -126t-133 -50q-84 0 -170.5 62t-159.5 222l80 51q46 -98 95.5 -147.5t110.5 -49.5q47 0 74 26t27 59q0 55 -50 75l-100 -60
l-90 135q56 50 130 54q78 48 78 107q0 16 -10 26q-38 4 -87.5 -21.5t-95.5 -69.5l-85 111q40 42 91.5 69.5t103.5 27.5q79 0 141.5 -59.5t62.5 -128.5q0 -63 -55 -122q41 -30 93 -30q58 0 94 34v176h-78l-56 75l21 42h432q-9 40 -49 44l-148 3q-70 6 -119 48q-62 53 -66 141
l88 27q22 -103 91 -106h58q56 0 92 -14l3 9q-14 11 -36 19l-51 20q-104 41 -104 139q0 43 20 84l93 -13q-11 -31 -11 -50q0 -23 15.5 -38.5t93 -54t108.5 -97.5t31 -129l-2 -32h112l56 -75z" />
    <glyph glyph-name="uni0976" unicode="&#x976;" horiz-adv-x="859" 
d="M894 538h-177l67 -48v-511l-46 -22l-114 62v192q-15 -6 -34 -6q-31 0 -67 16q7 -27 7 -54q0 -76 -51 -126t-133 -50q-84 0 -170.5 62t-159.5 222l80 51q46 -98 95.5 -147.5t110.5 -49.5q47 0 74 26t27 59q0 55 -50 75l-100 -60l-90 135q56 50 130 54q78 48 78 107
q0 16 -10 26q-38 4 -87.5 -21.5t-95.5 -69.5l-85 111q40 42 91.5 69.5t103.5 27.5q79 0 141.5 -59.5t62.5 -128.5q0 -63 -55 -122q41 -30 93 -30q58 0 94 34v176h-78l-56 75l21 42h348l56 -75zM328 -65q68 -65 162 -65q110 0 182 72l73 -116q-30 -39 -86 -64t-119 -25
q-75 0 -143 37t-110 111z" />
    <glyph glyph-name="uni0977" unicode="&#x977;" horiz-adv-x="859" 
d="M894 538h-177l67 -48v-511l-46 -22l-114 62v192q-15 -6 -34 -6q-31 0 -67 16q7 -27 7 -54q0 -76 -51 -126t-133 -50q-84 0 -170.5 62t-159.5 222l80 51q46 -98 95.5 -147.5t110.5 -49.5q47 0 74 26t27 59q0 55 -50 75l-100 -60l-90 135q56 50 130 54q78 48 78 107
q0 16 -10 26q-38 4 -87.5 -21.5t-95.5 -69.5l-85 111q40 42 91.5 69.5t103.5 27.5q79 0 141.5 -59.5t62.5 -128.5q0 -63 -55 -122q41 -30 93 -30q58 0 94 34v176h-78l-56 75l21 42h348l56 -75zM325 -275q68 -65 162 -65q110 0 182 72l73 -116q-30 -39 -86 -64t-119 -25
q-75 0 -143 37t-110 111zM325 -65q68 -65 162 -65q110 0 182 72l73 -116q-30 -39 -86 -64t-119 -25q-75 0 -143 37t-110 111z" />
    <glyph glyph-name="uni0914" unicode="&#x914;" horiz-adv-x="1162" 
d="M1197 538h-178l67 -48v-511l-46 -22l-114 62v519h-209l67 -48v-511l-46 -22l-114 62v192q-15 -6 -34 -6q-31 0 -67 16q7 -27 7 -54q0 -76 -51 -126t-133 -50q-84 0 -170.5 62t-159.5 222l80 51q46 -98 95.5 -147.5t110.5 -49.5q47 0 74 26t27 59q0 55 -50 75l-100 -60
l-90 135q56 50 130 54q78 48 78 107q0 16 -10 26q-38 4 -87.5 -21.5t-95.5 -69.5l-85 111q40 42 91.5 69.5t103.5 27.5q79 0 141.5 -59.5t62.5 -128.5q0 -63 -55 -122q41 -30 93 -30q58 0 94 34v176h-78l-56 75l21 42h387l-41 39q-49 49 -100 49q-49 0 -127 -48l-75 134
q78 55 144 55q86 0 178 -104l100 -117l-53 128q-32 79 -66 114t-87 35q-41 0 -107 -23l-60 158q68 28 125 28q157 0 248 -234l76 -214h109l56 -75z" />
    <glyph glyph-name="uni0915" unicode="&#x915;" horiz-adv-x="815" 
d="M850 538h-428l67 -48v-83q53 38 108 38q80 0 139.5 -64.5t59.5 -150.5q0 -134 -166 -244l-112 117q72 54 107 90.5t35 69.5q0 36 -35 36q-54 0 -136 -95v-225l-46 -22l-114 62v75q-21 -7 -49 -7q-96 0 -178 64.5t-82 152.5q0 72 49.5 120.5t127.5 48.5l44 -4l88 -46v115
h-329l-57 75l21 42h851l56 -75zM193 203q33 -2 71 16t65 53v70q-30 11 -54 11q-45 0 -72.5 -29.5t-27.5 -68.5q0 -29 18 -52z" />
    <glyph glyph-name="uni0916" unicode="&#x916;" horiz-adv-x="886" 
d="M921 538h-178l67 -48v-511l-46 -22l-88 48q-80 -52 -196 -52q-141 0 -265 88t-186 234l34 80l133 -1l2 9v175h-198l-57 75l21 42h922l56 -75zM650 538h-362l68 -48v-130q0 -43 -18 -72.5t-63 -62.5l-51 -37q38 -57 103 -87.5t139 -30.5q110 0 184 53v11q-19 -6 -45 -6
q-92 0 -167.5 58t-75.5 139q0 65 45.5 112t113.5 47l42 -5l87 -53v112zM650 359q-30 12 -57 12q-44 0 -69.5 -27t-25.5 -62q0 -28 16 -47l27 -3q67 0 109 55v72z" />
    <glyph glyph-name="uni0917" unicode="&#x917;" horiz-adv-x="665" 
d="M700 538h-177l67 -48v-511l-46 -22l-114 62v519h-213l67 -48v-359l-61 -33q-61 21 -124 79.5t-82 114.5l34 54h77l-3 192h-125l-57 75l21 42h701l56 -75z" />
    <glyph glyph-name="uni0918" unicode="&#x918;" horiz-adv-x="709" 
d="M744 538h-178l67 -48v-511l-46 -22l-114 62v68q-43 -20 -95 -20q-102 0 -189 68.5t-87 151.5q0 43 25 80q-112 65 -112 149l2 22h-32l-57 75l21 42h759l57 -75zM473 538h-259q-38 -26 -38 -67q0 -24 14 -46q45 25 107 25q29 0 60 -6l66 -104l-21 -41l-33 2
q-54 0 -85.5 -23t-31.5 -54q0 -17 10 -31l30 -4q49 0 102.5 29.5t78.5 74.5v245z" />
    <glyph glyph-name="uni0919" unicode="&#x919;" horiz-adv-x="744" 
d="M800 580l-21 -42h-332l67 -48v-139h-225q-85 0 -85 -44q0 -21 21 -38l175 51q80 -26 125 -83t45 -123q0 -79 -58 -132t-148 -53q-185 0 -356 250l68 56q109 -166 237 -166q61 0 101.5 34t35.5 77l-138 -51q-110 35 -177.5 96.5t-67.5 127.5q0 57 48 93t127 37h128v55
h-370l-57 75l21 42h780zM635 376q26 -10 55.5 -34.5t47.5 -47.5q-23 -61 -82 -103q-26 10 -57.5 34.5t-48.5 47.5q39 74 85 103z" />
    <glyph glyph-name="uni091A" unicode="&#x91a;" horiz-adv-x="717" 
d="M752 538h-177l67 -48v-511l-46 -22l-114 62v70q-39 -18 -88 -18q-104 0 -193.5 66t-89.5 152q0 31 14 59h-86l-54 76l21 42h372l61 -90l-21 -42h-96q-57 -38 -57 -103q0 -17 6 -34l33 -3q51 0 101.5 28.5t76.5 72.5v243h-482l-57 75l21 42h753l56 -75z" />
    <glyph glyph-name="uni091B" unicode="&#x91b;" horiz-adv-x="788" 
d="M823 538h-238l67 -48v-33q47 -35 74.5 -92t27.5 -122q0 -82 -44 -156.5t-122 -120t-173 -45.5q-117 0 -206.5 67t-89.5 154q0 32 16 64q-117 69 -117 161q0 52 40 89.5t117 37.5h100l66 -97l-22 -41h-77q-84 0 -84 -47q0 -25 31 -47q48 28 107 28q35 0 66 -8l67 -105
l-32 -41q-29 10 -55 10q-34 0 -55 -17t-21 -42q0 -28 19 -43q23 -6 46 -6q74 0 135.5 29.5t102.5 79.5q-82 41 -133.5 98t-51.5 116q0 49 35.5 87.5t88.5 47.5v42h-508l-57 75l21 42h823l57 -75zM525 324q0 -78 79 -120q23 48 23 99q0 62 -21 85q-12 4 -24 4
q-26 0 -41.5 -19.5t-15.5 -48.5z" />
    <glyph glyph-name="uni091C" unicode="&#x91c;" horiz-adv-x="744" 
d="M779 538h-177l67 -48v-511l-46 -22l-114 62v291h-116q61 -59 61 -132q0 -64 -43 -106.5t-112 -42.5q-108 0 -183 101.5t-121 272.5l100 33q44 -146 78.5 -196t79.5 -50q31 0 48 18.5t17 46.5q0 52 -48 84l-75 27v80h314v92h-509l-57 75l21 42h780l56 -75z" />
    <glyph glyph-name="uni091D" unicode="&#x91d;" horiz-adv-x="862" 
d="M897 538h-177l67 -48v-511l-46 -22l-114 62v144l-29 -3q-21 0 -54 7q8 -27 8 -53q0 -83 -67 -127t-154 -54l123 -104l-120 -87l-127 198q-63 17 -140 71l35 135l74 -1l61 -90l20 -1q65 0 120 37t57 82l-161 -42q-106 31 -173 92.5t-67 127.5q0 55 47.5 92.5t135.5 37.5
h130v57h-346l-57 75l21 42h898l56 -75zM627 538h-204l67 -48v-137h-241q-81 0 -81 -48q0 -17 18 -35l205 41v0q71 -29 138 -29q63 0 98 28v228z" />
    <glyph glyph-name="uni091D.NEP" horiz-adv-x="889" 
d="M923 538h-382l67 -48v-119h53q93 0 163.5 -68t70.5 -156q0 -105 -125 -201l-117 108q99 72 99 126q0 46 -76 46h-68v-247l-46 -22l-114 62v193h-112v-89l-60 -33q-59 20 -124.5 84t-83.5 121l34 53h79l-1 147q0 50 -17 71q-28 1 -47 -14.5t-19 -39.5q0 -35 42 -66
l-57 -47q-115 77 -115 156q0 51 38.5 87t95.5 36q86 0 159.5 -73.5t73.5 -160.5v-96h114v190h-27l-56 75l21 42h502l56 -75z" />
    <glyph glyph-name="uni091E" unicode="&#x91e;" horiz-adv-x="811" 
d="M846 538h-177l67 -48v-511l-46 -22l-114 62v171q-32 5 -61 16q-17 -65 -69 -106t-122 -41q-81 0 -173 63t-175 216l79 54q61 -100 109.5 -145t106.5 -45q50 0 79 29t29 69q0 58 -49 81l-104 -85l-96 126q62 71 152 71q80 0 146.5 -52.5t86.5 -131.5l17 -1q21 0 44 5v225
h-576l-57 75l21 42h847l56 -75z" />
    <glyph glyph-name="uni091F" unicode="&#x91f;" horiz-adv-x="584" 
d="M619 538h-221l67 -48v-209h-166q-59 0 -90 -26t-31 -65q0 -34 28 -65q29 -14 72 -14q54 0 110.5 24t94.5 65l90 -131q-44 -54 -102.5 -78.5t-114.5 -24.5q-74 0 -151.5 38t-128 103.5t-50.5 141.5q0 79 58 131t176 52h50v106h-310l-57 75l21 42h620l56 -75z" />
    <glyph glyph-name="uni0920" unicode="&#x920;" horiz-adv-x="640" 
d="M675 538h-272l67 -48v-128q61 -41 97 -100t36 -121q0 -83 -62.5 -134.5t-161.5 -51.5q-134 0 -239 86.5t-105 196.5q0 84 63 135t169 52h48v113h-315l-57 75l21 42h675l57 -75zM316 88q64 0 101.5 32t37.5 77q0 40 -32 80h-116q-59 0 -90 -26.5t-31 -66.5q0 -36 29 -70
q46 -26 101 -26z" />
    <glyph glyph-name="uni0921" unicode="&#x921;" horiz-adv-x="621" 
d="M656 538h-194l67 -48v-133h-238q-83 0 -83 -42q0 -23 25 -41l182 42q82 -28 126 -85t44 -119q0 -76 -59.5 -127.5t-150.5 -51.5q-194 0 -363 251l68 56q109 -170 249 -170q57 0 99 30t41 74l-149 -47q-109 35 -178.5 99.5t-69.5 134.5q0 57 47 93t138 36h128v48h-385
l-57 75l21 42h657l56 -75z" />
    <glyph glyph-name="uni0922" unicode="&#x922;" horiz-adv-x="626" 
d="M661 538h-217l68 -48v-181h-192q-67 0 -103.5 -36t-36.5 -87q0 -58 42 -100q58 -30 132 -30l-66 43q-18 35 -18 69q0 52 37.5 82.5t93.5 30.5q78 0 136.5 -58.5t58.5 -129.5q0 -69 -57.5 -118t-142.5 -49q-83 0 -168.5 44.5t-141.5 118t-56 155.5q0 91 65 149.5t171 61.5
h92v83h-358l-57 75l21 42h662l56 -75zM408 130q0 -28 17 -59q61 26 61 75q0 19 -10 30t-24 11q-17 0 -30.5 -15.5t-13.5 -41.5z" />
    <glyph glyph-name="uni0923" unicode="&#x923;" horiz-adv-x="755" 
d="M790 538h-177l67 -48v-511l-46 -22l-114 62v519h-148l68 -48v-189q0 -93 -40 -136.5t-104 -43.5q-89 0 -171 76t-85 163v178h-55l-57 75l21 42h806l56 -75zM285 538h-155l63 -48v-233q15 -17 40 -17q52 0 52 65v233z" />
    <glyph glyph-name="uni0924" unicode="&#x924;" horiz-adv-x="628" 
d="M663 538h-178l67 -48v-511l-46 -22l-114 62v272h-99q-53 0 -80.5 -22t-27.5 -59q0 -35 28.5 -77t93.5 -107l-83 -72q-96 92 -147 168.5t-51 147.5q0 79 59 126.5t159 47.5h148v94h-392l-57 75l21 42h664l56 -75z" />
    <glyph glyph-name="uni0925" unicode="&#x925;" horiz-adv-x="673" 
d="M707 538h-177l67 -48v-511l-46 -22l-114 62v73q-43 -21 -93 -21q-95 0 -182.5 71t-136.5 188l19 51q212 23 212 133q0 30 -18 52q-8 4 -19 4q-21 0 -37 -15t-16 -39q0 -32 30 -60l-58 -40q-106 72 -106 145q0 48 39 82.5t95 34.5q84 0 154.5 -71.5t70.5 -156.5
q0 -64 -49 -118.5t-145 -78.5q13 -33 34 -62q62 -2 121 25.5t85 79.5v242h-21l-56 75l21 42h291l56 -75z" />
    <glyph glyph-name="uni0926" unicode="&#x926;" horiz-adv-x="608" 
d="M643 538h-221l67 -48v-184l1 -2h-177q-64 0 -97 -30t-33 -72q0 -44 35 -79q30 -13 65 -13q48 0 92 23l-12 84l101 37l123 -153q-23 -44 -73 -79l97 -175l-153 -62l-41 189q-28 -6 -56 -6q-71 0 -149 38.5t-130 105t-52 143.5q0 88 62 141.5t165 55.5h81v86h-338l-57 75
l21 42h644l56 -75z" />
    <glyph glyph-name="uni0927" unicode="&#x927;" horiz-adv-x="708" 
d="M743 538h-178l67 -48v-511l-46 -22l-114 62v69q-43 -21 -97 -21q-102 0 -189 68.5t-87 151.5q0 47 31 89q-112 79 -112 171q0 58 43 97.5t109 39.5q65 0 112.5 -40t91.5 -118l-62 -49q-36 57 -60 78l-17 2q-28 0 -47.5 -18.5t-19.5 -47.5q0 -33 27 -62q44 21 98 21
q30 0 61 -6l66 -104l-21 -41l-33 2q-54 0 -85.5 -23t-31.5 -54q0 -17 10 -31q12 -4 30 -4q51 0 105.5 30.5t77.5 77.5v241h-28l-56 75l21 42h298l57 -75z" />
    <glyph glyph-name="uni0928" unicode="&#x928;" horiz-adv-x="610" 
d="M645 538h-178l67 -48v-511l-46 -22l-114 62v255h-128v-104l-66 -31q-57 31 -104.5 96.5t-59.5 126.5l37 55h321v121h-374l-57 75l21 42h645l57 -75z" />
    <glyph glyph-name="uni0929" unicode="&#x929;" horiz-adv-x="610" 
d="M645 538h-178l67 -48v-511l-46 -22l-114 62v255h-128v-104l-66 -31q-57 31 -104.5 96.5t-59.5 126.5l37 55h321v121h-374l-57 75l21 42h645l57 -75zM237 -118q-25 10 -57 34t-48 47q37 74 85 103q55 -21 102 -81q-11 -29 -34 -58t-48 -45z" />
    <glyph glyph-name="uni092A" unicode="&#x92a;" horiz-adv-x="614" 
d="M649 538h-178l67 -48v-511l-46 -22l-114 62v104q-28 -12 -58 -12q-90 0 -184.5 85.5t-96.5 174.5v167h-39l-57 75l21 42h649l57 -75zM378 538h-238l68 -48v-226q19 -16 50 -16q37 0 70 19.5t50 56.5v214z" />
    <glyph glyph-name="uni092B" unicode="&#x92b;" horiz-adv-x="840" 
d="M875 538h-436l67 -48v-77q53 38 110 38q80 0 139.5 -65t59.5 -149q0 -135 -166 -244l-112 116q71 53 106 90t35 70q0 36 -34 36q-55 0 -138 -94v-232l-46 -22l-114 62v112l-24 -2q-89 0 -183 87t-95 177v145h-44l-57 75l21 42h876l56 -75zM346 538h-201l68 -48v-206
q20 -21 51 -21q47 0 82 38v237z" />
    <glyph glyph-name="uni092C" unicode="&#x92c;" horiz-adv-x="643" 
d="M678 538h-177l67 -48v-511l-46 -22l-114 62v62q-36 -16 -81 -16q-65 0 -136.5 33t-119.5 90t-48 125q0 75 55.5 127t138.5 52q27 0 55 -6l136 -65v117h-408l-57 75l21 42h679l56 -75zM374 222q22 19 34 37v75q-56 30 -106 30l-21 -1zM204 192q25 -10 53 -10q30 0 61 11
l-98 144q-37 -33 -37 -81q0 -35 21 -64z" />
    <glyph glyph-name="uni092D" unicode="&#x92d;" horiz-adv-x="701" 
d="M729 538h-178l67 -48v-511l-46 -22l-114 62v183h-122v-89l-60 -33q-59 20 -124.5 84t-83.5 121l34 53h79l-1 157q0 50 -17 71q-28 1 -47 -14.5t-19 -39.5q0 -35 42 -66l-57 -47q-115 77 -115 156q0 51 38.5 87t95.5 36q86 0 159.5 -73.5t73.5 -160.5v-106h124v200h-29
l-56 75l21 42h300l56 -75z" />
    <glyph glyph-name="uni092E" unicode="&#x92e;" horiz-adv-x="684" 
d="M719 538h-177l67 -48v-511l-46 -22l-114 62v176h-161v-85l-60 -33q-59 20 -124.5 84t-83.5 120l34 54h79l-9 203h-124l-57 75l21 42h720l56 -75zM449 538h-231l67 -48l1 -155h163v203z" />
    <glyph glyph-name="uni092F" unicode="&#x92f;" horiz-adv-x="658" 
d="M693 538h-178l67 -48v-511l-46 -22l-114 62v72q-39 -20 -85 -20q-95 0 -182.5 71t-136.5 188l19 51q84 10 119 28t35 48q0 40 -63 81h-128l-57 75l21 42h693l57 -75zM422 538h-172q89 -70 89 -147q0 -49 -36 -86t-108 -54q10 -32 29 -60l17 -1q54 0 105 28.5t76 76.5v243
z" />
    <glyph glyph-name="uni0930" unicode="&#x930;" horiz-adv-x="477" 
d="M512 538h-221l69 -48v-132q0 -49 -27 -83t-84 -73l215 -130v-45l-107 -91l-334 329l34 90h136q1 3 1 183h-194l-57 75l21 42h513l56 -75z" />
    <glyph glyph-name="uni0931" unicode="&#x931;" horiz-adv-x="477" 
d="M512 538h-221l69 -48v-132q0 -49 -27 -83t-84 -73l215 -130v-45l-107 -91l-334 329l34 90h136q1 3 1 183h-194l-57 75l21 42h513l56 -75zM145 -152q-25 10 -57 34t-48 47q37 74 85 103q55 -21 102 -81q-11 -29 -34 -58t-48 -45z" />
    <glyph glyph-name="uni0932" unicode="&#x932;" horiz-adv-x="763" 
d="M797 538h-178l67 -48v-511l-46 -22l-114 62v325q-85 -51 -87 -192l-39 -24l-118 74q0 64 22 114q-15 7 -35 7q-34 0 -59 -24t-25 -65q0 -52 45 -98t140 -105l-61 -82q-291 163 -291 344q0 76 50.5 125t123.5 49q33 0 62 -12l91 -79q68 74 181 76v86h-526l-57 75l21 42
h798l56 -75z" />
    <glyph glyph-name="uni0932.MAR" horiz-adv-x="765" 
d="M800 538h-269l67 -48v-52q58 -26 98.5 -80t40.5 -125t-45.5 -146.5t-143.5 -145.5l-122 103q84 62 127.5 126.5t43.5 112.5q0 28 -15 48t-38 20q-42 0 -72.5 -60t-30.5 -139l-38 -24l-119 74q0 66 21 114q-17 7 -36 7q-34 0 -59 -24t-25 -65q0 -52 45 -98t140 -105
l-61 -82q-291 163 -291 344q0 76 50.5 125t123.5 49q33 0 62 -12l90 -78q39 44 94 62v99h-438l-57 75l21 42h800l57 -75z" />
    <glyph glyph-name="uni0933" unicode="&#x933;" horiz-adv-x="787" 
d="M822 538h-271l67 -48v-71q64 -33 106.5 -102t42.5 -148q0 -88 -52.5 -145.5t-132.5 -57.5q-57 0 -102 26l-75 79q-36 -53 -71 -78.5t-82 -25.5q-93 0 -161.5 78.5t-68.5 185.5q0 94 56.5 158t139.5 64q32 0 75 -17l98 -102q36 61 67 84v120h-458l-57 75l21 42h823l56 -75
zM529 90q45 0 72 37t27 86q0 37 -17 70t-48 50l-36 -55l-54 -93l-28 -49q40 -46 84 -46zM221 66q61 64 129 191q-44 52 -90 52q-42 0 -68.5 -37.5t-26.5 -84.5q0 -34 15.5 -69t40.5 -52z" />
    <glyph glyph-name="uni0934" unicode="&#x934;" horiz-adv-x="787" 
d="M822 538h-271l67 -48v-71q64 -33 106.5 -102t42.5 -148q0 -88 -52.5 -145.5t-132.5 -57.5q-57 0 -102 26l-75 79q-36 -53 -71 -78.5t-82 -25.5q-93 0 -161.5 78.5t-68.5 185.5q0 94 56.5 158t139.5 64q32 0 75 -17l98 -102q36 61 67 84v120h-458l-57 75l21 42h823l56 -75
zM529 90q45 0 72 37t27 86q0 37 -17 70t-48 50l-36 -55l-54 -93l-28 -49q40 -46 84 -46zM221 66q61 64 129 191q-44 52 -90 52q-42 0 -68.5 -37.5t-26.5 -84.5q0 -34 15.5 -69t40.5 -52zM413 -185q-25 10 -57 34t-48 47q37 74 85 103q55 -21 102 -81q-11 -29 -34 -58
t-48 -45z" />
    <glyph glyph-name="uni0935" unicode="&#x935;" horiz-adv-x="640" 
d="M675 538h-177l67 -48v-511l-46 -22l-114 62v69q-36 -18 -80 -18q-64 0 -135 31.5t-119 86.5t-48 123q0 74 54.5 125t138.5 51q27 0 55 -6l134 -60v117h-405l-57 75l21 42h676l56 -75zM210 197l33 -3q46 0 91 22t71 60v59q-47 24 -97 24q-55 0 -85.5 -31t-30.5 -73
q0 -32 18 -58z" />
    <glyph glyph-name="uni0936" unicode="&#x936;" horiz-adv-x="828" 
d="M863 538h-177l67 -48v-511l-46 -22l-114 62v519h-140q59 -69 59 -155q0 -74 -53.5 -144t-149.5 -110l176 -64l7 -46l-98 -99l-208 167q-87 2 -135 44l43 140l48 10l53 -49q50 18 88 46q-93 24 -151 78t-58 120q0 31 13 62h-87l-57 75l21 42h864l56 -75zM233 466
q0 -41 28.5 -75.5t81.5 -48.5q30 47 30 102q0 49 -21.5 73t-52.5 24q-29 0 -47.5 -21.5t-18.5 -53.5z" />
    <glyph glyph-name="uni0936.MAR" horiz-adv-x="836" 
d="M871 538h-178l67 -48v-511l-46 -22l-114 62v519h-225v-60q61 -35 101 -94.5t40 -121.5t-41.5 -119t-123.5 -88l151 -91l1 -45l-69 -54l-239 167q-87 7 -135 39l50 151l46 9l50 -52q69 13 114 54t45 85q0 35 -26 61q-46 -4 -113.5 -35.5t-123.5 -72.5l-81 143
q39 33 92 58.5t103 34.5v31h-216l-57 75l21 42h872l56 -75z" />
    <glyph glyph-name="uni0937" unicode="&#x937;" horiz-adv-x="641" 
d="M676 538h-177l67 -48v-511l-46 -22l-114 62v105q-31 -14 -68 -14q-101 0 -198.5 82.5t-100.5 176.5v169h-39l-57 75l21 42h677l56 -75zM406 538h-155l152 -211l3 7v204zM264 244q55 0 95 30l-155 215v-225q22 -20 60 -20z" />
    <glyph glyph-name="uni0938" unicode="&#x938;" horiz-adv-x="781" 
d="M816 538h-178l67 -48v-511l-46 -22l-114 62v199h-280l-23 -16l214 -130v-45l-107 -91l-334 329l34 90h137q1 3 1 183h-194l-57 75l21 42h824l56 -75zM545 538h-261l69 -48v-143h192v191z" />
    <glyph glyph-name="uni0939" unicode="&#x939;" horiz-adv-x="593" 
d="M628 538h-180l67 -48v-140h-264q-72 0 -72 -44q0 -12 6 -23q51 21 114 21q106 0 181.5 -57t75.5 -140q0 -94 -93 -150l-124 93q82 61 95 113q-36 17 -74 17q-55 0 -94 -29.5t-39 -77.5q0 -70 79 -109t220 -69l-31 -101q-199 37 -315 122t-116 195q0 77 54 129
q-72 60 -72 128q0 48 41.5 83t123.5 35h160v52h-371l-57 75l21 42h629l56 -75z" />
    <glyph glyph-name="uni0958" unicode="&#x958;" horiz-adv-x="815" 
d="M184 -112q-25 10 -57 34t-48 47q37 74 85 103q55 -21 102 -81q-11 -29 -34 -58t-48 -45zM850 538h-428l67 -48v-83q53 38 108 38q80 0 139.5 -64.5t59.5 -150.5q0 -134 -166 -244l-112 117q72 54 107 90.5t35 69.5q0 36 -35 36q-54 0 -136 -95v-225l-46 -22l-114 62v75
q-21 -7 -49 -7q-96 0 -178 64.5t-82 152.5q0 72 49.5 120.5t127.5 48.5l44 -4l88 -46v115h-329l-57 75l21 42h851l56 -75zM193 203q33 -2 71 16t65 53v70q-30 11 -54 11q-45 0 -72.5 -29.5t-27.5 -68.5q0 -29 18 -52z" />
    <glyph glyph-name="uni0959" unicode="&#x959;" horiz-adv-x="886" 
d="M921 538h-178l67 -48v-511l-46 -22l-88 48q-80 -52 -196 -52q-141 0 -265 88t-186 234l34 80l133 -1l2 9v175h-198l-57 75l21 42h922l56 -75zM650 538h-362l68 -48v-130q0 -43 -18 -72.5t-63 -62.5l-51 -37q38 -57 103 -87.5t139 -30.5q110 0 184 53v11q-19 -6 -45 -6
q-92 0 -167.5 58t-75.5 139q0 65 45.5 112t113.5 47l42 -5l87 -53v112zM650 359q-30 12 -57 12q-44 0 -69.5 -27t-25.5 -62q0 -28 16 -47l27 -3q67 0 109 55v72zM194 -173q-25 10 -57 34t-48 47q37 74 85 103q55 -21 102 -81q-11 -29 -34 -58t-48 -45z" />
    <glyph glyph-name="uni095A" unicode="&#x95a;" horiz-adv-x="665" 
d="M700 538h-177l67 -48v-511l-46 -22l-114 62v519h-213l67 -48v-359l-61 -33q-61 21 -124 79.5t-82 114.5l34 54h77l-3 192h-125l-57 75l21 42h701l56 -75zM294 -119q-25 10 -57 34t-48 47q37 74 85 103q55 -21 102 -81q-11 -29 -34 -58t-48 -45z" />
    <glyph glyph-name="uni095B" unicode="&#x95b;" horiz-adv-x="744" 
d="M779 538h-177l67 -48v-511l-46 -22l-114 62v291h-116q61 -59 61 -132q0 -64 -43 -106.5t-112 -42.5q-108 0 -183 101.5t-121 272.5l100 33q44 -146 78.5 -196t79.5 -50q31 0 48 18.5t17 46.5q0 52 -48 84l-75 27v80h314v92h-509l-57 75l21 42h780l56 -75zM335 -175
q-25 10 -57 34t-48 47q37 74 85 103q55 -21 102 -81q-11 -29 -34 -58t-48 -45z" />
    <glyph glyph-name="uni095C" unicode="&#x95c;" horiz-adv-x="621" 
d="M656 538h-194l67 -48v-133h-238q-83 0 -83 -42q0 -23 25 -41l182 42q82 -28 126 -85t44 -119q0 -76 -59.5 -127.5t-150.5 -51.5q-194 0 -363 251l68 56q109 -170 249 -170q57 0 99 30t41 74l-149 -47q-109 35 -178.5 99.5t-69.5 134.5q0 57 47 93t138 36h128v48h-385
l-57 75l21 42h657l56 -75zM360 -267q-25 10 -57 34t-48 47q37 74 85 103q55 -21 102 -81q-11 -29 -34 -58t-48 -45z" />
    <glyph glyph-name="uni095D" unicode="&#x95d;" horiz-adv-x="626" 
d="M661 538h-217l68 -48v-181h-192q-67 0 -103.5 -36t-36.5 -87q0 -58 42 -100q58 -30 132 -30l-66 43q-18 35 -18 69q0 52 37.5 82.5t93.5 30.5q78 0 136.5 -58.5t58.5 -129.5q0 -69 -57.5 -118t-142.5 -49q-83 0 -168.5 44.5t-141.5 118t-56 155.5q0 91 65 149.5t171 61.5
h92v83h-358l-57 75l21 42h662l56 -75zM408 130q0 -28 17 -59q61 26 61 75q0 19 -10 30t-24 11q-17 0 -30.5 -15.5t-13.5 -41.5zM381 -272q-25 10 -57 34t-48 47q37 74 85 103q55 -21 102 -81q-11 -29 -34 -58t-48 -45z" />
    <glyph glyph-name="uni095E" unicode="&#x95e;" horiz-adv-x="840" 
d="M875 538h-436l67 -48v-77q53 38 110 38q80 0 139.5 -65t59.5 -149q0 -135 -166 -244l-112 116q71 53 106 90t35 70q0 36 -34 36q-55 0 -138 -94v-232l-46 -22l-114 62v112l-24 -2q-89 0 -183 87t-95 177v145h-44l-57 75l21 42h876l56 -75zM346 538h-201l68 -48v-206
q20 -21 51 -21q47 0 82 38v237zM198 -76q-25 10 -57 34t-48 47q37 74 85 103q55 -21 102 -81q-11 -29 -34 -58t-48 -45z" />
    <glyph glyph-name="uni095F" unicode="&#x95f;" horiz-adv-x="658" 
d="M693 538h-178l67 -48v-511l-46 -22l-114 62v72q-39 -20 -85 -20q-95 0 -182.5 71t-136.5 188l19 51q84 10 119 28t35 48q0 40 -63 81h-128l-57 75l21 42h693l57 -75zM422 538h-172q89 -70 89 -147q0 -49 -36 -86t-108 -54q10 -32 29 -60l17 -1q54 0 105 28.5t76 76.5v243
zM224 -118q-25 10 -57 34t-48 47q37 74 85 103q55 -21 102 -81q-11 -29 -34 -58t-48 -45z" />
    <glyph glyph-name="uni0979" unicode="&#x979;" horiz-adv-x="744" 
d="M779 538h-177l67 -48v-511l-46 -22l-114 62v291h-116q61 -59 61 -132q0 -64 -43 -106.5t-112 -42.5q-108 0 -183 101.5t-121 272.5l100 33q44 -146 78.5 -196t79.5 -50q31 0 48 18.5t17 46.5q0 52 -48 84l-75 27v80h314v92h-509l-57 75l21 42h780l56 -75zM201 -171
q-25 10 -57 34t-48 47q37 74 85 103q55 -21 102 -81q-11 -29 -34 -58t-48 -45zM321 -298q-25 10 -57 34t-48 47q37 74 85 103q55 -21 102 -81q-11 -29 -34 -58t-48 -45zM436 -171q-25 10 -57 34t-48 47q37 74 85 103q55 -21 102 -81q-11 -29 -34 -58t-48 -45z" />
    <glyph glyph-name="uni097A" unicode="&#x97a;" horiz-adv-x="658" 
d="M693 538h-178l67 -48v-511l-46 -22l-114 62v72q-39 -20 -85 -20q-95 0 -182.5 71t-136.5 188l19 51q84 10 119 28t35 48q0 40 -63 81h-128l-57 75l21 42h693l57 -75zM422 538h-172q89 -70 89 -147l-1 -13l84 -73v233zM224 191l17 -1q75 0 135 49l-74 64q-38 -36 -107 -52
q10 -32 29 -60z" />
    <glyph glyph-name="uni097B" unicode="&#x97b;" horiz-adv-x="665" 
d="M700 538h-177l67 -48v-591l-31 -42h-439l-56 75l21 41h345v565h-213l67 -48v-359l-61 -33q-61 21 -124 79.5t-82 114.5l34 54h77l-3 192h-125l-57 75l21 42h701l56 -75z" />
    <glyph glyph-name="uni097C" unicode="&#x97c;" horiz-adv-x="744" 
d="M779 538h-177l67 -48v-591l-31 -42h-508l-56 75l21 41h414v339h-115q60 -57 60 -132q0 -64 -43.5 -106t-111.5 -42q-108 0 -183 101.5t-121 271.5l100 34q44 -146 78.5 -196t79.5 -50q31 0 48 18.5t17 46.5q0 52 -48 84l-75 26v80h314v90h-509l-57 75l21 42h780l56 -75z
" />
    <glyph glyph-name="uni097E" unicode="&#x97e;" horiz-adv-x="621" 
d="M677 580l-21 -42h-194l67 -48v-133h-238q-83 0 -83 -42q0 -23 25 -41l182 42q82 -28 126 -85t44 -119q0 -76 -59.5 -127.5t-150.5 -51.5q-194 0 -363 251l68 56q109 -170 249 -170q57 0 99 30t41 74l-149 -47q-109 35 -178.5 99.5t-69.5 134.5q0 57 47 93t138 36h128v48
h-385l-57 75l21 42h657zM555 -104l56 -74l-21 -42h-453l-56 75l21 41h453z" />
    <glyph glyph-name="uni097F" unicode="&#x97f;" horiz-adv-x="643" 
d="M678 538h-177l67 -48v-517h1v-74l-31 -42h-414l-56 75l21 41h319v108q-36 -16 -81 -16q-65 0 -136.5 33t-119.5 90t-48 125q0 75 55.5 127t138.5 52q27 0 55 -6l136 -65v117h-408l-57 75l21 42h679l56 -75zM374 222q22 19 34 37v75q-56 30 -106 30l-21 -1zM204 192
q25 -10 53 -10q30 0 61 11l-98 144q-37 -33 -37 -81q0 -35 21 -64z" />
    <glyph glyph-name="uni093D" unicode="&#x93d;" horiz-adv-x="585" 
d="M225 451q0 -18 18.5 -32t61.5 -35l54 -29q163 -96 163 -216q0 -73 -54 -123t-136 -50q-92 0 -164 62.5t-106 163.5l91 53q53 -149 151 -149q35 0 59.5 19t24.5 52q0 39 -47 71l-163 104q-92 63 -92 140q0 61 50.5 98.5t138.5 37.5h166l60 -94l-22 -40h-180q-74 0 -74 -33
z" />
    <glyph glyph-name="uni097D" unicode="&#x97d;" horiz-adv-x="588" 
d="M530 397q0 -131 -167 -205v-213l-46 -22l-110 62v291q87 15 130 54.5t43 83.5q0 33 -22 57q-38 -1 -97 -24t-105 -55l-72 149q98 76 192 76q96 0 175 -78.5t79 -175.5z" />
    <glyph glyph-name="uni093E" unicode="&#x93e;" horiz-adv-x="303" 
d="M338 538h-178l67 -48v-511l-46 -22l-114 62v519h-67l-57 75l21 42h339l56 -75z" />
    <glyph glyph-name="uni093F" unicode="&#x93f;" horiz-adv-x="303" 
d="M316 851q-74 0 -122 -31.5t-48 -87.5q0 -35 27 -77h130l56 -75l-21 -42h-170l67 -48v-511l-46 -22l-114 62v519h-75l-57 75l21 42h111q-64 67 -64 147q0 87 66.5 140.5t171.5 53.5q101 0 235 -61.5t286 -203.5l-50 -64q-232 184 -404 184z" />
    <glyph glyph-name="uni0940" unicode="&#x940;" horiz-adv-x="303" 
d="M338 538h-178l67 -48v-511l-46 -22l-114 62v519h-67l-57 75l21 42h108q-33 93 -72.5 148t-97.5 55q-39 0 -64 -24t-25 -60q0 -37 27 -75l-62 -33q-95 76 -95 175q0 71 49.5 117t127.5 46q117 0 195 -98t124 -251h124l56 -75z" />
    <glyph glyph-name="uni0941" unicode="&#x941;" 
d="M-339 -59q25 43 65 67.5t84 24.5q74 0 131 -61t57 -137q0 -69 -50.5 -115t-126.5 -46q-163 0 -354 236l69 64q101 -111 150 -144t95 -33q44 0 72 25t28 59q0 32 -27 56l-95 -91z" />
    <glyph glyph-name="uni0942" unicode="&#x942;" 
d="M-56 -255q-58 -62 -128 -62q-74 0 -135 56.5t-61 128.5q0 66 52.5 113.5t126.5 47.5q114 0 222 -136q39 -48 119 -166l-73 -61l-114 154q-61 76 -121 76q-40 0 -67 -25.5t-27 -58.5q0 -21 13 -34l112 69z" />
    <glyph glyph-name="uni0943" unicode="&#x943;" 
d="M-75 -65q-62 -13 -115 -43.5t-53 -61.5q0 -33 46 -33q33 0 81 24t82 54l66 -137q-35 -34 -82 -52.5t-92 -18.5q-88 0 -158.5 60t-70.5 140q0 82 75 134.5t200 60.5h21v-127z" />
    <glyph glyph-name="uni0944" unicode="&#x944;" 
d="M101 -345q-67 -71 -159 -71q-78 0 -138 51.5t-60 115.5q0 18 6 33q-106 43 -106 122q0 63 67 98.5t179 57.5h35v-124q-61 -10 -109.5 -31t-48.5 -45q0 -17 22 -26q51 43 166 66l59 -80l-22 -44q-132 -27 -132 -64q0 -18 26 -18q29 0 74 23t68 51z" />
    <glyph glyph-name="uni0962" unicode="&#x962;" 
d="M204 -317q-30 -56 -83 -56q-38 0 -69 28.5t-31 66.5q0 30 45 82q26 30 26 48q0 12 -6.5 20.5t-16.5 8.5q-20 0 -36 -27t-17 -74l-76 3l-1 19q0 30 9 59q-11 10 -27 10q-35 0 -35 -40q0 -44 76 -97l-43 -43q-122 77 -122 163q0 42 28.5 71t67.5 29q47 0 80 -43
q33 41 83 41q45 0 76.5 -32t31.5 -75q0 -44 -39 -90q-36 -36 -36 -53q0 -15 15 -15q11 0 25.5 12t22.5 28z" />
    <glyph glyph-name="uni0963" unicode="&#x963;" 
d="M220 -384q-31 -48 -77 -48q-31 0 -57 20.5t-26 59.5q-55 25 -55 74q0 30 45 82q26 30 26 48q0 12 -6.5 20.5t-16.5 8.5q-20 0 -36 -27t-17 -74l-76 3l-1 19q0 30 9 59q-13 10 -28 10q-35 0 -35 -40q0 -44 76 -97l-43 -43q-122 77 -122 163q0 42 28.5 71t67.5 29
q48 0 81 -43q31 41 83 41q45 0 76.5 -32t31.5 -75q0 -44 -39 -90q-36 -36 -36 -53q0 -9 6 -12q23 25 66 35l25 -51q-30 -7 -46.5 -20t-16.5 -23q0 -14 16 -14q30 0 55 35z" />
    <glyph glyph-name="uni0945" unicode="&#x945;" 
d="M20 887q-15 -84 -65 -135t-128 -51q-75 0 -142.5 49.5t-106.5 141.5l71 58q57 -116 137 -116q91 0 111 117z" />
    <glyph glyph-name="uni0946" unicode="&#x946;" 
d="M-500 1028q13 -92 102 -115l134 -25l37 -11q118 -42 120 -245h-96q-2 49 -30.5 75t-115 39.5t-130.5 35.5q-105 52 -110 236z" />
    <glyph glyph-name="uni0947" unicode="&#x947;" 
d="M-603 925q82 51 153 51q123 0 229 -158l116 -184l-85 -40l-86 142q-46 78 -111 78q-54 0 -131 -52z" />
    <glyph glyph-name="uni0948" unicode="&#x948;" 
d="M-94 604l-85 -33l-138 140q-42 40 -90 40q-46 0 -128 -49l-75 134q79 56 146 56q87 0 174 -101l102 -125l-55 137q-32 78 -65 111.5t-85 33.5q-43 0 -108 -24l-60 159q69 27 124 27q157 0 245 -225z" />
    <glyph glyph-name="uni0949" unicode="&#x949;" horiz-adv-x="303" 
d="M338 538h-178l67 -48v-511l-46 -22l-114 62v519h-67l-57 75l21 42h339l56 -75zM208 882q-15 -84 -65 -135t-128 -51q-75 0 -142.5 49.5t-106.5 141.5l71 58q57 -116 137 -116q91 0 111 117z" />
    <glyph glyph-name="uni094A" unicode="&#x94a;" horiz-adv-x="303" 
d="M338 538h-178l67 -48v-511l-46 -22l-114 62v519h-67l-57 75l21 42h129q-13 61 -78 78l-128 26l-43 13q-128 45 -134 246l89 10q13 -93 103 -115l59 -11q78 -11 120.5 -28.5t73.5 -68.5t36 -150h112l56 -75z" />
    <glyph glyph-name="uni094B" unicode="&#x94b;" horiz-adv-x="303" 
d="M338 538h-178l67 -48v-511l-46 -22l-114 62v519h-67l-57 75l21 42h92l-44 72q-45 80 -111 80q-53 0 -132 -52l-84 163q80 51 152 51q128 0 234 -164l94 -150h138l56 -75z" />
    <glyph glyph-name="uni094C" unicode="&#x94c;" horiz-adv-x="303" 
d="M338 538h-178l67 -48v-511l-46 -22l-114 62v519h-67l-57 75l21 42h75l-41 39q-49 49 -100 49q-49 0 -127 -48l-75 134q78 55 144 55q86 0 178 -104l100 -117l-53 128q-32 79 -66 114t-87 35q-41 0 -107 -23l-60 158q68 28 125 28q157 0 248 -234l76 -214h109l56 -75z" />
    <glyph glyph-name="uni0956" unicode="&#x956;" 
d="M-480 -65q68 -65 162 -65q110 0 182 72l73 -116q-30 -39 -86 -64t-119 -25q-75 0 -143 37t-110 111z" />
    <glyph glyph-name="uni0957" unicode="&#x957;" 
d="M-480 -275q68 -65 162 -65q110 0 182 72l73 -116q-30 -39 -86 -64t-119 -25q-75 0 -143 37t-110 111zM-480 -65q68 -65 162 -65q110 0 182 72l73 -116q-30 -39 -86 -64t-119 -25q-75 0 -143 37t-110 111z" />
    <glyph glyph-name="uni093A" unicode="&#x93a;" 
d="M-113 578l-29 -17l-82 41v233h111v-257z" />
    <glyph glyph-name="uni093B" unicode="&#x93b;" horiz-adv-x="303" 
d="M338 538h-178l67 -48v-511l-46 -22l-114 62v519h-67l-57 75l21 42h110v180h111v-180h118l56 -75z" />
    <glyph glyph-name="uni094F" unicode="&#x94f;" horiz-adv-x="303" 
d="M338 538h-178l67 -48v-511l-46 -22l-114 62v519h-67l-57 75l21 42h120q-9 40 -49 44l-148 3q-70 6 -119 48q-62 53 -66 141l88 27q22 -103 91 -106h58q56 0 92 -14l3 9q-14 11 -36 19l-51 20q-104 41 -104 139q0 43 20 84l93 -13q-11 -31 -11 -50q0 -23 15.5 -38.5
t93 -54t108.5 -97.5t31 -129l-2 -32h112l56 -75z" />
    <glyph glyph-name="uni0955" unicode="&#x955;" horiz-adv-x="359" 
d="M376 887q-15 -84 -65 -135t-128 -51q-75 0 -142.5 49.5t-106.5 141.5l71 58q57 -116 137 -116q91 0 111 117zM-57 613l21 42h391l56 -75l-21 -42h-390z" />
    <glyph glyph-name="uni094D" unicode="&#x94d;" 
d="M-120 -188l-100 -50l-93 96q75 65 147 65q59 0 121 -54l164 -154l-60 -63z" />
    <glyph glyph-name="uni0900" unicode="&#x900;" 
d="M-474 867q15 82 71.5 134t136.5 52q77 0 151 -50t113 -141l-71 -58q-59 116 -153 116q-46 0 -81 -30t-45 -86zM-209 869q53 -37 78 -99q-45 -58 -97 -79q-41 24 -82 99q15 22 45.5 45.5t55.5 33.5z" />
    <glyph glyph-name="uni0901" unicode="&#x901;" 
d="M-224 862q-25 10 -55.5 33.5t-45.5 45.5q41 75 82 99q52 -21 97 -79q-25 -62 -78 -99zM17 877q-14 -81 -71.5 -133.5t-136.5 -52.5q-77 0 -151 50t-113 141l71 58q29 -59 69.5 -87.5t82.5 -28.5q46 0 81 30.5t45 86.5z" />
    <glyph glyph-name="uni0902" unicode="&#x902;" 
d="M0 721q-27 11 -60.5 36.5t-51.5 49.5q39 78 90 108q28 -10 58.5 -35.5t48.5 -49.5q-11 -29 -35.5 -60.5t-49.5 -48.5z" />
    <glyph glyph-name="uni0903" unicode="&#x903;" horiz-adv-x="328" 
d="M164 302q-25 9 -57 33.5t-48 47.5q39 74 85 103q54 -21 102 -82q-11 -28 -34.5 -57.5t-47.5 -44.5zM170 31q-26 10 -57.5 34.5t-47.5 47.5q40 75 85 102q55 -21 102 -81q-26 -65 -82 -103z" />
    <glyph glyph-name="uni093C" unicode="&#x93c;" 
d="M18 -206q-25 10 -57 34t-48 47q37 74 85 103q55 -21 102 -81q-11 -29 -34 -58t-48 -45z" />
    <glyph glyph-name="uni0951" unicode="&#x951;" 
d="M-104 727l-29 -17l-81 41v242l29 17l81 -41v-242z" />
    <glyph glyph-name="uni0952" unicode="&#x952;" 
d="M-397 -132l17 29h302l41 -81l-17 -30h-302z" />
    <glyph glyph-name="uni0953" unicode="&#x953;" 
d="M-74 773l-54 -62h-36l-176 177l57 61h36z" />
    <glyph glyph-name="uni0954" unicode="&#x954;" 
d="M-219 712l-58 60l176 176h37l54 -67l-173 -169h-36z" />
    <glyph glyph-name="uni0971" unicode="&#x971;" horiz-adv-x="381" 
d="M203 502q-27 11 -60.5 36.5t-51.5 49.5q39 78 90 108q28 -10 58.5 -35.5t48.5 -49.5q-11 -29 -35.5 -60.5t-49.5 -48.5z" />
    <glyph glyph-name="uni0930094D" 
d="M-176 590q-158 118 -158 234q0 65 47 109t116 44q45 0 86.5 -18.5t66.5 -47.5l-22 -76q-34 17 -69 17q-41 0 -69.5 -23t-28.5 -66q0 -37 22.5 -72t67.5 -79z" />
    <glyph glyph-name="uni0930094D.MAR" horiz-adv-x="293" 
d="M-57 613l21 42h330l56 -75l-21 -42h-329zM433 213q-66 -72 -170 -72q-77 0 -152.5 45.5t-130.5 137.5l69 79q76 -109 176 -109q69 0 115 50h37z" />
    <glyph glyph-name="uni094D0930" 
d="M162 -249l-124 130l-107 -128l-106 86l170 187h54l190 -203z" />
    <glyph glyph-name="uni0915094D0930" horiz-adv-x="820" 
d="M855 538h-428l67 -48v-83q53 38 108 38q80 0 139.5 -64.5t59.5 -150.5q0 -134 -166 -244l-112 117q72 54 107 90.5t35 69.5q0 36 -35 36q-54 0 -136 -95v-225l-46 -22l-114 62v77l-219 -159l-116 95l146 96q-120 72 -120 182q0 71 47.5 118t121.5 47q25 0 52 -6l88 -46
v115h-334l-57 75l21 42h856l56 -75zM279 353q-43 0 -67 -26t-24 -62q0 -33 17 -57q75 -5 129 64v70q-30 11 -55 11z" />
    <glyph glyph-name="uni0915094D0930.ss03" horiz-adv-x="872" 
d="M907 538h-427l67 -48v-81q49 34 103 34q80 0 139.5 -64.5t59.5 -149.5q0 -134 -166 -244l-112 117q72 55 107 91t35 69q0 35 -35 35q-53 0 -131 -89v-229l-46 -22l-114 62v131l-179 -137l-111 125l242 160q-44 44 -79 44q-25 0 -57 -18.5t-98 -65.5l-99 147
q104 82 178 82t153 -77l50 -48v176h-387l-57 75l21 42h908l56 -75z" />
    <glyph glyph-name="uni0916094D0930" horiz-adv-x="886" 
d="M921 538h-178l67 -48v-533l-46 -22l-100 53l-279 -178l-92 86l121 69q-116 17 -218.5 96.5t-166.5 213.5l34 80l133 -1l2 9v175h-198l-57 75l21 42h922l56 -75zM650 538h-362l68 -48v-130q0 -46 -20.5 -76.5t-67.5 -63.5l-42 -31q38 -59 105 -88.5t140 -29.5
q104 0 179 52v11q-19 -6 -45 -6q-92 0 -167.5 58t-75.5 139q0 65 45.5 112t113.5 47l42 -5l87 -53v112zM650 359q-30 12 -57 12q-44 0 -69.5 -27t-25.5 -62q0 -28 16 -47l27 -3q67 0 109 55v72z" />
    <glyph glyph-name="uni0917094D0930" horiz-adv-x="665" 
d="M700 538h-177l67 -48v-511l-46 -22l-114 62v54l-210 -163l-111 83l321 237v308h-213l67 -48v-320l-61 -37q-61 21 -124 79.5t-82 114.5l34 54h77l-3 157h-125l-57 75l21 42h701l56 -75z" />
    <glyph glyph-name="uni0918094D0930" horiz-adv-x="707" 
d="M742 538h-177l67 -48v-511l-46 -22l-114 62v79l-237 -182l-116 95l130 88l-15 8q-132 77 -132 180q0 44 24 80q-111 66 -111 150l2 21h-32l-57 75l21 42h758l56 -75zM472 538h-258q-38 -26 -38 -67q0 -23 14 -46q45 25 106 25q30 0 61 -6l66 -104l-21 -41l-33 2
q-54 0 -85.5 -23t-31.5 -54q0 -17 10 -31q17 -5 33 -5q46 0 97 26t80 66v258z" />
    <glyph glyph-name="uni091A094D0930" horiz-adv-x="712" 
d="M752 538h-177l67 -48v-511l-46 -22l-114 62v83l-242 -184l-116 94l132 92q-72 36 -108.5 84.5t-36.5 100.5q0 31 14 59h-86l-54 76l21 42h372l61 -90l-21 -42h-96q-57 -38 -57 -103q0 -17 6 -34q15 -4 34 -4q51 0 100.5 29t76.5 73v243h-482l-57 75l21 42h753l56 -75z
" />
    <glyph glyph-name="uni091C094D0930" horiz-adv-x="744" 
d="M779 538h-177l67 -48v-518l-46 -22l-97 52l-206 -138l-102 87l291 181v188h-115q54 -54 54 -123q0 -64 -43 -106t-111 -42q-105 0 -180 98.5t-119 265.5l100 33q45 -146 78.5 -191t78.5 -45q30 0 47.5 17.5t17.5 43.5q0 45 -47 78l-75 27v80h314v82h-509l-57 75l21 42
h780l56 -75z" />
    <glyph glyph-name="uni091D094D0930" horiz-adv-x="870" 
d="M905 538h-163l67 -48v-564l-46 -22l-100 54l-123 -124l-110 69l219 210v66q-21 -6 -48 -6q-31 0 -62 7q13 -32 13 -66q0 -83 -67 -127t-154 -54l123 -104l-120 -87l-127 198q-63 17 -140 71l35 135l74 -1l61 -90l20 -1q65 0 120 37t57 82l-161 -42q-106 31 -173 92.5
t-67 127.5q0 55 47.5 92.5t135.5 37.5h130v57h-346l-57 75l21 42h906l56 -75zM649 538h-226l67 -48v-137h-241q-81 0 -81 -48q0 -17 18 -35l204 41l3 -1v1q57 -23 120 -23q89 0 136 43v207z" />
    <glyph glyph-name="uni0924094D0930" horiz-adv-x="640" 
d="M675 538h-178l67 -48v-511l-46 -22l-114 62v153l-199 -153l-111 126l242 161q-43 43 -78 43q-25 0 -57 -18.5t-98 -65.5l-99 147q104 82 178 82t153 -77l69 -67v188h-404l-57 75l21 42h676l56 -75z" />
    <glyph glyph-name="uni0924094D0930.ss03" horiz-adv-x="657" 
d="M692 538h-178l67 -48v-511l-46 -22l-114 62v158l-112 -96l-83 94l173 124h-98q-51 0 -79 -27t-28 -63q0 -75 122 -195l-83 -72q-207 195 -207 330q0 76 57 123t153 49h185v94h-421l-57 75l21 42h692l57 -75z" />
    <glyph glyph-name="uni0925094D0930" horiz-adv-x="673" 
d="M708 538h-178l67 -48v-511l-46 -22l-114 62v87l-234 -170l-115 86l129 83l-20 11q-50 31 -96.5 87.5t-75.5 126.5l19 51q212 23 212 133q0 30 -18 52q-8 4 -19 4q-21 0 -37 -15t-16 -39q0 -32 30 -60l-58 -40q-106 72 -106 145q0 48 39 82.5t95 34.5q84 0 154.5 -71.5
t70.5 -156.5q0 -63 -49.5 -118t-146.5 -80q17 -42 36 -68q60 -4 118 25.5t88 79.5v249h-23l-56 75l21 42h294l56 -75z" />
    <glyph glyph-name="uni0926094D0930" horiz-adv-x="613" 
d="M649 538h-223l67 -48v-186h-173q-65 0 -98 -30t-33 -73q0 -46 32 -78q32 -15 67 -15q46 0 91 21l-13 88l101 37l123 -153q-25 -45 -77 -80l109 -195l-141 -58l-55 210l-258 -169l-106 79l188 111l-40 18q-77 36 -127 99t-50 139q0 88 62 141.5t165 55.5h82v86h-338
l-57 75l21 42h645l57 -75z" />
    <glyph glyph-name="uni0927094D0930" horiz-adv-x="705" 
d="M740 538h-177l67 -48v-511l-46 -22l-114 62v79l-237 -182l-116 95l129 88q-66 33 -106.5 82.5t-40.5 105.5q0 49 30 88q-111 76 -111 169q0 61 43 100.5t109 39.5q65 0 112.5 -40t91.5 -118l-62 -49q-36 57 -60 78l-14 1q-28 0 -45 -18t-17 -45q0 -31 21 -63q44 21 96 21
q24 0 61 -7l66 -104l-21 -41l-33 2q-54 0 -85.5 -23t-31.5 -54q0 -17 10 -31q17 -5 33 -5q47 0 98.5 26.5t79.5 66.5v257h-26l-56 75l21 42h296l56 -75z" />
    <glyph glyph-name="uni0928094D0930" horiz-adv-x="610" 
d="M645 538h-178l67 -48v-511l-46 -22l-114 62v68l-201 -152l-102 80l303 220v66h-128v-103l-66 -32q-57 31 -104.5 97t-59.5 127l37 55h321v93h-374l-57 75l21 42h645l57 -75z" />
    <glyph glyph-name="uni092A094D0930" horiz-adv-x="646" 
d="M681 538h-177l67 -48v-511l-46 -22l-114 62v116l-255 -192l-112 92l178 123q-62 36 -105.5 96.5t-44.5 116.5v167h-72l-57 75l21 42h682l56 -75zM411 538h-238l68 -48v-226q18 -18 48 -18q81 0 122 74v218z" />
    <glyph glyph-name="uni092B094D0930" horiz-adv-x="863" 
d="M898 538h-439l67 -48v-78q57 39 112 39q77 0 137 -68.5t60 -151.5q0 -125 -164 -231l-105 120q60 41 96.5 82.5t36.5 67.5q0 13 -8.5 22.5t-23.5 9.5q-46 0 -141 -88v-235l-46 -22l-114 62v115l-228 -172l-116 95l181 125l-23 17q-116 93 -116 202v137h-64l-57 75l21 42
h898l57 -75zM366 538h-201l68 -48v-206q18 -21 50 -21q49 0 83 39v236z" />
    <glyph glyph-name="uni092C094D0930" horiz-adv-x="649" 
d="M684 538h-178l67 -48v-511l-46 -22l-114 62v72l-232 -164l-115 86l131 85q-78 36 -123.5 93t-45.5 122q0 75 55.5 127t138.5 52q26 0 55 -6l136 -65v117h-413l-57 75l21 42h684l57 -75zM413 334q-56 30 -106 30l-21 -1l93 -140q22 19 34 37v74zM225 337q-37 -33 -37 -81
q0 -35 21 -64q20 -10 51 -10q35 0 62 11z" />
    <glyph glyph-name="uni092D094D0930" horiz-adv-x="694" 
d="M736 538h-177l67 -48v-511l-46 -22l-114 62v6l-160 -117l-111 82l271 191v41h-130v-76l-61 -36q-61 21 -124 80.5t-80 114.5l34 53h76l-1 137q0 50 -17 71q-26 1 -43 -15t-17 -41q0 -36 36 -64l-57 -47q-115 77 -115 156q0 51 38.5 87t95.5 36q86 0 159.5 -73.5
t73.5 -160.5v-86h132v180h-30l-56 75l21 42h300l56 -75z" />
    <glyph glyph-name="uni092E094D0930" horiz-adv-x="695" 
d="M730 538h-177l67 -48v-511l-46 -22l-114 62v11l-167 -122l-111 82l278 195v28h-171v-77l-61 -35q-60 21 -123.5 80t-80.5 114l34 54h75l-8 189h-125l-57 75l21 42h731l56 -75zM460 538h-242l68 -48l1 -141h173v189z" />
    <glyph glyph-name="uni092F094D0930" horiz-adv-x="658" 
d="M693 538h-178l67 -48v-511l-46 -22l-114 62v81l-226 -164l-115 86l129 83l-20 11q-50 31 -96.5 87.5t-75.5 126.5l19 51q84 10 119 28t35 48q0 40 -63 81h-128l-57 75l21 42h693l57 -75zM422 538h-172q89 -70 89 -147q0 -50 -37.5 -87.5t-112.5 -53.5q16 -39 35 -66
q56 -4 111 21.5t87 70.5v262z" />
    <glyph glyph-name="uni0932094D0930" horiz-adv-x="771" 
d="M806 538h-178l67 -48v-511l-46 -22l-114 62v2l-196 -142l-107 80l303 216v173q-44 -20 -69.5 -72t-26.5 -124l-39 -24l-118 74q0 64 23 115q-18 6 -36 6q-36 0 -59.5 -24t-23.5 -66q0 -44 33 -84t100 -85l-97 -61q-204 138 -204 290q0 76 50.5 125t123.5 49q33 0 62 -12
l91 -79q72 78 190 76v86h-535l-57 75l21 42h807l56 -75z" />
    <glyph glyph-name="uni0932094D0930.MAR" horiz-adv-x="805" 
d="M840 538h-282l67 -48v-52q67 -27 109 -89.5t42 -142.5q0 -167 -184 -303l-118 95q170 139 182 237l-200 -209l-96 86l254 225q-20 14 -45 14q-44 0 -75.5 -38t-30.5 -87l-110 -79l-56 38l-1 26q0 54 19 100q-22 12 -46 12q-34 0 -59 -24t-25 -65q0 -52 45 -98t140 -105
l-61 -82q-291 163 -291 344q0 76 50.5 125t123.5 49q33 0 62 -12l97 -84q46 55 114 75v92h-465l-57 75l21 42h840l57 -75z" />
    <glyph glyph-name="uni0935094D0930" horiz-adv-x="638" 
d="M673 538h-178l67 -48v-511l-46 -22l-114 62v84l-238 -169l-115 87l132 85q-78 37 -119 90t-41 115q0 73 55 124.5t138 51.5q27 0 55 -6l133 -60v117h-402l-57 75l21 42h673l57 -75zM309 359q-57 0 -88 -30.5t-31 -73.5q0 -32 18 -58q18 -6 40 -6q42 0 84 20t70 54v71
q-48 23 -93 23z" />
    <glyph glyph-name="uni0936094D0930" horiz-adv-x="745" 
d="M788 538h-178l67 -48v-511l-46 -22l-114 62v171l-228 -190l-103 102l197 147q-47 12 -82 28l-2 -1l-185 -120l-100 114l152 94q-90 81 -90 165q0 59 46.5 104t110.5 45q78 0 137 -62t59 -141q0 -70 -52 -131l56 -4q40 0 84 9v189h-20l-56 75l21 42h291l56 -75zM321 547
q-17 14 -36 14q-27 0 -47 -24t-20 -59q0 -37 23 -66q82 57 82 119z" />
    <glyph glyph-name="uni0937094D0930" horiz-adv-x="631" 
d="M666 538h-177l67 -48v-511l-46 -22l-114 62v123l-268 -202l-112 92l179 123q-29 16 -52 35q-104 90 -104 190v158h-39l-57 75l21 42h667l56 -75zM396 538h-149l149 -212v212zM204 264q24 -20 59 -20q49 0 89 28l-148 211v-219z" />
    <glyph glyph-name="uni0938094D0930" horiz-adv-x="781" 
d="M816 538h-178l67 -48v-511l-46 -22l-112 61l-199 -161l-100 103l297 225v33h-280l-23 -16l142 -85v-28l-110 -79l-259 255l34 90l137 -1l1 184h-194l-57 75l21 42h824l56 -75zM545 538h-261l69 -48v-143h192v191z" />
    <glyph glyph-name="uni0939094D0930" horiz-adv-x="622" 
d="M657 538h-188l67 -48v-140h-281q-75 0 -75 -45q0 -11 6 -23q54 22 124 22q129 0 212.5 -77t83.5 -196q0 -38 -11 -84l-124 27l26 172l-130 -180l-109 88l127 123l-27 1q-62 0 -103 -27.5t-41 -78.5q0 -72 80 -113.5t224 -71.5l-31 -100q-194 34 -315 121.5t-121 198.5
q0 81 65 136q-69 61 -69 125q0 49 42 83.5t124 34.5h179v52h-392l-57 75l21 42h658l56 -75z" />
    <glyph glyph-name="uni0958094D0930" horiz-adv-x="820" 
d="M293 -167q-25 10 -57 34t-48 47q37 74 85 103q55 -21 102 -81q-11 -29 -34 -58t-48 -45zM855 538h-428l67 -48v-83q53 38 108 38q80 0 139.5 -64.5t59.5 -150.5q0 -134 -166 -244l-112 117q72 54 107 90.5t35 69.5q0 36 -35 36q-54 0 -136 -95v-225l-46 -22l-114 62v77
l-219 -159l-116 95l146 96q-120 72 -120 182q0 71 47.5 118t121.5 47q25 0 52 -6l88 -46v115h-334l-57 75l21 42h856l56 -75zM279 353q-43 0 -67 -26t-24 -62q0 -33 17 -57q75 -5 129 64v70q-30 11 -55 11z" />
    <glyph glyph-name="uni0959094D0930" horiz-adv-x="886" 
d="M208 -157q-25 10 -57 34t-48 47q37 74 85 103q55 -21 102 -81q-11 -29 -34 -58t-48 -45zM921 538h-178l67 -48v-533l-46 -22l-100 53l-279 -178l-92 86l121 69q-116 17 -218.5 96.5t-166.5 213.5l34 80l133 -1l2 9v175h-198l-57 75l21 42h922l56 -75zM650 538h-362
l68 -48v-130q0 -46 -20.5 -76.5t-67.5 -63.5l-42 -31q38 -59 105 -88.5t140 -29.5q104 0 179 52v11q-19 -6 -45 -6q-92 0 -167.5 58t-75.5 139q0 65 45.5 112t113.5 47l42 -5l87 -53v112zM650 359q-30 12 -57 12q-44 0 -69.5 -27t-25.5 -62q0 -28 16 -47l27 -3q67 0 109 55
v72z" />
    <glyph glyph-name="uni095A094D0930" horiz-adv-x="665" 
d="M700 538h-177l67 -48v-511l-46 -22l-114 62v54l-210 -163l-111 83l321 237v308h-213l67 -48v-320l-61 -37q-61 21 -124 79.5t-82 114.5l34 54h77l-3 157h-125l-57 75l21 42h701l56 -75zM403 -185q-25 10 -57 34t-48 47q37 74 85 103q55 -21 102 -81q-11 -29 -34 -58
t-48 -45z" />
    <glyph glyph-name="uni095B094D0930" horiz-adv-x="744" 
d="M779 538h-177l67 -48v-518l-46 -22l-97 52l-206 -138l-102 87l291 181v188h-115q54 -54 54 -123q0 -64 -43 -106t-111 -42q-105 0 -180 98.5t-119 265.5l100 33q45 -146 78.5 -191t78.5 -45q30 0 47.5 17.5t17.5 43.5q0 45 -47 78l-75 27v80h314v82h-509l-57 75l21 42
h780l56 -75zM529 -215q-25 10 -57 34t-48 47q37 74 85 103q55 -21 102 -81q-11 -29 -34 -58t-48 -45z" />
    <glyph glyph-name="uni095E094D0930" horiz-adv-x="863" 
d="M898 538h-439l67 -48v-78q57 39 112 39q77 0 137 -68.5t60 -151.5q0 -125 -164 -231l-105 120q60 41 96.5 82.5t36.5 67.5q0 13 -8.5 22.5t-23.5 9.5q-46 0 -141 -88v-235l-46 -22l-114 62v115l-228 -172l-116 95l181 125l-23 17q-116 93 -116 202v137h-64l-57 75l21 42
h898l57 -75zM366 538h-201l68 -48v-206q18 -21 50 -21q49 0 83 39v236zM304 -160q-25 10 -57 34t-48 47q37 74 85 103q55 -21 102 -81q-11 -29 -34 -58t-48 -45z" />
    <glyph glyph-name="uni095F094D0930" horiz-adv-x="658" 
d="M693 538h-178l67 -48v-511l-46 -22l-114 62v81l-226 -164l-115 86l129 83l-20 11q-50 31 -96.5 87.5t-75.5 126.5l19 51q84 10 119 28t35 48q0 40 -63 81h-128l-57 75l21 42h693l57 -75zM422 538h-172q89 -70 89 -147q0 -50 -37.5 -87.5t-112.5 -53.5q16 -39 35 -66
q56 -4 111 21.5t87 70.5v262zM382 -181q-25 10 -57 34t-48 47q37 74 85 103q55 -21 102 -81q-11 -29 -34 -58t-48 -45z" />
    <glyph glyph-name="uni0915094D0937094D0930" horiz-adv-x="893" 
d="M929 538h-178l67 -48v-511l-46 -22l-114 62v113l-103 -93l-84 116l146 89l-78 -5q-103 0 -204 31q-78 -40 -112 -71.5t-34 -66.5q0 -19 12 -42q17 -5 42 -5q32 0 60 9l-12 61l101 42l105 -136q-18 -35 -58 -63l105 -188l-153 -62l-45 204l-20 -1q-100 0 -191.5 77.5
t-91.5 167.5q0 91 121 166q-79 71 -79 161q0 68 45 111.5t114 43.5q62 0 110 -36.5t73.5 -89.5t25.5 -99q0 -50 -31 -93l30 -1q104 0 206 32v147h-150l-56 75l21 42h421l56 -75zM335 535q-20 20 -46 20q-28 0 -49 -22.5t-21 -56.5q0 -39 32 -66q90 53 84 125z" />
    <glyph glyph-name="uni0915094D0937" horiz-adv-x="813" 
d="M849 538h-178l67 -48v-511l-46 -22l-114 62v217l-58 -5q-85 0 -186 38q-78 -41 -111.5 -71.5t-33.5 -65.5q0 -19 12 -42q21 -6 45 -6q54 0 101 28l-11 55l99 46l107 -132q-21 -42 -68 -76l108 -195l-153 -62l-46 212q-27 -9 -57 -9q-100 0 -191.5 77.5t-91.5 167.5
q0 52 32.5 92.5t96.5 78.5q-87 79 -87 164q0 63 46.5 105t113.5 42q61 0 108.5 -36.5t73.5 -89.5t26 -99q0 -55 -37 -101q80 0 162 33v153h-70l-56 75l21 42h341l56 -75zM335 535q-20 20 -46 20q-28 0 -49 -23t-21 -57q0 -37 29 -68q95 57 87 128z" />
    <glyph glyph-name="uni091C094D091E" horiz-adv-x="762" 
d="M797 538h-178l67 -48v-511l-46 -22l-114 62v330h-288q-80 0 -89 -37l191 -35q149 -125 149 -238q0 -66 -48 -105t-120 -42l135 -66l7 -46l-98 -99l-201 212q-79 12 -127 51l45 154l48 10l64 -75q31 -7 61 -7q44 0 71.5 13.5t27.5 35.5q0 33 -65 47l-120 26
q-53 39 -91.5 101t-38.5 105q0 58 42.5 94.5t122.5 36.5h322v53h-526l-57 75l21 42h798l56 -75z" />
    <glyph glyph-name="uni0917094D0930094D092F" horiz-adv-x="1023" 
d="M1058 538h-178l67 -48v-511l-46 -22l-114 62v72q-39 -20 -85 -20q-87 0 -169 61l-268 -229l-111 83l291 234q-37 49 -62 110l19 51q84 10 119 28t35 48q0 40 -63 81h-276l67 -48v-334l-61 -33q-61 21 -124 79.5t-82 114.5l34 54h78l-4 167h-125l-57 75l21 42h1058l57 -75
zM787 538h-172q89 -70 89 -147q0 -49 -36 -86t-108 -54q10 -32 29 -60l17 -1q54 0 105 28.5t76 76.5v243z" />
    <glyph glyph-name="uni0919094D0915094D0930" horiz-adv-x="731" 
d="M787 580l-21 -42h-297l68 -48v-126h-246q-78 0 -78 -38q0 -22 27 -40l181 45q79 -27 118.5 -80t39.5 -111q0 -72 -55 -124t-136 -56l44 -28v-43q40 29 82 29q58 0 104 -51.5t46 -116.5q0 -111 -137 -186l-81 97q106 72 106 116q0 23 -24 23q-37 0 -96 -68v-175l-35 -17
l-92 47v58l-169 -128l-91 77l100 68q-88 54 -88 141q0 58 40.5 99t97.5 41q20 0 36 -4l74 -49v78q-164 37 -286 217l68 57q45 -71 109 -110.5t128 -39.5q57 0 97.5 30.5t42.5 74.5l-152 -51q-103 34 -168 95.5t-65 125.5q0 53 47 89.5t136 36.5h135v45h-397l-57 75l21 42
h767zM636 392q26 -10 55.5 -34.5t47.5 -47.5q-23 -64 -82 -104q-25 10 -57 34.5t-49 47.5q38 74 85 104zM256 -166q-29 0 -51 -24t-22 -56q0 -19 10 -38q22 2 54 20t58 46v38q-28 14 -49 14z" />
    <glyph glyph-name="uni091B094D0930094D092F" horiz-adv-x="1410" 
d="M1445 538h-177l67 -48v-553l-46 -22l-114 61v56q-38 -24 -87 -24q-85 0 -161 55.5t-128 166.5h1l19 48q148 7 148 42q0 17 -29.5 21t-198.5 4q15 -43 15 -92q0 -99 -62 -183.5t-162 -119.5l103 -110l-77 -72l-124 130l-107 -128l-106 86l84 93q-81 26 -132.5 83.5
t-51.5 119.5q0 32 16 64q-117 69 -117 161q0 52 40 89.5t117 37.5h100l66 -97l-22 -41h-77q-84 0 -84 -47q0 -25 31 -47q48 28 107 28q35 0 66 -8l67 -105l-32 -41q-29 10 -55 10q-34 0 -55 -17t-21 -42q0 -28 19 -43q23 -6 46 -6q74 0 135.5 29.5t102.5 79.5
q-83 41 -134 98t-51 118q0 59 44.5 101t107.5 42q51 0 97 -30h242q64 0 120 -33t89 -82t33 -91q0 -44 -38.5 -76t-112.5 -44l18 -36q58 -5 112.5 25t78.5 86v303h-1175l-57 75l21 42h1446l56 -75zM525 334q0 -78 79 -120q23 48 23 99q0 62 -21 85q-12 4 -24 4
q-26 0 -41.5 -19.5t-15.5 -48.5z" />
    <glyph glyph-name="uni091F094D091F094D092F" horiz-adv-x="1207" 
d="M1243 538h-178l67 -48v-553l-46 -22l-114 61v56q-38 -24 -87 -24q-85 0 -161 55.5t-128 166.5h1l19 48q148 7 148 42q0 17 -29.5 21t-255.5 4v-42h-169q-66 0 -102 -23.5t-36 -60.5q0 -32 26 -59q29 -13 72 -13q57 0 118 23.5t102 64.5l91 -131q-67 -71 -152 -93l49 -36
v-159h-149q-49 0 -79 -21t-30 -53q0 -28 20 -49q26 -9 58 -9q51 0 105.5 21t90.5 57l79 -114q-37 -46 -92.5 -69.5t-113.5 -23.5q-108 0 -194 67t-86 159q0 73 53.5 119.5t144.5 48.5h56v52q-124 6 -219.5 87t-95.5 182q0 82 64.5 132.5t173.5 51.5h60v84h-324l-57 75l21 42
h1243l57 -75zM972 538h-560l67 -48v-4h193q64 0 120 -33t89 -82t33 -91q0 -44 -38.5 -76t-112.5 -44l18 -36q58 -5 112.5 25t78.5 86v303z" />
    <glyph glyph-name="uni0920094D0920094D092F" horiz-adv-x="1235" 
d="M1271 538h-178l67 -48v-553l-46 -22l-114 61v56q-38 -24 -87 -24q-85 0 -161 55.5t-128 166.5h1l19 48q148 7 148 42q0 17 -29.5 21t-232.5 4q66 -74 66 -156q0 -67 -45.5 -118t-125.5 -64l49 -35v-79q51 -35 80.5 -82.5t29.5 -97.5q0 -72 -54 -117t-141 -45
q-115 0 -202.5 71t-87.5 163q0 72 56 116t151 44h34v60q-122 12 -213 94t-91 177q0 80 63.5 130.5t167.5 52.5h48v79h-315l-57 75l21 42h1271l57 -75zM1000 538h-597l67 -48v-4h230q64 0 120 -33t89 -82t33 -91q0 -44 -38.5 -76t-112.5 -44l18 -36q58 -5 112.5 25t78.5 86
v303zM305 137q60 0 102 27.5t42 72.5q0 43 -34 78h-110q-60 0 -90.5 -25.5t-30.5 -63.5q0 -35 25 -66q39 -23 96 -23zM333 -334q51 0 87 23.5t36 64.5q0 35 -26 64h-98q-50 0 -76 -22t-26 -55q0 -32 21 -57q35 -18 82 -18z" />
    <glyph glyph-name="uni0921094D0921094D092F" horiz-adv-x="1255" 
d="M1290 538h-178l67 -48v-553l-46 -22l-114 61v55q-41 -19 -89 -19q-84 0 -159 54.5t-127 164.5l19 48q149 7 149 48q0 37 -140 37h-390q-71 0 -71 -38q0 -22 27 -40l188 45q76 -19 124.5 -73.5t48.5 -119.5q0 -72 -65 -125t-159 -53q-53 0 -103 17q-33 -15 -33 -45
q0 -22 22 -38l172 42q76 -20 115.5 -73t39.5 -110q0 -71 -56.5 -119t-141.5 -48q-89 0 -176 54.5t-160 163.5l64 57q99 -147 228 -147q52 0 92.5 24t40.5 66l-150 -46q-95 31 -156 88.5t-61 119.5q0 47 33 81q-72 55 -137 148l71 57q49 -75 113 -117.5t134 -42.5
q59 0 105 30t50 75l-168 -51q-106 33 -174 95t-68 126q0 53 49 89.5t141 36.5h140v45h-401l-57 75l21 42h1291l56 -75zM1019 538h-541l64 -46h178q90 -1 166 -70t76 -141q0 -43 -38.5 -75.5t-112.5 -44.5l18 -36q54 -2 108 23t82 71v319z" />
    <glyph glyph-name="uni0922094D0930094D092F" horiz-adv-x="1266" 
d="M1302 538h-178l67 -48v-553l-46 -22l-114 61v56q-38 -24 -87 -24q-85 0 -161 55.5t-128 166.5h1l19 48q148 7 148 42q0 17 -29.5 21t-281.5 4v-36h-192q-67 0 -103.5 -36t-36.5 -87q0 -58 42 -100q58 -30 132 -30l-66 43q-18 35 -18 69q0 52 37.5 82.5t93.5 30.5
q78 0 136.5 -58.5t58.5 -129.5q0 -44 -26.5 -83.5t-73.5 -62.5l100 -106l-77 -72l-124 130l-107 -128l-106 86l86 95q-104 41 -171 122t-67 170q0 91 65 149.5t171 61.5h92v83h-358l-57 75l21 42h1302l57 -75zM1031 538h-587l68 -48v-4h219q64 0 120 -33t89 -82t33 -91
q0 -44 -38.5 -76t-112.5 -44l18 -36q58 -5 112.5 25t78.5 86v303zM408 130q0 -28 17 -59q61 26 61 75q0 19 -10 30t-24 11q-17 0 -30.5 -15.5t-13.5 -41.5z" />
    <glyph glyph-name="uni0926094D0917094D0930" horiz-adv-x="610" 
d="M652 538h-230l67 -48v-184l1 -2h-177q-64 0 -97 -30t-33 -72q0 -44 35 -79q30 -13 66 -13q49 0 91 22l-12 85l101 37l123 -153q-24 -46 -78 -82l122 -304l-130 -46l-17 61l-111 -166l-109 68l184 229l-32 113q-28 -6 -55 -6t-56 6l30 -201l-51 -37q-56 11 -113.5 47.5
t-87.5 84.5l24 52l81 15l-16 94q-63 42 -102.5 101t-39.5 125q0 88 62 141.5t165 55.5h81v86h-338l-57 75l21 42h645l64 -75z" />
    <glyph glyph-name="uni0926094D0926094D092F" horiz-adv-x="1244" 
d="M1280 538h-178l67 -48v-553l-46 -22l-114 61v56q-38 -24 -87 -24q-85 0 -161 55.5t-128 166.5h1l19 48q148 7 148 42q0 17 -29.5 21t-99.5 4h-437q-33 0 -50.5 -14t-17.5 -34q0 -17 17 -37q45 16 103 16h179l69 -109l-21 -42h-179q-63 0 -94 -24t-31 -59q0 -28 21 -55
q33 -16 74 -16q52 0 98 22l-10 65l97 36l110 -140q-20 -42 -67 -74l98 -174l-153 -62l-43 196q-29 -6 -56 -6q-113 0 -214.5 81.5t-101.5 179.5q0 77 56 127q-85 64 -85 141q0 49 41 83t123 34h167v58h-365l-57 75l21 42h1280l57 -75zM1009 538h-567l67 -48v-4h200
q64 0 120 -33t89 -82t33 -91q0 -44 -38.5 -76t-112.5 -44l18 -36q58 -5 112.5 25t78.5 86v303z" />
    <glyph glyph-name="uni0926094D0926094D0930" horiz-adv-x="593" 
d="M636 538h-194l67 -48v-147h-264q-78 0 -78 -48q0 -21 24 -45q42 14 96 14h179l69 -109l-21 -42h-179q-63 0 -94 -24t-31 -59q0 -29 21 -55q32 -24 82 -24q47 0 91 21l-11 74l97 36l110 -140q-20 -42 -67 -74l98 -174l-140 -62l-51 195l-249 -169l-106 79l179 109
q-84 33 -142.5 98t-58.5 139q0 82 62 132q-91 64 -91 146q0 49 41 83t123 34h167v60h-365l-57 75l21 42h629l64 -75z" />
    <glyph glyph-name="uni0926094D0927094D092F" horiz-adv-x="1564" 
d="M1600 538h-178l67 -48v-553l-46 -22l-114 61v56q-38 -24 -87 -24q-85 0 -161 55.5t-128 166.5h1l19 48q148 7 148 42q0 17 -29.5 21t-99.5 4h-229v-39l1 -2h-177q-64 0 -97 -30t-33 -72q0 -44 35 -79q30 -13 65 -13q48 0 92 23l-12 84l101 37l123 -153q-23 -44 -73 -79
l97 -175l-153 -62l-41 189l-35 -5q-28 -91 -90.5 -141.5t-138.5 -50.5q-84 0 -161 51.5t-83 118.5q-91 22 -137 71.5t-46 107.5q0 56 39.5 94.5t98.5 38.5q49 0 86.5 -25.5t89.5 -77.5l-44 -56q-50 43 -72 53q-51 -20 -51 -66q0 -47 55 -67q37 52 108 66l113 -77l-1 -38
q-41 -7 -66 -26t-25 -41q0 -15 13 -27q44 0 90 33.5t70 87.5q-85 38 -142.5 106.5t-57.5 150.5q0 88 62 141.5t165 55.5h81v86h-612l-57 75l21 42h1600l57 -75zM1329 538h-633l67 -48v-4h266q64 0 120 -33t89 -82t33 -91q0 -44 -38.5 -76t-112.5 -44l18 -36q58 -5 112.5 25
t78.5 86v303z" />
    <glyph glyph-name="uni0926094D092C094D0930" horiz-adv-x="617" 
d="M652 538h-222l67 -48v-186h-173q-65 0 -99 -32t-34 -76q0 -46 34 -80q34 -15 75 -15q46 0 84 20l-14 96l101 37l116 -153q-25 -45 -77 -80l113 -275l-108 -49l-28 94l-139 -195l-107 54l61 78q-84 13 -142 66t-58 118q0 76 77 122q-63 38 -102.5 96t-39.5 125
q0 88 62 141.5t165 55.5h82v86h-346l-57 75l21 42h653l56 -75zM403 -99q27 40 23 85l5 -5l-2 6q-65 3 -123 -27zM261 -174q58 0 106 37l-104 64q-27 -27 -27 -55q0 -29 25 -46z" />
    <glyph glyph-name="uni0926094D092D094D092F" horiz-adv-x="1580" 
d="M1616 538h-178l67 -48v-553l-46 -22l-114 61v56q-38 -24 -87 -24q-85 0 -161 55.5t-128 166.5h1l19 48q148 7 148 42q0 17 -29.5 21t-99.5 4h-228v-39l1 -2h-173q-65 0 -99 -32t-34 -76q0 -46 34 -80q39 -15 76 -15q45 0 83 20l-15 96l101 37l116 -153q-20 -38 -70 -71
l102 -183l-153 -62l-43 198l-237 -124l33 -64l-37 -47q-49 0 -125 19.5t-114 48.5l3 58h-1l57 28l-98 144q-19 26 -34 31q-30 -15 -30 -46q0 -49 68 -67l-25 -68q-80 9 -131 46t-51 97q0 58 46.5 94.5t113.5 36.5q59 0 116.5 -29.5t87.5 -76.5l64 -100l96 46l-40 21
q-65 38 -106 97t-41 127q0 88 62 141.5t165 55.5h81v86h-629l-57 75l21 42h1616l57 -75zM1345 538h-632l67 -48v-4h265q64 0 120 -33t89 -82t33 -91q0 -44 -38.5 -76t-112.5 -44l18 -36q58 -5 112.5 25t78.5 86v303z" />
    <glyph glyph-name="uni0926094D092D094D0930" horiz-adv-x="900" 
d="M935 538h-222l67 -48v-184l1 -2h-173q-65 0 -99 -32t-34 -76q0 -46 34 -80q43 -22 85 -22q39 0 75 19l-16 104l101 37l116 -153q-20 -39 -69 -71l105 -192l-125 -60l-51 164l-74 -258l-132 43l92 209l-147 -77l33 -64l-37 -47q-49 0 -125 19.5t-114 48.5l3 58h-1l57 28
l-98 144q-19 26 -34 31q-30 -15 -30 -46q0 -49 68 -67l-25 -68q-80 9 -131 46t-51 97q0 58 46.5 94.5t113.5 36.5q59 0 116.5 -29.5t87.5 -76.5l64 -100l96 46l-40 21q-65 38 -106 97t-41 127q0 88 62 141.5t165 55.5h81v86h-629l-57 75l21 42h936l56 -75z" />
    <glyph glyph-name="uni0926094D0930094D092F" horiz-adv-x="1213" 
d="M1253 538h-178l67 -48v-553l-46 -22l-114 61v56q-38 -24 -87 -24q-85 0 -161 55.5t-128 166.5h1l19 48q148 7 148 42q0 17 -29.5 21t-255.5 4v-41h-173q-65 0 -98 -30t-33 -73q0 -46 32 -78q31 -15 67 -15q46 0 91 21l-13 88l101 37l123 -153q-25 -45 -77 -80l109 -195
l-141 -58l-55 210l-258 -169l-106 79l188 111l-40 18q-77 36 -127 99t-50 139q0 88 62 141.5t165 55.5h80l2 4v82h-338l-57 75l21 42h1253l57 -75zM982 538h-560l67 -48v-4h193q64 0 120 -33t89 -82t33 -91q0 -44 -38.5 -76t-112.5 -44l18 -36q58 -5 112.5 25t78.5 86v303z
" />
    <glyph glyph-name="uni0926094D0935094D092F" horiz-adv-x="1228" 
d="M1264 538h-178l67 -48v-553l-46 -22l-114 61v56q-38 -24 -87 -24q-85 0 -161 55.5t-128 166.5h1l19 48q148 7 148 42q0 17 -29.5 21t-258.5 4v-41h-173q-65 0 -99 -32t-34 -76q0 -46 34 -80q34 -15 75 -15q46 0 84 20l-14 96l101 37l116 -153q-25 -45 -77 -80l113 -275
l-108 -49l-28 95q-54 -67 -143 -67t-161 56.5t-72 130.5t70 121q-63 39 -103.5 97t-40.5 125q0 88 62 141.5t165 55.5h82v86h-346l-57 75l21 42h1264l57 -75zM993 538h-563l67 -48v-4h196q64 0 120 -33t89 -82t33 -91q0 -44 -38.5 -76t-112.5 -44l18 -36q58 -5 112.5 25
t78.5 86v303zM272 -174q59 0 108.5 50t45.5 109q-45 1 -86 -15.5t-65.5 -43.5t-24.5 -56q0 -28 22 -44zM431 -19l-2 4h-2z" />
    <glyph glyph-name="uni0926094D0935094D0930" horiz-adv-x="617" 
d="M652 538h-222l67 -48v-186h-173q-65 0 -99 -32t-34 -76q0 -46 34 -80q34 -15 75 -15q46 0 84 20l-14 96l101 37l116 -153q-25 -45 -77 -80l113 -275l-108 -49l-28 94l-139 -195l-107 53l63 79q-81 15 -137 67.5t-56 116.5q0 74 70 121q-63 39 -103.5 97t-40.5 125
q0 88 62 141.5t165 55.5h82v86h-346l-57 75l21 42h653l56 -75zM272 -174q59 0 108.5 50t45.5 109q-45 1 -86 -15.5t-65.5 -43.5t-24.5 -56q0 -28 22 -44zM427 -15l4 -4l-2 4h-2z" />
    <glyph glyph-name="uni0927094D0928094D092F" horiz-adv-x="1116" 
d="M1151 538h-178l67 -48v-511l-46 -22l-114 62v72q-39 -20 -85 -20q-114 0 -214 100l-219 -172l44 -81l-32 -48q-55 1 -114.5 26t-94.5 61l-2 63l103 69q-33 13 -52 26q-50 31 -82.5 76t-32.5 95q0 48 30 89q-111 76 -111 169q0 61 43 100.5t109 39.5q65 0 112.5 -40
t91.5 -118l-62 -49q-36 57 -60 78l-14 1q-28 0 -45 -18t-17 -45q0 -31 21 -63q43 20 98 20q28 0 59 -6l66 -104l-21 -41l-33 2q-54 0 -85.5 -23t-31.5 -54q0 -17 10 -31q21 -8 42 -8q48 0 103 30t93 71l-21 44l19 51q84 10 119 28t35 48q0 40 -63 81h-142l-56 75l21 42h706
l57 -75zM880 538h-172q89 -70 89 -147q0 -49 -36 -86t-108 -54q10 -32 29 -60l17 -1q54 0 105 28.5t76 76.5v243z" />
    <glyph glyph-name="uni0927094D0935" horiz-adv-x="1096" 
d="M1131 538h-177l67 -48v-511l-46 -22l-114 62v69q-36 -18 -80 -18q-53 0 -113 22t-105 60q-84 -84 -193 -84q-97 0 -184 68.5t-87 150.5q0 47 30 88q-111 76 -111 169q0 61 43 100.5t109 39.5q65 0 112.5 -40t91.5 -118l-62 -49q-36 57 -60 78l-14 1q-28 0 -45 -18
t-17 -45q0 -31 21 -63q43 20 98 20q28 0 59 -6l66 -104l-21 -41l-33 2q-54 0 -85.5 -23t-31.5 -54q0 -17 10 -31l25 -3q47 0 103.5 29.5t92.5 70.5l-1 21q0 74 54.5 125t138.5 51q27 0 55 -6l134 -60v117h-424l-56 75l21 42h694l56 -75zM666 197l33 -3q46 0 91 22t71 60v59
q-47 24 -97 24q-55 0 -85.5 -31t-30.5 -73q0 -32 18 -58z" />
    <glyph glyph-name="uni0928094D0928094D092F" horiz-adv-x="977" 
d="M1012 538h-178l67 -48v-511l-46 -22l-114 62v71q-39 -19 -84 -19q-116 0 -217 103l-111 -84l49 -85l-41 -53q-55 8 -113 35t-94 66l2 65l236 171q-45 46 -110 46q-29 0 -57 -7l-4 -96l-74 -36q-92 84 -132 213l36 56q90 14 153 14q79 0 132.5 -21.5t93.5 -68.5
q104 19 104 68q0 40 -63 81h-447l-57 75l21 42h1013l56 -75zM741 538h-172q89 -70 89 -147q0 -106 -143 -140q11 -33 29 -60l18 -1q53 0 103 28t76 75v245z" />
    <glyph glyph-name="uni092A094D091F" horiz-adv-x="621" 
d="M656 538h-182l67 -48v-118q0 -189 -188 -242l-70 -19q-63 -20 -63 -72q0 -26 20 -49q26 -9 56 -9q58 0 121 28.5t104 73.5l91 -131q-100 -110 -239 -110q-120 0 -213 73t-93 170q0 89 79 141q-100 87 -100 183v129h-46l-57 75l21 42h657l56 -75zM386 538h-243l68 -48
v-211q19 -20 58 -20q116 0 116 160l1 -2v121z" />
    <glyph glyph-name="uni092A094D0920" horiz-adv-x="613" 
d="M649 538h-176l68 -48v-110q0 -110 -59 -177q107 -73 107 -181q0 -78 -63 -128t-158 -50q-118 0 -209.5 71.5t-91.5 169.5q0 90 79 141q-100 87 -100 183v129h-46l-57 75l21 42h649l57 -75zM386 538h-243l68 -48v-211q19 -20 58 -20q116 0 116 160l1 -2v121zM237 -14
q33 -16 73 -16q58 0 101.5 31.5t43.5 75.5q0 38 -38 76l-31 -12l-83 -20q-86 -25 -86 -86q0 -26 20 -49z" />
    <glyph glyph-name="uni092A094D091F094D092F" horiz-adv-x="1271" 
d="M1306 538h-178l67 -48v-560l-46 -22l-114 61v56q-37 -23 -86 -23q-85 0 -161 55t-128 166l19 48q148 8 148 42q0 17 -29.5 21t-258.5 4q-15 -154 -170 -203l-95 -27q-54 -19 -54 -69q0 -26 20 -49q26 -9 56 -9q58 0 121 28.5t104 73.5l91 -131q-100 -110 -239 -110
q-120 0 -213 73t-93 170q0 89 79 141q-100 87 -100 183v129h-46l-57 75l21 42h1307l56 -75zM143 538l68 -48v-211q19 -20 58 -20q116 0 116 160l1 -2v121h-243zM1035 538h-561l67 -48v-11h194q64 0 120 -33t89 -81.5t33 -90.5q0 -44 -38 -76.5t-112 -44.5l18 -36
q58 -4 112 25t78 83v313z" />
    <glyph glyph-name="uni092A094D0920094D092F" horiz-adv-x="1271" 
d="M1306 538h-178l67 -48v-560l-46 -22l-114 61v56q-37 -23 -86 -23q-85 0 -161 55t-128 166l19 48q148 8 148 42q0 17 -29.5 21t-259.5 4q-9 -80 -56 -135q107 -73 107 -181q0 -78 -63 -128t-158 -50q-118 0 -209.5 71.5t-91.5 169.5q0 90 79 141q-100 87 -100 183v129h-46
l-57 75l21 42h1307l56 -75zM143 538l68 -48v-211q19 -20 58 -20q116 0 116 160l1 -2v121h-243zM1035 538h-562l68 -48v-11h194q64 0 120 -33t89 -81.5t33 -90.5q0 -44 -38 -76.5t-112 -44.5l18 -36q58 -4 112 25t78 83v313zM237 -14q33 -16 73 -16q58 0 101.5 31.5
t43.5 75.5q0 38 -38 76l-31 -12l-83 -20q-86 -25 -86 -86q0 -26 20 -49z" />
    <glyph glyph-name="uni092D094D0930094D092F" horiz-adv-x="1097" 
d="M1133 538h-178l67 -48v-511l-46 -22l-114 62v72q-39 -20 -85 -20q-81 0 -158 53l-249 -229l-111 83l262 224h-185v-89l-60 -33q-59 20 -124.5 84t-83.5 121l34 53h79l-1 157q0 50 -17 71l-10 1q-23 0 -37.5 -17t-12.5 -41q2 -37 36 -63l-57 -47q-115 77 -115 156
q0 51 38.5 87t95.5 36q86 0 159.5 -73.5t73.5 -160.5v-106h127l16 43q84 10 119 28t35 48q0 40 -63 81h-139l-56 75l21 42h703l57 -75zM862 538h-172q89 -70 89 -147q0 -49 -36 -86t-108 -54q10 -32 29 -60l17 -1q54 0 105 28.5t76 76.5v243z" />
    <glyph glyph-name="uni0936094D0930094D092F" horiz-adv-x="1171" 
d="M1206 538h-178l67 -48v-511l-46 -22l-114 62v71q-39 -19 -84 -19q-69 0 -138 40t-122 113l-289 -224l-103 104l202 140q-47 11 -100 33l-2 -1l-185 -120l-100 114l153 94q-91 83 -91 166q0 59 46.5 103.5t110.5 44.5q78 0 137 -62t59 -141q0 -69 -53 -133q48 -10 90 -10
q43 0 85 9l15 44q72 11 105 27.5t33 44.5q0 40 -63 81h-144l-56 75l21 42h709l56 -75zM321 547q-17 14 -36 14q-27 0 -47 -23.5t-20 -58.5q0 -36 24 -66q81 58 81 117zM935 538h-171q89 -71 89 -147q0 -49 -36 -86t-108 -54q11 -33 29 -60l18 -1q53 0 103 28t76 75v245z" />
    <glyph glyph-name="uni0937094D091F094D092F" horiz-adv-x="1284" 
d="M1320 538h-178l67 -48v-553l-46 -22l-114 61v56q-38 -24 -87 -24q-85 0 -161 55.5t-128 166.5h1l19 48q148 7 148 42q0 17 -29.5 21t-261.5 4q-5 -87 -61 -147.5t-162 -84.5l-53 -16q-54 -19 -54 -68q0 -26 20 -49q26 -9 56 -9q58 0 121 28.5t104 73.5l91 -131
q-100 -110 -239 -110q-120 0 -213 73t-93 170q0 86 78 140q-99 86 -99 184v139h-46l-57 75l21 42h1320l57 -75zM252 538l135 -197q8 30 8 68l1 -1v130h-144zM1049 538h-564l66 -47v-5h198q64 0 120 -33t89 -82t33 -91q0 -44 -38.5 -76t-112.5 -44l18 -36q58 -5 112.5 25
t78.5 86v303zM211 269q22 -19 59 -19q48 0 79 27l-138 202v-210z" />
    <glyph glyph-name="uni0937094D0920094D092F" horiz-adv-x="1284" 
d="M1320 538h-178l67 -48v-553l-46 -22l-114 61v56q-38 -24 -87 -24q-85 0 -161 55.5t-128 166.5h1l19 48q148 7 148 42q0 17 -29.5 21t-261.5 4q-7 -90 -67 -153q50 -34 78 -81.5t28 -98.5q0 -78 -63 -128t-158 -50q-118 0 -209.5 71.5t-91.5 169.5q0 88 78 140
q-99 86 -99 184v139h-46l-57 75l21 42h1320l57 -75zM396 538h-144l135 -197q8 30 8 68l1 -2v131zM1049 538h-565l67 -47v-5h198q64 0 120 -33t89 -82t33 -91q0 -44 -38.5 -76t-112.5 -44l18 -36q58 -5 112.5 25t78.5 86v303zM211 269q22 -19 59 -19q48 0 79 27l-138 202
v-210zM237 -24q33 -16 73 -16q58 0 101.5 31.5t43.5 75.5q0 38 -38 76l-31 -12l-83 -20q-86 -25 -86 -86q0 -26 20 -49z" />
    <glyph glyph-name="uni0939094D092E094D092F" horiz-adv-x="1540" 
d="M1576 538h-178l67 -48v-511l-46 -22l-114 62v72q-39 -20 -85 -20q-61 0 -123 32t-114 92h-194v-86l-60 -33q-56 18 -113 77l-262 -1q-134 -1 -134 -84q0 -91 162 -137l141 -34l-31 -100q-199 37 -315.5 120t-116.5 192q0 78 63 125q-79 62 -79 134q0 49 42 83.5t124 34.5
h131v52h-341l-57 75l21 42h1576l57 -75zM532 285l23 49h80l-9 204h-208l67 -48v-139l1 -1h-234q-75 0 -75 -45q0 -19 16 -36q45 15 104 15zM719 538l68 -48l1 -159h113l19 50q84 10 119 28t35 48q0 40 -63 81h-292zM1305 538h-172q89 -70 89 -147q0 -49 -36 -86t-108 -54
q10 -32 29 -60l17 -1q54 0 105 28.5t76 76.5v243z" />
    <glyph glyph-name="uni0939094D092E094D092F.ss06" horiz-adv-x="1269" 
d="M1304 538h-178l67 -48v-533l-46 -22l-114 61v92q-63 -40 -183 -46l-258 -14l-23 -81h-1l-51 -21q-47 19 -98 67.5t-75 96.5l29 45l77 4l3 42q-23 14 -63 14q-63 0 -110.5 -33t-47.5 -93q0 -74 74.5 -117.5t212.5 -71.5l-32 -101q-188 34 -303 122.5t-115 202.5
q0 79 53 134q-75 60 -75 130q0 49 42 83.5t124 34.5h179v52h-392l-57 75l21 42h1305l56 -75zM742 157q-69 71 -113 173h1l19 51q84 10 119 28t35 48q0 40 -63 81h-271l67 -48v-140h-281q-75 0 -75 -45q0 -11 6 -22q63 29 148 29q101 0 169 -40.5t88 -117.5zM1033 538h-171
q89 -70 89 -147q0 -107 -147 -141q13 -42 32 -69l24 -1q125 0 173 103v255z" />
    <glyph glyph-name="uni0919094D0915" horiz-adv-x="731" 
d="M787 580l-21 -42h-297l68 -48v-126h-246q-78 0 -78 -38q0 -22 27 -40l181 45q79 -27 118.5 -80t39.5 -111q0 -72 -55 -124t-136 -56l44 -28v-43q40 29 82 29q58 0 104 -51.5t46 -116.5q0 -111 -137 -186l-81 97q106 72 106 116q0 23 -24 23q-37 0 -96 -68v-175l-35 -17
l-92 47v53q-26 -13 -55 -13q-69 0 -131 53.5t-62 122.5q0 57 39.5 98.5t98.5 41.5q20 0 36 -4l74 -49v78q-164 37 -286 217l68 57q45 -71 109 -110.5t128 -39.5q57 0 97.5 30.5t42.5 74.5l-152 -51q-103 34 -168 95.5t-65 125.5q0 53 47 89.5t136 36.5h135v45h-397l-57 75
l21 42h767zM636 392q26 -10 55.5 -34.5t47.5 -47.5q-23 -64 -82 -104q-25 10 -57 34.5t-49 47.5q38 74 85 104zM192 -276q26 2 58.5 18.5t54.5 43.5v34q-28 14 -48 14q-30 0 -52 -22t-22 -52q0 -18 9 -36z" />
    <glyph glyph-name="uni0919094D0917" horiz-adv-x="731" 
d="M787 580l-21 -42h-297l68 -48v-126h-246q-78 0 -78 -38q0 -22 27 -40l181 45q79 -27 118.5 -80t39.5 -111q0 -49 -26.5 -90.5t-74.5 -65.5l63 -63v-333l-46 -22l-84 53v344l-39 -3q-64 0 -127 27l50 -50v-233l-1 1v-1l-56 -29q-53 19 -101 64t-70 99l29 46l73 2l-2 144
q-84 60 -148 155l68 57q45 -71 109 -110.5t128 -39.5q57 0 97.5 30.5t42.5 74.5l-152 -51q-103 34 -168 95.5t-65 125.5q0 53 47 89.5t136 36.5h135v45h-397l-57 75l21 42h767zM636 392q26 -10 55.5 -34.5t47.5 -47.5q-23 -64 -82 -104q-25 10 -57 34.5t-49 47.5
q38 74 85 104z" />
    <glyph glyph-name="uni0919094D09170930" horiz-adv-x="731" 
d="M787 580l-21 -42h-297l68 -48v-126h-246q-78 0 -78 -38q0 -22 27 -40l181 45q79 -27 118.5 -80t39.5 -111q0 -48 -25.5 -88.5t-70.5 -65.5l65 -65v-348l-46 -22l-84 53v43l-152 -126l-99 68l251 199v176l-46 -4q-64 0 -127 27l50 -50v-208l-1 1v-1l-56 -37
q-53 20 -101 65t-70 98l29 47l73 1l-2 127q-84 60 -148 155l68 57q45 -71 109 -110.5t128 -39.5q57 0 97.5 30.5t42.5 74.5l-152 -51q-103 34 -168 95.5t-65 125.5q0 53 47 89.5t136 36.5h135v45h-397l-57 75l21 42h767zM636 392q26 -10 55.5 -34.5t47.5 -47.5
q-23 -64 -82 -104q-25 10 -57 34.5t-49 47.5q38 74 85 104z" />
    <glyph glyph-name="uni0919094D0918" horiz-adv-x="731" 
d="M787 580l-21 -42h-297l68 -48v-126h-246q-78 0 -78 -38q0 -22 27 -40l181 45q79 -27 118.5 -80t39.5 -111q0 -48 -25.5 -88.5t-70.5 -65.5l65 -65v-333l-46 -22l-84 53v38q-39 -22 -84 -22q-74 0 -140 52.5t-66 119.5q0 28 12 52q-44 21 -68.5 55.5t-24.5 73.5
q0 58 50 101q-40 40 -78 96l68 57q45 -71 109 -110.5t128 -39.5q57 0 97.5 30.5t42.5 74.5l-152 -51q-103 34 -168 95.5t-65 125.5q0 53 47 89.5t136 36.5h135v45h-397l-57 75l21 42h767zM636 392q26 -10 55.5 -34.5t47.5 -47.5q-23 -64 -82 -104q-25 10 -57 34.5t-49 47.5
q38 74 85 104zM418 -36l-46 -4q-80 0 -160 43q-39 -12 -39 -55q0 -22 12 -38q39 25 93 25l43 -4l50 -87l-18 -31q-48 1 -74.5 -14t-26.5 -37q0 -12 7 -22l13 -1q37 0 80 19.5t66 51.5v154z" />
    <glyph glyph-name="uni0919094D09180930" horiz-adv-x="731" 
d="M787 580l-21 -42h-297l68 -48v-126h-246q-78 0 -78 -38q0 -22 27 -40l181 45q79 -27 118.5 -80t39.5 -111q0 -48 -25.5 -88.5t-70.5 -65.5l65 -65v-333l-46 -22l-84 53v51l-197 -140l-91 77l92 61q-94 54 -94 139q0 28 12 52q-44 21 -68.5 55.5t-24.5 73.5q0 58 50 101
q-40 40 -78 96l68 57q45 -71 109 -110.5t128 -39.5q57 0 97.5 30.5t42.5 74.5l-152 -51q-103 34 -168 95.5t-65 125.5q0 53 47 89.5t136 36.5h135v45h-397l-57 75l21 42h767zM636 392q26 -10 55.5 -34.5t47.5 -47.5q-23 -64 -82 -104q-25 10 -57 34.5t-49 47.5q38 74 85 104
zM418 -36l-46 -4q-80 0 -160 43q-39 -12 -39 -55q0 -22 12 -38q39 25 93 25l43 -4l50 -87l-18 -31q-47 2 -74.5 -13t-27.5 -41q0 -17 12 -35q35 1 82 29t73 60v151z" />
    <glyph glyph-name="uni0919094D092E" horiz-adv-x="731" 
d="M787 580l-21 -42h-297l68 -48v-126h-246q-78 0 -78 -38q0 -22 27 -40l181 45q79 -27 118.5 -80t39.5 -111q0 -98 -91 -151l68 -68v-338l-46 -22l-84 53v120h-137v-72l-56 -29q-47 23 -97 71.5t-71 99.5l29 47h67l-7 189q-78 59 -135 145l68 57q45 -71 109 -110.5
t128 -39.5q57 0 97.5 30.5t42.5 74.5l-152 -51q-103 34 -168 95.5t-65 125.5q0 53 47 89.5t136 36.5h135v45h-397l-57 75l21 42h767zM636 392q26 -10 55.5 -34.5t47.5 -47.5q-23 -64 -82 -104q-25 10 -57 34.5t-49 47.5q38 74 85 104zM426 -34q-25 -6 -54 -6q-71 0 -142 34
l57 -57v-88h139v117z" />
    <glyph glyph-name="uni0919094D092F" horiz-adv-x="1352" 
d="M1388 538h-178l67 -48v-553l-46 -22l-114 61v56q-38 -24 -87 -24q-85 0 -161 55.5t-128 166.5h1l19 48q148 7 148 42q0 17 -29.5 21t-99.5 4h-502q-34 0 -54 -12t-20 -32q0 -21 21 -38l175 51q80 -26 125 -82t45 -123q0 -79 -57.5 -132.5t-148.5 -53.5q-185 0 -356 250
l68 56q109 -166 237 -166q61 0 101.5 34t35.5 77l-138 -51q-110 35 -177.5 96.5t-67.5 127.5q0 57 48 93t127 37h139v61h-381l-57 75l21 42h1388l57 -75zM1117 538h-659l67 -48v-4h292q64 0 120 -33t89 -82t33 -91q0 -44 -38.5 -76t-112.5 -44l18 -36q58 -5 112.5 25
t78.5 86v303zM631 322q24 -9 51 -31.5t43 -43.5q-10 -26 -31.5 -53.5t-43.5 -41.5q-24 8 -53.5 31t-44.5 44q35 70 79 95z" />
    <glyph glyph-name="uni091F094D0915" horiz-adv-x="603" 
d="M638 538h-226l67 -48v-187h-169q-66 0 -102 -23.5t-36 -60.5q0 -32 26 -59q29 -13 72 -13q57 0 118 23.5t102 64.5l91 -131q-95 -103 -231 -103l56 -36v-43q40 29 82 29q58 0 104 -51.5t46 -116.5q0 -110 -137 -187l-81 98q47 31 76.5 63t29.5 53q0 23 -24 23
q-35 0 -96 -68v-175l-35 -17l-92 46v53q-27 -12 -54 -12q-69 0 -131 53.5t-62 122.5q0 57 39.5 98.5t97.5 41.5l37 -5l73 -48v87q-108 26 -180.5 99.5t-72.5 160.5q0 82 64.5 132.5t173.5 51.5h60v84h-324l-57 75l21 42h638l57 -75zM167 -243q26 2 58 18t54 43v35
q-25 13 -47 13q-30 0 -52 -21.5t-22 -52.5q0 -17 9 -35z" />
    <glyph glyph-name="uni091F094D091F" horiz-adv-x="595" 
d="M630 538h-218l67 -48v-187h-169q-66 0 -102 -23.5t-36 -60.5q0 -32 26 -59q29 -13 72 -13q57 0 118 23.5t102 64.5l91 -131q-67 -71 -152 -93l49 -36v-159h-149q-49 0 -79 -21t-30 -53q0 -28 20 -49q26 -9 58 -9q51 0 105.5 21t90.5 57l79 -114q-37 -46 -92.5 -69.5
t-113.5 -23.5q-108 0 -194 67t-86 159q0 73 53.5 119.5t144.5 48.5h56v52q-124 6 -219.5 87t-95.5 182q0 82 64.5 132.5t173.5 51.5h60v84h-324l-57 75l21 42h630l57 -75z" />
    <glyph glyph-name="uni091F094D0920" horiz-adv-x="595" 
d="M630 538h-218l67 -48v-187h-169q-66 0 -102 -23.5t-36 -60.5q0 -32 26 -59q29 -13 72 -13q57 0 118 23.5t102 64.5l91 -131q-72 -77 -170 -98l50 -35v-79q51 -35 80.5 -82.5t29.5 -97.5q0 -73 -53.5 -117.5t-141.5 -44.5q-115 0 -202.5 71t-87.5 162q0 71 53.5 115
t145.5 46h42v58q-121 11 -211 91t-90 177q0 82 64.5 132.5t173.5 51.5h60v84h-324l-57 75l21 42h630l57 -75zM320 -336q50 0 86.5 24t36.5 65q0 35 -26 64h-98q-50 0 -76 -22t-26 -55q0 -32 21 -57q37 -19 82 -19z" />
    <glyph glyph-name="uni091F094D0922" horiz-adv-x="595" 
d="M630 538h-218l67 -48v-187h-169q-66 0 -102 -23.5t-36 -60.5q0 -32 26 -59q29 -13 72 -13q57 0 118 23.5t102 64.5l91 -131q-61 -66 -145 -92l65 -48v-136l1 -2h-156q-60 0 -92.5 -31t-32.5 -75q0 -41 26 -72q38 -13 85 -13l24 1l-53 33q-12 21 -12 46q0 39 29 68.5
t82 29.5q67 0 114 -45.5t47 -104.5q0 -57 -46.5 -93.5t-123.5 -36.5q-115 0 -209 71.5t-94 165.5q0 76 58 125t155 51h63v55q-136 0 -238 82t-102 187q0 82 64.5 132.5t173.5 51.5h60v84h-324l-57 75l21 42h631l56 -75zM419 -351q54 19 54 52q0 13 -9 22.5t-22 9.5
q-14 0 -25 -10.5t-11 -30.5t13 -43z" />
    <glyph glyph-name="uni091F094D092F" horiz-adv-x="1203" 
d="M1239 538h-178l67 -48v-553l-46 -22l-114 61v56q-38 -24 -87 -24q-85 0 -161 55.5t-128 166.5h1l19 48q148 7 148 42q0 17 -29.5 21t-265.5 4v-64h-166q-59 0 -90 -26t-31 -65q0 -34 28 -65q29 -14 72 -14q54 0 110.5 24t94.5 65l90 -131q-44 -54 -102.5 -78.5
t-114.5 -24.5q-74 0 -151.5 38t-128 103.5t-50.5 141.5q0 79 58 131t176 52h50v106h-310l-57 75l21 42h1239l57 -75zM968 538h-570l67 -48v-4h203q64 0 120 -33t89 -82t33 -91q0 -44 -38.5 -76t-112.5 -44l18 -36q58 -5 112.5 25t78.5 86v303z" />
    <glyph glyph-name="uni091F094D0935" horiz-adv-x="595" 
d="M630 538h-218l67 -48v-187h-158q-149 0 -149 -87q0 -37 27 -66q31 -14 69 -14q59 0 122 28t103 71l88 -131q-35 -38 -81 -64v-333l-35 -17l-92 47v35q-30 -12 -66 -12q-88 0 -162.5 57t-74.5 130q0 79 73 125q-54 38 -85.5 89.5t-31.5 108.5q0 82 64.5 132.5t173.5 51.5
h60v84h-324l-57 75l21 42h631l56 -75zM220 -130l20 -3q32 0 70.5 19t62.5 49v77q-67 0 -116.5 -29.5t-49.5 -75.5q0 -24 13 -37z" />
    <glyph glyph-name="uni0920094D0920" horiz-adv-x="632" 
d="M667 538h-264l67 -48v-92q126 -90 126 -209q0 -67 -45.5 -118t-125.5 -64l49 -35v-79q51 -35 80.5 -82.5t29.5 -97.5q0 -72 -54 -117t-141 -45q-115 0 -202.5 71t-87.5 163q0 72 56 116t151 44h34v60q-122 12 -213 94t-91 177q0 80 63.5 130.5t167.5 52.5h48v79h-315
l-57 75l21 42h668l56 -75zM305 137q60 0 102 27.5t42 72.5q0 43 -34 78h-110q-60 0 -90.5 -25.5t-30.5 -63.5q0 -35 25 -66q39 -23 96 -23zM333 -334q51 0 87 23.5t36 64.5q0 35 -26 64h-98q-50 0 -76 -22t-26 -55q0 -32 21 -57q35 -18 82 -18z" />
    <glyph glyph-name="uni0920094D092F" horiz-adv-x="1242" 
d="M1278 538h-178l67 -48v-553l-46 -22l-114 61v56q-38 -24 -87 -24q-85 0 -161 55.5t-128 166.5h1l19 48q148 7 148 42q0 17 -29.5 21t-276.5 4q110 -91 110 -204q0 -83 -62.5 -134.5t-161.5 -51.5q-134 0 -239 86.5t-105 196.5q0 84 63 135t169 52h48v113h-315l-57 75
l21 42h1278l57 -75zM1007 538h-604l67 -48v-4h237q64 0 120 -33t89 -82t33 -91q0 -44 -38.5 -76t-112.5 -44l18 -36q58 -5 112.5 25t78.5 86v303zM316 88q64 0 101.5 32t37.5 77q0 40 -32 80h-116q-59 0 -90 -26.5t-31 -66.5q0 -36 29 -70q46 -26 101 -26z" />
    <glyph glyph-name="uni0920094D0935" horiz-adv-x="640" 
d="M675 538h-272l67 -48v-92q126 -90 126 -209q0 -95 -84 -150v-335l-35 -17l-92 46v35q-31 -11 -66 -11q-88 0 -162.5 56.5t-74.5 129.5q0 38 20.5 73t58.5 56q-57 40 -91 94.5t-34 109.5q0 80 63.5 130.5t167.5 52.5h48v79h-315l-57 75l21 42h675l57 -75zM305 315
q-60 0 -90.5 -25.5t-30.5 -63.5q0 -35 25 -66q39 -23 96 -23q60 0 102 27.5t42 72.5q0 43 -34 78h-110zM232 -134l20 -3q32 0 70.5 19t62.5 49v77q-66 2 -116 -28.5t-50 -75.5q0 -24 13 -38z" />
    <glyph glyph-name="uni0920094D0915" horiz-adv-x="643" 
d="M678 538h-200l67 -48v-125l1 -1h-255q-80 0 -80 -38q0 -22 27 -40l188 45q76 -19 124.5 -73.5t48.5 -119.5q0 -73 -64.5 -125.5t-158.5 -52.5l43 -28v-42q40 29 82 29q59 0 104.5 -52t45.5 -117q0 -111 -137 -186l-81 97q106 72 106 116q0 24 -24 24q-36 0 -96 -69v-175
l-35 -17l-92 47v53q-27 -12 -55 -12q-71 0 -132 53.5t-61 121.5q0 57 39.5 98.5t98.5 41.5q20 0 36 -4l74 -49v81q-155 41 -284 224l71 57q49 -75 113 -117.5t134 -42.5q59 0 105 30t50 75l-168 -51q-106 33 -174 95t-68 126q0 53 49 89.5t141 36.5h140v45h-401l-57 75
l21 42h679l56 -75zM179 -276q25 2 57.5 18.5t55.5 43.5v34q-28 14 -48 14q-30 0 -52 -22t-22 -52q0 -18 9 -36z" />
    <glyph glyph-name="uni0920094D0917" horiz-adv-x="643" 
d="M678 538h-200l67 -48v-125l1 -1h-255q-80 0 -80 -38q0 -22 27 -40l188 45q76 -19 124.5 -73.5t48.5 -119.5q0 -49 -32 -92t-87 -66l59 -57v-333l-48 -22l-87 54v339l-29 -1q-74 0 -147 35l58 -56v-233l-58 -29q-55 20 -105 65t-73 98l29 47l77 1l-3 153q-78 58 -145 154
l71 57q49 -75 113 -117.5t134 -42.5q59 0 105 30t50 75l-168 -51q-106 33 -174 95t-68 126q0 53 49 89.5t141 36.5h140v45h-401l-57 75l21 42h679l56 -75z" />
    <glyph glyph-name="uni0921094D091F" horiz-adv-x="643" 
d="M678 538h-200l67 -48v-125l1 -1h-255q-80 0 -80 -38q0 -22 27 -40l188 45q76 -19 124.5 -73.5t48.5 -119.5q0 -57 -43 -104.5t-113 -65.5l58 -41v-159h-149q-49 0 -79 -21.5t-30 -53.5q0 -28 20 -49q25 -9 57 -9q51 0 105.5 21t91.5 57l79 -114q-37 -45 -93 -69t-113 -24
q-108 0 -194 67t-86 159q0 73 53.5 119.5t144.5 48.5h56v60q-92 3 -183.5 61t-172.5 174l71 57q49 -75 113 -117.5t134 -42.5q59 0 105 30t50 75l-168 -51q-106 33 -174 95t-68 126q0 53 49 89.5t141 36.5h140v45h-401l-57 75l21 42h679l56 -75z" />
    <glyph glyph-name="uni0921094D0921" horiz-adv-x="643" 
d="M678 538h-200l67 -48v-125l1 -1h-255q-80 0 -80 -38q0 -22 27 -40l188 45q76 -19 124.5 -73.5t48.5 -119.5q0 -72 -65 -125t-159 -53q-53 0 -103 17q-33 -15 -33 -45q0 -22 22 -38l172 42q76 -20 115.5 -73t39.5 -110q0 -71 -56.5 -119t-141.5 -48q-89 0 -176 54.5
t-160 163.5l64 57q99 -147 228 -147q52 0 92.5 24t40.5 66l-150 -46q-95 31 -156 88.5t-61 119.5q0 47 33 81q-72 55 -137 148l71 57q49 -75 113 -117.5t134 -42.5q59 0 105 30t50 75l-168 -51q-106 33 -174 95t-68 126q0 53 49 89.5t141 36.5h140v45h-401l-57 75l21 42h679
l56 -75z" />
    <glyph glyph-name="uni0921094D0922" horiz-adv-x="643" 
d="M678 538h-200l67 -48v-125l1 -1h-255q-80 0 -80 -38q0 -22 27 -40l188 45q76 -19 124.5 -73.5t48.5 -119.5q0 -51 -35.5 -95.5t-94.5 -66.5l46 -35v-128l1 -2h-156q-60 0 -93 -30.5t-33 -75.5q0 -41 27 -72q38 -13 85 -13l24 1l-53 33q-12 21 -12 46q0 39 29.5 68.5
t82.5 29.5q66 0 113 -45t47 -105q0 -57 -47.5 -93.5t-121.5 -36.5q-116 0 -210 72t-94 166q0 77 58 125t156 50h62v29q-208 0 -372 235l71 57q49 -75 113 -117.5t134 -42.5q59 0 105 30t50 75l-168 -51q-106 33 -174 95t-68 126q0 53 49 89.5t141 36.5h140v45h-401l-57 75
l21 42h679l56 -75zM433 -366q54 19 54 52q0 14 -8.5 23t-21.5 9q-15 0 -26 -10.5t-11 -30.5t13 -43z" />
    <glyph glyph-name="uni0921094D092F" horiz-adv-x="1257" 
d="M1294 538h-178l67 -48v-553l-46 -22l-114 61v52q-41 -19 -89 -19q-84 0 -159 54.5t-127 164.5l19 48q149 8 149 43q0 17 -29.5 20.5t-100.5 3.5h-402q-76 0 -76 -42q0 -21 25 -39l182 44q83 -28 126 -86t43 -120q0 -76 -59.5 -127.5t-149.5 -51.5q-195 0 -363 251l68 56
q111 -171 249 -171q58 0 99.5 30.5t40.5 74.5l-149 -47q-110 34 -179 98.5t-69 134.5q0 56 46.5 91.5t136.5 35.5h130v63h-385l-57 75l21 42h1295l56 -75zM1023 538h-564l70 -50v-12h194q92 0 167.5 -63t75.5 -134q0 -44 -38.5 -76.5t-112.5 -44.5l18 -36q54 -1 108 24
t82 70v322z" />
    <glyph glyph-name="uni0921094D0935" horiz-adv-x="643" 
d="M678 538h-209l68 -48v-126h-246q-78 0 -78 -38q0 -22 27 -40l181 45q74 -19 120.5 -73.5t46.5 -119.5q0 -71 -61 -124v-343l-35 -17l-92 47v35q-30 -12 -66 -12q-88 0 -162.5 57t-74.5 130q0 78 70 123q-80 59 -148 161l68 57q101 -160 238 -160q58 0 102 30t47 75
l-162 -51q-103 34 -168 95.5t-65 125.5q0 53 47 89.5t136 36.5h135v45h-397l-57 75l21 42h679l56 -75zM239 -169l26 -3q35 0 73.5 17.5t61.5 45.5v79l-18 1q-64 0 -110 -30t-46 -73q0 -22 13 -37z" />
    <glyph glyph-name="uni0922094D0922" horiz-adv-x="641" 
d="M677 538h-224l68 -48v-157h-191q-70 0 -108.5 -34.5t-38.5 -86.5q0 -50 39 -95q47 -18 108 -18l26 1l-61 42q-15 26 -15 54q0 49 39.5 83t99.5 34q76 0 130.5 -54t54.5 -123q0 -51 -36 -92.5t-97 -56.5l40 -31v-126l1 -2h-156q-60 0 -92.5 -30.5t-32.5 -74.5
q0 -41 26 -73q38 -13 85 -13l24 1l-53 34q-12 21 -12 46q0 39 29 68t82 29q66 0 113.5 -45t47.5 -104q0 -57 -47 -94t-123 -37q-115 0 -209 71.5t-94 165.5q0 77 58 126t155 51h63v30q-80 6 -159 45.5t-129.5 104t-50.5 139.5q0 90 65 147t174 60h91v63h-367l-49 75l14 42
h677l56 -75zM415 167q0 -23 14 -51q64 26 64 70q0 37 -32 37q-18 0 -32 -15t-14 -41zM429 -349q54 22 54 53q0 13 -9 22.5t-22 9.5q-14 0 -25 -11t-11 -31t13 -43z" />
    <glyph glyph-name="uni0922094D092F" horiz-adv-x="1266" 
d="M1302 538h-178l67 -48v-553l-46 -22l-114 61v56q-38 -24 -87 -24q-85 0 -161 55.5t-128 166.5h1l19 48q148 7 148 42q0 17 -29.5 21t-281.5 4v-36h-192q-67 0 -103.5 -36t-36.5 -87q0 -58 42 -100q58 -30 132 -30l-66 43q-18 35 -18 69q0 52 37.5 82.5t93.5 30.5
q78 0 136.5 -58.5t58.5 -129.5q0 -69 -57.5 -118t-142.5 -49q-83 0 -168.5 44.5t-141.5 118t-56 155.5q0 91 65 149.5t171 61.5h92v83h-358l-57 75l21 42h1302l57 -75zM1031 538h-587l68 -48v-4h219q64 0 120 -33t89 -82t33 -91q0 -44 -38.5 -76t-112.5 -44l18 -36
q58 -5 112.5 25t78.5 86v303zM408 130q0 -28 17 -59q61 26 61 75q0 19 -10 30t-24 11q-17 0 -30.5 -15.5t-13.5 -41.5z" />
    <glyph glyph-name="uni0922094D0935" horiz-adv-x="641" 
d="M677 538h-224l68 -48v-157h-191q-70 0 -108.5 -34.5t-38.5 -86.5q0 -50 39 -95q45 -19 107 -19l28 1l-62 43q-15 26 -15 54q0 49 39.5 83t99.5 34q76 0 130.5 -54t54.5 -123q0 -78 -74 -125v-332l-35 -17l-92 46v36q-30 -12 -67 -12q-88 0 -162.5 56.5t-74.5 129.5
q0 38 20.5 73t58.5 56q-141 93 -141 221q0 90 65 147t174 60h91v63h-367l-49 75l14 42h677l56 -75zM415 167q0 -22 14 -52q64 26 64 71q0 37 -32 37q-18 0 -32 -15t-14 -41zM241 -162l26 -3q35 0 74 18t62 48v77l-19 1q-64 0 -110 -30t-46 -74q0 -21 13 -37z" />
    <glyph glyph-name="uni0926094D0917" horiz-adv-x="610" 
d="M652 538h-230l67 -48v-184l1 -2h-177q-64 0 -97 -30t-33 -72q0 -44 35 -79q30 -13 66 -13q49 0 91 22l-12 85l101 37l123 -153q-23 -45 -75 -81l116 -268l-145 -53l-65 275q-28 -6 -57 -6l-44 4l32 -217l-51 -37q-58 11 -118.5 47.5t-90.5 84.5l24 52l82 15l-17 109
q-66 41 -107 101t-41 128q0 88 62 141.5t165 55.5h81v86h-338l-57 75l21 42h645l64 -75z" />
    <glyph glyph-name="uni0926094D0918" horiz-adv-x="830" 
d="M865 538h-221l67 -48v-184l1 -2h-177q-64 0 -97 -30t-33 -72q0 -44 35 -79q30 -13 65 -13q48 0 92 23l-12 84l101 37l123 -153q-23 -44 -73 -79l97 -175l-153 -62l-41 189l-36 -5q-28 -91 -90.5 -141.5t-138.5 -50.5q-89 0 -167 55.5t-78 125.5l1 12q-118 53 -118 154
q0 76 69 123t174 42q11 69 69 116t166 47h70v86h-560l-57 75l21 42h866l56 -75zM451 -1q-122 55 -173 154l-18 1q-44 0 -77.5 -21t-33.5 -53q0 -23 18 -38q35 32 90 44l113 -77l-1 -38q-41 -7 -66 -26t-25 -41q0 -15 13 -27q44 0 90 34t70 88z" />
    <glyph glyph-name="uni0926094D0926" horiz-adv-x="593" 
d="M636 538h-194l67 -48v-147h-264q-78 0 -78 -48q0 -21 24 -45q42 14 96 14h179l69 -109l-21 -42h-179q-63 0 -94 -24t-31 -59q0 -29 21 -55q33 -16 74 -16q52 0 98 22l-10 65l97 36l110 -140q-20 -42 -67 -74l98 -174l-153 -62l-43 196q-29 -6 -56 -6q-113 0 -214.5 81.5
t-101.5 179.5q0 82 62 132q-91 64 -91 146q0 49 41 83t123 34h167v60h-365l-57 75l21 42h629l64 -75z" />
    <glyph glyph-name="uni0926094D0927" horiz-adv-x="884" 
d="M917 538h-221l67 -48v-184l1 -2h-177q-64 0 -97 -30t-33 -72q0 -44 35 -79q30 -13 65 -13q48 0 92 23l-12 84l101 37l123 -153q-23 -44 -73 -79l97 -175l-153 -62l-41 189l-35 -5q-28 -91 -90.5 -141.5t-138.5 -50.5q-84 0 -161 51.5t-83 118.5q-91 22 -137 71.5
t-46 107.5q0 56 39.5 94.5t98.5 38.5q49 0 86.5 -25.5t89.5 -77.5l-44 -56q-50 43 -72 53q-51 -20 -51 -66q0 -47 55 -67q37 52 108 66l113 -77l-1 -38q-41 -7 -66 -26t-25 -41q0 -15 13 -27q44 0 90 33.5t70 87.5q-85 38 -142.5 106.5t-57.5 150.5q0 88 62 141.5t165 55.5
h81v86h-612l-57 75l21 42h918l56 -75z" />
    <glyph glyph-name="uni0926094D0928" horiz-adv-x="617" 
d="M652 538h-222l67 -48v-186h-173q-65 0 -99 -32t-34 -76q0 -46 34 -80q35 -15 75 -15q47 0 85 20l-15 96l101 37l116 -153q-20 -40 -68 -74l100 -180l-153 -62l-43 197l-173 -93l36 -89l-49 -43q-119 25 -198 106l10 66l168 84l-33 18q-65 38 -106 97t-41 127
q0 88 62 141.5t165 55.5h82v86h-346l-57 75l21 42h653l56 -75z" />
    </font>
</defs>
</svg>
