<?xml version="1.0" standalone="no"?>
<!DOCTYPE svg PUBLIC "-//W3C//DTD SVG 1.1//EN" "http://www.w3.org/Graphics/SVG/1.1/DTD/svg11.dtd" >
<svg>
<metadata>
Created by FontForge 20120731 at Sat May 20 12:22:01 2017
 By www
Copyright (c) 2002, The Font Bureau, Inc. All rights reserved.
</metadata>
<defs>
<font id="AvalonBold" horiz-adv-x="300" >
  <font-face 
    font-family="Avalon Bold"
    font-weight="400"
    font-stretch="normal"
    units-per-em="1000"
    panose-1="0 0 4 0 0 0 0 0 0 0"
    ascent="800"
    descent="-200"
    x-height="279"
    cap-height="660"
    bbox="-426.714 -398 1312.48 862"
    underline-thickness="20"
    underline-position="-123"
    unicode-range="U+0020-F002"
  />
<missing-glyph horiz-adv-x="500" 
d="M63 0v664h375v-664h-375zM125 63h250v539h-250v-539z" />
    <glyph glyph-name=".notdef" horiz-adv-x="500" 
d="M63 0v664h375v-664h-375zM125 63h250v539h-250v-539z" />
    <glyph glyph-name="glyph1" horiz-adv-x="0" 
 />
    <glyph glyph-name="nonmarkingreturn" horiz-adv-x="200" 
 />
    <glyph glyph-name="space" unicode=" " horiz-adv-x="200" 
 />
    <glyph glyph-name="exclam" unicode="!" horiz-adv-x="149" 
d="M218 458q2 -1 2 -3q0 -6 -19 -41q-34 -62 -63 -127q-28 -58 -76 -169q-16 -40 -30 -37q-11 3 1 61q15 72 48 144q30 66 72 124q14 19 36 34.5t29 13.5zM53 23q-4 -34 -37 -36q-16 -1 -25 7t-8 23q1 13 11.5 25t24.5 13q16 1 25.5 -8.5t8.5 -23.5z" />
    <glyph glyph-name="quotedbl" unicode="&#x22;" horiz-adv-x="184" 
d="M265 455q-15 -33 -82 -80q10 27 32 87q11 30 31 26q31 -6 19 -33zM175 455q-15 -33 -82 -80q10 27 32 87q11 30 31 26q31 -6 19 -33z" />
    <glyph glyph-name="numbersign" unicode="#" horiz-adv-x="340" 
d="M317 183q-2 -5 -16 -4q-48 3 -60 3l-10 -20l-15 -33q46 -4 60 -6q7 -1 13.5 -6t5.5 -7q-4 -6 -19 -5q-22 2 -67 4q-6 -15 -31 -78q-14 -35 -33 -35q-9 0 -3 26q8 35 28 88q-16 1 -42 1q-25 0 -36 -1q-9 -23 -31 -79q-14 -35 -33 -35q-9 0 -3 26q7 33 28 88q-31 0 -59 -3
q-2 0 -8 6q0 6 22 10t51 5q5 11 15 35q4 8 9 20q-20 0 -65 -3q-6 -1 -9 6q0 6 25.5 10t58.5 7q14 27 44 74q23 36 31 32q4 -2 4 -15q-1 -14 -6 -25q-12 -23 -32 -65q7 1 31 1q29 0 45 -1q19 36 44 73q22 33 29 30q4 -2 4 -15q0 -14 -5 -25q-9 -17 -32 -65q23 -1 50 -6
q6 -1 12 -6.5t5 -6.5zM200 183q-19 1 -43 1q-25 0 -33 -1q-4 -8 -10 -21l-15 -32q11 1 36 1q26 0 42 -1q7 18 13 31q4 9 10 22z" />
    <glyph glyph-name="dollar" unicode="$" horiz-adv-x="204" 
d="M219 291q5 -23 -30 -40q9 13 9 27q0 16 -10 23q-19 -31 -61 -96q0 -5 1 -21v-23q-2 -75 -42 -120q-35 -39 -82 -39h-5q-13 -19 -22 -35l-2 11l12 24q-33 8 -37 33q-5 30 22 52q24 19 30 13q1 -1 -6 -5q-10 -8 -19 -18q-12 -14 -7 -37q5 -21 23 -26q37 68 76 131
q1 39 4 59q5 38 19 60q31 49 81 49h10q12 16 23 31l2 -11q-3 -4 -15 -22q23 -3 26 -20zM178 305l-8 1q-28 0 -40 -35q-7 -19 -5 -45q22 35 53 79zM71 122q-23 -37 -67 -111q6 0 5 0q62 5 62 111z" />
    <glyph glyph-name="percent" unicode="%" horiz-adv-x="438" 
d="M351 325l-11 -15l-24 -30q-31 -39 -119 -164q-64 -91 -110 -162q-23 -36 -27 -33q-9 2 3 32q26 64 98 171q45 66 91 122q33 39 52 56q-39 -17 -92 -15q-33 1 -50 14q8 -12 9 -15q12 -25 12 -51q0 -20 -8 -37q-18 -38 -52.5 -60t-59.5 -17q-17 3 -30 19.5t-13 42.5
q0 17 6 35q19 54 97 81q16 5 17 3q0 -1 -6 -4t-10 -7q-44 -43 -63 -112q-12 -45 5 -50q16 -5 41 27q30 36 45 92q8 30 0 50q-2 7 -14 19q-2 3 -1 4q4 4 9 -1l6 -6q16 -15 64 -15q68 0 93 10q7 4 18 10q21 11 24 6zM369 73q-15 -38 -50 -60t-63 -17q-16 3 -29.5 21.5
t-13.5 44.5q0 15 6 31q14 39 45 62t62 23q9 0 16 -2q35 -10 35 -64q0 -20 -8 -39zM345 124q5 19 4 29q-1 14 -12 17q-17 5 -43.5 -31.5t-39.5 -84.5q-12 -46 5 -50t42 27q29 35 44 93z" />
    <glyph glyph-name="ampersand" unicode="&#x26;" horiz-adv-x="457" 
d="M485 277q3 -19 -14 -31.5t-45 -12.5q-23 0 -50 16q11 -24 11 -48q0 -73 -54 -127q-38 -38 -69 -52q13 -41 37 -78q35 -54 76 -54q8 0 15 3q4 1 5 0q5 -8 -21 -12q-14 -2 -27 -2q-60 0 -98 49q-26 33 -37 72q-44 -14 -93 -14q-135 0 -135 103q0 70 65 120q45 34 143 71
q9 49 35 90q67 105 181 100q43 -2 46 -36q4 -47 -79 -96q-20 -12 -59 -26q-33 -11 -66 -23q-14 -75 -10 -141q4 -61 17 -110q20 10 54 44q23 22 39.5 58t17.5 65t-4 47q-12 6 -32 26q-7 10 0 15q9 5 21 -4q8 -6 13 -18q22 -17 55 -17q45 0 52 23q2 6 -2.5 10t-3.5 5
q3 3 9 -3.5t7 -11.5zM444 433q-1 27 -34 27q-37 0 -76 -28q-34 -26 -53 -61q-16 -29 -26 -70q34 13 103 49q87 54 86 83zM208 14q-18 55 -22 123q-4 64 6 130q-63 -37 -88 -62q-63 -63 -58 -136q5 -70 75 -72q46 -1 87 17z" />
    <glyph glyph-name="quotesingle" unicode="'" horiz-adv-x="94" 
d="M175 455q-15 -33 -82 -80q10 27 32 87q11 30 31 26q31 -6 19 -33z" />
    <glyph glyph-name="parenleft" unicode="(" horiz-adv-x="354" 
d="M541 663q1 -3 -12 -9q-58 -29 -133 -94q-158 -137 -237 -312q-47 -104 -47 -231q0 -99 44 -181q9 -18 10 -17q-6 -5 -16 8q-84 107 -84 228q0 115 48 220q71 153 246 289q76 59 165 96q15 6 16 3z" />
    <glyph glyph-name="parenright" unicode=")" horiz-adv-x="354" 
d="M295 424q0 -115 -48 -220q-70 -152 -246 -289q-75 -58 -165 -96q-15 -6 -16 -3t12 9q60 30 133 94q158 138 237 312q47 105 47 229q0 94 -44 183q-9 18 -10 17q6 5 16 -8q84 -107 84 -228z" />
    <glyph glyph-name="asterisk" unicode="*" horiz-adv-x="347" 
d="M359 441q0 -18 -40 -27q-32 -3 -71 -8q25 -14 63 -37q23 -17 23 -33q0 -19 -18 -19q-15 0 -34 22q-7 8 -41 59q0 -31 -2 -75q-6 -44 -29 -40q-16 3 -16 21q0 10 5 29q14 30 31 67q-26 -15 -66 -37q-15 -7 -28 -7q-17 0 -21 14q-7 26 37 32q34 4 75 8q-25 14 -64 37
q-25 17 -25 31q0 20 19 20q12 0 32 -22q20 -26 44 -57q0 29 1 74q5 42 28 39q17 -3 17 -21q0 -11 -6 -28q-13 -30 -28 -67q25 15 63 36q19 8 31 8q20 0 20 -19z" />
    <glyph glyph-name="plus" unicode="+" horiz-adv-x="280" 
d="M252 157q0 3 -58 8q-22 2 -55 2l-5 -14q-13 -35 -19 -60q-10 -37 -15 -37q-10 0 -10 30q0 26 11 64q3 12 6 17q-28 0 -63 -2q-38 -2 -38 -1q-3 10 29 21q25 8 66 11h16q10 23 27 46q10 13 24 24t20 8q-10 -16 -28 -52q-6 -12 -11 -26q37 -3 55 -8q48 -12 48 -31z" />
    <glyph glyph-name="comma" unicode="," horiz-adv-x="106" 
d="M42 25q-15 -34 -92 -80q26 44 42 87q11 30 31 26q31 -6 19 -33z" />
    <glyph glyph-name="hyphen" unicode="-" horiz-adv-x="186" 
d="M156 180q3 -9 -7 -18.5t-28 -13.5q-26 -6 -64 -5q-40 1 -55 10q17 1 50 16q40 17 53.5 21t23.5 4q22 0 27 -14z" />
    <glyph glyph-name="hyphen" unicode="&#x2010;" horiz-adv-x="186" 
d="M156 180q3 -9 -7 -18.5t-28 -13.5q-26 -6 -64 -5q-40 1 -55 10q17 1 50 16q40 17 53.5 21t23.5 4q22 0 27 -14z" />
    <glyph glyph-name="period" unicode="." horiz-adv-x="106" 
d="M48 28q-4 -34 -37 -36q-16 -1 -25 7t-8 23q1 13 11.5 25t24.5 13q16 1 25.5 -8.5t8.5 -23.5z" />
    <glyph glyph-name="slash" unicode="/" horiz-adv-x="165" 
d="M338 530q2 -2 -13 -22q-69 -90 -170 -263q-109 -186 -180 -341q-15 -32 -17 -31q-6 4 1 38q13 58 49 148q41 104 89 186q92 156 214 268q23 21 27 17z" />
    <glyph glyph-name="zero" unicode="0" horiz-adv-x="266" 
d="M222 286q19 -32 19 -75q0 -35 -13 -66q-31 -78 -88 -119q-47 -33 -84 -27q-25 4 -44 26q-22 26 -22 66q0 25 9 53q30 97 143 149q30 13 34 9q-3 3 -27 -19q-72 -66 -102 -187q-7 -29 -7 -48q0 -33 20 -39q27 -8 68 46q47 62 69 157q12 51 -2 82q-9 21 -22 32t-11 13
q1 1 17 -8q26 -16 43 -45z" />
    <glyph glyph-name="one" unicode="1" horiz-adv-x="154" 
d="M140 270q-75 -147 -101 -234q-14 -47 -33 -44q-17 2 -11 46q9 60 41.5 133.5t63.5 111.5q-30 -14 -53 -30q-28 -20 -27 -21q-3 3 9.5 17t31 25t57.5 33q16 9 25 9t9 -10q0 -12 -12 -36z" />
    <glyph glyph-name="two" unicode="2" horiz-adv-x="235" 
d="M148 126q-35 -29 -99 -65q-9 -5 -24 -13q30 3 56 2q47 -2 80 -21q11 -6 18.5 -15.5t6.5 -11.5q-4 1 -16 5q-31 8 -116 8q-55 0 -79.5 -5t-24.5 -4q-1 4 16.5 18.5t40.5 21.5q58 36 98 86q44 54 49 93q8 57 -41 58q-39 1 -58 -31q-15 -26 -12 -53q3 -23 14 -37
q-20 10 -26 34q-8 29 7 62q25 56 85 59q43 2 66.5 -20t23.5 -57q0 -60 -65 -114z" />
    <glyph glyph-name="three" unicode="3" horiz-adv-x="218" 
d="M198 248q0 -46 -48 -80q-33 -23 -73 -31q72 -11 72 -70q0 -45 -39 -86q-60 -63 -154 -59q-26 1 -44.5 16t-19.5 39q13 -39 65 -39q64 0 105 57q30 42 30 87q0 35 -23 52q-7 -4 -26 -11q-10 -3 -15 -1q0 11 12.5 16t23.5 3q26 13 47 38q30 36 30 68q0 45 -43 47
q-33 2 -50 -18q-13 -15 -13 -33q0 -16 9 -28q-15 7 -19 25q-5 21 6 40q23 40 79 40q39 0 63.5 -20t24.5 -52z" />
    <glyph glyph-name="four" unicode="4" horiz-adv-x="264" 
d="M263 313q0 -1 -10 -1.5t-20 -3.5q-58 -20 -123 -92q-11 -12 -73 -87q-32 -39 -44 -47q28 4 58 4q32 0 58 -2q37 105 80 160q30 38 43 33q6 -2 3 -17q-2 -11 -10 -28q-9 -20 -37 -85q-6 -15 -25 -66q24 -2 40.5 -6.5t14.5 -8.5q-3 -2 -11 -1q-22 3 -49 3q-18 -45 -37 -106
q-13 -41 -30 -41q-16 0 -10 47q5 43 23 98q-26 0 -103 -8q-36 -4 -37 0q-3 8 8 14q16 16 47 59q27 42 81 113q66 76 141 75q24 0 22 -6z" />
    <glyph glyph-name="five" unicode="5" horiz-adv-x="206" 
d="M228 270q-4 -13 -9 -10q0 1 1 3.5t1 5.5q0 6 -11 8q-27 4 -56 4q-28 0 -46 -2q-11 -24 -25.5 -48t-50.5 -73q18 10 39 10q39 0 62 -23q20 -21 20 -54q0 -55 -43 -99q-68 -69 -161 -68q-24 0 -40 11.5t-16 28.5q13 -27 57 -26q71 1 114 68q32 49 33 93q2 54 -42 54
q-18 0 -32 -7q-8 -13 -16.5 -21.5t-12.5 -6.5q-5 3 1.5 13.5t21.5 19.5q23 39 44 95q11 29 11 40q0 2 -4 4.5t-3 4.5q2 5 9 12q18 7 57 6q48 -2 79 -15q23 -10 18 -28z" />
    <glyph glyph-name="six" unicode="6" horiz-adv-x="266" 
d="M309 360q1 1 -8 4t-22 3q-72 -1 -152 -108q-60 -80 -76 -157q-5 -23 -5 -41q0 -51 34 -55q22 -2 44.5 25t36.5 76q8 29 8 51q0 41 -29 54q-18 8 -19 6q4 6 26 1q33 -8 53.5 -33t20.5 -58q0 -15 -5 -30q-14 -46 -55.5 -74.5t-81.5 -25.5q-31 2 -54 24q-26 26 -26 72
q0 25 8 54q20 68 71 126q39 44 92 73t100 29q21 0 34 -8q8 -5 5 -8z" />
    <glyph glyph-name="seven" unicode="7" horiz-adv-x="225" 
d="M262 300q2 -3 -18 -20q-24 -20 -26 -22q-31 -35 -102 -129q-56 -79 -89 -159q-22 -53 -30 -53q-6 0 -8 21q-2 22 4 49q12 59 53 126q51 83 133 151q10 8 24 17q-78 0 -128 -12q-14 -3 -20 -9t-13 -17l20 8l-26 -26q-3 -5 -9 -8.5t-8 -2.5q-3 1 6 18q8 14 23 44
q10 22 16 26.5t30 5.5q23 1 65 -4q35 -4 59 -11q6 4 13 8q24 12 31 -1z" />
    <glyph glyph-name="eight" unicode="8" horiz-adv-x="226" 
d="M299 293q-9 8 -24 7q-26 -1 -73 -31q-22 -14 -58 -39q3 -13 10 -31q19 -51 17 -81q-3 -46 -22 -69q-44 -54 -101 -52q-26 1 -42.5 17t-16.5 44q0 34 13 60q23 45 95 93q-17 42 -9 79q7 33 39.5 55.5t75.5 18.5q30 -3 47.5 -19.5t11.5 -20.5l-18 14q-15 11 -39 11
q-51 -1 -66 -51q-7 -24 1 -56q30 22 51 36q58 37 86 36q12 -1 18 -8t4 -13zM122 115q-1 26 -21 85q-51 -38 -73 -95q-11 -28 -11 -59q0 -40 30 -42q37 -2 63 56q13 30 12 55z" />
    <glyph glyph-name="nine" unicode="9" horiz-adv-x="261" 
d="M225 237q8 -72 -32.5 -148t-110.5 -121q-65 -42 -131 -42q-15 0 -28 5q-6 2 -10.5 6.5t-2.5 6.5q6 3 19.5 -2.5t18.5 -5.5q113 0 190 165q48 103 48 159q0 41 -28 44q-39 4 -74 -71q-18 -39 -18 -81q0 -40 32 -54q5 -2 11 -2.5t6 -1.5q0 -6 -24 -2q-71 11 -74 77
q-1 34 14 66q21 44 64 65q34 17 64 13q59 -7 66 -76z" />
    <glyph glyph-name="colon" unicode=":" horiz-adv-x="113" 
d="M92 183q-4 -34 -37 -36q-16 -1 -25 7t-8 23q1 13 11.5 25t24.5 13q16 1 25.5 -8.5t8.5 -23.5zM48 28q-4 -34 -37 -36q-16 -1 -25 7t-8 23q1 13 11.5 25t24.5 13q16 1 25.5 -8.5t8.5 -23.5z" />
    <glyph glyph-name="semicolon" unicode=";" horiz-adv-x="113" 
d="M92 183q-4 -34 -37 -36q-16 -1 -25 7t-8 23q1 13 11.5 25t24.5 13q16 1 25.5 -8.5t8.5 -23.5zM42 25q-15 -34 -92 -80q26 44 42 87q11 30 31 26q31 -6 19 -33z" />
    <glyph glyph-name="less" unicode="&#x3c;" horiz-adv-x="355" 
d="M350 250q0 -2 -15 -7q-162 -53 -239 -86q84 -65 146 -99q20 -11 20 -12q-3 -5 -26 3q-114 40 -211 102q-11 7 -10 9q0 1 20 8q146 49 296 83q18 4 19 -1z" />
    <glyph glyph-name="equal" unicode="=" horiz-adv-x="255" 
d="M229 178q0 1 -52 3q-42 2 -59 2t-64 -3q-33 -2 -34 0q-3 8 25 18q35 12 74 12q41 0 71 -8q44 -12 39 -24zM211 122q0 1 -52 3q-42 2 -59 2t-64 -3q-33 -2 -34 0q-3 8 25 18q35 12 74 12q45 0 71 -8q43 -13 39 -24z" />
    <glyph glyph-name="greater" unicode="&#x3e;" horiz-adv-x="355" 
d="M301 149q0 -1 -20 -8q-146 -49 -296 -83q-18 -4 -19 1q0 2 15 7q162 53 239 86q-84 65 -146 99q-20 11 -20 12q3 5 26 -3q116 -41 211 -102q11 -7 10 -9z" />
    <glyph glyph-name="question" unicode="?" horiz-adv-x="239" 
d="M301 381q0 -58 -78 -125q-38 -25 -114 -79q-32 -24 -42 -34q-19 -17 -27 -33q-10 -21 0 -23q5 -1 23 17q10 10 12 17q6 -4 7 -13q0 -8 -5 -13q-7 -8 -20 -11.5t-19 -1.5q-19 7 -11 35t53 72q36 30 94 81q66 61 66 111q0 25 -14.5 40.5t-37.5 14.5q-40 -1 -64 -40
q-14 -28 -11 -53t13 -40q-21 10 -26 33q-8 34 4 65q8 20 30 37q28 22 64 24q46 2 74.5 -19.5t28.5 -61.5zM53 23q-4 -34 -37 -36q-16 -1 -25 7t-8 23q1 13 11.5 25t24.5 13q16 1 25.5 -8.5t8.5 -23.5z" />
    <glyph glyph-name="at" unicode="@" horiz-adv-x="604" 
d="M583 220q-23 -83 -111 -146q-54 -39 -107 -39q-27 0 -35 12q-9 13 0 43q11 40 41 118q-37 -64 -80 -111q-45 -50 -73 -50q-40 0 -41 55q-1 29 17 68q27 60 84 104q53 41 96 39q30 -1 30 -26q9 16 13 21q12 16 26 13q22 -5 17 -18q-18 -44 -55 -139q-22 -59 -32 -94
q-5 -18 5 -21q7 -2 24 2q26 7 57 32q63 51 89 149q9 35 9 66q0 134 -153 137q-159 3 -264 -133q-66 -86 -69 -193q-2 -90 48 -138.5t147 -48.5q51 0 105 22q51 21 84 53l24 23q6 -4 -20 -30q-34 -34 -85 -57q-56 -26 -108 -26q-111 0 -176 51q-68 54 -65 149q4 120 81 208
q56 64 139 100q80 33 160 31q86 -2 136 -49t50 -119q0 -28 -8 -58zM392 273q2 6 2 11q0 19 -20 19q-61 0 -138 -163q-17 -36 -17 -59q0 -16 12 -16q20 0 60 46q35 40 68 94q20 33 33 68z" />
    <glyph glyph-name="A" unicode="A" horiz-adv-x="820" 
d="M951 523q-1 -4 -23 -1q-32 4 -77 14q-3 -31 -5 -43q-25 -136 -58 -238q-27 -82 -84 -197q45 50 82 63q9 2 9 -2q0 -2 -8 -6q-26 -12 -82 -73q-16 -18 -48 -55q-18 -24 -41 -24q-11 0 -3 16q6 14 16 37q48 110 91.5 245.5t60.5 221.5q6 28 12 66l-35 7q-93 -158 -222 -297
q29 -9 51 -13q59 -12 104 -15q13 -1 12 -2q0 -5 -18 -6q-66 -3 -135 8q-17 3 -34 8q-81 -81 -179 -149q-240 -167 -385 -167q-72 0 -77 33q-8 50 95 78q13 4 15 2q1 -2 -8 -6q-53 -21 -53 -59q0 -41 63 -36q130 11 327 168q85 68 164 147q-22 7 -39 15q-22 10 -16 22
q4 8 13 8q11 0 35 -11q18 -8 29 -12q116 117 240 288l-164 33q-86 18 -173 36q-90 17 -168 25q-24 3 -49 3q-174 0 -167 -108q2 -26 37 -61q29 -28 63 -48q9 -7 8 -7q-1 -2 -14 3q-128 53 -141 106q-3 11 -3 21q0 60 92 86q63 19 155 19q21 0 37 -1q114 -7 329 -53
q20 -4 167 -41q12 16 34 50q17 30 20 50q1 7 1 24q0 10 4 10q7 0 19 -18t18 -42q9 -39 7 -98q36 -9 77 -18q22 -5 22 -6zM803 642q-3 -10 -12 -27.5t-26 -47.5q10 -2 30 -8q4 34 8 83z" />
    <glyph glyph-name="B" unicode="B" horiz-adv-x="763" 
d="M719 161q-28 -109 -169 -176q-128 -61 -280 -61q-105 0 -176 31q-85 38 -83 109q1 45 46 78q40 31 94 39q7 0 7 -4q0 -3 -7 -3q-40 -9 -69 -40.5t-30 -67.5q-2 -63 69 -100q62 -32 150 -32q136 0 237 59q105 62 135 169q8 29 8 57q0 57 -34 100q-30 38 -76 53
q-51 -19 -92 -28t-87 -11q-13 -25 -37 -73q-112 -224 -166 -221q-21 1 -17 26q3 16 13.5 24.5t15.5 5.5q3 -2 0 -7q-5 -12 -8 -24q-3 -15 3 -15q12 0 28 40q29 76 103 245q-69 3 -64 27q5 25 96 39q59 119 116 209q-69 -5 -169 -5q-161 0 -151 56q5 27 65 44q56 16 116 12
q25 -2 25 -5q0 -2 -16 -2q-41 1 -82 -9q-59 -15 -59 -47q0 -40 102 -40q4 0 177 8q21 29 44 43q33 20 38 13q0 -1 -10 -14t-25 -40q20 2 38 2q83 1 128 -23t45 -73q-1 -80 -144 -148q158 -54 158 -175q0 -22 -6 -45zM636 529q10 83 -98 83q-32 0 -44 -1q-63 -130 -98 -208
q7 1 21 1q64 0 122 -15q84 36 97 140zM520 379q-41 14 -104 16q-14 0 -25 -1q-7 -17 -24 -51q59 1 153 36zM323 390q-54 -11 -57 -33q-2 -15 34 -15q8 16 23 48z" />
    <glyph glyph-name="C" unicode="C" horiz-adv-x="758" 
d="M295 -76q-129 -2 -205 43q-91 55 -81 167q8 95 72 191q59 89 149 155q179 133 384 155q20 2 41 2q140 0 154 -69q2 -8 2 -17q0 -55 -70 -94q-63 -35 -138 -35q-48 0 -82 15q-25 12 -39 30q-11 15 -8 19l12 -12q16 -17 39 -27q33 -15 78 -15q59 0 103 30q48 32 48 81
q0 11 -3 23q-14 60 -110 60q-14 0 -30 -1q-63 -5 -148 -42q-104 -46 -190 -120q-75 -65 -124 -151q-53 -92 -58 -179q-6 -99 55 -149q56 -44 158 -42q156 3 278 71q108 60 122 149q2 15 0 29q-3 19 -4 18q10 6 25 -13q11 -14 10 -34q-3 -80 -149 -160q-137 -75 -291 -78z
" />
    <glyph glyph-name="D" unicode="D" horiz-adv-x="975" 
d="M974 277q-33 -150 -159 -257q-111 -94 -288 -94q-148 0 -265 99q-37 31 -76 72q-79 -106 -101 -167l-6 -17q-7 0 0 27q6 24 33 86.5t47 98.5q-23 29 -48 54q-15 -17 -24 -40q-37 -92 -38 -153q-1 -54 15 -81l6 -11q-9 2 -16 15q-22 36 -22 79q0 98 30 168q19 44 31 45
q10 1 34 -6q29 -9 55 -33q22 43 41 75q34 58 80 124q43 61 192 225q-18 -2 -158 -19q-100 -12 -176 -13q-51 -1 -93 15q-48 19 -48 49q0 38 70 58q54 15 101 12q40 -2 36 -10q0 1 -26 2q-41 2 -81 -10q-55 -16 -55 -50q0 -44 114 -44q109 0 325 22q3 5 9 13t8 11l-34 -6
q39 32 53 42q21 15 25 13q5 -2 -3 -18q-11 -22 -32 -53q40 3 79 3q155 0 249 -53q58 -33 90 -90t32 -124q0 -30 -6 -59zM893 280q13 45 13 91q0 114 -74 166.5t-233 52.5q-37 0 -77 -3q-110 -188 -176 -279q-50 -62 -132 -173q23 -21 74 -69q136 -128 243 -128
q75 0 126.5 22t107.5 81q84 88 128 239z" />
    <glyph glyph-name="E" unicode="E" horiz-adv-x="633" 
d="M841 481q1 1 -13 9q-55 33 -226 83q-21 -45 -85 -175q-33 -67 -52 -102q31 -7 79 -16q76 -14 114 -15q9 0 8 -3q-1 -4 -17 -5q-77 -3 -141 8q-26 4 -54 10q-82 -148 -148 -214q166 -117 178 -125q115 -71 193 -71q84 0 119 62q5 9 7 8q3 -1 -1 -13q-9 -29 -38 -49
q-36 -25 -91 -25q-149 0 -323 124q-16 12 -77 56q-107 -88 -190 -81q-77 6 -77 66q0 10 2 11l8 -12q10 -15 24 -24q21 -15 52 -18q13 -1 24 -1q40 0 76 21q28 17 57 54q-43 34 -85 67q-67 51 -89 56q-20 5 -20 -5q0 -18 36 -54q42 -41 90 -53q-68 3 -107 36q-31 27 -31 59
q0 16 9 22q19 13 42 7q78 -20 183 -96q40 59 114 208q-29 9 -41 14q-18 8 -11 20q4 6 28 -1l34 -12q10 18 46 89q61 119 99 187q-75 24 -174 31q-32 2 -58 2q-172 0 -176 -116q-1 -29 31 -68q26 -32 57 -53q7 -7 7 -8q-1 -3 -13 4q-116 63 -124 113q-1 9 -1 18q0 80 120 112
q81 22 164 16q88 -6 182 -28q21 35 48 58q13 11 35 24q30 18 37 11q2 -2 -4 -6q-9 -8 -14 -14q-30 -39 -50 -86q137 -37 218 -101q15 -12 10 -16z" />
    <glyph glyph-name="F" unicode="F" horiz-adv-x="605" 
d="M846 481q1 1 -13 9q-55 33 -226 83q-25 -54 -84 -178q-30 -60 -51 -99q39 -9 77 -16q91 -17 135 -18q9 0 8 -3q-1 -4 -17 -5q-80 -3 -162 11q-13 2 -52 10q-77 -142 -168 -237q-111 -116 -212 -128q-17 -2 -32 -2q-86 0 -84 53q2 60 98 100q27 11 27 5l-22 -14
q-56 -36 -57 -77q-1 -26 20 -41.5t56 -10.5q86 11 171 127q56 75 138 241q-29 9 -41 14q-18 8 -11 20q4 6 28 -1l34 -12q10 18 46.5 89.5t96.5 187.5q-71 22 -172 30q-32 2 -58 2q-172 0 -176 -116q-1 -29 31 -68q26 -32 57 -53q7 -7 7 -8q-1 -3 -13 4q-116 63 -124 113
q-1 9 -1 18q0 80 120 112q81 22 164 16q93 -6 177 -26q7 13 40 48q18 20 52 34q30 12 33 9l-15 -19q-27 -35 -53 -87q137 -37 218 -101q15 -12 10 -16z" />
    <glyph glyph-name="G" unicode="G" horiz-adv-x="832" 
d="M834 575q0 -45 -62 -73q-54 -25 -121 -25q-40 0 -62 12q-26 14 -20 20q1 1 10 -5t12 -7q27 -10 59 -9q45 1 83 22q45 25 45 63q0 30 -47 46q-40 13 -99 12q-76 -1 -167 -37q-106 -41 -189 -115q-176 -157 -176 -330q0 -168 188 -168q16 0 32 1q142 11 262 97
q65 47 110 114q22 32 37 73q13 35 25 33q30 -6 30 -41q0 -13 -8.5 -28.5t-17.5 -28.5q-19 -49 -54 -136q15 8 30 15q24 11 42 15q5 2 6 -1q0 -3 -3 -5q-16 -7 -44 -20q-20 -10 -38 -22q-33 -76 -60 -122q-42 -72 -101 -117q-46 -36 -70 -36q-20 0 -15 33q8 48 67 119
q52 63 110 107q25 53 53 125q-29 -44 -93 -90q-135 -97 -304 -97q-112 0 -184 45q-80 49 -80 136q0 98 58 192q51 82 134 145q90 68 221 113q115 39 199 42q202 6 202 -67zM619 11q-41 -30 -92 -94q-32 -40 -47 -98q-6 -24 0 -27q12 -4 28 15q23 28 49 75q28 51 62 129z" />
    <glyph glyph-name="H" unicode="H" horiz-adv-x="933" 
d="M1041 618q-7 -19 -24 -71q-45 -140 -101 -264q-5 -11 -12 -25q14 -6 40 -17q10 -5 9 -7q-1 -3 -13 2q-25 10 -40 14q-42 -89 -126 -192q54 54 106 70q8 2 8 -2l-20 -13q-47 -30 -91 -69q-29 -24 -76 -72q-14 -14 -15 -14q-5 2 0 11l27 47q62 108 128 254q-53 16 -115 26
q-54 9 -109 12q-91 -153 -212 -268q-137 -130 -293 -130q-107 0 -108 97q-1 66 41 133q44 71 121 117q62 37 154 57t185 17q24 -1 52 -3q35 57 58 106q51 108 66 147q-34 8 -93.5 24t-94.5 24q-63 14 -119 19t-99 -17q-61 -31 -57 -108q2 -29 27 -67q20 -30 43 -49
q7 -7 6 -9q-1 -3 -10 4q-52 37 -65 49q-38 34 -44 64q-3 15 -3 28q0 120 210 117q80 -1 205 -35q68 -18 100 -31q3 8 10 32q2 9 8 8q5 -1 11 -20t5 -32q19 -6 61 -17q16 -4 16 -5q-1 -3 -17 -2q-26 5 -61 14q-10 -80 -44 -152q-17 -36 -50 -97q24 -2 100 -14q53 -8 118 -31
q6 11 12 24q34 74 101 235q12 20 30 57q5 11 11 17q11 11 37 18q4 1 6 -1q3 -3 0 -10zM547 310q-3 0 -14 1h-19q-80 0 -170 -22q-100 -23 -158 -61q-166 -108 -168 -224q-1 -83 96 -83q110 0 242 130q85 84 191 259z" />
    <glyph glyph-name="I" unicode="I" horiz-adv-x="445" 
d="M588 559q-1 -5 -17 -3q-10 2 -31 6q-8 -86 -46 -177q-70 -166 -176 -303q-67 -87 -143 -143q-65 -48 -107 -39q-38 8 -37 48q2 52 56 103q23 21 31 23q-9 -11 -16 -24q-36 -72 -36 -122q0 -20 13 -20q25 0 53 26q62 59 124 149q89 129 170 308q41 91 69 184
q-69 15 -127 30q-134 36 -209 43q-56 5 -98 -17q-59 -31 -53 -108q2 -29 29 -67q21 -30 44 -49l7 -9q-1 -3 -11 4q-102 66 -113 114q-4 16 -4 31q0 71 84 98q48 16 111 15q87 -2 227 -38q39 -12 115 -36q2 11 2 21q0 9 -2 16.5l-2 7.5q0 2 3 3q9 2 23 -15q16 -20 19 -46
l26 -7q22 -6 22 -7z" />
    <glyph glyph-name="J" unicode="J" horiz-adv-x="599" 
d="M722 558q-1 -2 -4 -2q-15 3 -44 9q-5 -74 -48 -175q-41 -95 -94 -193q-24 -44 -61 -101q62 22 92 40q23 13 20 15q8 -6 -22 -25q-44 -27 -102 -47q-52 -68 -98 -109q-79 -70 -175 -119q-89 -45 -157 -56q-18 -3 -35 -3q-71 0 -72 38q-1 70 176 152q88 41 285 92
q26 36 66 107q53 92 106 211q49 108 68 184q-74 15 -100 19q-64 9 -131 12q-121 5 -177 -18q-83 -33 -83 -131q0 -16 2 -34q8 -64 69 -116q8 -6 6 -8t-9 2q-35 17 -66 43q-41 36 -49 72q-5 21 -5 40q0 99 123 143q84 30 191 27q97 -3 231 -38q2 22 8 47q6 3 19 -11
q16 -17 22 -47q17 -5 33 -11.5t15 -8.5zM372 58q-88 -32 -265 -105q-168 -77 -165 -123q2 -30 53 -30q14 0 33 3q58 9 133 52.5t131 103.5q44 47 80 99z" />
    <glyph glyph-name="K" unicode="K" horiz-adv-x="714" 
d="M618 663q2 -1 -5 -7q-10 -9 -17 -17q-19 -24 -36 -57q7 -3 20 -9.5t12 -9.5q-1 -2 -16 3q-6 3 -20 7q-30 -69 -125 -268q-89 -175 -189 -284q-112 -121 -205 -123q-65 -1 -65 51q0 6 1 8q-1 -2 15 -17q21 -20 64 -20q81 0 153 104q34 49 154 283q66 128 150 284
q-34 12 -97 29q-106 29 -212 32q-60 2 -99 -19q-61 -31 -57 -111q1 -31 26 -71q20 -32 43 -52q8 -7 6 -9t-9 3q-102 65 -112 117q-3 14 -3 27q0 79 93 112q55 19 125 19q83 0 199 -30q45 -12 104 -36q6 11 19 23q40 39 77 39q4 0 6 -1zM974 552q-1 -12 -6 -22.5t-9 -10.5
q1 0 -4 20q-10 40 -56 40q-63 0 -174 -82q-38 -28 -182 -157q-14 -12 -15 -19t8 -33q35 -98 81 -186q67 -130 104 -177q63 -81 132 -81q41 0 68 24q24 21 31 55q3 15 4 15q4 0 10 -10.5t4 -22.5q-5 -33 -44 -53q-34 -18 -75 -18q-164 0 -295 247q-64 120 -89 206
q-7 23 -4 30q1 3 22 21q105 91 225 175q75 53 111 72q52 28 91 28q66 0 62 -61z" />
    <glyph glyph-name="L" unicode="L" horiz-adv-x="365" 
d="M774 580q-3 -43 -37 -75q-5 -5 -8 -1q1 -1 6 8q21 29 21 62q0 73 -85 73q-83 0 -162 -65q-66 -54 -161 -184q-102 -139 -169 -255q39 -55 115 -134q159 -166 266 -166q61 0 100 52q7 9 8 9q2 -1 1 -3q0 -3 -2 -8q-36 -83 -129 -83q-64 0 -114 27q-57 30 -142 117
q-73 75 -122 156q-65 -109 -92 -179q-8 -21 -9 -21q-7 5 -1 42q14 82 69 204q-20 39 -46 69q-18 -11 -34 -39q-48 -82 -48 -213q0 -31 9 -58q3 -9 14 -23q-15 7 -28 29q-25 42 -29 102q-8 103 55 181q25 31 46 33q14 1 39 -8q11 -3 37 -41q56 118 144 228q78 98 192 174
q118 79 195 79q51 0 79 -28q24 -25 22 -61z" />
    <glyph glyph-name="M" unicode="M" horiz-adv-x="1038" 
d="M1095 586q10 -11 10 -31q0 -25 -15 -70q-28 -85 -83 -222q-42 -104 -102 -216q55 62 89 73q5 1 8 -2q-5 -3 -16 -10q-32 -21 -74 -76q-13 -17 -52 -56q-29 -29 -31 -29q-18 4 -18 21q0 4 2 7q12 22 17 32.5t108 257.5q65 156 112 261q6 13 13 31q5 13 2 13q-1 1 -8 -9.5
t-20 -31.5q-48 -79 -153 -215q-79 -102 -183 -206q-92 -92 -133 -119q-10 -12 -27.5 -21t-25.5 -7q-12 2 5 27q8 12 15 20q20 48 51 135q44 123 74 223l65 214l-10 1q-66 -111 -161 -232q-91 -117 -168 -191q-127 -122 -255 -191q-112 -59 -185 -60q-94 -1 -94 45
q0 49 88 73q15 4 17 2q0 -2 -8 -5q-26 -9 -44 -30.5t-13 -40.5q7 -29 61 -29q157 0 453 289q158 154 296 372q-29 5 -94 16q-173 29 -183 30q-100 15 -179 17q-82 3 -139 -18q-84 -30 -78 -103q2 -28 36 -62q30 -31 63 -46q12 -5 11 -7t-14 2q-131 40 -148 101q-4 14 -4 27
q0 69 111 100q81 22 174 17q160 -8 342 -38q42 -7 110 -22q22 34 35.5 65t22.5 59q3 10 7 9q12 -2 18 -34t0 -71q-4 -28 -7 -40q52 -7 112 -10l23 -1q0 -7 -24 -7q-55 0 -114 5q-28 -127 -55 -215q-28 -94 -82 -223q-28 -67 -56 -113q41 34 96 91q112 115 186 209
q95 122 151 209q23 36 34 51q8 11 19 11q13 0 19 -6zM740 629q-2 -3 -9 -16.5t-9 -17.5l7 -1q4 11 11 35z" />
    <glyph glyph-name="N" unicode="N" horiz-adv-x="810" 
d="M1074 587q-36 4 -72.5 -19.5t-89.5 -106.5q-34 -53 -81 -148q-59 -119 -96 -206q-21 -48 -47.5 -105.5t-44.5 -54.5q-15 3 -7 34q3 13 12 27q8 48 1 143q-7 93 -24 202q-13 82 -34 142q0 -12 -6 -34q-40 -143 -121 -263q-100 -147 -228 -229q-121 -77 -221 -70
q-41 3 -66.5 24.5t-23.5 53.5q3 37 40 50q-9 -18 -7 -45q5 -61 74 -67q188 -16 409 307q105 154 133 240q14 43 1 71q-69 152 -242 152q-80 0 -130 -51.5t-48 -129.5q2 -114 99 -155q11 -4 10 -6q-1 -4 -17 0q-139 38 -144 163q-3 81 67.5 136t172.5 55q218 0 299 -172
q37 -78 53 -182q15 -98 11 -189q-4 -74 -15 -129q9 29 34 93q45 117 91 217q52 114 82 161q41 64 85 92q26 16 52 16q32 0 39 -17z" />
    <glyph glyph-name="O" unicode="O" horiz-adv-x="654" 
d="M635 498q24 -66 24 -141q0 -114 -53.5 -209.5t-150.5 -157.5q-100 -63 -203 -63q-104 0 -168 70q-61 67 -61 171q0 82 29 152q30 74 77 121q-13 24 -15 48q-7 77 54 129q58 50 147 51q119 2 195 -64q47 -41 69 -100q9 -24 -3 -26q-13 -2 -19 20q-9 30 -18 40
q-30 31 -83 33q-81 3 -143 -36q-76 -48 -135 -136q32 -48 87 -68q11 -4 10 -6t-3 -2q-4 0 -13 3q-61 22 -93 56q-14 -22 -39 -68q-51 -106 -51 -191q0 -20 2 -40q9 -70 54 -108.5t115 -38.5q85 0 165 67q65 55 115 145q85 154 85 281q0 149 -134 229q-6 2 -3 5q3 2 9 -1
q41 -21 80 -60q51 -50 71 -105zM532 557q-32 45 -86 73q-60 31 -131 30q-76 -1 -125.5 -51t-42.5 -129q1 -9 4 -19q55 61 150 97q72 28 154 23q45 -3 77 -24z" />
    <glyph glyph-name="P" unicode="P" horiz-adv-x="633" 
d="M761 399q-41 -163 -309 -157q-78 2 -145 35q-142 -265 -234 -349q-35 -32 -59 -28q-42 7 -42 69q0 61 69 134q15 16 32 26t19 7l-8 -8q-13 -12 -26 -31q-47 -71 -51 -149q-2 -36 12 -39t43.5 32.5t84.5 147.5q100 207 106 218q-65 46 -52 59q1 0 11 -13q12 -16 45 -38
q13 27 43 87q68 132 104 187q-33 2 -132 9q-152 11 -147 48q3 26 70 40q56 11 103 8q24 -2 24 -5q0 -4 -16 -3q-123 5 -130 -39q-4 -28 99 -37q40 -2 135 -10q9 12 19 23q31 35 66 54q30 17 35 12q1 -1 -15 -21q-30 -37 -48 -72q18 -1 49 -5q249 -30 249 -160q0 -15 -4 -32z
M684 401q9 31 9 54q0 102 -182 125q-28 4 -49 5q-24 -48 -86 -177q-20 -40 -64 -121q60 -31 136 -32q84 -1 143 30q71 38 93 116z" />
    <glyph glyph-name="Q" unicode="Q" horiz-adv-x="614" 
d="M682 511q6 -24 6 -52q0 -150 -140 -310q-75 -86 -235 -189q-39 -22 -109 -61q123 40 210 40q157 0 157 -78q0 -26 -19 -45q-10 -10 -13 -7q1 -2 10 13q5 9 5 18q-1 32 -55 51q-46 17 -98 17q-106 0 -208 -26q-21 -5 -32 -9q-63 -50 -142 -88l-84 -38q-8 -4 -9 -3
q-3 3 3 10q31 41 68 64q58 35 171 72q50 30 88 58q115 84 218 213q151 190 151 322q0 14 -2 28q-7 56 -46 85q-32 24 -75 24q-91 0 -187 -60q-112 -71 -196 -213q-94 -160 -95 -259q-2 -107 93 -107q75 0 174 74q63 47 103 101q31 42 37 70q3 16 1 31q-2 11 -1 11
q12 4 12 -29q0 -9 -2 -19q-6 -34 -31 -76q-36 -64 -98 -110q-85 -63 -189 -63q-74 0 -113 41t-39 113q0 115 73 231q82 129 218 210q107 64 240 64q59 0 107 -27q58 -32 73 -92zM139 -134q-80 -29 -139 -64q-22 -13 -51 -37q97 40 190 101z" />
    <glyph glyph-name="R" unicode="R" horiz-adv-x="573" 
d="M832 -86q-5 -33 -46 -54q-35 -18 -77 -18q-162 0 -295 249q-23 44 -48 101q-16 36 -31 72q-28 5 -46 12q-131 -243 -238 -341q-42 -39 -75 -35q-34 4 -33 41q1 63 65 116q15 13 28 17q-7 -7 -17 -24q-42 -72 -42 -126q0 -14 7 -15q17 -4 47 29.5t88 146.5l112 220
q-22 10 -32 18q-33 26 -33 41q0 4 2 8q7 8 26 8q37 0 68 -17q15 27 39 74q67 127 108 187q-65 7 -158 6q-105 -1 -175 -23q-116 -37 -106 -125q4 -31 33 -61t71 -47q9 -4 8 -6t-14 1q-132 30 -147 102q-3 13 -3 25q0 88 141 126q84 22 192 22q60 0 165 -9q9 11 31 32
q22 17 45 24q20 6 23 3l-14.5 -16.5t-34.5 -50.5q35 -3 71 -15q187 -60 187 -170q0 -15 -4 -31q-21 -83 -124 -126q-85 -35 -182 -31q-12 1 -21 2q0 -1 86 -150q88 -153 107 -178q57 -74 125 -74q41 0 68 24q25 21 32 55l3 15q6 0 13 -11t5 -23zM641 414q6 24 6 45
q0 92 -119 139q-26 10 -67 18q-25 -53 -98 -202q-28 -56 -44 -83q39 -26 68 -65q16 -2 27 -2q84 -1 143 35q64 39 84 115zM254 349q-31 21 -57 21q-7 0 -12 -5q-1 -2 -1 -4q0 -13 24 -32q9 -7 27 -16q7 14 19 36zM331 275q-9 23 -22 38q-2 -4 -7.5 -14t-7.5 -14
q12 -5 37 -10z" />
    <glyph glyph-name="S" unicode="S" horiz-adv-x="813" 
d="M846 365q0 -179 -222 -322q-109 -70 -212 -97q-89 -23 -219 -23q-88 0 -144 35q-67 42 -67 125q0 86 63 164q65 82 178 131q125 55 269 48q70 -3 111 -27q45 -25 41 -68q-6 -58 -68 -109q-53 -42 -120 -62.5t-134 -20.5q-40 0 -40 23t32 28q14 2 14 -3q0 -3 -13 -6
q-25 -5 -24 -18q1 -9 29 -9q63 0 170 52q136 66 141 128q5 64 -135 64q-122 0 -254 -58q-100 -44 -169 -111q-78 -76 -79 -147q-1 -140 199 -140q188 0 407 138q235 148 235 285q0 48 -35 66q-28 14 -91 14q-12 0 -75 -2q-91 -3 -139 23t-44 76q5 59 91 100q78 37 163 35
q46 -1 77.5 -14t29.5 -28q-1 -13 -24 -13q-11 0 -12 4q-1 3 8.5 7t9.5 7q0 7 -85 8t-161 -27q-84 -30 -88 -76q-3 -41 93 -41q15 0 42.5 1t38.5 1q106 0 157 -30q55 -34 55 -111z" />
    <glyph glyph-name="T" unicode="T" horiz-adv-x="619" 
d="M950 502q0 -1 -30 11q-113 44 -198 65q-6 -83 -54 -190q-77 -170 -175 -287q-70 -84 -177 -137q-100 -50 -184 -50t-132 29t-48 81q0 31 17 56q7 10 11 9q-5 -39 -5 -32q0 -45 28 -80q43 -54 131 -54q69 0 148 49q73 45 133 117q100 121 185 302q56 121 75 199
q-179 44 -277 46q-76 1 -135 -21q-85 -33 -75 -107q7 -57 99 -116q8 -6 7 -9q-1 -1 -12 4q-132 62 -144 112q-3 14 -3 26q0 74 116 105q70 18 157 17q149 -2 272 -31q-1 23 2 47q4 1 17 -14q17 -18 23 -44q83 -23 201 -83q29 -15 27 -20z" />
    <glyph glyph-name="U" unicode="U" horiz-adv-x="791" 
d="M995 600q-10 -2 -26 -8q-35 -17 -77 -80q-35 -53 -75 -140q-65 -142 -108 -246q-28 -67 -59 -146q26 29 57 40q5 1 8 -1q0 -2 -6 -5q-10 -4 -12 -6q-26 -18 -47 -44q-39 -48 -46 -48q-3 0 -14 4q-18 7 -11 26q27 80 70 182q-107 -176 -236 -176q-118 0 -222 92
q-66 -41 -136 -41q-22 0 -35 6t-10 11l12 -4q8 -3 18 -3q59 0 131 51l-33 33q-27 28 -72 69q-18 14 -30 7q-19 -11 10 -45q27 -30 47 -36q-48 -2 -68 28q-8 12 -8 26q0 22 15 34q19 16 45 3q34 -17 79 -52q19 -15 52 -42q25 19 41 34q72 71 146 207q65 119 67 207
q3 110 -110 112q-81 1 -173 -98q-85 -92 -85 -164q0 -46 45 -46q33 0 64 19q12 7 13 6q3 -4 -11 -13q-33 -21 -66 -21q-56 0 -62 59q-10 91 76 184q37 40 93 63t110 22q71 -1 116 -39q48 -41 48 -110q0 -87 -55.5 -190.5t-162.5 -195.5q-34 -29 -73 -55q112 -99 188 -102
q121 -5 253 215q34 81 70 155q51 105 87.5 155t86.5 82q39 25 67 29q7 1 11 0t3 -4z" />
    <glyph glyph-name="V" unicode="V" horiz-adv-x="664" 
d="M862 582q0 -25 -16 -63q-28 -68 -86 -144q6 -13 19 -38q-14 10 -26 29q-13 -17 -33 -38q-69 -75 -173 -173t-301 -218q-40 -24 -57 -22q-10 1 -10 13q0 16 20 46q104 155 175 334q55 139 55 225q0 130 -113 135q-90 4 -179 -62q-64 -47 -103 -107q-43 -65 -39 -122
q3 -44 48 -46q24 -1 64 15l14 5q3 -3 -11 -11q-32 -18 -66 -18q-27 0 -47.5 15.5t-23.5 43.5q-1 11 -1 22q0 118 124 212q93 71 221 64q148 -8 174 -118q6 -25 6 -53q0 -80 -55 -214q-23 -57 -75 -149q-53 -95 -100 -160q-21 -30 -20 -32q2 -4 33 17q121 82 238 193
q75 71 179 198q18 22 33 43q-21 45 -21 91q0 40 17 71q15 28 44 44q26 15 51 15q41 0 41 -43zM825 614q-38 0 -76 -70q-19 -35 -19 -81q0 -26 7 -50q55 74 96 152q10 20 10 33q0 16 -18 16z" />
    <glyph glyph-name="W" unicode="W" horiz-adv-x="1141" 
d="M1312 518q4 -43 -25.5 -69.5t-80.5 -26.5q-41 0 -83 14q-7 3 -67 28q-16 7 -41 21l14 -14q92 -100 92 -206q0 -111 -79 -216q-84 -114 -192 -110q-82 3 -137 68q-62 71 -62 191q0 129 46 241q-23 -38 -61 -87q-50 -65 -179 -184q-38 -35 -119.5 -95.5t-126.5 -87.5
q-14 -19 -45 -58q-24 -25 -39 -23q-16 2 -16 16q0 6 4 13q16 31 53 60q129 167 201 315q38 78 53 123q24 72 20 134q-3 45 -33.5 73t-77.5 30q-91 3 -179 -62q-64 -47 -103 -107q-43 -65 -39 -122q3 -44 48 -46q32 -1 64 15q13 6 14 5q3 -3 -11 -11q-29 -18 -66 -18
q-27 0 -47.5 15.5t-23.5 43.5q-1 11 -1 22q0 118 124 212q94 71 221 64q70 -4 116 -34.5t56 -81.5q5 -24 5 -49q0 -53 -23 -113q-13 -36 -50 -107q-54 -105 -199 -275q135 88 216 164q120 112 178 183q38 47 80 118q14 45 37 88q15 28 30 23q16 -5 8 -32q-4 -14 -44 -67
q-25 -112 -25 -239q0 -111 21 -187q33 -116 112 -120q100 -5 166 122q55 107 55 219q0 103 -51 173q-18 25 -40 32q-43 14 -57 24q-8 5 -5 13q2 5 16 2q38 -8 71 -38q23 -11 51 -22q80 -30 145 -30q47 0 73.5 20.5t26.5 53.5q0 11 -5 26q-3 8 -1 9q3 1 8 -7q8 -13 9 -29z
" />
    <glyph glyph-name="X" unicode="X" horiz-adv-x="656" 
d="M958 552l-13 14q-16 16 -44 18q-72 5 -149 -55q-71 -54 -176 -156q0 -101 -7 -169q-11 -110 -30 -166q29 55 73 69q9 5 9 -1q0 1 -17 -10q-24 -16 -53 -55q-11 -17 -37 -55q-14 -19 -28 -17q-25 4 -20 14q6 13 11 30q10 36 28 193q7 60 7 111q-41 -44 -142 -151
q-54 -55 -99 -92q-27 -22 -49 -36q34 -25 50 -35q35 -20 58 -22q66 -5 96 55q5 10 8 8t-5 -19q-31 -61 -108 -60q-68 1 -137 49q-54 -31 -99 -31q-18 0 -31.5 6t-9.5 12q0 1 11.5 -4t26.5 -5q37 0 89 32q-12 9 -31 24.5t-75 69.5q-16 15 -24 15q-3 0 -6 -2q-13 -9 9 -43
q19 -30 37 -40q-26 2 -44 18.5t-18 41.5q0 22 12 29q12 10 44 -2q29 -11 94 -56q17 -12 40 -31q22 14 46 34q59 49 104 95q69 71 152 163q0 108 -9 164q-24 150 -135 150q-95 0 -192 -86q-111 -99 -111 -191q0 -43 45 -47q30 -3 65 14q15 7 15 6q2 -3 -12 -11
q-34 -19 -68 -17q-55 4 -64 57q-2 10 -2 21q0 47 29 98t72 85q102 81 224 81q157 0 192 -144q16 -66 16 -125q90 96 156 148q96 75 169 69q30 -3 46 -23q13 -15 13 -31q0 -5 -2 -6z" />
    <glyph glyph-name="Y" unicode="Y" horiz-adv-x="735" 
d="M837 522q-13 -26 -41 -60q-36 -139 -87 -250q-121 -265 -284 -413q-186 -169 -377 -169q-40 0 -60 18q-15 13 -15 30q0 6 3 8q-1 -1 17 -11q23 -13 65 -15q96 -6 169 30q61 29 141 108q152 149 290 444q23 48 73 157q-95 -162 -247 -295q-130 -114 -216 -143
q-27 -9 -44 -9q-36 0 -36 36q0 15 7 29.5t73 117.5t101 173q79 162 73 257q-6 96 -103 100q-85 3 -174 -53q-70 -44 -118 -105q-56 -70 -53 -130q2 -44 46 -46q29 -1 66 16q13 6 13 5q2 -4 -11 -11q-36 -19 -68 -19q-24 0 -41 13q-21 15 -22 41q-3 62 34 128q33 61 85 99
q47 35 113.5 55t126.5 18q77 -3 123.5 -44.5t49.5 -104.5q3 -57 -18 -118q-15 -43 -54 -115q-33 -63 -175 -276q-21 -31 -15 -40q7 -11 36 2q81 36 197 137q151 132 266 331q11 29 36 84q23 43 48 36q13 -4 13 -22q0 -11 -6 -24z" />
    <glyph glyph-name="Z" unicode="Z" horiz-adv-x="440" 
d="M693 653q3 -3 3 -9q0 -21 -29 -47q-8 -7 -40 -36q26 -17 41 -33q9 -10 5 -12l-9 7q-21 15 -47 27q-219 -208 -406 -409q48 -76 95 -131q86 -102 156 -102q65 0 100 56q7 11 9 10q4 -2 -1 -12q-36 -69 -112 -71q-103 -3 -181 89q-31 37 -89 138q-86 -84 -134 -161l-17 -27
q-2 1 -3 5q0 5 2 16q17 81 128 208q-11 22 -30 55q-19 -8 -42 -40q-85 -119 -91 -208q-1 -16 4 -37l3 -11q-5 -3 -13 14q-11 23 -11 49q0 116 82 213q26 31 44 33q19 2 32 -3q20 -6 42 -44q86 104 192 213q81 83 200 179q-49 23 -99 39q-53 18 -76 24q-47 13 -95 19
q-18 2 -35 2q-129 0 -131 -105q-1 -27 23 -62q18 -28 40 -47q7 -6 6 -8q-2 -2 -10 3q-97 57 -97 120q0 64 75 92q51 20 124 20q16 0 27 -1q72 -6 160 -36q42 -14 103 -48q12 11 32 26l-1 12q18 4 37 20q23 19 34 11z" />
    <glyph glyph-name="bracketleft" unicode="[" horiz-adv-x="354" 
d="M535 644q-1 -6 -14 -6h-111l-352 -793h113q22 0 22 -6t-18 -6h-142q-27 0 -27 14q0 10 11 33q65 140 330 740q9 21 17 25.5t35 4.5h118q19 0 18 -6z" />
    <glyph glyph-name="backslash" unicode="\" horiz-adv-x="165" 
d="M131 -130q-6 -4 -17 27q-51 142 -60 286q-2 30 -2 61q0 131 34 259q9 35 17 34q2 -1 0 -35q-7 -156 2 -345q7 -143 24 -261q4 -24 2 -26z" />
    <glyph glyph-name="bracketright" unicode="]" horiz-adv-x="354" 
d="M415 603q-65 -140 -330 -740q-9 -21 -17 -25.5t-35 -4.5h-118q-19 0 -18 6t14 6h111l352 793h-113q-22 0 -22 6t18 6h142q27 0 27 -14q0 -10 -11 -33z" />
    <glyph glyph-name="asciicircum" unicode="^" horiz-adv-x="500" 
d="M391 189q-4 -2 -13 9q-38 44 -61 81q-53 -37 -178 -88q-21 -9 -24 -4q-2 4 12 12q63 36 186 132q15 12 24 12q7 0 12 -16q24 -83 42 -124q5 -12 0 -14z" />
    <glyph glyph-name="underscore" unicode="_" horiz-adv-x="500" 
d="M410 -252h-508v47h508v-47z" />
    <glyph glyph-name="grave" unicode="`" 
d="M266 309q-17 -1 -52.5 15t-56.5 33.5t-21 33.5t19 16q16 0 34.5 -21t36.5 -43q24 -25 40 -34z" />
    <glyph glyph-name="a" unicode="a" horiz-adv-x="289" 
d="M275 264q-18 -44 -55 -139q-20 -52 -59 -120q29 35 58 58q22 17 36 22q6 3 7 1q2 -3 -5 -6q-13 -7 -41 -32q-13 -12 -47 -49q-23 -25 -40 -23q-12 1 -12 15q0 7 4 16q20 43 65 162q-37 -64 -80 -111q-45 -50 -73 -50q-40 0 -41 55q-1 29 17 68q27 60 84 104q53 41 96 39
q30 -1 30 -26q9 16 13 21q12 16 26 13q22 -5 17 -18zM207 234q2 6 2 11q0 19 -20 19q-61 0 -138 -163q-17 -36 -17 -59q0 -16 12 -16q20 0 60 46q35 40 68 94q20 33 33 68z" />
    <glyph glyph-name="b" unicode="b" horiz-adv-x="246" 
d="M276 514q0 -1 -5 -4q-9 -5 -18 -14q-15 -15 -52 -79q-40 -68 -73 -138q-64 -138 -85 -228q-10 -43 11 -46q20 -3 50 37q26 34 44 79.5t23 76.5q7 39 -20 56q-18 11 -5 23q10 9 27 -10q9 -10 15 -22q10 -12 26 -12q10 0 22 4t10 6q5 -3 -6.5 -12t-24.5 -9q-12 0 -19 4
q14 -21 14 -54q0 -32 -12 -59q-24 -56 -68 -90q-41 -30 -78 -28q-57 4 -52 76q5 76 73 213q77 155 160 215q14 10 28 15q13 4 15 0z" />
    <glyph glyph-name="c" unicode="c" horiz-adv-x="194" 
d="M214 272q1 -15 -17 -27q-10 -5 -11 -2q-1 1 2 9.5t3 16.5q0 10 -7 11q-29 4 -73 -59t-63 -133q-9 -33 -9 -52q0 -25 18 -25q22 0 49 30.5t48 73.5l10 22q6 -1 -4 -27q-18 -44 -48.5 -78.5t-67.5 -34.5q-55 0 -57 55q-2 57 35 118q70 117 162 118q29 0 30 -16z" />
    <glyph glyph-name="d" unicode="d" horiz-adv-x="247" 
d="M312 268q-8 -8 -34 4q-14 7 -26 15q-12 -88 -57 -165q-33 -56 -75 -92q-45 -39 -81 -35q-48 6 -48 68q0 37 24 88q45 96 152 120q18 4 18 -1q0 -1 -16 -7q-62 -22 -106 -126q-30 -70 -30 -108q0 -21 11 -23q18 -4 52 39q39 51 69 133q14 39 22 63q12 42 17 75
q-9 8 -24 26q-37 50 -37 87q0 45 28 47q27 2 51 -26t31 -77q4 -28 0 -73q12 -12 34 -24q8 -5 18 -6q7 -1 7 -2zM208 368q-2 49 -16 78q-12 23 -23 23q-5 0 -5 -23q0 -21 3 -36q9 -45 39 -82q3 19 2 40z" />
    <glyph glyph-name="e" unicode="e" horiz-adv-x="204" 
d="M233 267q0 -21 -19 -36q-32 -25 -74 -21q-16 2 -29 8q-18 -26 -28 -45q-29 -59 -42 -105q-5 -19 -5 -33q0 -24 14 -28q16 -4 39 14t40.5 46.5t25.5 62.5q3 12 6 12q4 0 3 -11q-1 -28 -25 -69q-45 -78 -99 -70q-51 8 -51 67q0 14 3 29q12 60 55 109q78 90 159 89
q27 0 27 -19zM201 265q0 10 -12 10q-17 0 -42 -19q-21 -16 -31 -31q13 -7 27 -7q21 -1 40 15.5t18 31.5z" />
    <glyph glyph-name="f" unicode="f" horiz-adv-x="182" 
d="M397 493q-3 -23 -41 -45q-15 -8 -16 -4l9 9q15 15 15 30q0 25 -25 25q-67 0 -133 -126q-24 -45 -55 -123q15 0 42 -2q39 -3 38 -8q0 -1 -37 -1q-17 0 -49 -2q-27 -68 -91 -226q-63 -148 -146 -236q-93 -98 -191 -98q-35 0 -57 21q-20 18 -14 27l16 -9q22 -12 57 -12
q113 0 175 82q32 43 105 218q39 95 57 147q7 19 4 42q-3 28 -27 37q-12 5 -10 9q3 8 30 10q15 1 43 1q28 70 60 120q40 61 93 100q59 43 113 43q39 0 35 -29zM90 245q-18 0 -34 -2q18 -20 9 -61z" />
    <glyph glyph-name="g" unicode="g" horiz-adv-x="272" 
d="M276 266q1 -9 -7 -14.5t-11 -3.5q1 2 -2 14t-20 12q-31 0 -70 -23q-68 -41 -118 -149q-15 -32 -17 -61q-1 -16 8 -18q17 -3 52 34q39 42 82 112q12 17 34 41q17 13 43 22q11 3 12 1l-9 -9q-13 -28 -42 -97q-19 -48 -53 -137q8 5 27 13q13 6 28 8q10 2 10 -1
q0 -2 -7.5 -4.5t-28.5 -11.5q-14 -6 -35 -20q-32 -67 -75 -126q-23 -32 -62.5 -63t-56.5 -31q-20 0 -16 23q7 42 53 103q39 52 101 89q7 16 69 172q-37 -59 -72 -96t-59 -37q-44 0 -45 53q-1 30 15 64q40 86 128 128q61 29 106 29q36 0 38 -16zM91 -47q-44 -26 -81 -77
q-24 -32 -39 -86q-5 -17 2 -18t21 11q24 21 48 65q26 48 49 105z" />
    <glyph glyph-name="h" unicode="h" horiz-adv-x="259" 
d="M160 22q-3 -12 1 -14t23 12q9 6 10 5q3 -2 -6 -11q-38 -38 -66 -34q-19 2 -15 30q5 41 39 123q14 32 40 95q4 10 1 12q-4 2 -12 -6q-41 -41 -76 -84q-19 -23 -79 -122q-5 -6 -15.5 -21t-26.5 -9q-10 3 -1 28q22 63 45 122q18 49 60 148q36 75 76 130t103 90q27 15 31 11
q1 -1 -4 -5q-10 -6 -19 -15q-34 -33 -68 -89q-42 -69 -86 -167q-29 -65 -57 -139q29 38 64 79q44 51 74 75q27 22 46 16q16 -5 5 -32q-17 -41 -51 -124q-13 -33 -36 -104z" />
    <glyph glyph-name="i" unicode="i" horiz-adv-x="157" 
d="M212 440q-20 -24 -45 -62q-3 -9 -6.5 -17t-13.5 -8t-16 9.5t-4 19.5q4 16 34 35q25 16 51 23zM152 278q-27 -46 -61 -130q-25 -61 -43 -118q24 22 47 33q10 5 10 1q0 -1 -17 -13t-42 -37q-34 -34 -42 -34q-17 0 -17 16q0 5 2 12q14 46 49 140q15 38 53 112q-11 -6 -18 -7
q-12 -2 -12 3q0 2 15 7q37 12 62 24q13 6 16 3q4 -2 -2 -12z" />
    <glyph glyph-name="j" unicode="j" horiz-adv-x="152" 
d="M202 440q-20 -24 -45 -62q-3 -9 -6.5 -17t-13.5 -8t-16 9.5t-4 19.5q4 16 34 35q25 16 51 23zM143 281q-17 -47 -50 -133q-32 -82 -64 -148q6 4 23 12q12 5 29 9q9 0 9 -2t-8.5 -4.5t-28 -11.5t-30.5 -17q-34 -72 -60 -113q-34 -53 -78 -89q-40 -34 -65 -34q-18 0 -13 30
q7 47 53 104q41 50 106 91q29 59 74 173q26 66 41 112q-11 -6 -18 -7q-12 -2 -12 3q0 2 15 7q39 13 66 26q9 4 12 2q2 -2 -1 -10zM-38 -38q-57 -38 -91.5 -87t-42.5 -93q-3 -17 2 -19q6 -3 22 13t50 72q38 62 60 114z" />
    <glyph glyph-name="k" unicode="k" horiz-adv-x="288" 
d="M450 -84q-1 -27 -33.5 -44.5t-72.5 -16.5q-107 3 -178 175q-39 93 -45 177q-46 -125 -88 -193q-5 -8 -13 -19t-20 -8q-18 4 -18 28q0 40 13 73q22 56 71 107q23 63 40 100q34 74 72 128q43 61 100 91q34 18 39 13l-22 -22q-35 -35 -70 -90q-32 -50 -71 -131
q-7 -15 -24 -53q62 59 123 59q45 0 45 -27q0 -24 -31 -39.5t-78 -15.5q-15 0 -21 1q9 -69 46 -168q66 -177 138 -179q71 -2 82 79l5 -1q11 -9 11 -24zM246 254q0 16 -23 16q-40 0 -91 -47q26 -7 57 -5q57 4 57 36zM60 179q-34 -44 -51 -88t-15 -89q13 20 36 90q15 44 30 87z
" />
    <glyph glyph-name="l" unicode="l" horiz-adv-x="149" 
d="M280 512q0 -1 -5 -4q-9 -5 -18 -14q-17 -17 -54 -79q-42 -72 -73 -141q-64 -144 -86 -228q-10 -36 -1 -38q14 -3 40 40q10 16 11 16q7 -2 -6 -23q-34 -56 -65 -55q-33 1 -29 50q2 26 11 55q32 102 76 194q72 149 156 212q14 10 28 15q13 4 15 0z" />
    <glyph glyph-name="m" unicode="m" horiz-adv-x="398" 
d="M386 250q-17 -41 -51 -124q-13 -33 -36 -104q-3 -13 2 -14t22 12q8 7 10 5q3 -2 -6 -11q-38 -38 -66 -34q-18 2 -16 29q3 33 40 124q14 32 40 95q4 10 1 12q-4 2 -12 -6q-44 -44 -75.5 -83.5t-49.5 -70.5q-14 -23 -28 -47q-5 -8 -19 -22q-17 -17 -28 -13q-7 2 2 28
q10 32 39 107q14 32 40 95q4 10 1 12q-4 2 -12 -6q-41 -41 -76 -84q-25 -30 -78 -118q-5 -6 -15.5 -21.5t-23.5 -10.5t-4 30q17 48 44 118q24 62 41 108q4 11 -4 11q-5 0 -17 -6t-13 -6t-1 1q-1 3 4 7q33 30 65 33q24 2 24 -16q0 -5 -2 -11q-21 -53 -61 -157q29 38 64 79
q44 51 74 75q27 22 46 16q16 -5 5 -32q-20 -47 -54 -131q21 27 59 72q43 50 74 75q27 22 46 16q16 -5 5 -32z" />
    <glyph glyph-name="n" unicode="n" horiz-adv-x="268" 
d="M256 250q-17 -41 -51 -124q-13 -33 -36 -104q-3 -12 1 -14t23 12q9 6 10 5q3 -2 -6 -11q-38 -38 -66 -34q-19 2 -15 30q5 41 39 123q14 32 40 95q4 10 1 12q-4 2 -12 -6q-41 -41 -76 -84q-19 -23 -79 -122q-5 -6 -15 -20.5t-23 -9.5t-5 28q29 77 86 230q4 11 -4 11
q-5 0 -17 -6t-13 -6t-1 1q-1 3 4 7q33 30 65 33q24 2 24 -16q0 -5 -2 -11q-21 -53 -61 -157q29 38 64 79q44 51 74 75q27 22 46 16q16 -5 5 -32z" />
    <glyph glyph-name="o" unicode="o" horiz-adv-x="236" 
d="M235 258q0 -3 -9 -7t-20 -4q-13 0 -22 5q24 -36 24 -78q0 -27 -11 -53q-25 -59 -72 -94q-39 -30 -73 -30q-28 0 -46 25q-15 22 -15 51q0 24 9 51q31 89 121 129q21 9 23 7l-12 -12q-62 -66 -90 -164q-10 -34 -10 -52q0 -24 18 -24q24 0 61 57q39 61 55 119q6 21 6 38
q0 30 -19 47q-15 13 -16 17q-4 11 8 16q10 4 18.5 -10t17 -22.5t24.5 -11.5q9 -2 19.5 0t10.5 0z" />
    <glyph glyph-name="p" unicode="p" horiz-adv-x="277" 
d="M255 240q-9 -71 -63 -167q8 1 24 4t17 2q1 -5 -16 -10q-1 0 -31 -7q-16 -27 -62 -63q-13 -10 -19 -10q-7 0 -12 8.5t-4 17.5q4 13 10 44l6 5q27 0 42 5q14 32 35 100q19 63 21 94q-37 -14 -112 -149q-39 -70 -72 -146q-23 -57 -69 -162q-23 -48 -70 -114q-17 -24 -30 -20
q-5 2 0 28q10 59 29 111q26 74 92 171q13 34 46 124q18 51 47 147q-6 2 -20.5 4.5t-18.5 3.5q44 7 100 28q3 -2 7 -6q0 1 -6 -16q-29 -81 -83 -225q28 55 40 78q20 36 48 77q61 90 103 87q26 -2 21 -44zM141 58q-4 -1 -16 -3t-17 -4q0 -22 4 -42q12 12 29 49zM-37 -48
q-25 -39 -36 -59q-22 -40 -39 -86q-7 -18 -26 -110q16 39 45 107q21 57 56 148z" />
    <glyph glyph-name="q" unicode="q" horiz-adv-x="272" 
d="M274 275q0 -7 -8 -14.5t-15 -7.5q-2 0 0 15q2 13 -21 15q-37 3 -84 -42q-53 -50 -91 -140q-22 -52 -22 -77q0 -9 8 -11q15 -3 52.5 40.5t81.5 114.5q8 11 29 58l5 12q8 16 15 15q5 -1 11.5 -15t6.5 -30q0 -19 -30 -97q-25 -64 -55 -131q-71 -155 -120 -213q28 27 57 54
q47 47 66 81q8 15 10 14q6 -2 -9 -27q-20 -35 -61 -76q-29 -27 -57 -55q-2 -3 -25 -43q-18 -33 -25 -32q-13 2 -13 31q0 20 10 34q41 59 102 205q38 92 74 187q-24 -44 -64 -90q-44 -51 -69 -51q-44 0 -42 67q2 54 41 110t104 88q54 28 96 27t42 -16z" />
    <glyph glyph-name="r" unicode="r" horiz-adv-x="217" 
d="M248 251q-5 -31 -53 -52q-12 -4 -13 -3q-6 3 2 15q11 16 11 19q2 16 -8 17q-9 1 -19 -7q-15 -12 -29 -28q-27 -30 -51 -68q-26 -56 -71 -132q-3 -2 -10 -10q-11 -11 -29 -16t-22 1l8 11q20 29 58 124q34 85 41 131q-6 -2 -19 -4q-7 0 -8 2q-1 4 6 6q61 19 74 29q6 3 10 1
q3 -3 1 -11q-14 -62 -45 -127q18 27 56 75q25 27 45.5 41t40.5 14q28 0 24 -28z" />
    <glyph glyph-name="s" unicode="s" horiz-adv-x="196" 
d="M218 266q4 -27 -37 -42q8 14 8 31q0 23 -13 26q-32 7 -37 -54q1 -27 -1 -91q-5 -73 -57 -118q-44 -38 -86 -35q-50 3 -45 44q4 37 55 64q35 19 39 12q8 -16 -23 -38q-35 -25 -37 -35q-1 -6 -1 -11q0 -23 22 -26q32 -4 53.5 38t23.5 107.5t14 97.5q22 56 80 54
q39 -1 42 -24z" />
    <glyph glyph-name="t" unicode="t" horiz-adv-x="173" 
d="M220 242q2 3 -38 3q-36 0 -54 -1q-42 -96 -83 -214q19 19 47 35q8 8 8 -1l-15 -12q-7 -6 -37 -36t-32 -33q-11 -9 -21 -8q-19 1 -12 19q26 93 72 206q7 17 19 43q-2 0 -16 -2q-22 -3 -24 1q-2 6 13.5 10.5t32.5 5.5q10 23 40 76q18 33 31 47q16 18 31 15q8 -2 8 -7
q0 -3 -11 -26q-19 -39 -45 -105q37 0 50 -2q38 -6 36 -14z" />
    <glyph glyph-name="u" unicode="u" horiz-adv-x="272" 
d="M273 294q3 -3 -2 -10q-33 -51 -66 -141q-11 -31 -40 -97q13 13 30.5 24.5t25.5 15.5q12 6 13 3t-6 -7q-14 -9 -37 -26q-51 -39 -77 -65q-10 -10 -13 -10q-10 2 2 20q14 40 41 115q-29 -46 -49 -69q-42 -49 -67 -49q-37 0 -37 28q0 36 34 119q15 36 53 104q-6 -2 -16 -2
q-16 0 -13 5l21 5q50 11 62 19q4 2 6 0q2 -1 0 -5q-35 -65 -60.5 -124.5t-34.5 -96.5q-7 -27 4 -31q12 -4 42 32t65 96l7 15q12 28 35 75q16 31 34 43q13 9 27 12.5t16 1.5z" />
    <glyph glyph-name="v" unicode="v" horiz-adv-x="248" 
d="M265 264q0 -25 -17 -53q-26 -43 -86 -103q-48 -43 -114 -114q-7 -9 -12 -8q-25 3 -25 22q0 20 10 34q10 18 18 47q25 87 27 133q2 40 -26 40q-9 0 -18 -5l-19 -11q-3 8 18 20q31 18 59 18q44 0 41 -59q-3 -55 -43 -154q-6 -15 -22 -48q26 27 77 84q80 100 105 164
q3 7 4 13q2 14 1 14q5 0 13 -9q9 -12 9 -25z" />
    <glyph glyph-name="w" unicode="w" horiz-adv-x="381" 
d="M383 254q0 -26 -17 -59q-21 -41 -64 -90q-37 -35 -104 -101q-6 -16 -25 -12q-12 3 -12 12q0 15 13 32q8 29 13 86q5 61 10 80q-16 -35 -58 -87q-38 -44 -96 -116q-7 -9 -9 -11q-3 -1 -14 2q-20 6 -19 23q1 13 14 34q8 12 20 46q27 73 34 134q5 39 -24 40q-8 0 -19 -5
q-4 -2 -11 -7.5t-8 -3.5q-2 7 19 20q26 16 56 16q47 0 42 -57q-6 -60 -49 -154q-7 -21 -24 -52q30 35 86 104q32 41 61 94q5 10 16 27q22 28 44 28q7 0 11 -4q8 -7 -16 -38q-3 -31 -12 -111q-6 -53 -22 -88q22 22 63 71q63 85 77 162q2 9 0 17q-2 5 0 5q24 0 24 -37z" />
    <glyph glyph-name="x" unicode="x" horiz-adv-x="227" 
d="M277 264q-11 4 -28 -2q-23 -8 -51 -29q-37 -28 -67 -57v-94q0 -50 2.5 -56.5t7.5 -6.5q10 0 21 21q5 8 7 7t1 -4q0 -3 -2 -7q-20 -46 -54 -46q-29 0 -32 36q-2 22 -2 58v56q-94 -84 -124 -152q-8 -18 -7 -18q-6 0 -1 20q12 45 59 100q31 37 73 74q-1 17 -4 49
q-5 36 -19 43q-8 4 -18 2l-10 -2q-2 4 10 10q24 12 46 11q34 -2 42 -51q2 -12 3 -28q27 27 64 54q32 23 54 27q29 5 29 -15z" />
    <glyph glyph-name="y" unicode="y" horiz-adv-x="281" 
d="M263 239q0 -16 -6 -35q-17 -58 -41 -112q-49 -112 -123 -203q-69 -85 -167.5 -143.5t-172.5 -58.5q-32 0 -48 20q-4 5 -5 13q-2 7 0 9q-1 0 10 -8q20 -14 49 -14q82 0 139 37q63 39 152 154q67 87 130 236q-21 -32 -70 -77.5t-64 -67.5q-7 -10 -15 -8q-20 4 -20 20
q0 7 9 33q7 18 13 36q26 88 29 147q2 39 -21 39q-2 0 -14.5 -5.5t-13.5 -4.5q-3 4 14 14q30 17 55 17q38 0 34 -57q-6 -71 -37 -154q-12 -31 -29 -62q33 34 92 97q60 71 93 170q2 7 3 16q0 6 2 6q5 0 13 -13q11 -17 10 -41z" />
    <glyph glyph-name="z" unicode="z" horiz-adv-x="234" 
d="M255 277q1 -7 -12 -14q-22 -27 -84 -98q-37 -42 -87 -82q11 -14 35 -40.5t45 -28.5q32 -3 47 42q4 7 3 7q4 0 2 -11q-12 -63 -59 -63q-32 0 -60 26q-15 14 -34 48q-46 -40 -63 -58q-7 -7 -8 -7q-2 1 3 11q21 43 51 79q-5 10 -11 20q-5 -3 -13 -16q-23 -34 -32.5 -65.5
t-5.5 -31.5q-8 0 -3 37q4 34 24 73q9 18 15 18t20 -7t18 -11q29 42 63 77q44 45 88 72q-71 -27 -101 -27q-46 0 -46 28q0 22 23 31q8 3 10 1q1 -2 -5 -5q-10 -5 -10 -12q0 -12 36 -14q64 -4 105 8q7 7 17 13q26 16 29 0z" />
    <glyph glyph-name="braceleft" unicode="{" horiz-adv-x="324" 
d="M575 639q-1 -4 -14 -1q-21 4 -39 4q-44 0 -73.5 -28t-55.5 -90q-5 -11 -31 -70q-73 -163 -214 -156q77 -32 77 -105q0 -47 -31 -115q-13 -29 -38 -86q-19 -49 -19 -83q0 -64 70 -73q15 -2 15 -4q-1 -5 -22 -3q-46 5 -76 29q-36 29 -36 78q0 34 17 74.5t49 115.5
q29 70 29 102q0 44 -54 68q-21 9 -21 10q1 2 29 2q57 0 90 26q30 24 60 86q24 51 36 79q63 152 193 152q22 0 46 -4q16 -3 13 -8z" />
    <glyph glyph-name="bar" unicode="|" horiz-adv-x="400" 
d="M255 -236h-22v900h22v-900z" />
    <glyph glyph-name="braceright" unicode="}" horiz-adv-x="324" 
d="M339 192q-1 -2 -29 -2q-57 0 -88.5 -25t-61.5 -87q-18 -37 -43 -98q-63 -152 -193 -152q-22 0 -46 4q-16 3 -13 8q1 4 14 1q21 -4 39 -4q44 0 73.5 28t55.5 90q23 56 38 89q34 75 87 117q60 45 129 39q-77 31 -77 109q0 48 30 111q6 12 30 67q22 49 22 83q0 64 -73 73
q-15 2 -15 4q1 5 22 3q46 -5 77 -29q36 -29 36 -78q0 -33 -18 -75q-14 -30 -43 -96q-29 -69 -29 -101q0 -45 55 -69q21 -9 21 -10z" />
    <glyph glyph-name="asciitilde" unicode="~" horiz-adv-x="500" 
d="M422 312q3 -1 -2 -15q-30 -79 -83 -74q-23 2 -66 20.5t-63 20.5q-47 4 -68 -26q-8 -11 -10 -9q-3 2 2 13q11 27 32 46q26 24 55 21q22 -2 65.5 -20t63.5 -20q42 -3 65 33q7 11 9 10z" />
    <glyph glyph-name="exclamdown" unicode="&#xa1;" horiz-adv-x="149" 
d="M141 262q-1 -13 -11.5 -25t-24.5 -13q-16 -1 -25.5 8.5t-8.5 23.5q4 34 37 36q16 1 25 -7t8 -23zM92 198q11 -3 -1 -61q-15 -72 -48 -144q-30 -66 -72 -124q-14 -19 -36 -34.5t-29 -13.5q-2 1 -2 3q0 6 19 41q34 62 63 127q28 58 76 169q16 40 30 37z" />
    <glyph glyph-name="cent" unicode="&#xa2;" horiz-adv-x="189" 
d="M203 324l-32 -62q17 -3 20 -16t-14 -22q-9 -6 -26 -1q-13 -25 -42 -84q-18 -34 -53 -96q4 -1 8 -1q21 0 46 28q21 24 34 55l8 18q4 -1 -2 -22q-10 -33 -38 -62q-31 -31 -59 -27h-3l-35 -64l-3 10l29 56q-43 16 -43 69q0 19 7 40q18 54 61 88.5t89 33.5q1 0 4 -1h4l37 69z
M158 254q-1 0 -1 1h-2q-28 3 -61.5 -46t-46.5 -106q-11 -46 1 -56q14 30 47 98q22 41 63 109z" />
    <glyph glyph-name="sterling" unicode="&#xa3;" horiz-adv-x="275" 
d="M291 263q-7 -18 -37 -36q-4 -3 -6 -1q-1 2 2 5q19 19 19 41q0 29 -32 30q-25 1 -40 -11q-26 -22 -52 -90q-4 -12 -10 -26q50 -5 75 -21q-23 2 -83 2q-28 -65 -74 -111q16 -8 42 -17q20 -7 61 -15q60 -3 60 49q0 4 2 4q3 0 3 -7q3 -29 -16 -48.5t-56 -19.5q-30 0 -68 13
q-32 11 -47 18q-22 -23 -56 -22q-29 1 -29 37q0 8 2 16q13 22 29 21q7 -1 58 -22q10 15 18 45q13 49 17 59q-50 0 -50 4q1 5 19 10t39 6l4 10q29 69 87 104q41 26 78 26q44 0 44 -37q0 -8 -3 -16zM20 28q-19 10 -49 24q-10 2 -14 -4q0 -35 23 -37q21 -2 40 17z" />
    <glyph glyph-name="currency" unicode="&#xa4;" horiz-adv-x="227" 
d="M83 148q-13 -31 -18 -50q-9 -32 -9 -52q0 -24 22 -24q19 0 45.5 29.5t39.5 57.5q10 22 11 22q8 -2 -4 -27q-45 -97 -109 -97q-53 0 -55 55q-2 38 17 86q-34 0 -33 4q2 15 42 16q2 4 6 10.5t6 9.5q-39 0 -38 5q2 15 52 15q63 89 143 90q29 0 30 -16q1 -11 -11 -22.5
t-17 -6.5q-3 3 1 10q12 25 -3 27q-37 5 -90 -86q54 -7 68 -18q-28 2 -77 2l-12 -24q56 -8 73 -18q-30 2 -80 2z" />
    <glyph glyph-name="yen" unicode="&#xa5;" horiz-adv-x="252" 
d="M315 284q-12 7 -27 7q-27 0 -57 -27q-64 -57 -99 -110q39 -1 68 -20q-23 2 -77 2q-14 -28 -46 -97q-21 -45 -38 -45q-15 0 -7 36q8 38 37 106q-60 0 -59 4q3 15 63 15q5 45 3 76q-3 58 -20 66q-12 6 -24 0q-10 -5 -11 -2t8 10q29 22 55 21q41 -2 45 -81q2 -48 -4 -85
q34 58 96 118q43 41 68 41q28 0 28 -29q0 -4 -2 -6z" />
    <glyph glyph-name="brokenbar" unicode="&#xa6;" horiz-adv-x="684" 
d="M658 102q4 -7 4 -15q0 -18 -27 -38q-24 -15 -48 -31q-19 -14 -33 -18q1 -1 2 -2.5t2.5 -3.5t9 -7t7.5 -7q0 -7 -10 -7q-14 0 -26 17l-3 6q-9 -3 -31 -6q1 -3 3 -11q2 -22 -7 -24q-5 -1 -6.5 8.5t-2.5 18.5q0 1 -1 3.5t-2 4.5q-17 -1 -34 0q0 -37 -1 -43q-2 -13 -16 -13
q-6 0 -4 9q3 9 5 17q2 21 5 30q-16 0 -59 15.5t-60 15.5q-27 1 -70.5 -15t-70.5 -16q3 -9 6 -31q4 -27 -4 -27q-11 0 -13 14q1 -6 1 44q-13 0 -37 2q0 -3 -2.5 -12t-4 -18t-7.5 -8q-12 3 -7 24l4 16q-10 1 -31 7q-2 -4 -7 -12q-17 -26 -30 -14q-3 2 -3 5q0 -2 14 14l11 11
q-32 14 -44 54.5t-12 39.5q0 8 4 16q14 27 47 27q11 0 51 -6q-14 11 -14 25q0 13 13 34q-5 -1 -16.5 -7t-15.5 -6q-1 0 -2 1q-4 7 17 17q12 8 28 12q3 3 12 14q-5 2 -19 5q-9 1 -16.5 1.5t-6.5 5.5q1 4 10 4q20 5 39 -10q2 3 10 9q-14 24 -26 33q-6 5 -23 9q-10 3 -7 9
q5 10 36 -9q11 -6 25 -37q12 12 23.5 20.5t40.5 30.5q-8 -1 -19 -6t-16 -5q-10 0 -17.5 9t-7.5 19q0 16 20 53.5t20 50.5q0 10 -5.5 14.5t-5.5 14.5q0 11 8.5 20t18.5 9q24 0 27 -21q19 1 37.5 -8t29.5 -9q12 0 35 8t33 8q4 0 8 -1q4 24 30 24q13 0 23 -8.5t7 -22.5
q-1 -4 -5.5 -15.5t-4.5 -21.5q0 -20 15 -54t15 -45q0 -24 -27 -24q-11 0 -28 7q-20 10 -22 10q5 -13 24 -20q25 -10 33 -16.5t21 -17.5q11 9 32 32q2 2 8 12q4 7 7 7q2 0 4.5 -2.5t2.5 -6.5q0 -14 -49 -47q4 -3 15 -16q7 3 23 7q22 5 25 -4q1 -6 -7.5 -6.5t-17.5 -0.5
q-2 0 -17 -3q5 -5 16 -21q41 0 47 -1q13 -2 13 -13q0 -5 -4 -5q-3 0 -11 3t-11 4q-10 2 -29 5q18 -33 18 -49q0 -12 -10 -18q80 11 85 11q23 0 43 -35zM444 452q-1 9 -8 14.5t-12 3.5q-9 -1 -14.5 -8t-3.5 -12q2 -19 21 -17q9 1 14 7.5t3 11.5zM245 449q-1 9 -8.5 15
t-12.5 4q-9 -1 -15 -8.5t-4 -12.5q1 -8 9 -13.5t13 -3.5q9 1 14.5 7.5t3.5 11.5zM411 343q-24 -11 -53 -11q-14 0 -38 3t-34 3q-9 0 -41 -7q30 2 58 -3q32 -6 31 -6q40 0 77 21zM400 348l-2 3q-20 -11 -68 -4q-19 3 -37 6q-20 3 -38 -2q-14 -4 -36 -16q-25 -14 -33 -25l1 -3
q32 30 70 39q22 5 73 -3q46 -7 70 5zM454 307v3q-27 17 -50 17q-12 0 -34.5 -7.5t-34.5 -7.5q-25 0 -40 5q-27 8 -34 9l-6 -1q18 -6 36.5 -12t44.5 -6q10 0 29 5q23 6 29 7q16 3 60 -12zM433 452q0 -8 -7 -8q-9 0 -9 6q0 9 7 9q9 0 9 -7zM234 449q0 -9 -8 -9q-10 0 -10 7
q0 10 8 10q10 0 10 -8z" />
    <glyph glyph-name="section" unicode="&#xa7;" horiz-adv-x="292" 
d="M333 465q-2 1 0 11q4 19 -9 37t-39 19q-58 2 -58 -53q0 -31 20 -86q8 -18 25 -66q9 -27 9 -53q0 -56 -38 -95q-31 -31 -83 -38q13 -40 13 -68q0 -31 -18 -60q-29 -47 -85 -45q-70 2 -68 72q0 13 5 13l2 -13q8 -55 63 -56q46 -1 57 41q3 11 3 20q0 23 -22 78q-7 20 -26 68
q-10 27 -10 52q0 56 41 94q34 31 81 40q-12 38 -12 65q0 32 19 63q29 46 84 44t55 -58q0 -30 -9 -26zM230 288q-13 36 -31 81q-47 -6 -67 -42q-13 -23 -13 -54q0 -24 8 -45q12 -30 30 -80q50 9 68 41q12 22 12 54q0 24 -7 45z" />
    <glyph glyph-name="dieresis" unicode="&#xa8;" 
d="M278 345q0 -29 -29 -29q-11 0 -19.5 8.5t-8.5 20.5t8.5 20.5t19.5 8.5q29 0 29 -29zM181 345q0 -29 -29 -29q-11 0 -20 8.5t-9 20.5t9 20.5t20 8.5q29 0 29 -29z" />
    <glyph glyph-name="copyright" unicode="&#xa9;" horiz-adv-x="500" 
d="M459 253q0 -74 -51.5 -126t-125.5 -52q-75 0 -126.5 51.5t-51.5 126.5q0 74 51.5 125.5t126.5 51.5q73 0 125 -51.5t52 -125.5zM440 253q0 64 -46.5 111.5t-111.5 47.5t-112 -47t-47 -112q0 -66 46.5 -113t112.5 -47q65 0 111.5 47t46.5 113zM366 204l-2 -16
q-3 -20 -10 -30q-30 -12 -60 -12q-50 0 -81 23q-36 26 -36 78t36 80q31 26 80 26q40 0 63 -12q6 -7 6 -32v-21h-9q-7 56 -62 56q-35 0 -56.5 -25t-21.5 -67q0 -44 22 -69t57 -25q55 0 65 46h9z" />
    <glyph glyph-name="ordfeminine" unicode="&#xaa;" horiz-adv-x="244" 
d="M343 189q1 -2 -10 -7q-44 -20 -127 -20q-59 0 -114 11q-42 -80 -42 -140q0 -42 30 -46q23 -3 51 15.5t48 47.5q17 24 28 62q4 12 5 12q5 0 3 -11q-7 -33 -25 -64q-20 -35 -52 -56.5t-63 -21.5q-80 1 -77 88q2 56 48 126q-9 2 -24 9q-9 4 -6 9q3 4 12 6q6 1 12 -1t19 -7
q27 33 65 56q48 30 91 29q27 0 27 -19q0 -18 -19 -36q-29 -27 -74 -21q-17 2 -29 8q-5 -7 -19 -28q44 -13 112 -14q75 -2 117 10q13 4 13 3zM210 265q0 10 -12 10q-17 0 -42 -19q-21 -16 -31 -31q13 -7 27 -7q21 -1 40 15.5t18 31.5z" />
    <glyph glyph-name="guillemotleft" unicode="&#xab;" horiz-adv-x="291" 
d="M279 233q2 -3 -8 -14q-40 -45 -91 -82q14 -39 20 -81q2 -18 -2 -18q-1 0 -8 12q-27 46 -71 92q73 35 149 87q9 6 11 4zM166 233q2 -3 -8 -14q-40 -45 -91 -82q14 -39 20 -81q2 -18 -2 -18q-1 0 -8 12q-27 46 -71 92q73 35 149 87q9 6 11 4z" />
    <glyph glyph-name="logicalnot" unicode="&#xac;" horiz-adv-x="153" 
d="M383 187q-5 -24 -34 -19q8 12 10 26q5 33 -40 43q-36 8 -109 10q-43 1 -82 -3q-42 -96 -83 -214q19 19 47 35q8 8 8 -1l-15 -12q-7 -6 -37 -36t-32 -33q-11 -9 -21 -8q-19 1 -12 19q26 93 72 206q7 17 19 43q-2 0 -16 -2q-22 -3 -24 1q-2 6 13.5 10.5t32.5 5.5
q18 41 40 76q41 67 62 62q8 -2 8 -7q0 -3 -11 -26q-23 -46 -45 -103q39 2 77 0q72 -3 121 -19q58 -19 51 -54z" />
    <glyph glyph-name="registered" unicode="&#xae;" horiz-adv-x="500" 
d="M456 253q0 -75 -51.5 -127t-125.5 -52t-126 52t-52 127q0 73 51.5 124.5t126.5 51.5q73 0 125 -51.5t52 -124.5zM437 253q0 64 -46 111t-112 47q-65 0 -112 -46.5t-47 -111.5q0 -67 46.5 -114t112.5 -47q65 0 111.5 47t46.5 114zM397 155q-8 -2 -26 -2q-33 0 -47 17
q-5 12 -20 38q-14 21 -29 38l-27 3v-44q0 -23 6.5 -32t26.5 -10v-8h-98v8q35 0 35 43v104q0 36 -35 36v8h80q86 0 83 -53q-1 -24 -22 -36l-17 -8q9 -16 33 -52q31 -44 57 -43v-7zM311 301q0 49 -62 43q-1 -12 -1 -31v-56q63 -4 63 44z" />
    <glyph glyph-name="degree" unicode="&#xb0;" horiz-adv-x="142" 
d="M143 280q0 -19 -13.5 -33t-33.5 -14q-19 0 -33 14t-14 33q0 20 14 33.5t33 13.5q20 0 33.5 -13.5t13.5 -33.5zM121 280q0 25 -25 25t-25 -25t25 -25t25 25z" />
    <glyph glyph-name="plusminus" unicode="&#xb1;" horiz-adv-x="149" 
d="M697 584q-3 -26 -26 -42q-18 -14 -35 -14q20 30 22 60q3 45 -22 71q-28 28 -82 28q-134 0 -286 -195q-86 -110 -136 -221q-66 -147 -88 -225q-10 -36 -1 -38q14 -3 40 40q10 16 11 16q7 -2 -6 -23q-34 -56 -65 -55q-33 1 -29 50q2 28 11 55q32 98 76 184q71 138 143 226
q66 80 148 133q97 62 184 62q73 0 110.5 -31t30.5 -81z" />
    <glyph glyph-name="twosuperior" unicode="&#xb2;" horiz-adv-x="684" 
d="M658 102q4 -7 4 -15q0 -18 -27 -38q-24 -15 -48 -31q-19 -14 -33 -18q1 -1 2 -2.5t2.5 -3.5t9 -7t7.5 -7q0 -7 -10 -7q-14 0 -26 17l-3 6q-9 -3 -31 -6q1 -3 3 -11q2 -22 -7 -24q-5 -1 -6.5 8.5t-2.5 18.5q0 1 -1 3.5t-2 4.5q-17 -1 -34 0q0 -37 -1 -43q-2 -13 -16 -13
q-6 0 -4 9q3 9 5 17q2 21 5 30q-16 0 -59 15.5t-60 15.5q-27 1 -70.5 -15t-70.5 -16q3 -9 6 -31q4 -27 -4 -27q-11 0 -13 14q1 -6 1 44q-13 0 -37 2q0 -3 -2.5 -12t-4 -18t-7.5 -8q-12 3 -7 24l4 16q-10 1 -31 7q-2 -4 -7 -12q-17 -26 -30 -14q-3 2 -3 5q0 -2 14 14l11 11
q-32 14 -44 54.5t-12 39.5q0 8 4 16q14 27 47 27q11 0 51 -6q-14 11 -14 25q0 13 13 34q-5 -1 -16.5 -7t-15.5 -6q-1 0 -2 1q-4 7 17 17q12 8 28 12q3 3 12 14q-5 2 -19 5q-9 1 -16.5 1.5t-6.5 5.5q1 4 10 4q20 5 39 -10q2 3 10 9q-14 24 -26 33q-6 5 -23 9q-10 3 -7 9
q5 10 36 -9q11 -6 25 -37q12 12 23.5 20.5t40.5 30.5q-8 -1 -19 -6t-16 -5q-10 0 -17.5 9t-7.5 19q0 16 20 53.5t20 50.5q0 10 -5.5 14.5t-5.5 14.5q0 11 8.5 20t18.5 9q24 0 27 -21q19 1 37.5 -8t29.5 -9q12 0 35 8t33 8q4 0 8 -1q4 24 30 24q13 0 23 -8.5t7 -22.5
q-1 -4 -5.5 -15.5t-4.5 -21.5q0 -20 15 -54t15 -45q0 -24 -27 -24q-11 0 -28 7q-20 10 -22 10q5 -13 24 -20q25 -10 33 -16.5t21 -17.5q11 9 32 32q2 2 8 12q4 7 7 7q2 0 4.5 -2.5t2.5 -6.5q0 -14 -49 -47q4 -3 15 -16q7 3 23 7q22 5 25 -4q1 -6 -7.5 -6.5t-17.5 -0.5
q-2 0 -17 -3q5 -5 16 -21q41 0 47 -1q13 -2 13 -13q0 -5 -4 -5q-3 0 -11 3t-11 4q-10 2 -29 5q18 -33 18 -49q0 -12 -10 -18q80 11 85 11q23 0 43 -35zM444 452q-1 9 -8 14.5t-12 3.5q-9 -1 -14.5 -8t-3.5 -12q2 -19 21 -17q9 1 14 7.5t3 11.5zM245 449q-1 9 -8.5 15
t-12.5 4q-9 -1 -15 -8.5t-4 -12.5q1 -8 9 -13.5t13 -3.5q9 1 14.5 7.5t3.5 11.5zM411 343q-24 -11 -53 -11q-14 0 -38 3t-34 3q-9 0 -41 -7q30 2 58 -3q32 -6 31 -6q40 0 77 21zM400 348l-2 3q-20 -11 -68 -4q-19 3 -37 6q-20 3 -38 -2q-14 -4 -36 -16q-25 -14 -33 -25l1 -3
q32 30 70 39q22 5 73 -3q46 -7 70 5zM454 307v3q-27 17 -50 17q-12 0 -34.5 -7.5t-34.5 -7.5q-25 0 -40 5q-27 8 -34 9l-6 -1q18 -6 36.5 -12t44.5 -6q10 0 29 5q23 6 29 7q16 3 60 -12zM433 452q0 -8 -7 -8q-9 0 -9 6q0 9 7 9q9 0 9 -7zM234 449q0 -9 -8 -9q-10 0 -10 7
q0 10 8 10q10 0 10 -8z" />
    <glyph glyph-name="threesuperior" unicode="&#xb3;" horiz-adv-x="684" 
d="M658 102q4 -7 4 -15q0 -18 -27 -38q-24 -15 -48 -31q-19 -14 -33 -18q1 -1 2 -2.5t2.5 -3.5t9 -7t7.5 -7q0 -7 -10 -7q-14 0 -26 17l-3 6q-9 -3 -31 -6q1 -3 3 -11q2 -22 -7 -24q-5 -1 -6.5 8.5t-2.5 18.5q0 1 -1 3.5t-2 4.5q-17 -1 -34 0q0 -37 -1 -43q-2 -13 -16 -13
q-6 0 -4 9q3 9 5 17q2 21 5 30q-16 0 -59 15.5t-60 15.5q-27 1 -70.5 -15t-70.5 -16q3 -9 6 -31q4 -27 -4 -27q-11 0 -13 14q1 -6 1 44q-13 0 -37 2q0 -3 -2.5 -12t-4 -18t-7.5 -8q-12 3 -7 24l4 16q-10 1 -31 7q-2 -4 -7 -12q-17 -26 -30 -14q-3 2 -3 5q0 -2 14 14l11 11
q-32 14 -44 54.5t-12 39.5q0 8 4 16q14 27 47 27q11 0 51 -6q-14 11 -14 25q0 13 13 34q-5 -1 -16.5 -7t-15.5 -6q-1 0 -2 1q-4 7 17 17q12 8 28 12q3 3 12 14q-5 2 -19 5q-9 1 -16.5 1.5t-6.5 5.5q1 4 10 4q20 5 39 -10q2 3 10 9q-14 24 -26 33q-6 5 -23 9q-10 3 -7 9
q5 10 36 -9q11 -6 25 -37q12 12 23.5 20.5t40.5 30.5q-8 -1 -19 -6t-16 -5q-10 0 -17.5 9t-7.5 19q0 16 20 53.5t20 50.5q0 10 -5.5 14.5t-5.5 14.5q0 11 8.5 20t18.5 9q24 0 27 -21q19 1 37.5 -8t29.5 -9q12 0 35 8t33 8q4 0 8 -1q4 24 30 24q13 0 23 -8.5t7 -22.5
q-1 -4 -5.5 -15.5t-4.5 -21.5q0 -20 15 -54t15 -45q0 -24 -27 -24q-11 0 -28 7q-20 10 -22 10q5 -13 24 -20q25 -10 33 -16.5t21 -17.5q11 9 32 32q2 2 8 12q4 7 7 7q2 0 4.5 -2.5t2.5 -6.5q0 -14 -49 -47q4 -3 15 -16q7 3 23 7q22 5 25 -4q1 -6 -7.5 -6.5t-17.5 -0.5
q-2 0 -17 -3q5 -5 16 -21q41 0 47 -1q13 -2 13 -13q0 -5 -4 -5q-3 0 -11 3t-11 4q-10 2 -29 5q18 -33 18 -49q0 -12 -10 -18q80 11 85 11q23 0 43 -35zM444 452q-1 9 -8 14.5t-12 3.5q-9 -1 -14.5 -8t-3.5 -12q2 -19 21 -17q9 1 14 7.5t3 11.5zM245 449q-1 9 -8.5 15
t-12.5 4q-9 -1 -15 -8.5t-4 -12.5q1 -8 9 -13.5t13 -3.5q9 1 14.5 7.5t3.5 11.5zM411 343q-24 -11 -53 -11q-14 0 -38 3t-34 3q-9 0 -41 -7q30 2 58 -3q32 -6 31 -6q40 0 77 21zM400 348l-2 3q-20 -11 -68 -4q-19 3 -37 6q-20 3 -38 -2q-14 -4 -36 -16q-25 -14 -33 -25l1 -3
q32 30 70 39q22 5 73 -3q46 -7 70 5zM454 307v3q-27 17 -50 17q-12 0 -34.5 -7.5t-34.5 -7.5q-25 0 -40 5q-27 8 -34 9l-6 -1q18 -6 36.5 -12t44.5 -6q10 0 29 5q23 6 29 7q16 3 60 -12zM433 452q0 -8 -7 -8q-9 0 -9 6q0 9 7 9q9 0 9 -7zM234 449q0 -9 -8 -9q-10 0 -10 7
q0 10 8 10q10 0 10 -8z" />
    <glyph glyph-name="acute" unicode="&#xb4;" 
d="M282 396q0 -16 -21 -33.5t-56.5 -33.5t-52.5 -15q16 8 77 78q18 20 34 20q19 0 19 -16z" />
    <glyph glyph-name="paragraph" unicode="&#xb6;" horiz-adv-x="266" 
d="M414 478q-1 -2 -19 -1q-24 2 -37 2q-81 -144 -132 -253q-55 -119 -87 -234q-13 -44 -21 -43q-9 1 -6 33q3 39 28 119q26 88 58 154q65 135 128 224q-29 1 -46 0q-15 -4 -20 -14q-39 -55 -114 -210q-59 -122 -89 -229q-9 -31 -13 -31q-13 0 -9 46q9 97 77 233
q-35 5 -57.5 29.5t-22.5 57.5q0 22 10 44q20 42 83 65q51 19 112 20q66 1 97 0q23 23 33 20q5 -1 -3 -20q12 -1 35 -4q17 -3 15 -8z" />
    <glyph glyph-name="cedilla" unicode="&#xb8;" 
d="M136 -55q-1 -22 -22.5 -33.5t-53.5 -9.5q-39 3 -56 31q-3 6 -1 8t5 -2q15 -17 52 -17q31 0 34 24q2 18 -21 21q-7 0 -17 4q-2 1 9 15q5 6 14 16h15q-5 -5 -12 -14q-3 -5 4 -6q52 -5 50 -37z" />
    <glyph glyph-name="onesuperior" unicode="&#xb9;" horiz-adv-x="684" 
d="M658 102q4 -7 4 -15q0 -18 -27 -38q-24 -15 -48 -31q-19 -14 -33 -18q1 -1 2 -2.5t2.5 -3.5t9 -7t7.5 -7q0 -7 -10 -7q-14 0 -26 17l-3 6q-9 -3 -31 -6q1 -3 3 -11q2 -22 -7 -24q-5 -1 -6.5 8.5t-2.5 18.5q0 1 -1 3.5t-2 4.5q-17 -1 -34 0q0 -37 -1 -43q-2 -13 -16 -13
q-6 0 -4 9q3 9 5 17q2 21 5 30q-16 0 -59 15.5t-60 15.5q-27 1 -70.5 -15t-70.5 -16q3 -9 6 -31q4 -27 -4 -27q-11 0 -13 14q1 -6 1 44q-13 0 -37 2q0 -3 -2.5 -12t-4 -18t-7.5 -8q-12 3 -7 24l4 16q-10 1 -31 7q-2 -4 -7 -12q-17 -26 -30 -14q-3 2 -3 5q0 -2 14 14l11 11
q-32 14 -44 54.5t-12 39.5q0 8 4 16q14 27 47 27q11 0 51 -6q-14 11 -14 25q0 13 13 34q-5 -1 -16.5 -7t-15.5 -6q-1 0 -2 1q-4 7 17 17q12 8 28 12q3 3 12 14q-5 2 -19 5q-9 1 -16.5 1.5t-6.5 5.5q1 4 10 4q20 5 39 -10q2 3 10 9q-14 24 -26 33q-6 5 -23 9q-10 3 -7 9
q5 10 36 -9q11 -6 25 -37q12 12 23.5 20.5t40.5 30.5q-8 -1 -19 -6t-16 -5q-10 0 -17.5 9t-7.5 19q0 16 20 53.5t20 50.5q0 10 -5.5 14.5t-5.5 14.5q0 11 8.5 20t18.5 9q24 0 27 -21q19 1 37.5 -8t29.5 -9q12 0 35 8t33 8q4 0 8 -1q4 24 30 24q13 0 23 -8.5t7 -22.5
q-1 -4 -5.5 -15.5t-4.5 -21.5q0 -20 15 -54t15 -45q0 -24 -27 -24q-11 0 -28 7q-20 10 -22 10q5 -13 24 -20q25 -10 33 -16.5t21 -17.5q11 9 32 32q2 2 8 12q4 7 7 7q2 0 4.5 -2.5t2.5 -6.5q0 -14 -49 -47q4 -3 15 -16q7 3 23 7q22 5 25 -4q1 -6 -7.5 -6.5t-17.5 -0.5
q-2 0 -17 -3q5 -5 16 -21q41 0 47 -1q13 -2 13 -13q0 -5 -4 -5q-3 0 -11 3t-11 4q-10 2 -29 5q18 -33 18 -49q0 -12 -10 -18q80 11 85 11q23 0 43 -35zM444 452q-1 9 -8 14.5t-12 3.5q-9 -1 -14.5 -8t-3.5 -12q2 -19 21 -17q9 1 14 7.5t3 11.5zM245 449q-1 9 -8.5 15
t-12.5 4q-9 -1 -15 -8.5t-4 -12.5q1 -8 9 -13.5t13 -3.5q9 1 14.5 7.5t3.5 11.5zM411 343q-24 -11 -53 -11q-14 0 -38 3t-34 3q-9 0 -41 -7q30 2 58 -3q32 -6 31 -6q40 0 77 21zM400 348l-2 3q-20 -11 -68 -4q-19 3 -37 6q-20 3 -38 -2q-14 -4 -36 -16q-25 -14 -33 -25l1 -3
q32 30 70 39q22 5 73 -3q46 -7 70 5zM454 307v3q-27 17 -50 17q-12 0 -34.5 -7.5t-34.5 -7.5q-25 0 -40 5q-27 8 -34 9l-6 -1q18 -6 36.5 -12t44.5 -6q10 0 29 5q23 6 29 7q16 3 60 -12zM433 452q0 -8 -7 -8q-9 0 -9 6q0 9 7 9q9 0 9 -7zM234 449q0 -9 -8 -9q-10 0 -10 7
q0 10 8 10q10 0 10 -8z" />
    <glyph glyph-name="ordmasculine" unicode="&#xba;" horiz-adv-x="535" 
d="M523 250q-17 -41 -51 -124q-13 -33 -36 -104q-3 -12 1 -14t23 12q9 6 10 5q3 -2 -6 -11q-38 -38 -66 -34q-19 2 -15 30q5 41 39 123q14 32 40 95q4 10 1 12q-4 2 -12 -6q-41 -41 -76 -84q-19 -23 -79 -122q-5 -6 -15 -20.5t-23 -9.5t-5 28q24 68 45 122q16 40 19 73
q4 37 -20 54t-85 18q-102 2 -155 -48q-28 -27 -27 -63q1 -34 33 -52q9 -5 21 -7q-8 -11 -25 -11q-52 1 -50 58q1 40 40 77q66 63 166 63q72 0 113.5 -22t41.5 -61t-36 -115q22 30 65 80t73 74q27 22 46 16q16 -5 5 -32z" />
    <glyph glyph-name="guillemotright" unicode="&#xbb;" horiz-adv-x="291" 
d="M252 134q-72 -35 -149 -87q-9 -6 -11 -4q-2 3 8 14q40 45 91 82q-14 39 -20 81q-2 18 2 18q1 0 8 -12q27 -46 71 -92zM139 134q-72 -35 -149 -87q-9 -6 -11 -4q-2 3 8 14q40 45 91 82q-14 39 -20 81q-2 18 2 18q1 0 8 -12q27 -46 71 -92z" />
    <glyph glyph-name="onequarter" unicode="&#xbc;" horiz-adv-x="684" 
d="M658 102q4 -7 4 -15q0 -18 -27 -38q-24 -15 -48 -31q-19 -14 -33 -18q1 -1 2 -2.5t2.5 -3.5t9 -7t7.5 -7q0 -7 -10 -7q-14 0 -26 17l-3 6q-9 -3 -31 -6q1 -3 3 -11q2 -22 -7 -24q-5 -1 -6.5 8.5t-2.5 18.5q0 1 -1 3.5t-2 4.5q-17 -1 -34 0q0 -37 -1 -43q-2 -13 -16 -13
q-6 0 -4 9q3 9 5 17q2 21 5 30q-16 0 -59 15.5t-60 15.5q-27 1 -70.5 -15t-70.5 -16q3 -9 6 -31q4 -27 -4 -27q-11 0 -13 14q1 -6 1 44q-13 0 -37 2q0 -3 -2.5 -12t-4 -18t-7.5 -8q-12 3 -7 24l4 16q-10 1 -31 7q-2 -4 -7 -12q-17 -26 -30 -14q-3 2 -3 5q0 -2 14 14l11 11
q-32 14 -44 54.5t-12 39.5q0 8 4 16q14 27 47 27q11 0 51 -6q-14 11 -14 25q0 13 13 34q-5 -1 -16.5 -7t-15.5 -6q-1 0 -2 1q-4 7 17 17q12 8 28 12q3 3 12 14q-5 2 -19 5q-9 1 -16.5 1.5t-6.5 5.5q1 4 10 4q20 5 39 -10q2 3 10 9q-14 24 -26 33q-6 5 -23 9q-10 3 -7 9
q5 10 36 -9q11 -6 25 -37q12 12 23.5 20.5t40.5 30.5q-8 -1 -19 -6t-16 -5q-10 0 -17.5 9t-7.5 19q0 16 20 53.5t20 50.5q0 10 -5.5 14.5t-5.5 14.5q0 11 8.5 20t18.5 9q24 0 27 -21q19 1 37.5 -8t29.5 -9q12 0 35 8t33 8q4 0 8 -1q4 24 30 24q13 0 23 -8.5t7 -22.5
q-1 -4 -5.5 -15.5t-4.5 -21.5q0 -20 15 -54t15 -45q0 -24 -27 -24q-11 0 -28 7q-20 10 -22 10q5 -13 24 -20q25 -10 33 -16.5t21 -17.5q11 9 32 32q2 2 8 12q4 7 7 7q2 0 4.5 -2.5t2.5 -6.5q0 -14 -49 -47q4 -3 15 -16q7 3 23 7q22 5 25 -4q1 -6 -7.5 -6.5t-17.5 -0.5
q-2 0 -17 -3q5 -5 16 -21q41 0 47 -1q13 -2 13 -13q0 -5 -4 -5q-3 0 -11 3t-11 4q-10 2 -29 5q18 -33 18 -49q0 -12 -10 -18q80 11 85 11q23 0 43 -35zM444 452q-1 9 -8 14.5t-12 3.5q-9 -1 -14.5 -8t-3.5 -12q2 -19 21 -17q9 1 14 7.5t3 11.5zM245 449q-1 9 -8.5 15
t-12.5 4q-9 -1 -15 -8.5t-4 -12.5q1 -8 9 -13.5t13 -3.5q9 1 14.5 7.5t3.5 11.5zM411 343q-24 -11 -53 -11q-14 0 -38 3t-34 3q-9 0 -41 -7q30 2 58 -3q32 -6 31 -6q40 0 77 21zM400 348l-2 3q-20 -11 -68 -4q-19 3 -37 6q-20 3 -38 -2q-14 -4 -36 -16q-25 -14 -33 -25l1 -3
q32 30 70 39q22 5 73 -3q46 -7 70 5zM454 307v3q-27 17 -50 17q-12 0 -34.5 -7.5t-34.5 -7.5q-25 0 -40 5q-27 8 -34 9l-6 -1q18 -6 36.5 -12t44.5 -6q10 0 29 5q23 6 29 7q16 3 60 -12zM433 452q0 -8 -7 -8q-9 0 -9 6q0 9 7 9q9 0 9 -7zM234 449q0 -9 -8 -9q-10 0 -10 7
q0 10 8 10q10 0 10 -8z" />
    <glyph glyph-name="onehalf" unicode="&#xbd;" horiz-adv-x="684" 
d="M658 102q4 -7 4 -15q0 -18 -27 -38q-24 -15 -48 -31q-19 -14 -33 -18q1 -1 2 -2.5t2.5 -3.5t9 -7t7.5 -7q0 -7 -10 -7q-14 0 -26 17l-3 6q-9 -3 -31 -6q1 -3 3 -11q2 -22 -7 -24q-5 -1 -6.5 8.5t-2.5 18.5q0 1 -1 3.5t-2 4.5q-17 -1 -34 0q0 -37 -1 -43q-2 -13 -16 -13
q-6 0 -4 9q3 9 5 17q2 21 5 30q-16 0 -59 15.5t-60 15.5q-27 1 -70.5 -15t-70.5 -16q3 -9 6 -31q4 -27 -4 -27q-11 0 -13 14q1 -6 1 44q-13 0 -37 2q0 -3 -2.5 -12t-4 -18t-7.5 -8q-12 3 -7 24l4 16q-10 1 -31 7q-2 -4 -7 -12q-17 -26 -30 -14q-3 2 -3 5q0 -2 14 14l11 11
q-32 14 -44 54.5t-12 39.5q0 8 4 16q14 27 47 27q11 0 51 -6q-14 11 -14 25q0 13 13 34q-5 -1 -16.5 -7t-15.5 -6q-1 0 -2 1q-4 7 17 17q12 8 28 12q3 3 12 14q-5 2 -19 5q-9 1 -16.5 1.5t-6.5 5.5q1 4 10 4q20 5 39 -10q2 3 10 9q-14 24 -26 33q-6 5 -23 9q-10 3 -7 9
q5 10 36 -9q11 -6 25 -37q12 12 23.5 20.5t40.5 30.5q-8 -1 -19 -6t-16 -5q-10 0 -17.5 9t-7.5 19q0 16 20 53.5t20 50.5q0 10 -5.5 14.5t-5.5 14.5q0 11 8.5 20t18.5 9q24 0 27 -21q19 1 37.5 -8t29.5 -9q12 0 35 8t33 8q4 0 8 -1q4 24 30 24q13 0 23 -8.5t7 -22.5
q-1 -4 -5.5 -15.5t-4.5 -21.5q0 -20 15 -54t15 -45q0 -24 -27 -24q-11 0 -28 7q-20 10 -22 10q5 -13 24 -20q25 -10 33 -16.5t21 -17.5q11 9 32 32q2 2 8 12q4 7 7 7q2 0 4.5 -2.5t2.5 -6.5q0 -14 -49 -47q4 -3 15 -16q7 3 23 7q22 5 25 -4q1 -6 -7.5 -6.5t-17.5 -0.5
q-2 0 -17 -3q5 -5 16 -21q41 0 47 -1q13 -2 13 -13q0 -5 -4 -5q-3 0 -11 3t-11 4q-10 2 -29 5q18 -33 18 -49q0 -12 -10 -18q80 11 85 11q23 0 43 -35zM444 452q-1 9 -8 14.5t-12 3.5q-9 -1 -14.5 -8t-3.5 -12q2 -19 21 -17q9 1 14 7.5t3 11.5zM245 449q-1 9 -8.5 15
t-12.5 4q-9 -1 -15 -8.5t-4 -12.5q1 -8 9 -13.5t13 -3.5q9 1 14.5 7.5t3.5 11.5zM411 343q-24 -11 -53 -11q-14 0 -38 3t-34 3q-9 0 -41 -7q30 2 58 -3q32 -6 31 -6q40 0 77 21zM400 348l-2 3q-20 -11 -68 -4q-19 3 -37 6q-20 3 -38 -2q-14 -4 -36 -16q-25 -14 -33 -25l1 -3
q32 30 70 39q22 5 73 -3q46 -7 70 5zM454 307v3q-27 17 -50 17q-12 0 -34.5 -7.5t-34.5 -7.5q-25 0 -40 5q-27 8 -34 9l-6 -1q18 -6 36.5 -12t44.5 -6q10 0 29 5q23 6 29 7q16 3 60 -12zM433 452q0 -8 -7 -8q-9 0 -9 6q0 9 7 9q9 0 9 -7zM234 449q0 -9 -8 -9q-10 0 -10 7
q0 10 8 10q10 0 10 -8z" />
    <glyph glyph-name="threequarters" unicode="&#xbe;" horiz-adv-x="684" 
d="M658 102q4 -7 4 -15q0 -18 -27 -38q-24 -15 -48 -31q-19 -14 -33 -18q1 -1 2 -2.5t2.5 -3.5t9 -7t7.5 -7q0 -7 -10 -7q-14 0 -26 17l-3 6q-9 -3 -31 -6q1 -3 3 -11q2 -22 -7 -24q-5 -1 -6.5 8.5t-2.5 18.5q0 1 -1 3.5t-2 4.5q-17 -1 -34 0q0 -37 -1 -43q-2 -13 -16 -13
q-6 0 -4 9q3 9 5 17q2 21 5 30q-16 0 -59 15.5t-60 15.5q-27 1 -70.5 -15t-70.5 -16q3 -9 6 -31q4 -27 -4 -27q-11 0 -13 14q1 -6 1 44q-13 0 -37 2q0 -3 -2.5 -12t-4 -18t-7.5 -8q-12 3 -7 24l4 16q-10 1 -31 7q-2 -4 -7 -12q-17 -26 -30 -14q-3 2 -3 5q0 -2 14 14l11 11
q-32 14 -44 54.5t-12 39.5q0 8 4 16q14 27 47 27q11 0 51 -6q-14 11 -14 25q0 13 13 34q-5 -1 -16.5 -7t-15.5 -6q-1 0 -2 1q-4 7 17 17q12 8 28 12q3 3 12 14q-5 2 -19 5q-9 1 -16.5 1.5t-6.5 5.5q1 4 10 4q20 5 39 -10q2 3 10 9q-14 24 -26 33q-6 5 -23 9q-10 3 -7 9
q5 10 36 -9q11 -6 25 -37q12 12 23.5 20.5t40.5 30.5q-8 -1 -19 -6t-16 -5q-10 0 -17.5 9t-7.5 19q0 16 20 53.5t20 50.5q0 10 -5.5 14.5t-5.5 14.5q0 11 8.5 20t18.5 9q24 0 27 -21q19 1 37.5 -8t29.5 -9q12 0 35 8t33 8q4 0 8 -1q4 24 30 24q13 0 23 -8.5t7 -22.5
q-1 -4 -5.5 -15.5t-4.5 -21.5q0 -20 15 -54t15 -45q0 -24 -27 -24q-11 0 -28 7q-20 10 -22 10q5 -13 24 -20q25 -10 33 -16.5t21 -17.5q11 9 32 32q2 2 8 12q4 7 7 7q2 0 4.5 -2.5t2.5 -6.5q0 -14 -49 -47q4 -3 15 -16q7 3 23 7q22 5 25 -4q1 -6 -7.5 -6.5t-17.5 -0.5
q-2 0 -17 -3q5 -5 16 -21q41 0 47 -1q13 -2 13 -13q0 -5 -4 -5q-3 0 -11 3t-11 4q-10 2 -29 5q18 -33 18 -49q0 -12 -10 -18q80 11 85 11q23 0 43 -35zM444 452q-1 9 -8 14.5t-12 3.5q-9 -1 -14.5 -8t-3.5 -12q2 -19 21 -17q9 1 14 7.5t3 11.5zM245 449q-1 9 -8.5 15
t-12.5 4q-9 -1 -15 -8.5t-4 -12.5q1 -8 9 -13.5t13 -3.5q9 1 14.5 7.5t3.5 11.5zM411 343q-24 -11 -53 -11q-14 0 -38 3t-34 3q-9 0 -41 -7q30 2 58 -3q32 -6 31 -6q40 0 77 21zM400 348l-2 3q-20 -11 -68 -4q-19 3 -37 6q-20 3 -38 -2q-14 -4 -36 -16q-25 -14 -33 -25l1 -3
q32 30 70 39q22 5 73 -3q46 -7 70 5zM454 307v3q-27 17 -50 17q-12 0 -34.5 -7.5t-34.5 -7.5q-25 0 -40 5q-27 8 -34 9l-6 -1q18 -6 36.5 -12t44.5 -6q10 0 29 5q23 6 29 7q16 3 60 -12zM433 452q0 -8 -7 -8q-9 0 -9 6q0 9 7 9q9 0 9 -7zM234 449q0 -9 -8 -9q-10 0 -10 7
q0 10 8 10q10 0 10 -8z" />
    <glyph glyph-name="questiondown" unicode="&#xbf;" horiz-adv-x="239" 
d="M233 262q-1 -13 -11.5 -25t-24.5 -13q-16 -1 -25.5 8.5t-8.5 23.5q4 34 37 36q16 1 25 -7t8 -23zM189 162q-8 -28 -53 -72q-36 -30 -94 -81q-66 -61 -66 -111q0 -25 14.5 -40.5t37.5 -14.5q40 1 64 40q14 28 11 53t-13 40q21 -10 26 -33q8 -34 -4 -65q-8 -20 -30 -37
q-28 -22 -64 -24q-46 -2 -74.5 19.5t-28.5 61.5q0 58 78 125q38 25 114 79q32 24 42 34q19 17 27 33q10 21 0 23q-5 1 -23 -17q-10 -10 -12 -17q-6 4 -7 13q0 8 6 14.5t19 10t19 1.5q19 -7 11 -35z" />
    <glyph glyph-name="Agrave" unicode="&#xc0;" horiz-adv-x="820" 
d="M951 523q-1 -4 -23 -1q-32 4 -77 14q-3 -31 -5 -43q-25 -136 -58 -238q-27 -82 -84 -197q45 50 82 63q9 2 9 -2q0 -2 -8 -6q-26 -12 -82 -73q-16 -18 -48 -55q-18 -24 -41 -24q-11 0 -3 16q6 14 16 37q48 110 91.5 245.5t60.5 221.5q6 28 12 66l-35 7q-93 -158 -222 -297
q29 -9 51 -13q59 -12 104 -15q13 -1 12 -2q0 -5 -18 -6q-66 -3 -135 8q-17 3 -34 8q-81 -81 -179 -149q-240 -167 -385 -167q-72 0 -77 33q-8 50 95 78q13 4 15 2q1 -2 -8 -6q-53 -21 -53 -59q0 -41 63 -36q130 11 327 168q85 68 164 147q-22 7 -39 15q-22 10 -16 22
q4 8 13 8q11 0 35 -11q18 -8 29 -12q116 117 240 288l-164 33q-86 18 -173 36q-90 17 -168 25q-24 3 -49 3q-174 0 -167 -108q2 -26 37 -61q29 -28 63 -48q9 -7 8 -7q-1 -2 -14 3q-128 53 -141 106q-3 11 -3 21q0 60 92 86q63 19 155 19q21 0 37 -1q114 -7 329 -53
q20 -4 167 -41q12 16 34 50q17 30 20 50q1 7 1 24q0 10 4 10q7 0 19 -18t18 -42q9 -39 7 -98q36 -9 77 -18q22 -5 22 -6zM803 642q-3 -10 -12 -27.5t-26 -47.5q10 -2 30 -8q4 34 8 83zM866 709q-17 -1 -52.5 15t-56.5 33.5t-21 33.5t19 16q16 0 34.5 -21t36.5 -43
q24 -25 40 -34z" />
    <glyph glyph-name="Aacute" unicode="&#xc1;" horiz-adv-x="820" 
d="M951 523q-1 -4 -23 -1q-32 4 -77 14q-3 -31 -5 -43q-25 -136 -58 -238q-27 -82 -84 -197q45 50 82 63q9 2 9 -2q0 -2 -8 -6q-26 -12 -82 -73q-16 -18 -48 -55q-18 -24 -41 -24q-11 0 -3 16q6 14 16 37q48 110 91.5 245.5t60.5 221.5q6 28 12 66l-35 7q-93 -158 -222 -297
q29 -9 51 -13q59 -12 104 -15q13 -1 12 -2q0 -5 -18 -6q-66 -3 -135 8q-17 3 -34 8q-81 -81 -179 -149q-240 -167 -385 -167q-72 0 -77 33q-8 50 95 78q13 4 15 2q1 -2 -8 -6q-53 -21 -53 -59q0 -41 63 -36q130 11 327 168q85 68 164 147q-22 7 -39 15q-22 10 -16 22
q4 8 13 8q11 0 35 -11q18 -8 29 -12q116 117 240 288l-164 33q-86 18 -173 36q-90 17 -168 25q-24 3 -49 3q-174 0 -167 -108q2 -26 37 -61q29 -28 63 -48q9 -7 8 -7q-1 -2 -14 3q-128 53 -141 106q-3 11 -3 21q0 60 92 86q63 19 155 19q21 0 37 -1q114 -7 329 -53
q20 -4 167 -41q12 16 34 50q17 30 20 50q1 7 1 24q0 10 4 10q7 0 19 -18t18 -42q9 -39 7 -98q36 -9 77 -18q22 -5 22 -6zM803 642q-3 -10 -12 -27.5t-26 -47.5q10 -2 30 -8q4 34 8 83zM883 796q0 -16 -21 -33.5t-56.5 -33.5t-52.5 -15q16 8 77 78q18 20 34 20q19 0 19 -16z
" />
    <glyph glyph-name="Acircumflex" unicode="&#xc2;" horiz-adv-x="820" 
d="M951 523q-1 -4 -23 -1q-32 4 -77 14q-3 -31 -5 -43q-25 -136 -58 -238q-27 -82 -84 -197q45 50 82 63q9 2 9 -2q0 -2 -8 -6q-26 -12 -82 -73q-16 -18 -48 -55q-18 -24 -41 -24q-11 0 -3 16q6 14 16 37q48 110 91.5 245.5t60.5 221.5q6 28 12 66l-35 7q-93 -158 -222 -297
q29 -9 51 -13q59 -12 104 -15q13 -1 12 -2q0 -5 -18 -6q-66 -3 -135 8q-17 3 -34 8q-81 -81 -179 -149q-240 -167 -385 -167q-72 0 -77 33q-8 50 95 78q13 4 15 2q1 -2 -8 -6q-53 -21 -53 -59q0 -41 63 -36q130 11 327 168q85 68 164 147q-22 7 -39 15q-22 10 -16 22
q4 8 13 8q11 0 35 -11q18 -8 29 -12q116 117 240 288l-164 33q-86 18 -173 36q-90 17 -168 25q-24 3 -49 3q-174 0 -167 -108q2 -26 37 -61q29 -28 63 -48q9 -7 8 -7q-1 -2 -14 3q-128 53 -141 106q-3 11 -3 21q0 60 92 86q63 19 155 19q21 0 37 -1q114 -7 329 -53
q20 -4 167 -41q12 16 34 50q17 30 20 50q1 7 1 24q0 10 4 10q7 0 19 -18t18 -42q9 -39 7 -98q36 -9 77 -18q22 -5 22 -6zM803 642q-3 -10 -12 -27.5t-26 -47.5q10 -2 30 -8q4 34 8 83zM878 712q-2 -2 -10 5q-23 16 -36 37q-37 -21 -90 -40q-7 -2 -8 1t4 6q39 26 99 83
q7 7 9 7q3 0 5 -11q10 -48 25 -79q4 -7 2 -9z" />
    <glyph glyph-name="Atilde" unicode="&#xc3;" horiz-adv-x="820" 
d="M951 523q-1 -4 -23 -1q-32 4 -77 14q-3 -31 -5 -43q-25 -136 -58 -238q-27 -82 -84 -197q45 50 82 63q9 2 9 -2q0 -2 -8 -6q-26 -12 -82 -73q-16 -18 -48 -55q-18 -24 -41 -24q-11 0 -3 16q6 14 16 37q48 110 91.5 245.5t60.5 221.5q6 28 12 66l-35 7q-93 -158 -222 -297
q29 -9 51 -13q59 -12 104 -15q13 -1 12 -2q0 -5 -18 -6q-66 -3 -135 8q-17 3 -34 8q-81 -81 -179 -149q-240 -167 -385 -167q-72 0 -77 33q-8 50 95 78q13 4 15 2q1 -2 -8 -6q-53 -21 -53 -59q0 -41 63 -36q130 11 327 168q85 68 164 147q-22 7 -39 15q-22 10 -16 22
q4 8 13 8q11 0 35 -11q18 -8 29 -12q116 117 240 288l-164 33q-86 18 -173 36q-90 17 -168 25q-24 3 -49 3q-174 0 -167 -108q2 -26 37 -61q29 -28 63 -48q9 -7 8 -7q-1 -2 -14 3q-128 53 -141 106q-3 11 -3 21q0 60 92 86q63 19 155 19q21 0 37 -1q114 -7 329 -53
q20 -4 167 -41q12 16 34 50q17 30 20 50q1 7 1 24q0 10 4 10q7 0 19 -18t18 -42q9 -39 7 -98q36 -9 77 -18q22 -5 22 -6zM803 642q-3 -10 -12 -27.5t-26 -47.5q10 -2 30 -8q4 34 8 83zM895 764q-20 -41 -52 -40q-19 5 -61 13q-20 3 -35 -9q-9 -5 -8 -5q-15 8 10.5 29
t43.5 20q21 -5 61 -13q26 -3 34 8q5 7 7 6q3 -2 0 -9z" />
    <glyph glyph-name="Adieresis" unicode="&#xc4;" horiz-adv-x="820" 
d="M951 523q-1 -4 -23 -1q-32 4 -77 14q-3 -31 -5 -43q-25 -136 -58 -238q-27 -82 -84 -197q45 50 82 63q9 2 9 -2q0 -2 -8 -6q-26 -12 -82 -73q-16 -18 -48 -55q-18 -24 -41 -24q-11 0 -3 16q6 14 16 37q48 110 91.5 245.5t60.5 221.5q6 28 12 66l-35 7q-93 -158 -222 -297
q29 -9 51 -13q59 -12 104 -15q13 -1 12 -2q0 -5 -18 -6q-66 -3 -135 8q-17 3 -34 8q-81 -81 -179 -149q-240 -167 -385 -167q-72 0 -77 33q-8 50 95 78q13 4 15 2q1 -2 -8 -6q-53 -21 -53 -59q0 -41 63 -36q130 11 327 168q85 68 164 147q-22 7 -39 15q-22 10 -16 22
q4 8 13 8q11 0 35 -11q18 -8 29 -12q116 117 240 288l-164 33q-86 18 -173 36q-90 17 -168 25q-24 3 -49 3q-174 0 -167 -108q2 -26 37 -61q29 -28 63 -48q9 -7 8 -7q-1 -2 -14 3q-128 53 -141 106q-3 11 -3 21q0 60 92 86q63 19 155 19q21 0 37 -1q114 -7 329 -53
q20 -4 167 -41q12 16 34 50q17 30 20 50q1 7 1 24q0 10 4 10q7 0 19 -18t18 -42q9 -39 7 -98q36 -9 77 -18q22 -5 22 -6zM803 642q-3 -10 -12 -27.5t-26 -47.5q10 -2 30 -8q4 34 8 83zM893 758q0 -29 -29 -29q-11 0 -19.5 8.5t-8.5 20.5t8.5 20.5t19.5 8.5q29 0 29 -29z
M796 758q0 -29 -29 -29q-11 0 -20 8.5t-9 20.5t9 20.5t20 8.5q29 0 29 -29z" />
    <glyph glyph-name="Aring" unicode="&#xc5;" horiz-adv-x="820" 
d="M859 766q0 -19 -13.5 -32.5t-33.5 -13.5t-33.5 13.5t-13.5 32.5q0 20 14 33.5t33 13.5q20 0 33.5 -13.5t13.5 -33.5zM951 523q-1 -4 -23 -1q-32 4 -77 14q-3 -31 -5 -43q-25 -136 -58 -238q-27 -82 -84 -197q45 50 82 63q9 2 9 -2q0 -2 -8 -6q-26 -12 -82 -73
q-16 -18 -48 -55q-18 -24 -41 -24q-11 0 -3 16q6 14 16 37q48 110 91.5 245.5t60.5 221.5q6 28 12 66l-35 7q-93 -158 -222 -297q29 -9 51 -13q59 -12 104 -15q13 -1 12 -2q0 -5 -18 -6q-66 -3 -135 8q-17 3 -34 8q-81 -81 -179 -149q-240 -167 -385 -167q-72 0 -77 33
q-8 50 95 78q13 4 15 2q1 -2 -8 -6q-53 -21 -53 -59q0 -41 63 -36q130 11 327 168q85 68 164 147q-22 7 -39 15q-22 10 -16 22q4 8 13 8q11 0 35 -11q18 -8 29 -12q116 117 240 288l-164 33q-86 18 -173 36q-90 17 -168 25q-24 3 -49 3q-174 0 -167 -108q2 -26 37 -61
q29 -28 63 -48q9 -7 8 -7q-1 -2 -14 3q-128 53 -141 106q-3 11 -3 21q0 60 92 86q63 19 155 19q21 0 37 -1q114 -7 329 -53q20 -4 167 -41q12 16 34 50q17 30 20 50q1 7 1 24q0 10 4 10q7 0 19 -18t18 -42q9 -39 7 -98q36 -9 77 -18q22 -5 22 -6zM837 766q0 25 -25 25
t-25 -25t25 -25t25 25zM803 642q-3 -10 -12 -27.5t-26 -47.5q10 -2 30 -8q4 34 8 83z" />
    <glyph glyph-name="AE" unicode="&#xc6;" horiz-adv-x="1000" 
d="M1118 443q1 1 -13 9q-28 17 -108.5 45.5t-145.5 45.5q-2 -29 -6 -51q-23 -130 -58 -242q113 -21 205 -24q15 0 14 -2q-1 -7 -32 -7q-109 -1 -194 13q-38 -106 -75 -165q-23 -37 -54 -64q31 -15 96 -51q152 -83 220 -83q88 0 120 57q6 8 7 8q2 -1 -3 -14q-12 -28 -41 -48
q-38 -26 -93 -27q-81 -1 -229 71q-42 21 -108 55q-8 -6 -21 -10q-44 -13 -78 -8q-67 10 -67 52q0 20 22.5 35t58.5 10q29 -4 87 -33q11 11 16 22q33 72 75 202q-98 13 -166 31q-51 -55 -127 -118q-128 -106 -251 -168q-109 -54 -183 -61q-18 -2 -34 -2q-72 0 -77 33
q-8 50 95 78q13 4 15 2q1 -2 -8 -6q-53 -21 -53 -59q0 -41 63 -36q68 5 172 63q129 72 272 206q38 36 81 80q-16 5 -36 11q-25 9 -25 24q0 5 3 8q5 7 81 -18q112 118 211 261q-55 14 -170 38q-227 41 -344 48q-21 1 -40 1q-181 0 -173 -108q2 -26 37 -61q29 -28 63 -48
q9 -7 8 -7q-1 -2 -14 3q-128 53 -141 106q-3 11 -3 21q0 69 120 95q78 17 164 12q178 -10 333 -39q90 -17 175 -38q14 20 22 33q16 28 20 49q2 12 2 23.5t3 11.5q5 0 17 -16q16 -22 23 -53q5 -24 5 -70q171 -49 253 -110q17 -12 12 -16zM803 645q-4 -14 -9 -23.5t-19 -33.5
q5 -1 23 -6q5 37 5 63zM795 556l-32 8q-86 -146 -193 -268q44 -13 150 -34q43 131 61 218q6 26 14 76zM595 -18q-101 59 -114 49q-7 -5 -7 -16q0 -38 47 -51q32 -9 63 9q8 6 11 9z" />
    <glyph glyph-name="Ccedilla" unicode="&#xc7;" horiz-adv-x="758" 
d="M809 568q2 -8 2 -17q0 -55 -70 -94q-63 -35 -138 -35q-48 0 -82 15q-25 12 -39 30q-11 15 -8 19l12 -12q16 -17 39 -27q33 -15 78 -15q59 0 103 30q48 32 48 81q0 11 -3 23q-14 60 -110 60q-14 0 -30 -1q-63 -5 -148 -42q-104 -46 -190 -120q-75 -65 -124 -151
q-53 -92 -58 -179q-6 -99 55 -149q56 -44 158 -42q156 3 278 71q108 60 122 149q2 15 0 29q-3 19 -4 18q10 6 25 -13q11 -14 10 -34q-3 -80 -149 -160q-127 -70 -275 -78q-5 -4 -11 -12q-3 -5 4 -6q52 -5 50 -37q-1 -22 -22.5 -33.5t-53.5 -9.5q-39 3 -56 31q-3 6 -1 8t5 -2
q15 -17 52 -17q31 0 34 24q2 18 -21 21q-7 0 -17 4q-2 1 9 15q4 5 12 14q-129 -3 -205 43q-91 55 -81 167q8 95 72 191q59 89 149 155q179 133 384 155q20 2 41 2q140 0 154 -69z" />
    <glyph glyph-name="Egrave" unicode="&#xc8;" horiz-adv-x="633" 
d="M841 481q1 1 -13 9q-55 33 -226 83q-21 -45 -85 -175q-33 -67 -52 -102q31 -7 79 -16q76 -14 114 -15q9 0 8 -3q-1 -4 -17 -5q-77 -3 -141 8q-26 4 -54 10q-82 -148 -148 -214q166 -117 178 -125q115 -71 193 -71q84 0 119 62q5 9 7 8q3 -1 -1 -13q-9 -29 -38 -49
q-36 -25 -91 -25q-149 0 -323 124q-16 12 -77 56q-107 -88 -190 -81q-77 6 -77 66q0 10 2 11l8 -12q10 -15 24 -24q21 -15 52 -18q13 -1 24 -1q40 0 76 21q28 17 57 54q-43 34 -85 67q-67 51 -89 56q-20 5 -20 -5q0 -18 36 -54q42 -41 90 -53q-68 3 -107 36q-31 27 -31 59
q0 16 9 22q19 13 42 7q78 -20 183 -96q40 59 114 208q-29 9 -41 14q-18 8 -11 20q4 6 28 -1l34 -12q10 18 46 89q61 119 99 187q-75 24 -174 31q-32 2 -58 2q-172 0 -176 -116q-1 -29 31 -68q26 -32 57 -53q7 -7 7 -8q-1 -3 -13 4q-116 63 -124 113q-1 9 -1 18q0 80 120 112
q81 22 164 16q88 -6 182 -28q21 35 48 58q13 11 35 24q30 18 37 11q2 -2 -4 -6q-9 -8 -14 -14q-30 -39 -50 -86q137 -37 218 -101q15 -12 10 -16zM713 717q-17 -1 -52.5 15t-56.5 33.5t-21 33.5t19 16q16 0 34.5 -21t36.5 -43q24 -25 40 -34z" />
    <glyph glyph-name="Eacute" unicode="&#xc9;" horiz-adv-x="633" 
d="M841 481q1 1 -13 9q-55 33 -226 83q-21 -45 -85 -175q-33 -67 -52 -102q31 -7 79 -16q76 -14 114 -15q9 0 8 -3q-1 -4 -17 -5q-77 -3 -141 8q-26 4 -54 10q-82 -148 -148 -214q166 -117 178 -125q115 -71 193 -71q84 0 119 62q5 9 7 8q3 -1 -1 -13q-9 -29 -38 -49
q-36 -25 -91 -25q-149 0 -323 124q-16 12 -77 56q-107 -88 -190 -81q-77 6 -77 66q0 10 2 11l8 -12q10 -15 24 -24q21 -15 52 -18q13 -1 24 -1q40 0 76 21q28 17 57 54q-43 34 -85 67q-67 51 -89 56q-20 5 -20 -5q0 -18 36 -54q42 -41 90 -53q-68 3 -107 36q-31 27 -31 59
q0 16 9 22q19 13 42 7q78 -20 183 -96q40 59 114 208q-29 9 -41 14q-18 8 -11 20q4 6 28 -1l34 -12q10 18 46 89q61 119 99 187q-75 24 -174 31q-32 2 -58 2q-172 0 -176 -116q-1 -29 31 -68q26 -32 57 -53q7 -7 7 -8q-1 -3 -13 4q-116 63 -124 113q-1 9 -1 18q0 80 120 112
q81 22 164 16q88 -6 182 -28q21 35 48 58q13 11 35 24q30 18 37 11q2 -2 -4 -6q-9 -8 -14 -14q-30 -39 -50 -86q137 -37 218 -101q15 -12 10 -16zM727 796q0 -16 -21 -33.5t-56.5 -33.5t-52.5 -15q16 8 77 78q18 20 34 20q19 0 19 -16z" />
    <glyph glyph-name="Ecircumflex" unicode="&#xca;" horiz-adv-x="633" 
d="M841 481q1 1 -13 9q-55 33 -226 83q-21 -45 -85 -175q-33 -67 -52 -102q31 -7 79 -16q76 -14 114 -15q9 0 8 -3q-1 -4 -17 -5q-77 -3 -141 8q-26 4 -54 10q-82 -148 -148 -214q166 -117 178 -125q115 -71 193 -71q84 0 119 62q5 9 7 8q3 -1 -1 -13q-9 -29 -38 -49
q-36 -25 -91 -25q-149 0 -323 124q-16 12 -77 56q-107 -88 -190 -81q-77 6 -77 66q0 10 2 11l8 -12q10 -15 24 -24q21 -15 52 -18q13 -1 24 -1q40 0 76 21q28 17 57 54q-43 34 -85 67q-67 51 -89 56q-20 5 -20 -5q0 -18 36 -54q42 -41 90 -53q-68 3 -107 36q-31 27 -31 59
q0 16 9 22q19 13 42 7q78 -20 183 -96q40 59 114 208q-29 9 -41 14q-18 8 -11 20q4 6 28 -1l34 -12q10 18 46 89q61 119 99 187q-75 24 -174 31q-32 2 -58 2q-172 0 -176 -116q-1 -29 31 -68q26 -32 57 -53q7 -7 7 -8q-1 -3 -13 4q-116 63 -124 113q-1 9 -1 18q0 80 120 112
q81 22 164 16q88 -6 182 -28q21 35 48 58q13 11 35 24q30 18 37 11q2 -2 -4 -6q-9 -8 -14 -14q-30 -39 -50 -86q137 -37 218 -101q15 -12 10 -16zM730 712q-2 -2 -10 5q-23 16 -36 37q-37 -21 -90 -40q-7 -2 -8 1t4 6q39 26 99 83q7 7 9 7q3 0 5 -11q10 -48 25 -79
q4 -7 2 -9z" />
    <glyph glyph-name="Edieresis" unicode="&#xcb;" horiz-adv-x="633" 
d="M841 481q1 1 -13 9q-55 33 -226 83q-21 -45 -85 -175q-33 -67 -52 -102q31 -7 79 -16q76 -14 114 -15q9 0 8 -3q-1 -4 -17 -5q-77 -3 -141 8q-26 4 -54 10q-82 -148 -148 -214q166 -117 178 -125q115 -71 193 -71q84 0 119 62q5 9 7 8q3 -1 -1 -13q-9 -29 -38 -49
q-36 -25 -91 -25q-149 0 -323 124q-16 12 -77 56q-107 -88 -190 -81q-77 6 -77 66q0 10 2 11l8 -12q10 -15 24 -24q21 -15 52 -18q13 -1 24 -1q40 0 76 21q28 17 57 54q-43 34 -85 67q-67 51 -89 56q-20 5 -20 -5q0 -18 36 -54q42 -41 90 -53q-68 3 -107 36q-31 27 -31 59
q0 16 9 22q19 13 42 7q78 -20 183 -96q40 59 114 208q-29 9 -41 14q-18 8 -11 20q4 6 28 -1l34 -12q10 18 46 89q61 119 99 187q-75 24 -174 31q-32 2 -58 2q-172 0 -176 -116q-1 -29 31 -68q26 -32 57 -53q7 -7 7 -8q-1 -3 -13 4q-116 63 -124 113q-1 9 -1 18q0 80 120 112
q81 22 164 16q88 -6 182 -28q21 35 48 58q13 11 35 24q30 18 37 11q2 -2 -4 -6q-9 -8 -14 -14q-30 -39 -50 -86q137 -37 218 -101q15 -12 10 -16zM738 745q0 -29 -29 -29q-11 0 -19.5 8.5t-8.5 20.5t8.5 20.5t19.5 8.5q29 0 29 -29zM641 745q0 -29 -29 -29q-11 0 -20 8.5
t-9 20.5t9 20.5t20 8.5q29 0 29 -29z" />
    <glyph glyph-name="Igrave" unicode="&#xcc;" horiz-adv-x="445" 
d="M588 559q-1 -5 -17 -3q-10 2 -31 6q-8 -86 -46 -177q-70 -166 -176 -303q-67 -87 -143 -143q-65 -48 -107 -39q-38 8 -37 48q2 52 56 103q23 21 31 23q-9 -11 -16 -24q-36 -72 -36 -122q0 -20 13 -20q25 0 53 26q62 59 124 149q89 129 170 308q41 91 69 184
q-69 15 -127 30q-134 36 -209 43q-56 5 -98 -17q-59 -31 -53 -108q2 -29 29 -67q21 -30 44 -49l7 -9q-1 -3 -11 4q-102 66 -113 114q-4 16 -4 31q0 71 84 98q48 16 111 15q87 -2 227 -38q39 -12 115 -36q2 11 2 21q0 9 -2 16.5l-2 7.5q0 2 3 3q9 2 23 -15q16 -20 19 -46
l26 -7q22 -6 22 -7zM560 669q-17 -1 -52.5 15t-56.5 33.5t-21 33.5t19 16q16 0 34.5 -21t36.5 -43q24 -25 40 -34z" />
    <glyph glyph-name="Iacute" unicode="&#xcd;" horiz-adv-x="445" 
d="M588 559q-1 -5 -17 -3q-10 2 -31 6q-8 -86 -46 -177q-70 -166 -176 -303q-67 -87 -143 -143q-65 -48 -107 -39q-38 8 -37 48q2 52 56 103q23 21 31 23q-9 -11 -16 -24q-36 -72 -36 -122q0 -20 13 -20q25 0 53 26q62 59 124 149q89 129 170 308q41 91 69 184
q-69 15 -127 30q-134 36 -209 43q-56 5 -98 -17q-59 -31 -53 -108q2 -29 29 -67q21 -30 44 -49l7 -9q-1 -3 -11 4q-102 66 -113 114q-4 16 -4 31q0 71 84 98q48 16 111 15q87 -2 227 -38q39 -12 115 -36q2 11 2 21q0 9 -2 16.5l-2 7.5q0 2 3 3q9 2 23 -15q16 -20 19 -46
l26 -7q22 -6 22 -7zM588 756q0 -16 -21 -33.5t-56.5 -33.5t-52.5 -15q16 8 77 78q18 20 34 20q19 0 19 -16z" />
    <glyph glyph-name="Icircumflex" unicode="&#xce;" horiz-adv-x="445" 
d="M588 559q-1 -5 -17 -3q-10 2 -31 6q-8 -86 -46 -177q-70 -166 -176 -303q-67 -87 -143 -143q-65 -48 -107 -39q-38 8 -37 48q2 52 56 103q23 21 31 23q-9 -11 -16 -24q-36 -72 -36 -122q0 -20 13 -20q25 0 53 26q62 59 124 149q89 129 170 308q41 91 69 184
q-69 15 -127 30q-134 36 -209 43q-56 5 -98 -17q-59 -31 -53 -108q2 -29 29 -67q21 -30 44 -49l7 -9q-1 -3 -11 4q-102 66 -113 114q-4 16 -4 31q0 71 84 98q48 16 111 15q87 -2 227 -38q39 -12 115 -36q2 11 2 21q0 9 -2 16.5l-2 7.5q0 2 3 3q9 2 23 -15q16 -20 19 -46
l26 -7q22 -6 22 -7zM580 672q-2 -2 -10 5q-23 16 -36 37q-37 -21 -90 -40q-7 -2 -8 1t4 6q39 26 99 83q7 7 9 7q3 0 5 -11q10 -48 25 -79q4 -7 2 -9z" />
    <glyph glyph-name="Idieresis" unicode="&#xcf;" horiz-adv-x="445" 
d="M588 559q-1 -5 -17 -3q-10 2 -31 6q-8 -86 -46 -177q-70 -166 -176 -303q-67 -87 -143 -143q-65 -48 -107 -39q-38 8 -37 48q2 52 56 103q23 21 31 23q-9 -11 -16 -24q-36 -72 -36 -122q0 -20 13 -20q25 0 53 26q62 59 124 149q89 129 170 308q41 91 69 184
q-69 15 -127 30q-134 36 -209 43q-56 5 -98 -17q-59 -31 -53 -108q2 -29 29 -67q21 -30 44 -49l7 -9q-1 -3 -11 4q-102 66 -113 114q-4 16 -4 31q0 71 84 98q48 16 111 15q87 -2 227 -38q39 -12 115 -36q2 11 2 21q0 9 -2 16.5l-2 7.5q0 2 3 3q9 2 23 -15q16 -20 19 -46
l26 -7q22 -6 22 -7zM579 705q0 -29 -29 -29q-11 0 -19.5 8.5t-8.5 20.5t8.5 20.5t19.5 8.5q29 0 29 -29zM482 705q0 -29 -29 -29q-11 0 -20 8.5t-9 20.5t9 20.5t20 8.5q29 0 29 -29z" />
    <glyph glyph-name="Eth" unicode="&#xd0;" horiz-adv-x="975" 
d="M974 277q-33 -150 -159 -257q-111 -94 -288 -94q-148 0 -265 99q-37 31 -76 72q-79 -106 -101 -167l-6 -17q-7 0 0 27q6 24 33 86.5t47 98.5q-23 29 -48 54q-15 -17 -24 -40q-37 -92 -38 -153q-1 -54 15 -81l6 -11q-9 2 -16 15q-22 36 -22 79q0 98 30 168q19 44 31 45
q10 1 34 -6q29 -9 55 -33q39 76 88 151q-4 0 -35 -1q-27 -1 -41 -1q-19 1 -18 5q3 19 113 25q45 69 206 245q-18 -2 -158 -19q-100 -12 -176 -13q-51 -1 -93 15q-48 19 -48 49q0 38 70 58q54 15 101 12q40 -2 36 -10q0 1 -26 2q-41 2 -81 -10q-55 -16 -55 -50q0 -44 114 -44
q109 0 325 22q3 5 9 13t8 11l-34 -6q39 32 53 42q21 15 25 13q5 -2 -3 -18q-11 -22 -32 -53q40 3 79 3q155 0 249 -53q58 -33 90 -90t32 -124q0 -30 -6 -59zM893 280q13 45 13 91q0 114 -74 166.5t-233 52.5q-37 0 -77 -3q-94 -161 -154 -247q43 -2 96.5 -12t73.5 -21
q-47 6 -189 6q-51 -64 -135 -178q23 -21 74 -69q136 -128 243 -128q75 0 126.5 22t107.5 81q84 88 128 239z" />
    <glyph glyph-name="Ntilde" unicode="&#xd1;" horiz-adv-x="810" 
d="M1074 587q-36 4 -72.5 -19.5t-89.5 -106.5q-34 -53 -81 -148q-59 -119 -96 -206q-21 -48 -47.5 -105.5t-44.5 -54.5q-15 3 -7 34q3 13 12 27q8 48 1 143q-7 93 -24 202q-13 82 -34 142q0 -12 -6 -34q-40 -143 -121 -263q-100 -147 -228 -229q-121 -77 -221 -70
q-41 3 -66.5 24.5t-23.5 53.5q3 37 40 50q-9 -18 -7 -45q5 -61 74 -67q188 -16 409 307q105 154 133 240q14 43 1 71q-69 152 -242 152q-80 0 -130 -51.5t-48 -129.5q2 -114 99 -155q11 -4 10 -6q-1 -4 -17 0q-139 38 -144 163q-3 81 67.5 136t172.5 55q218 0 299 -172
q37 -78 53 -182q15 -98 11 -189q-4 -74 -15 -129q9 29 34 93q45 117 91 217q52 114 82 161q41 64 85 92q26 16 52 16q32 0 39 -17zM864 684q-20 -41 -52 -40q-19 5 -61 13q-20 3 -35 -9q-9 -5 -8 -5q-15 8 10.5 29t43.5 20q21 -5 61 -13q26 -3 34 8q5 7 7 6q3 -2 0 -9z" />
    <glyph glyph-name="Ograve" unicode="&#xd2;" horiz-adv-x="654" 
d="M635 498q24 -66 24 -141q0 -114 -53.5 -209.5t-150.5 -157.5q-100 -63 -203 -63q-104 0 -168 70q-61 67 -61 171q0 82 29 152q30 74 77 121q-13 24 -15 48q-7 77 54 129q58 50 147 51q119 2 195 -64q47 -41 69 -100q9 -24 -3 -26q-13 -2 -19 20q-9 30 -18 40
q-30 31 -83 33q-81 3 -143 -36q-76 -48 -135 -136q32 -48 87 -68q11 -4 10 -6t-3 -2q-4 0 -13 3q-61 22 -93 56q-14 -22 -39 -68q-51 -106 -51 -191q0 -20 2 -40q9 -70 54 -108.5t115 -38.5q85 0 165 67q65 55 115 145q85 154 85 281q0 149 -134 229q-6 2 -3 5q3 2 9 -1
q41 -21 80 -60q51 -50 71 -105zM532 557q-32 45 -86 73q-60 31 -131 30q-76 -1 -125.5 -51t-42.5 -129q1 -9 4 -19q55 61 150 97q72 28 154 23q45 -3 77 -24zM551 689q-17 -1 -52.5 15t-56.5 33.5t-21 33.5t19 16q16 0 34.5 -21t36.5 -43q24 -25 40 -34z" />
    <glyph glyph-name="Oacute" unicode="&#xd3;" horiz-adv-x="654" 
d="M635 498q24 -66 24 -141q0 -114 -53.5 -209.5t-150.5 -157.5q-100 -63 -203 -63q-104 0 -168 70q-61 67 -61 171q0 82 29 152q30 74 77 121q-13 24 -15 48q-7 77 54 129q58 50 147 51q119 2 195 -64q47 -41 69 -100q9 -24 -3 -26q-13 -2 -19 20q-9 30 -18 40
q-30 31 -83 33q-81 3 -143 -36q-76 -48 -135 -136q32 -48 87 -68q11 -4 10 -6t-3 -2q-4 0 -13 3q-61 22 -93 56q-14 -22 -39 -68q-51 -106 -51 -191q0 -20 2 -40q9 -70 54 -108.5t115 -38.5q85 0 165 67q65 55 115 145q85 154 85 281q0 149 -134 229q-6 2 -3 5q3 2 9 -1
q41 -21 80 -60q51 -50 71 -105zM532 557q-32 45 -86 73q-60 31 -131 30q-76 -1 -125.5 -51t-42.5 -129q1 -9 4 -19q55 61 150 97q72 28 154 23q45 -3 77 -24zM567 776q0 -16 -21 -33.5t-56.5 -33.5t-52.5 -15q16 8 77 78q18 20 34 20q19 0 19 -16z" />
    <glyph glyph-name="Ocircumflex" unicode="&#xd4;" horiz-adv-x="654" 
d="M635 498q24 -66 24 -141q0 -114 -53.5 -209.5t-150.5 -157.5q-100 -63 -203 -63q-104 0 -168 70q-61 67 -61 171q0 82 29 152q30 74 77 121q-13 24 -15 48q-7 77 54 129q58 50 147 51q119 2 195 -64q47 -41 69 -100q9 -24 -3 -26q-13 -2 -19 20q-9 30 -18 40
q-30 31 -83 33q-81 3 -143 -36q-76 -48 -135 -136q32 -48 87 -68q11 -4 10 -6t-3 -2q-4 0 -13 3q-61 22 -93 56q-14 -22 -39 -68q-51 -106 -51 -191q0 -20 2 -40q9 -70 54 -108.5t115 -38.5q85 0 165 67q65 55 115 145q85 154 85 281q0 149 -134 229q-6 2 -3 5q3 2 9 -1
q41 -21 80 -60q51 -50 71 -105zM532 557q-32 45 -86 73q-60 31 -131 30q-76 -1 -125.5 -51t-42.5 -129q1 -9 4 -19q55 61 150 97q72 28 154 23q45 -3 77 -24zM580 692q-2 -2 -10 5q-23 16 -36 37q-37 -21 -90 -40q-7 -2 -8 1t4 6q39 26 99 83q7 7 9 7q3 0 5 -11
q10 -48 25 -79q4 -7 2 -9z" />
    <glyph glyph-name="Otilde" unicode="&#xd5;" horiz-adv-x="654" 
d="M635 498q24 -66 24 -141q0 -114 -53.5 -209.5t-150.5 -157.5q-100 -63 -203 -63q-104 0 -168 70q-61 67 -61 171q0 82 29 152q30 74 77 121q-13 24 -15 48q-7 77 54 129q58 50 147 51q119 2 195 -64q47 -41 69 -100q9 -24 -3 -26q-13 -2 -19 20q-9 30 -18 40
q-30 31 -83 33q-81 3 -143 -36q-76 -48 -135 -136q32 -48 87 -68q11 -4 10 -6t-3 -2q-4 0 -13 3q-61 22 -93 56q-14 -22 -39 -68q-51 -106 -51 -191q0 -20 2 -40q9 -70 54 -108.5t115 -38.5q85 0 165 67q65 55 115 145q85 154 85 281q0 149 -134 229q-6 2 -3 5q3 2 9 -1
q41 -21 80 -60q51 -50 71 -105zM532 557q-32 45 -86 73q-60 31 -131 30q-76 -1 -125.5 -51t-42.5 -129q1 -9 4 -19q55 61 150 97q72 28 154 23q45 -3 77 -24zM583 749q-20 -41 -52 -40q-19 5 -61 13q-20 3 -35 -9q-9 -5 -8 -5q-15 8 10.5 29t43.5 20q21 -5 61 -13
q26 -3 34 8q5 7 7 6q3 -2 0 -9z" />
    <glyph glyph-name="Odieresis" unicode="&#xd6;" horiz-adv-x="654" 
d="M635 498q24 -66 24 -141q0 -114 -53.5 -209.5t-150.5 -157.5q-100 -63 -203 -63q-104 0 -168 70q-61 67 -61 171q0 82 29 152q30 74 77 121q-13 24 -15 48q-7 77 54 129q58 50 147 51q119 2 195 -64q47 -41 69 -100q9 -24 -3 -26q-13 -2 -19 20q-9 30 -18 40
q-30 31 -83 33q-81 3 -143 -36q-76 -48 -135 -136q32 -48 87 -68q11 -4 10 -6t-3 -2q-4 0 -13 3q-61 22 -93 56q-14 -22 -39 -68q-51 -106 -51 -191q0 -20 2 -40q9 -70 54 -108.5t115 -38.5q85 0 165 67q65 55 115 145q85 154 85 281q0 149 -134 229q-6 2 -3 5q3 2 9 -1
q41 -21 80 -60q51 -50 71 -105zM532 557q-32 45 -86 73q-60 31 -131 30q-76 -1 -125.5 -51t-42.5 -129q1 -9 4 -19q55 61 150 97q72 28 154 23q45 -3 77 -24zM583 733q0 -29 -29 -29q-11 0 -19.5 8.5t-8.5 20.5t8.5 20.5t19.5 8.5q29 0 29 -29zM486 733q0 -29 -29 -29
q-11 0 -20 8.5t-9 20.5t9 20.5t20 8.5q29 0 29 -29z" />
    <glyph glyph-name="multiply" unicode="&#xd7;" horiz-adv-x="684" 
d="M658 102q4 -7 4 -15q0 -18 -27 -38q-24 -15 -48 -31q-19 -14 -33 -18q1 -1 2 -2.5t2.5 -3.5t9 -7t7.5 -7q0 -7 -10 -7q-14 0 -26 17l-3 6q-9 -3 -31 -6q1 -3 3 -11q2 -22 -7 -24q-5 -1 -6.5 8.5t-2.5 18.5q0 1 -1 3.5t-2 4.5q-17 -1 -34 0q0 -37 -1 -43q-2 -13 -16 -13
q-6 0 -4 9q3 9 5 17q2 21 5 30q-16 0 -59 15.5t-60 15.5q-27 1 -70.5 -15t-70.5 -16q3 -9 6 -31q4 -27 -4 -27q-11 0 -13 14q1 -6 1 44q-13 0 -37 2q0 -3 -2.5 -12t-4 -18t-7.5 -8q-12 3 -7 24l4 16q-10 1 -31 7q-2 -4 -7 -12q-17 -26 -30 -14q-3 2 -3 5q0 -2 14 14l11 11
q-32 14 -44 54.5t-12 39.5q0 8 4 16q14 27 47 27q11 0 51 -6q-14 11 -14 25q0 13 13 34q-5 -1 -16.5 -7t-15.5 -6q-1 0 -2 1q-4 7 17 17q12 8 28 12q3 3 12 14q-5 2 -19 5q-9 1 -16.5 1.5t-6.5 5.5q1 4 10 4q20 5 39 -10q2 3 10 9q-14 24 -26 33q-6 5 -23 9q-10 3 -7 9
q5 10 36 -9q11 -6 25 -37q12 12 23.5 20.5t40.5 30.5q-8 -1 -19 -6t-16 -5q-10 0 -17.5 9t-7.5 19q0 16 20 53.5t20 50.5q0 10 -5.5 14.5t-5.5 14.5q0 11 8.5 20t18.5 9q24 0 27 -21q19 1 37.5 -8t29.5 -9q12 0 35 8t33 8q4 0 8 -1q4 24 30 24q13 0 23 -8.5t7 -22.5
q-1 -4 -5.5 -15.5t-4.5 -21.5q0 -20 15 -54t15 -45q0 -24 -27 -24q-11 0 -28 7q-20 10 -22 10q5 -13 24 -20q25 -10 33 -16.5t21 -17.5q11 9 32 32q2 2 8 12q4 7 7 7q2 0 4.5 -2.5t2.5 -6.5q0 -14 -49 -47q4 -3 15 -16q7 3 23 7q22 5 25 -4q1 -6 -7.5 -6.5t-17.5 -0.5
q-2 0 -17 -3q5 -5 16 -21q41 0 47 -1q13 -2 13 -13q0 -5 -4 -5q-3 0 -11 3t-11 4q-10 2 -29 5q18 -33 18 -49q0 -12 -10 -18q80 11 85 11q23 0 43 -35zM444 452q-1 9 -8 14.5t-12 3.5q-9 -1 -14.5 -8t-3.5 -12q2 -19 21 -17q9 1 14 7.5t3 11.5zM245 449q-1 9 -8.5 15
t-12.5 4q-9 -1 -15 -8.5t-4 -12.5q1 -8 9 -13.5t13 -3.5q9 1 14.5 7.5t3.5 11.5zM411 343q-24 -11 -53 -11q-14 0 -38 3t-34 3q-9 0 -41 -7q30 2 58 -3q32 -6 31 -6q40 0 77 21zM400 348l-2 3q-20 -11 -68 -4q-19 3 -37 6q-20 3 -38 -2q-14 -4 -36 -16q-25 -14 -33 -25l1 -3
q32 30 70 39q22 5 73 -3q46 -7 70 5zM454 307v3q-27 17 -50 17q-12 0 -34.5 -7.5t-34.5 -7.5q-25 0 -40 5q-27 8 -34 9l-6 -1q18 -6 36.5 -12t44.5 -6q10 0 29 5q23 6 29 7q16 3 60 -12zM433 452q0 -8 -7 -8q-9 0 -9 6q0 9 7 9q9 0 9 -7zM234 449q0 -9 -8 -9q-10 0 -10 7
q0 10 8 10q10 0 10 -8z" />
    <glyph glyph-name="Oslash" unicode="&#xd8;" horiz-adv-x="684" 
d="M660 735q1 -1 -21 -28t-71 -88q47 -49 70 -104q26 -62 26 -141q0 -122 -60 -231q-53 -97 -148.5 -157t-196.5 -60q-54 0 -98 20q-12 -27 -36 -77q-21 -44 -23 -43q-6 2 6 36q21 62 37 94q-81 50 -105 124q-17 51 -17 108q0 81 32 150q33 73 97 136q57 57 121 89
q95 48 190 48q20 0 38 -2t16 -8q-1 -2 -9 -1q-16 2 -33 2q-87 0 -162 -48q-112 -72 -182 -228q-48 -106 -48 -194q0 -22 3 -44q10 -84 64 -122q90 208 195 381q79 130 203 274q-30 35 -70 59q-5 3 -4 6t10 -1q38 -18 73 -53q36 43 71 79q27 29 32 24zM559 607
q-68 -91 -176 -264q-134 -216 -218 -388q33 -19 82 -19q86 0 166 69q66 58 115 150q84 160 84 290q0 93 -53 162z" />
    <glyph glyph-name="Ugrave" unicode="&#xd9;" horiz-adv-x="791" 
d="M995 600q-10 -2 -26 -8q-35 -17 -77 -80q-35 -53 -75 -140q-65 -142 -108 -246q-28 -67 -59 -146q26 29 57 40q5 1 8 -1q0 -2 -6 -5q-10 -4 -12 -6q-26 -18 -47 -44q-39 -48 -46 -48q-3 0 -14 4q-18 7 -11 26q27 80 70 182q-107 -176 -236 -176q-118 0 -222 92
q-66 -41 -136 -41q-22 0 -35 6t-10 11l12 -4q8 -3 18 -3q59 0 131 51l-33 33q-27 28 -72 69q-18 14 -30 7q-19 -11 10 -45q27 -30 47 -36q-48 -2 -68 28q-8 12 -8 26q0 22 15 34q19 16 45 3q34 -17 79 -52q19 -15 52 -42q25 19 41 34q72 71 146 207q65 119 67 207
q3 110 -110 112q-81 1 -173 -98q-85 -92 -85 -164q0 -46 45 -46q33 0 64 19q12 7 13 6q3 -4 -11 -13q-33 -21 -66 -21q-56 0 -62 59q-10 91 76 184q37 40 93 63t110 22q71 -1 116 -39q48 -41 48 -110q0 -87 -55.5 -190.5t-162.5 -195.5q-34 -29 -73 -55q112 -99 188 -102
q121 -5 253 215q34 81 70 155q51 105 87.5 155t86.5 82q39 25 67 29q7 1 11 0t3 -4zM748 629q-17 -1 -52.5 15t-56.5 33.5t-21 33.5t19 16q16 0 34.5 -21t36.5 -43q24 -25 40 -34z" />
    <glyph glyph-name="Uacute" unicode="&#xda;" horiz-adv-x="791" 
d="M995 600q-10 -2 -26 -8q-35 -17 -77 -80q-35 -53 -75 -140q-65 -142 -108 -246q-28 -67 -59 -146q26 29 57 40q5 1 8 -1q0 -2 -6 -5q-10 -4 -12 -6q-26 -18 -47 -44q-39 -48 -46 -48q-3 0 -14 4q-18 7 -11 26q27 80 70 182q-107 -176 -236 -176q-118 0 -222 92
q-66 -41 -136 -41q-22 0 -35 6t-10 11l12 -4q8 -3 18 -3q59 0 131 51l-33 33q-27 28 -72 69q-18 14 -30 7q-19 -11 10 -45q27 -30 47 -36q-48 -2 -68 28q-8 12 -8 26q0 22 15 34q19 16 45 3q34 -17 79 -52q19 -15 52 -42q25 19 41 34q72 71 146 207q65 119 67 207
q3 110 -110 112q-81 1 -173 -98q-85 -92 -85 -164q0 -46 45 -46q33 0 64 19q12 7 13 6q3 -4 -11 -13q-33 -21 -66 -21q-56 0 -62 59q-10 91 76 184q37 40 93 63t110 22q71 -1 116 -39q48 -41 48 -110q0 -87 -55.5 -190.5t-162.5 -195.5q-34 -29 -73 -55q112 -99 188 -102
q121 -5 253 215q34 81 70 155q51 105 87.5 155t86.5 82q39 25 67 29q7 1 11 0t3 -4zM785 716q0 -16 -21 -33.5t-56.5 -33.5t-52.5 -15q16 8 77 78q18 20 34 20q19 0 19 -16z" />
    <glyph glyph-name="Ucircumflex" unicode="&#xdb;" horiz-adv-x="791" 
d="M995 600q-10 -2 -26 -8q-35 -17 -77 -80q-35 -53 -75 -140q-65 -142 -108 -246q-28 -67 -59 -146q26 29 57 40q5 1 8 -1q0 -2 -6 -5q-10 -4 -12 -6q-26 -18 -47 -44q-39 -48 -46 -48q-3 0 -14 4q-18 7 -11 26q27 80 70 182q-107 -176 -236 -176q-118 0 -222 92
q-66 -41 -136 -41q-22 0 -35 6t-10 11l12 -4q8 -3 18 -3q59 0 131 51l-33 33q-27 28 -72 69q-18 14 -30 7q-19 -11 10 -45q27 -30 47 -36q-48 -2 -68 28q-8 12 -8 26q0 22 15 34q19 16 45 3q34 -17 79 -52q19 -15 52 -42q25 19 41 34q72 71 146 207q65 119 67 207
q3 110 -110 112q-81 1 -173 -98q-85 -92 -85 -164q0 -46 45 -46q33 0 64 19q12 7 13 6q3 -4 -11 -13q-33 -21 -66 -21q-56 0 -62 59q-10 91 76 184q37 40 93 63t110 22q71 -1 116 -39q48 -41 48 -110q0 -87 -55.5 -190.5t-162.5 -195.5q-34 -29 -73 -55q112 -99 188 -102
q121 -5 253 215q34 81 70 155q51 105 87.5 155t86.5 82q39 25 67 29q7 1 11 0t3 -4zM775 632q-2 -2 -10 5q-23 16 -36 37q-37 -21 -90 -40q-7 -2 -8 1t4 6q39 26 99 83q7 7 9 7q3 0 5 -11q10 -48 25 -79q4 -7 2 -9z" />
    <glyph glyph-name="Udieresis" unicode="&#xdc;" horiz-adv-x="791" 
d="M995 600q-10 -2 -26 -8q-35 -17 -77 -80q-35 -53 -75 -140q-65 -142 -108 -246q-28 -67 -59 -146q26 29 57 40q5 1 8 -1q0 -2 -6 -5q-10 -4 -12 -6q-26 -18 -47 -44q-39 -48 -46 -48q-3 0 -14 4q-18 7 -11 26q27 80 70 182q-107 -176 -236 -176q-118 0 -222 92
q-66 -41 -136 -41q-22 0 -35 6t-10 11l12 -4q8 -3 18 -3q59 0 131 51l-33 33q-27 28 -72 69q-18 14 -30 7q-19 -11 10 -45q27 -30 47 -36q-48 -2 -68 28q-8 12 -8 26q0 22 15 34q19 16 45 3q34 -17 79 -52q19 -15 52 -42q25 19 41 34q72 71 146 207q65 119 67 207
q3 110 -110 112q-81 1 -173 -98q-85 -92 -85 -164q0 -46 45 -46q33 0 64 19q12 7 13 6q3 -4 -11 -13q-33 -21 -66 -21q-56 0 -62 59q-10 91 76 184q37 40 93 63t110 22q71 -1 116 -39q48 -41 48 -110q0 -87 -55.5 -190.5t-162.5 -195.5q-34 -29 -73 -55q112 -99 188 -102
q121 -5 253 215q34 81 70 155q51 105 87.5 155t86.5 82q39 25 67 29q7 1 11 0t3 -4zM764 665q0 -29 -29 -29q-11 0 -19.5 8.5t-8.5 20.5t8.5 20.5t19.5 8.5q29 0 29 -29zM667 665q0 -29 -29 -29q-11 0 -20 8.5t-9 20.5t9 20.5t20 8.5q29 0 29 -29z" />
    <glyph glyph-name="Yacute" unicode="&#xdd;" horiz-adv-x="735" 
d="M837 522q-13 -26 -41 -60q-36 -139 -87 -250q-121 -265 -284 -413q-186 -169 -377 -169q-40 0 -60 18q-15 13 -15 30q0 6 3 8q-1 -1 17 -11q23 -13 65 -15q96 -6 169 30q61 29 141 108q152 149 290 444q23 48 73 157q-95 -162 -247 -295q-130 -114 -216 -143
q-27 -9 -44 -9q-36 0 -36 36q0 15 7 29.5t73 117.5t101 173q79 162 73 257q-6 96 -103 100q-85 3 -174 -53q-70 -44 -118 -105q-56 -70 -53 -130q2 -44 46 -46q29 -1 66 16q13 6 13 5q2 -4 -11 -11q-36 -19 -68 -19q-24 0 -41 13q-21 15 -22 41q-3 62 34 128q33 61 85 99
q47 35 113.5 55t126.5 18q77 -3 123.5 -44.5t49.5 -104.5q3 -57 -18 -118q-15 -43 -54 -115q-33 -63 -175 -276q-21 -31 -15 -40q7 -11 36 2q81 36 197 137q151 132 266 331q11 29 36 84q23 43 48 36q13 -4 13 -22q0 -11 -6 -24zM744 716q0 -16 -21 -33.5t-56.5 -33.5
t-52.5 -15q16 8 77 78q18 20 34 20q19 0 19 -16z" />
    <glyph glyph-name="Thorn" unicode="&#xde;" horiz-adv-x="673" 
d="M704 291q-41 -163 -309 -157q-75 2 -146 36q-104 -176 -176 -242q-35 -32 -59 -28q-42 7 -42 69q0 61 69 134q15 16 32 26t19 7l-8 -8q-13 -12 -26 -31q-47 -71 -51 -149q-2 -36 12 -39q15 -3 44 32.5t133 255.5q-36 28 -49 45q-9 13 -5 17q1 0 11 -13q16 -21 47 -41
q77 164 140 276q-31 2 -125 9q-69 5 -96 11q-54 12 -51 37q3 26 70 40q56 11 103 8q24 -2 24 -5q0 -4 -16 -3q-123 5 -130 -39q-4 -28 99 -37q38 -2 128 -10q57 105 81 132q30 34 67 54q31 16 36 11l-15 -21q-38 -52 -98 -180q4 0 42 -5q249 -31 249 -160q0 -15 -4 -32z
M627 293q9 31 9 54q0 102 -182 125q-15 2 -42 5q-20 -42 -34 -70q-68 -136 -123 -227q66 -32 136 -33q84 -1 143 30q71 38 93 116z" />
    <glyph glyph-name="germandbls" unicode="&#xdf;" horiz-adv-x="275" 
d="M324 385q-22 -13 -60 -32q-46 -23 -59 -42q-8 -12 5 -64q16 -64 16 -102q0 -76 -47 -122q-42 -42 -95 -39q-32 2 -32 33q0 13 12 26.5t20 8.5q1 -1 -2 -6q-6 -8 -7.5 -16t-1.5 -13q0 -22 21 -24q32 -3 55.5 46t23.5 112q0 24 -3 54q-3 34 -3 42q-1 40 22 64.5t69 49.5
q18 10 37 19q23 14 30 27.5t7 28.5q0 28 -22 32q-60 11 -133 -126q-52 -99 -70 -140q-53 -124 -75 -193q-4 -13 -19 -75q-1 -13 -6 -27q-3 -1 -10 11.5t-10 28.5q-7 36 8 90q21 78 47 140q33 80 85 160q39 61 92 102.5t96 41.5q20 0 36 -11.5t16 -31.5q0 -28 -43 -53z" />
    <glyph glyph-name="agrave" unicode="&#xe0;" horiz-adv-x="289" 
d="M275 264q-18 -44 -55 -139q-20 -52 -59 -120q29 35 58 58q22 17 36 22q6 3 7 1q2 -3 -5 -6q-13 -7 -41 -32q-13 -12 -47 -49q-23 -25 -40 -23q-12 1 -12 15q0 7 4 16q20 43 65 162q-37 -64 -80 -111q-45 -50 -73 -50q-40 0 -41 55q-1 29 17 68q27 60 84 104q53 41 96 39
q30 -1 30 -26q9 16 13 21q12 16 26 13q22 -5 17 -18zM207 234q2 6 2 11q0 19 -20 19q-61 0 -138 -163q-17 -36 -17 -59q0 -16 12 -16q20 0 60 46q35 40 68 94q20 33 33 68zM247 309q-17 -1 -52.5 15t-56.5 33.5t-21 33.5t19 16q16 0 34.5 -21t36.5 -43q24 -25 40 -34z" />
    <glyph glyph-name="aacute" unicode="&#xe1;" horiz-adv-x="289" 
d="M275 264q-18 -44 -55 -139q-20 -52 -59 -120q29 35 58 58q22 17 36 22q6 3 7 1q2 -3 -5 -6q-13 -7 -41 -32q-13 -12 -47 -49q-23 -25 -40 -23q-12 1 -12 15q0 7 4 16q20 43 65 162q-37 -64 -80 -111q-45 -50 -73 -50q-40 0 -41 55q-1 29 17 68q27 60 84 104q53 41 96 39
q30 -1 30 -26q9 16 13 21q12 16 26 13q22 -5 17 -18zM207 234q2 6 2 11q0 19 -20 19q-61 0 -138 -163q-17 -36 -17 -59q0 -16 12 -16q20 0 60 46q35 40 68 94q20 33 33 68zM295 396q0 -16 -21 -33.5t-56.5 -33.5t-52.5 -15q16 8 77 78q18 20 34 20q19 0 19 -16z" />
    <glyph glyph-name="acircumflex" unicode="&#xe2;" horiz-adv-x="289" 
d="M275 264q-18 -44 -55 -139q-20 -52 -59 -120q29 35 58 58q22 17 36 22q6 3 7 1q2 -3 -5 -6q-13 -7 -41 -32q-13 -12 -47 -49q-23 -25 -40 -23q-12 1 -12 15q0 7 4 16q20 43 65 162q-37 -64 -80 -111q-45 -50 -73 -50q-40 0 -41 55q-1 29 17 68q27 60 84 104q53 41 96 39
q30 -1 30 -26q9 16 13 21q12 16 26 13q22 -5 17 -18zM207 234q2 6 2 11q0 19 -20 19q-61 0 -138 -163q-17 -36 -17 -59q0 -16 12 -16q20 0 60 46q35 40 68 94q20 33 33 68zM274 312q-2 -2 -10 5q-23 16 -36 37q-37 -21 -90 -40q-7 -2 -8 1t4 6q39 26 99 83q7 7 9 7
q3 0 5 -11q10 -48 25 -79q4 -7 2 -9z" />
    <glyph glyph-name="atilde" unicode="&#xe3;" horiz-adv-x="289" 
d="M275 264q-18 -44 -55 -139q-20 -52 -59 -120q29 35 58 58q22 17 36 22q6 3 7 1q2 -3 -5 -6q-13 -7 -41 -32q-13 -12 -47 -49q-23 -25 -40 -23q-12 1 -12 15q0 7 4 16q20 43 65 162q-37 -64 -80 -111q-45 -50 -73 -50q-40 0 -41 55q-1 29 17 68q27 60 84 104q53 41 96 39
q30 -1 30 -26q9 16 13 21q12 16 26 13q22 -5 17 -18zM207 234q2 6 2 11q0 19 -20 19q-61 0 -138 -163q-17 -36 -17 -59q0 -16 12 -16q20 0 60 46q35 40 68 94q20 33 33 68zM271 364q-20 -41 -52 -40q-19 5 -61 13q-20 3 -35 -9q-9 -5 -8 -5q-15 8 10.5 29t43.5 20
q21 -5 61 -13q26 -3 34 8q5 7 7 6q3 -2 0 -9z" />
    <glyph glyph-name="adieresis" unicode="&#xe4;" horiz-adv-x="289" 
d="M275 264q-18 -44 -55 -139q-20 -52 -59 -120q29 35 58 58q22 17 36 22q6 3 7 1q2 -3 -5 -6q-13 -7 -41 -32q-13 -12 -47 -49q-23 -25 -40 -23q-12 1 -12 15q0 7 4 16q20 43 65 162q-37 -64 -80 -111q-45 -50 -73 -50q-40 0 -41 55q-1 29 17 68q27 60 84 104q53 41 96 39
q30 -1 30 -26q9 16 13 21q12 16 26 13q22 -5 17 -18zM207 234q2 6 2 11q0 19 -20 19q-61 0 -138 -163q-17 -36 -17 -59q0 -16 12 -16q20 0 60 46q35 40 68 94q20 33 33 68zM272 345q0 -29 -29 -29q-11 0 -19.5 8.5t-8.5 20.5t8.5 20.5t19.5 8.5q29 0 29 -29zM175 345
q0 -29 -29 -29q-11 0 -20 8.5t-9 20.5t9 20.5t20 8.5q29 0 29 -29z" />
    <glyph glyph-name="aring" unicode="&#xe5;" horiz-adv-x="289" 
d="M275 264q-18 -44 -55 -139q-20 -52 -59 -120q29 35 58 58q22 17 36 22q6 3 7 1q2 -3 -5 -6q-13 -7 -41 -32q-13 -12 -47 -49q-23 -25 -40 -23q-12 1 -12 15q0 7 4 16q20 43 65 162q-37 -64 -80 -111q-45 -50 -73 -50q-40 0 -41 55q-1 29 17 68q27 60 84 104q53 41 96 39
q30 -1 30 -26q9 16 13 21q12 16 26 13q22 -5 17 -18zM207 234q2 6 2 11q0 19 -20 19q-61 0 -138 -163q-17 -36 -17 -59q0 -16 12 -16q20 0 60 46q35 40 68 94q20 33 33 68zM249 356q0 -19 -13.5 -32.5t-33.5 -13.5t-33.5 13.5t-13.5 32.5q0 20 14 33.5t33 13.5
q20 0 33.5 -13.5t13.5 -33.5zM227 356q0 25 -25 25t-25 -25t25 -25t25 25z" />
    <glyph glyph-name="ae" unicode="&#xe6;" horiz-adv-x="361" 
d="M390 267q0 -18 -19 -36q-29 -27 -74 -21q-17 2 -29 8q-18 -24 -29 -46q-33 -65 -41 -104q-10 -48 9 -54q15 -5 39 10.5t40 42.5t26 63q3 12 6 12q5 0 3 -11q-6 -35 -23 -64q-20 -34 -47.5 -52.5t-50.5 -15.5q-47 7 -47 60q0 12 2 26q7 38 28 76q-101 -163 -149 -163
q-43 0 -43 60q0 33 16 68q28 62 80 105t102 43q30 0 30 -26q9 16 13 21q12 16 26 13q22 -4 17 -18q0 -1 -1 -3.5t-2 -3.5q41 29 89 29q29 0 29 -19zM358 265q0 10 -12 10q-17 0 -42 -19q-21 -16 -31 -31q13 -7 27 -7q21 -1 40 15.5t18 31.5zM208 234q2 6 2 11q0 19 -20 19
q-33 0 -77 -56q-38 -49 -62 -107q-19 -46 -18 -69q1 -14 10 -16q36 -6 132 150q20 33 33 68z" />
    <glyph glyph-name="ccedilla" unicode="&#xe7;" horiz-adv-x="194" 
d="M214 272q1 -15 -17 -27q-10 -5 -11 -2q-1 1 2 9.5t3 16.5q0 10 -7 11q-29 4 -73 -59t-63 -133q-9 -33 -9 -52q0 -25 18 -25q22 0 49 30.5t48 73.5l10 22q6 -1 -4 -27q-18 -44 -47 -77t-62 -36q-2 -2 -4.5 -5t-3.5 -4q-3 -5 4 -6q52 -5 50 -37q-1 -22 -22.5 -33.5
t-53.5 -9.5q-39 3 -56 31q-3 6 -1 8t5 -2q15 -17 52 -17q31 0 34 24q2 18 -21 21q-7 0 -17 4q-2 1 9 15q4 4 9 12q-46 4 -48 54q-2 56 35 118q70 117 162 118q29 0 30 -16z" />
    <glyph glyph-name="egrave" unicode="&#xe8;" horiz-adv-x="204" 
d="M233 267q0 -21 -19 -36q-32 -25 -74 -21q-16 2 -29 8q-18 -26 -28 -45q-29 -59 -42 -105q-5 -19 -5 -33q0 -24 14 -28q16 -4 39 14t40.5 46.5t25.5 62.5q3 12 6 12q4 0 3 -11q-1 -28 -25 -69q-45 -78 -99 -70q-51 8 -51 67q0 14 3 29q12 60 55 109q78 90 159 89
q27 0 27 -19zM201 265q0 10 -12 10q-17 0 -42 -19q-21 -16 -31 -31q13 -7 27 -7q21 -1 40 15.5t18 31.5zM231 309q-17 -1 -52.5 15t-56.5 33.5t-21 33.5t19 16q16 0 34.5 -21t36.5 -43q24 -25 40 -34z" />
    <glyph glyph-name="eacute" unicode="&#xe9;" horiz-adv-x="204" 
d="M233 267q0 -21 -19 -36q-32 -25 -74 -21q-16 2 -29 8q-18 -26 -28 -45q-29 -59 -42 -105q-5 -19 -5 -33q0 -24 14 -28q16 -4 39 14t40.5 46.5t25.5 62.5q3 12 6 12q4 0 3 -11q-1 -28 -25 -69q-45 -78 -99 -70q-51 8 -51 67q0 14 3 29q12 60 55 109q78 90 159 89
q27 0 27 -19zM201 265q0 10 -12 10q-17 0 -42 -19q-21 -16 -31 -31q13 -7 27 -7q21 -1 40 15.5t18 31.5zM258 396q0 -16 -21 -33.5t-56.5 -33.5t-52.5 -15q16 8 77 78q18 20 34 20q19 0 19 -16z" />
    <glyph glyph-name="ecircumflex" unicode="&#xea;" horiz-adv-x="204" 
d="M233 267q0 -21 -19 -36q-32 -25 -74 -21q-16 2 -29 8q-18 -26 -28 -45q-29 -59 -42 -105q-5 -19 -5 -33q0 -24 14 -28q16 -4 39 14t40.5 46.5t25.5 62.5q3 12 6 12q4 0 3 -11q-1 -28 -25 -69q-45 -78 -99 -70q-51 8 -51 67q0 14 3 29q12 60 55 109q78 90 159 89
q27 0 27 -19zM201 265q0 10 -12 10q-17 0 -42 -19q-21 -16 -31 -31q13 -7 27 -7q21 -1 40 15.5t18 31.5zM252 312q-2 -2 -10 5q-23 16 -36 37q-37 -21 -90 -40q-7 -2 -8 1t4 6q39 26 99 83q7 7 9 7q3 0 5 -11q10 -48 25 -79q4 -7 2 -9z" />
    <glyph glyph-name="edieresis" unicode="&#xeb;" horiz-adv-x="204" 
d="M233 267q0 -21 -19 -36q-32 -25 -74 -21q-16 2 -29 8q-18 -26 -28 -45q-29 -59 -42 -105q-5 -19 -5 -33q0 -24 14 -28q16 -4 39 14t40.5 46.5t25.5 62.5q3 12 6 12q4 0 3 -11q-1 -28 -25 -69q-45 -78 -99 -70q-51 8 -51 67q0 14 3 29q12 60 55 109q78 90 159 89
q27 0 27 -19zM201 265q0 10 -12 10q-17 0 -42 -19q-21 -16 -31 -31q13 -7 27 -7q21 -1 40 15.5t18 31.5zM257 345q0 -29 -29 -29q-11 0 -19.5 8.5t-8.5 20.5t8.5 20.5t19.5 8.5q29 0 29 -29zM160 345q0 -29 -29 -29q-11 0 -20 8.5t-9 20.5t9 20.5t20 8.5q29 0 29 -29z" />
    <glyph glyph-name="igrave" unicode="&#xec;" horiz-adv-x="157" 
d="M152 278q-27 -46 -61 -130q-25 -61 -43 -118q24 22 47 33q10 5 10 1q0 -1 -17 -13t-42 -37q-34 -34 -42 -34q-17 0 -17 16q0 5 2 12q14 46 49 140q15 38 53 112q-11 -6 -18 -7q-12 -2 -12 3q0 2 15 7q37 12 62 24q13 6 16 3q4 -2 -2 -12zM177 309q-17 -1 -52.5 15
t-56.5 33.5t-21 33.5t19 16q16 0 34.5 -21t36.5 -43q24 -25 40 -34z" />
    <glyph glyph-name="iacute" unicode="&#xed;" horiz-adv-x="157" 
d="M152 278q-27 -46 -61 -130q-25 -61 -43 -118q24 22 47 33q10 5 10 1q0 -1 -17 -13t-42 -37q-34 -34 -42 -34q-17 0 -17 16q0 5 2 12q14 46 49 140q15 38 53 112q-11 -6 -18 -7q-12 -2 -12 3q0 2 15 7q37 12 62 24q13 6 16 3q4 -2 -2 -12zM204 396q0 -16 -21 -33.5
t-56.5 -33.5t-52.5 -15q16 8 77 78q18 20 34 20q19 0 19 -16z" />
    <glyph glyph-name="icircumflex" unicode="&#xee;" horiz-adv-x="157" 
d="M152 278q-27 -46 -61 -130q-25 -61 -43 -118q24 22 47 33q10 5 10 1q0 -1 -17 -13t-42 -37q-34 -34 -42 -34q-17 0 -17 16q0 5 2 12q14 46 49 140q15 38 53 112q-11 -6 -18 -7q-12 -2 -12 3q0 2 15 7q37 12 62 24q13 6 16 3q4 -2 -2 -12zM196 312q-2 -2 -10 5
q-23 16 -36 37q-37 -21 -90 -40q-7 -2 -8 1t4 6q39 26 99 83q7 7 9 7q3 0 5 -11q10 -48 25 -79q4 -7 2 -9z" />
    <glyph glyph-name="idieresis" unicode="&#xef;" horiz-adv-x="157" 
d="M152 278q-27 -46 -61 -130q-25 -61 -43 -118q24 22 47 33q10 5 10 1q0 -1 -17 -13t-42 -37q-34 -34 -42 -34q-17 0 -17 16q0 5 2 12q14 46 49 140q15 38 53 112q-11 -6 -18 -7q-12 -2 -12 3q0 2 15 7q37 12 62 24q13 6 16 3q4 -2 -2 -12zM199 345q0 -29 -29 -29
q-11 0 -19.5 8.5t-8.5 20.5t8.5 20.5t19.5 8.5q29 0 29 -29zM102 345q0 -29 -29 -29q-11 0 -20 8.5t-9 20.5t9 20.5t20 8.5q29 0 29 -29z" />
    <glyph glyph-name="eth" unicode="&#xf0;" horiz-adv-x="252" 
d="M337 432q-30 -9 -61 -21q2 -16 2 -33q0 -123 -79 -254q-31 -51 -77 -90q-49 -41 -81 -39q-51 2 -51 67t47 127q50 66 118 88q12 4 25 4q10 0 14.5 -3.5t2.5 -5.5q2 3 -17 3q-10 0 -19 -5q-52 -30 -87 -106q-39 -84 -39 -133q0 -21 12 -24q19 -4 53 37q38 47 73 130
q51 122 51 216q-10 -4 -23 -10q-44 -21 -78 -41q4 26 75 60q18 9 25 11q-3 42 -28 68q-35 38 -108 33q-27 -2 -26 -3q-8 8 29 12q19 2 37 2q124 0 146 -95q35 11 64 5z" />
    <glyph glyph-name="ntilde" unicode="&#xf1;" horiz-adv-x="268" 
d="M256 250q-17 -41 -51 -124q-13 -33 -36 -104q-3 -12 1 -14t23 12q9 6 10 5q3 -2 -6 -11q-38 -38 -66 -34q-19 2 -15 30q5 41 39 123q14 32 40 95q4 10 1 12q-4 2 -12 -6q-41 -41 -76 -84q-19 -23 -79 -122q-5 -6 -15 -20.5t-23 -9.5t-5 28q29 77 86 230q4 11 -4 11
q-5 0 -17 -6t-13 -6t-1 1q-1 3 4 7q33 30 65 33q24 2 24 -16q0 -5 -2 -11q-21 -53 -61 -157q29 38 64 79q44 51 74 75q27 22 46 16q16 -5 5 -32zM264 364q-20 -41 -52 -40q-19 5 -61 13q-20 3 -35 -9q-9 -5 -8 -5q-15 8 10.5 29t43.5 20q21 -5 61 -13q26 -3 34 8q5 7 7 6
q3 -2 0 -9z" />
    <glyph glyph-name="ograve" unicode="&#xf2;" horiz-adv-x="236" 
d="M235 258q0 -3 -9 -7t-20 -4q-13 0 -22 5q24 -36 24 -78q0 -27 -11 -53q-25 -59 -72 -94q-39 -30 -73 -30q-28 0 -46 25q-15 22 -15 51q0 24 9 51q31 89 121 129q21 9 23 7l-12 -12q-62 -66 -90 -164q-10 -34 -10 -52q0 -24 18 -24q24 0 61 57q39 61 55 119q6 21 6 38
q0 30 -19 47q-15 13 -16 17q-4 11 8 16q10 4 18.5 -10t17 -22.5t24.5 -11.5q9 -2 19.5 0t10.5 0zM213 309q-17 -1 -52.5 15t-56.5 33.5t-21 33.5t19 16q16 0 34.5 -21t36.5 -43q24 -25 40 -34z" />
    <glyph glyph-name="oacute" unicode="&#xf3;" horiz-adv-x="236" 
d="M235 258q0 -3 -9 -7t-20 -4q-13 0 -22 5q24 -36 24 -78q0 -27 -11 -53q-25 -59 -72 -94q-39 -30 -73 -30q-28 0 -46 25q-15 22 -15 51q0 24 9 51q31 89 121 129q21 9 23 7l-12 -12q-62 -66 -90 -164q-10 -34 -10 -52q0 -24 18 -24q24 0 61 57q39 61 55 119q6 21 6 38
q0 30 -19 47q-15 13 -16 17q-4 11 8 16q10 4 18.5 -10t17 -22.5t24.5 -11.5q9 -2 19.5 0t10.5 0zM239 396q0 -16 -21 -33.5t-56.5 -33.5t-52.5 -15q16 8 77 78q18 20 34 20q19 0 19 -16z" />
    <glyph glyph-name="ocircumflex" unicode="&#xf4;" horiz-adv-x="236" 
d="M235 258q0 -3 -9 -7t-20 -4q-13 0 -22 5q24 -36 24 -78q0 -27 -11 -53q-25 -59 -72 -94q-39 -30 -73 -30q-28 0 -46 25q-15 22 -15 51q0 24 9 51q31 89 121 129q21 9 23 7l-12 -12q-62 -66 -90 -164q-10 -34 -10 -52q0 -24 18 -24q24 0 61 57q39 61 55 119q6 21 6 38
q0 30 -19 47q-15 13 -16 17q-4 11 8 16q10 4 18.5 -10t17 -22.5t24.5 -11.5q9 -2 19.5 0t10.5 0zM226 312q-2 -2 -10 5q-23 16 -36 37q-37 -21 -90 -40q-7 -2 -8 1t4 6q39 26 99 83q7 7 9 7q3 0 5 -11q10 -48 25 -79q4 -7 2 -9z" />
    <glyph glyph-name="otilde" unicode="&#xf5;" horiz-adv-x="236" 
d="M235 258q0 -3 -9 -7t-20 -4q-13 0 -22 5q24 -36 24 -78q0 -27 -11 -53q-25 -59 -72 -94q-39 -30 -73 -30q-28 0 -46 25q-15 22 -15 51q0 24 9 51q31 89 121 129q21 9 23 7l-12 -12q-62 -66 -90 -164q-10 -34 -10 -52q0 -24 18 -24q24 0 61 57q39 61 55 119q6 21 6 38
q0 30 -19 47q-15 13 -16 17q-4 11 8 16q10 4 18.5 -10t17 -22.5t24.5 -11.5q9 -2 19.5 0t10.5 0zM241 364q-20 -41 -52 -40q-19 5 -61 13q-20 3 -35 -9q-9 -5 -8 -5q-15 8 10.5 29t43.5 20q21 -5 61 -13q26 -3 34 8q5 7 7 6q3 -2 0 -9z" />
    <glyph glyph-name="odieresis" unicode="&#xf6;" horiz-adv-x="236" 
d="M235 258q0 -3 -9 -7t-20 -4q-13 0 -22 5q24 -36 24 -78q0 -27 -11 -53q-25 -59 -72 -94q-39 -30 -73 -30q-28 0 -46 25q-15 22 -15 51q0 24 9 51q31 89 121 129q21 9 23 7l-12 -12q-62 -66 -90 -164q-10 -34 -10 -52q0 -24 18 -24q24 0 61 57q39 61 55 119q6 21 6 38
q0 30 -19 47q-15 13 -16 17q-4 11 8 16q10 4 18.5 -10t17 -22.5t24.5 -11.5q9 -2 19.5 0t10.5 0zM230 345q0 -29 -29 -29q-11 0 -19.5 8.5t-8.5 20.5t8.5 20.5t19.5 8.5q29 0 29 -29zM133 345q0 -29 -29 -29q-11 0 -20 8.5t-9 20.5t9 20.5t20 8.5q29 0 29 -29z" />
    <glyph glyph-name="divide" unicode="&#xf7;" horiz-adv-x="267" 
d="M273 266q1 -5 -5 -10t-9 -3q1 1 -3 10t-19 9q-36 0 -71 -21q-68 -41 -118 -149q-15 -32 -17 -61q-1 -18 8 -18q17 -2 52 36q42 46 82 110q12 17 34 41q17 13 43 22q11 3 12 1l-9 -9q-26 -55 -42 -97l-81 -206q-57 -133 -163 -224q-110 -95 -220 -95q-54 0 -54 35
q0 6 3 10q0 -1 14 -8q19 -11 50 -12q113 -4 193 81q62 67 126 219q47 112 86 214q-37 -59 -72 -96t-59 -37q-44 0 -45 53q-1 30 15 64q40 86 128 128q61 29 106 29q33 0 35 -16z" />
    <glyph glyph-name="oslash" unicode="&#xf8;" horiz-adv-x="236" 
d="M213 308l-29 -52q24 -41 24 -81q0 -58 -50 -117.5t-106 -59.5q-6 0 -13 1l-9 3l-33 -55l-2 10l28 49q-32 20 -32 68q0 23 9 50q29 84 115 128q38 19 40 12q0 -1 -9 -6t-16 -12q-62 -67 -88 -162q-12 -45 -9 -61q19 35 63.5 110.5t74.5 116.5q-3 13 -7 21t-3 8q6 3 18 -15
l32 53zM173 240q-37 -68 -64 -113q-24 -41 -71 -114q1 -3 4.5 -4t7.5 -1q23 0 58 52.5t58 123.5q9 28 7 56z" />
    <glyph glyph-name="ugrave" unicode="&#xf9;" horiz-adv-x="272" 
d="M273 294q3 -3 -2 -10q-33 -51 -66 -141q-11 -31 -40 -97q13 13 30.5 24.5t25.5 15.5q12 6 13 3t-6 -7q-14 -9 -37 -26q-51 -39 -77 -65q-10 -10 -13 -10q-10 2 2 20q14 40 41 115q-29 -46 -49 -69q-42 -49 -67 -49q-37 0 -37 28q0 36 34 119q15 36 53 104q-6 -2 -16 -2
q-16 0 -13 5l21 5q50 11 62 19q4 2 6 0q2 -1 0 -5q-35 -65 -60.5 -124.5t-34.5 -96.5q-7 -27 4 -31q12 -4 42 32t65 96l7 15q12 28 35 75q16 31 34 43q13 9 27 12.5t16 1.5zM231 309q-17 -1 -52.5 15t-56.5 33.5t-21 33.5t19 16q16 0 34.5 -21t36.5 -43q24 -25 40 -34z" />
    <glyph glyph-name="uacute" unicode="&#xfa;" horiz-adv-x="272" 
d="M273 294q3 -3 -2 -10q-33 -51 -66 -141q-11 -31 -40 -97q13 13 30.5 24.5t25.5 15.5q12 6 13 3t-6 -7q-14 -9 -37 -26q-51 -39 -77 -65q-10 -10 -13 -10q-10 2 2 20q14 40 41 115q-29 -46 -49 -69q-42 -49 -67 -49q-37 0 -37 28q0 36 34 119q15 36 53 104q-6 -2 -16 -2
q-16 0 -13 5l21 5q50 11 62 19q4 2 6 0q2 -1 0 -5q-35 -65 -60.5 -124.5t-34.5 -96.5q-7 -27 4 -31q12 -4 42 32t65 96l7 15q12 28 35 75q16 31 34 43q13 9 27 12.5t16 1.5zM278 396q0 -16 -21 -33.5t-56.5 -33.5t-52.5 -15q16 8 77 78q18 20 34 20q19 0 19 -16z" />
    <glyph glyph-name="ucircumflex" unicode="&#xfb;" horiz-adv-x="272" 
d="M273 294q3 -3 -2 -10q-33 -51 -66 -141q-11 -31 -40 -97q13 13 30.5 24.5t25.5 15.5q12 6 13 3t-6 -7q-14 -9 -37 -26q-51 -39 -77 -65q-10 -10 -13 -10q-10 2 2 20q14 40 41 115q-29 -46 -49 -69q-42 -49 -67 -49q-37 0 -37 28q0 36 34 119q15 36 53 104q-6 -2 -16 -2
q-16 0 -13 5l21 5q50 11 62 19q4 2 6 0q2 -1 0 -5q-35 -65 -60.5 -124.5t-34.5 -96.5q-7 -27 4 -31q12 -4 42 32t65 96l7 15q12 28 35 75q16 31 34 43q13 9 27 12.5t16 1.5zM247 310q-2 -2 -10 5q-23 16 -36 37q-37 -21 -90 -40q-7 -2 -8 1t4 6q39 26 99 83q7 7 9 7
q3 0 5 -11q10 -48 25 -79q4 -7 2 -9z" />
    <glyph glyph-name="udieresis" unicode="&#xfc;" horiz-adv-x="272" 
d="M273 294q3 -3 -2 -10q-33 -51 -66 -141q-11 -31 -40 -97q13 13 30.5 24.5t25.5 15.5q12 6 13 3t-6 -7q-14 -9 -37 -26q-51 -39 -77 -65q-10 -10 -13 -10q-10 2 2 20q14 40 41 115q-29 -46 -49 -69q-42 -49 -67 -49q-37 0 -37 28q0 36 34 119q15 36 53 104q-6 -2 -16 -2
q-16 0 -13 5l21 5q50 11 62 19q4 2 6 0q2 -1 0 -5q-35 -65 -60.5 -124.5t-34.5 -96.5q-7 -27 4 -31q12 -4 42 32t65 96l7 15q12 28 35 75q16 31 34 43q13 9 27 12.5t16 1.5zM260 345q0 -29 -29 -29q-11 0 -19.5 8.5t-8.5 20.5t8.5 20.5t19.5 8.5q29 0 29 -29zM163 345
q0 -29 -29 -29q-11 0 -20 8.5t-9 20.5t9 20.5t20 8.5q29 0 29 -29z" />
    <glyph glyph-name="yacute" unicode="&#xfd;" horiz-adv-x="281" 
d="M263 239q0 -16 -6 -35q-17 -58 -41 -112q-49 -112 -123 -203q-69 -85 -167.5 -143.5t-172.5 -58.5q-32 0 -48 20q-4 5 -5 13q-2 7 0 9q-1 0 10 -8q20 -14 49 -14q82 0 139 37q63 39 152 154q67 87 130 236q-21 -32 -70 -77.5t-64 -67.5q-7 -10 -15 -8q-20 4 -20 20
q0 7 9 33q7 18 13 36q26 88 29 147q2 39 -21 39q-2 0 -14.5 -5.5t-13.5 -4.5q-3 4 14 14q30 17 55 17q38 0 34 -57q-6 -71 -37 -154q-12 -31 -29 -62q33 34 92 97q60 71 93 170q2 7 3 16q0 6 2 6q5 0 13 -13q11 -17 10 -41zM265 396q0 -16 -21 -33.5t-56.5 -33.5t-52.5 -15
q16 8 77 78q18 20 34 20q19 0 19 -16z" />
    <glyph glyph-name="thorn" unicode="&#xfe;" horiz-adv-x="277" 
d="M280 512q0 -1 -5 -4q-9 -5 -18 -14q-72 -72 -127 -220q-62 -168 -87 -232q28 55 40 78q20 36 48 77q61 90 103 87q26 -2 21 -44q-9 -71 -63 -167q8 1 24 4t17 2q1 -5 -16 -10q-1 0 -31 -7q-16 -27 -62 -63q-13 -10 -19 -10q-7 0 -12 8.5t-4 17.5q4 13 10 44l6 5
q27 0 42 5q14 32 35 100q19 63 21 94q-37 -14 -112 -149q-39 -70 -72 -146q-23 -58 -69 -162q-24 -50 -70 -114q-17 -24 -30 -20q-5 2 0 28q10 59 29 111q26 74 92 171q13 34 46 124q20 62 64 180q58 138 156 211q14 10 28 15q13 4 15 0zM141 58q-4 -1 -16 -3t-17 -4
q0 -22 4 -42q12 12 29 49zM-37 -48q-25 -39 -36 -59q-22 -40 -39 -86q-7 -18 -26 -110q16 39 45 107q21 57 56 148z" />
    <glyph glyph-name="ydieresis" unicode="&#xff;" horiz-adv-x="281" 
d="M263 239q0 -16 -6 -35q-17 -58 -41 -112q-49 -112 -123 -203q-69 -85 -167.5 -143.5t-172.5 -58.5q-32 0 -48 20q-4 5 -5 13q-2 7 0 9q-1 0 10 -8q20 -14 49 -14q82 0 139 37q63 39 152 154q67 87 130 236q-21 -32 -70 -77.5t-64 -67.5q-7 -10 -15 -8q-20 4 -20 20
q0 7 9 33q7 18 13 36q26 88 29 147q2 39 -21 39q-2 0 -14.5 -5.5t-13.5 -4.5q-3 4 14 14q30 17 55 17q38 0 34 -57q-6 -71 -37 -154q-12 -31 -29 -62q33 34 92 97q60 71 93 170q2 7 3 16q0 6 2 6q5 0 13 -13q11 -17 10 -41zM243 345q0 -29 -29 -29q-11 0 -19.5 8.5
t-8.5 20.5t8.5 20.5t19.5 8.5q29 0 29 -29zM146 345q0 -29 -29 -29q-11 0 -20 8.5t-9 20.5t9 20.5t20 8.5q29 0 29 -29z" />
    <glyph glyph-name="dotlessi" unicode="&#x131;" horiz-adv-x="157" 
d="M152 278q-27 -46 -61 -130q-25 -61 -43 -118q24 22 47 33q10 5 10 1q0 -1 -17 -13t-42 -37q-34 -34 -42 -34q-17 0 -17 16q0 5 2 12q14 46 49 140q15 38 53 112q-11 -6 -18 -7q-12 -2 -12 3q0 2 15 7q37 12 62 24q13 6 16 3q4 -2 -2 -12z" />
    <glyph glyph-name="Lslash" unicode="&#x141;" horiz-adv-x="365" 
d="M774 580q-3 -43 -37 -75q-5 -5 -8 -1q1 -1 6 8q21 29 21 62q0 73 -85 73q-86 0 -171 -72q-67 -58 -164 -193q28 3 56 3q81 0 123 -22q-76 6 -200 -11q-88 -124 -136 -209q39 -55 115 -134q159 -166 266 -166q61 0 100 52q7 9 8 9q2 -1 1 -3q0 -3 -2 -8q-36 -83 -129 -83
q-64 0 -114 27q-57 30 -142 117q-73 75 -122 156q-65 -109 -92 -179q-8 -21 -9 -21q-7 5 -1 42q14 82 69 204q-20 39 -46 69q-18 -11 -34 -39q-48 -82 -48 -213q0 -31 9 -58q3 -9 14 -23q-15 7 -28 29q-25 42 -29 102q-8 103 55 181q25 31 46 33q14 1 39 -8q11 -3 37 -41
q35 74 91 157q-45 -9 -115 -24q46 35 137 54q10 14 31 41q79 98 192 174q119 79 195 79q51 0 79 -28q24 -25 22 -61z" />
    <glyph glyph-name="lslash" unicode="&#x142;" horiz-adv-x="149" 
d="M280 512q0 -1 -5 -4q-9 -5 -18 -14q-29 -29 -69 -104l-58 -116q45 18 81 11q-52 -15 -90 -33q-54 -125 -77 -206q-10 -36 -1 -38q14 -3 40 40q10 16 11 16q7 -2 -6 -23q-34 -56 -65 -55q-33 1 -29 50q2 26 11 55q22 70 50 136q-66 -35 -69 -30q-3 14 81 57q4 11 14 31
q74 150 156 212q13 10 28 15q13 4 15 0z" />
    <glyph glyph-name="OE" unicode="&#x152;" horiz-adv-x="816" 
d="M1013 -65q3 -1 1 -12q-5 -29 -37 -50q-38 -25 -94 -25q-147 0 -312 100q-5 3 -95 66q-95 -83 -231 -83q-174 0 -209 165q-6 27 -6 63q0 106 43 185q73 135 212 206q119 61 285 67q46 2 63 0q-4 12 -23 39q-4 5 -2 7q5 5 26 -7q32 -19 47 -39q74 -3 141 -20
q99 -26 163 -79q18 -15 12 -19q1 1 -13 9q-74 45 -187 70q-62 14 -109 17q10 -32 13 -75q7 -103 -34 -222q52 -13 80 -18q39 -7 114 -15q9 0 8 -3q-1 -5 -17 -6q-66 -4 -137 7q-26 4 -56 11q-25 -62 -64 -125q-35 -56 -86 -104q21 -14 68 -47q189 -134 310 -134q82 0 119 63
q4 9 7 8zM648 520q1 44 -9 77q-22 3 -69 3q-137 0 -227 -55q-118 -72 -195 -213q-70 -128 -65 -238q6 -152 147 -152q104 0 207 100q-72 51 -77 55q-9 6 -29.5 15.5t-31.5 2.5q-4 -2 -4 -10q0 -17 12 -39q13 -25 33 -39q-64 14 -64 59q0 22 19 36q16 12 54 5q57 -10 118 -55
q35 44 63 89q45 73 68 128q-32 10 -38.5 13t-10.5 10.5t-1 12.5t7 4q15 -5 29 -10q4 -1 23 -7q37 93 41 208z" />
    <glyph glyph-name="oe" unicode="&#x153;" horiz-adv-x="332" 
d="M359 258q0 -19 -16 -34q-24 -23 -68 -20q-21 2 -32 7q-11 -14 -26 -43q-29 -57 -40 -99q-5 -19 -5 -32q0 -22 13 -26q15 -4 37 13t39 45q16 25 24 59q3 11 6 11q2 0 2 -10q0 -27 -23 -66q-42 -73 -94 -66q-38 5 -41 45q-42 -44 -84 -44q-28 0 -45 24q-15 21 -15 51
q0 23 9 51q30 94 125 132q29 11 30 7q0 -1 -7 -4q-10 -5 -19 -14q-61 -66 -87 -161q-10 -34 -10 -51q0 -21 13 -25q39 -11 102 123q30 63 25 113q-1 12 -8 27q-4 8 -3 8q3 2 16 -8q9 -8 15 -17q13 -21 16 -36q63 59 125 58q26 0 26 -18zM329 256q0 10 -12 10q-16 0 -40 -18
q-20 -16 -29 -30q12 -6 27 -6q20 0 37.5 15t16.5 29z" />
    <glyph glyph-name="Scaron" unicode="&#x160;" horiz-adv-x="813" 
d="M846 365q0 -179 -222 -322q-109 -70 -212 -97q-89 -23 -219 -23q-88 0 -144 35q-67 42 -67 125q0 86 63 164q65 82 178 131q125 55 269 48q70 -3 111 -27q45 -25 41 -68q-6 -58 -68 -109q-53 -42 -120 -62.5t-134 -20.5q-40 0 -40 23t32 28q14 2 14 -3q0 -3 -13 -6
q-25 -5 -24 -18q1 -9 29 -9q63 0 170 52q136 66 141 128q5 64 -135 64q-122 0 -254 -58q-100 -44 -169 -111q-78 -76 -79 -147q-1 -140 199 -140q188 0 407 138q235 148 235 285q0 48 -35 66q-28 14 -91 14q-12 0 -75 -2q-91 -3 -139 23t-44 76q5 59 91 100q78 37 163 35
q46 -1 77.5 -14t29.5 -28q-1 -13 -24 -13q-11 0 -12 4q-1 3 8.5 7t9.5 7q0 7 -85 8t-161 -27q-84 -30 -88 -76q-3 -41 93 -41q15 0 42.5 1t38.5 1q106 0 157 -30q55 -34 55 -111zM779 810q1 -3 -4 -6q-39 -26 -99 -83q-7 -7 -9 -7q-3 0 -5 11q-10 48 -25 79q-4 7 -2 9
q3 3 10 -5q23 -16 36 -37q37 21 90 40q7 2 8 -1z" />
    <glyph glyph-name="scaron" unicode="&#x161;" horiz-adv-x="196" 
d="M218 266q4 -27 -37 -42q8 14 8 31q0 23 -13 26q-32 7 -37 -54q1 -27 -1 -91q-5 -73 -57 -118q-44 -38 -86 -35q-50 3 -45 44q4 37 55 64q35 19 39 12q8 -16 -23 -38q-35 -25 -37 -35q-1 -6 -1 -11q0 -23 22 -26q32 -4 53.5 38t23.5 107.5t14 97.5q22 56 80 54
q39 -1 42 -24zM265 410q1 -3 -4 -6q-39 -26 -99 -83q-7 -7 -9 -7q-3 0 -5 11q-10 48 -25 79q-4 7 -2 9q3 3 10 -5q23 -16 36 -37q37 21 90 40q7 2 8 -1z" />
    <glyph glyph-name="Ydieresis" unicode="&#x178;" horiz-adv-x="735" 
d="M837 522q-13 -26 -41 -60q-36 -139 -87 -250q-121 -265 -284 -413q-186 -169 -377 -169q-40 0 -60 18q-15 13 -15 30q0 6 3 8q-1 -1 17 -11q23 -13 65 -15q96 -6 169 30q61 29 141 108q152 149 290 444q23 48 73 157q-95 -162 -247 -295q-130 -114 -216 -143
q-27 -9 -44 -9q-36 0 -36 36q0 15 7 29.5t73 117.5t101 173q79 162 73 257q-6 96 -103 100q-85 3 -174 -53q-70 -44 -118 -105q-56 -70 -53 -130q2 -44 46 -46q29 -1 66 16q13 6 13 5q2 -4 -11 -11q-36 -19 -68 -19q-24 0 -41 13q-21 15 -22 41q-3 62 34 128q33 61 85 99
q47 35 113.5 55t126.5 18q77 -3 123.5 -44.5t49.5 -104.5q3 -57 -18 -118q-15 -43 -54 -115q-33 -63 -175 -276q-21 -31 -15 -40q7 -11 36 2q81 36 197 137q151 132 266 331q11 29 36 84q23 43 48 36q13 -4 13 -22q0 -11 -6 -24zM738 665q0 -29 -29 -29q-11 0 -19.5 8.5
t-8.5 20.5t8.5 20.5t19.5 8.5q29 0 29 -29zM641 665q0 -29 -29 -29q-11 0 -20 8.5t-9 20.5t9 20.5t20 8.5q29 0 29 -29z" />
    <glyph glyph-name="Zcaron" unicode="&#x17d;" horiz-adv-x="440" 
d="M693 653q3 -3 3 -9q0 -21 -29 -47q-8 -7 -40 -36q26 -17 41 -33q9 -10 5 -12l-9 7q-21 15 -47 27q-219 -208 -406 -409q48 -76 95 -131q86 -102 156 -102q65 0 100 56q7 11 9 10q4 -2 -1 -12q-36 -69 -112 -71q-103 -3 -181 89q-31 37 -89 138q-86 -84 -134 -161l-17 -27
q-2 1 -3 5q0 5 2 16q17 81 128 208q-11 22 -30 55q-19 -8 -42 -40q-85 -119 -91 -208q-1 -16 4 -37l3 -11q-5 -3 -13 14q-11 23 -11 49q0 116 82 213q26 31 44 33q19 2 32 -3q20 -6 42 -44q86 104 192 213q81 83 200 179q-49 23 -99 39q-53 18 -76 24q-47 13 -95 19
q-18 2 -35 2q-129 0 -131 -105q-1 -27 23 -62q18 -28 40 -47q7 -6 6 -8q-2 -2 -10 3q-97 57 -97 120q0 64 75 92q51 20 124 20q16 0 27 -1q72 -6 160 -36q42 -14 103 -48q12 11 32 26l-1 12q18 4 37 20q23 19 34 11zM569 798q1 -3 -4 -6q-39 -26 -99 -83q-7 -7 -9 -7
q-3 0 -5 11q-10 48 -25 79q-4 7 -2 9q3 3 10 -5q23 -16 36 -37q37 21 90 40q7 2 8 -1z" />
    <glyph glyph-name="zcaron" unicode="&#x17e;" horiz-adv-x="234" 
d="M255 277q1 -7 -12 -14q-22 -27 -84 -98q-37 -42 -87 -82q11 -14 35 -40.5t45 -28.5q32 -3 47 42q4 7 3 7q4 0 2 -11q-12 -63 -59 -63q-32 0 -60 26q-15 14 -34 48q-46 -40 -63 -58q-7 -7 -8 -7q-2 1 3 11q21 43 51 79q-5 10 -11 20q-5 -3 -13 -16q-23 -34 -32.5 -65.5
t-5.5 -31.5q-8 0 -3 37q4 34 24 73q9 18 15 18t20 -7t18 -11q29 42 63 77q44 45 88 72q-71 -27 -101 -27q-46 0 -46 28q0 22 23 31q8 3 10 1q1 -2 -5 -5q-10 -5 -10 -12q0 -12 36 -14q64 -4 105 8q7 7 17 13q26 16 29 0zM268 410q1 -3 -4 -6q-39 -26 -99 -83q-7 -7 -9 -7
q-3 0 -5 11q-10 48 -25 79q-4 7 -2 9q3 3 10 -5q23 -16 36 -37q37 21 90 40q7 2 8 -1z" />
    <glyph glyph-name="florin" unicode="&#x192;" horiz-adv-x="216" 
d="M273 326q3 0 -7 15.5t-35 15.5q-47 0 -88 -97q-21 -50 -29 -71q49 -3 73 -18q-23 2 -79 2q-11 -27 -32 -80q-38 -98 -112 -160q-67 -57 -128 -57q-25 0 -38.5 12.5t-13.5 26.5q0 6 3 10q-1 -1 15 -13q20 -15 47 -15q65 0 102 48q26 34 69 146q11 29 31 82q-51 0 -51 4
q2 13 58 13q16 39 33 73q24 48 65 77q47 34 103 30q32 -2 32 -25q0 -19 -18 -19z" />
    <glyph glyph-name="circumflex" unicode="&#x2c6;" 
d="M280 312q-2 -2 -10 5q-23 16 -36 37q-37 -21 -90 -40q-7 -2 -8 1t4 6q39 26 99 83q7 7 9 7q3 0 5 -11q10 -48 25 -79q4 -7 2 -9z" />
    <glyph glyph-name="caron" unicode="&#x2c7;" 
d="M320 410q1 -3 -4 -6q-39 -26 -99 -83q-7 -7 -9 -7q-3 0 -5 11q-10 48 -25 79q-4 7 -2 9q3 3 10 -5q23 -16 36 -37q37 21 90 40q7 2 8 -1z" />
    <glyph glyph-name="macron" unicode="&#xaf;" 
d="M274 348q4 -9 -7 -17.5t-36 -9.5q-67 -2 -107 32q37 -2 97 1q14 2 29 3q20 1 24 -9z" />
    <glyph glyph-name="macron" unicode="&#x2c9;" 
d="M274 348q4 -9 -7 -17.5t-36 -9.5q-67 -2 -107 32q37 -2 97 1q14 2 29 3q20 1 24 -9z" />
    <glyph glyph-name="breve" unicode="&#x2d8;" 
d="M303 384q3 -3 -1 -9q-35 -64 -95 -59q-26 2 -39 22q-11 16 -9 37q1 11 5 11q1 0 5 -7q14 -27 47 -30q37 -3 79 31q7 5 8 4z" />
    <glyph glyph-name="dotaccent" unicode="&#x2d9;" 
d="M250 351q-2 -31 -33 -33q-30 -2 -30 27q0 12 10 22.5t23 11.5q14 1 22.5 -7t7.5 -21z" />
    <glyph glyph-name="ring" unicode="&#x2da;" 
d="M263 356q0 -19 -13.5 -32.5t-33.5 -13.5t-33.5 13.5t-13.5 32.5q0 20 14 33.5t33 13.5q20 0 33.5 -13.5t13.5 -33.5zM241 356q0 25 -25 25t-25 -25t25 -25t25 25z" />
    <glyph glyph-name="ogonek" unicode="&#x2db;" 
d="M130 -65q3 -3 0 -7q-21 -34 -60 -36q-31 -1 -45 11t-13 30q2 43 85 71h15q-24 -13 -37 -31.5t-13 -32.5q1 -24 26 -24q20 0 37 16q4 4 5 3z" />
    <glyph glyph-name="tilde" unicode="&#x2dc;" 
d="M283 364q-20 -41 -52 -40q-19 5 -61 13q-20 3 -35 -9q-9 -5 -8 -5q-15 8 10.5 29t43.5 20q21 -5 61 -13q26 -3 34 8q5 7 7 6q3 -2 0 -9z" />
    <glyph glyph-name="hungarumlaut" unicode="&#x2dd;" 
d="M348 383q0 -14 -19 -30t-50.5 -30.5t-46.5 -13.5q14 8 69 71q16 18 30 18q17 0 17 -15zM266 383q0 -14 -19 -30t-50.5 -30.5t-46.5 -13.5q14 8 69 71q16 18 30 18q17 0 17 -15z" />
    <glyph glyph-name="Delta" unicode="&#x394;" horiz-adv-x="154" 
d="M891 749q-4 -147 -213 -299q-68 -49 -174 -83q-110 -35 -207 -35q-79 0 -125 20q-27 -48 -42 -81q-63 -141 -86 -225q-10 -36 -1 -38q14 -3 40 40q10 16 11 16q7 -2 -6 -23q-34 -56 -65 -55q-33 1 -29 50q2 28 11 55q32 98 75 184q20 40 50 94q-30 16 -38 37q-5 13 1 13
q-1 0 8.5 -15t33.5 -27q102 179 220 290q86 81 189 135q114 60 203 60q67 0 106 -31.5t38 -81.5zM849 754q3 45 -22 71q-28 28 -82 28q-79 0 -181 -62q-88 -54 -165 -133q-133 -137 -222 -298q39 -17 120 -17q85 0 191 38q102 36 167 86q183 140 194 287z" />
    <glyph glyph-name="Delta" unicode="&#x2206;" horiz-adv-x="154" 
d="M891 749q-4 -147 -213 -299q-68 -49 -174 -83q-110 -35 -207 -35q-79 0 -125 20q-27 -48 -42 -81q-63 -141 -86 -225q-10 -36 -1 -38q14 -3 40 40q10 16 11 16q7 -2 -6 -23q-34 -56 -65 -55q-33 1 -29 50q2 28 11 55q32 98 75 184q20 40 50 94q-30 16 -38 37q-5 13 1 13
q-1 0 8.5 -15t33.5 -27q102 179 220 290q86 81 189 135q114 60 203 60q67 0 106 -31.5t38 -81.5zM849 754q3 45 -22 71q-28 28 -82 28q-79 0 -181 -62q-88 -54 -165 -133q-133 -137 -222 -298q39 -17 120 -17q85 0 191 38q102 36 167 86q183 140 194 287z" />
    <glyph glyph-name="Omega" unicode="&#x3a9;" horiz-adv-x="370" 
d="M584 493q-3 -23 -41 -45q-15 -8 -16 -4l9 9q15 15 15 30q0 25 -25 25q-67 0 -133 -126q-26 -49 -55 -122q34 -2 49 -5q33 -6 32 -10q-1 -3 -16 -1q-29 2 -70 2q-27 -68 -91 -226q-63 -148 -147 -236q-93 -98 -191 -98q-35 0 -56 20t-15 28q-1 -1 15 -9q22 -12 58 -12
q113 0 175 82q32 43 105 218q31 74 91 232q-68 0 -112 -5q-99 -11 -145 -61q-25 -27 -25 -66q0 -15 5 -26q11 -24 37 -30q-10 -6 -23 -6q-38 0 -41 43q-3 42 39 90q56 63 158 74q28 3 113 3q26 65 60 118q40 61 93 100q59 43 113 43q39 0 35 -29z" />
    <glyph glyph-name="Omega" unicode="&#x2126;" horiz-adv-x="370" 
d="M584 493q-3 -23 -41 -45q-15 -8 -16 -4l9 9q15 15 15 30q0 25 -25 25q-67 0 -133 -126q-26 -49 -55 -122q34 -2 49 -5q33 -6 32 -10q-1 -3 -16 -1q-29 2 -70 2q-27 -68 -91 -226q-63 -148 -147 -236q-93 -98 -191 -98q-35 0 -56 20t-15 28q-1 -1 15 -9q22 -12 58 -12
q113 0 175 82q32 43 105 218q31 74 91 232q-68 0 -112 -5q-99 -11 -145 -61q-25 -27 -25 -66q0 -15 5 -26q11 -24 37 -30q-10 -6 -23 -6q-38 0 -41 43q-3 42 39 90q56 63 158 74q28 3 113 3q26 65 60 118q40 61 93 100q59 43 113 43q39 0 35 -29z" />
    <glyph glyph-name="mu" unicode="&#xb5;" horiz-adv-x="283" 
d="M554 534q-2 -18 -18 -20l-5 17q-11 33 -51 30q-61 -5 -132 -125q-27 -46 -88 -179q-65 -143 -83 -216q-8 -31 0 -33q14 -3 40 40q10 16 11 16q7 -2 -6 -23q-34 -56 -65 -55q-33 1 -29 50q2 26 11 55q25 79 68 170q63 132 112 198q4 7 2 16q-5 20 -35 20q-31 0 -63 -45
q-15 -21 -47 -82q-38 -72 -58 -121q-58 -141 -74 -201q-10 -36 -1 -38q14 -3 40 40q10 16 11 16q7 -2 -6 -23q-34 -56 -65 -55q-33 1 -29 50q2 26 11 55q24 75 66 167q31 67 58 110q37 59 82 97q50 44 94 43q38 0 30 -31q75 87 146 93q34 3 54.5 -7t18.5 -29z" />
    <glyph glyph-name="mu" unicode="&#x3bc;" horiz-adv-x="283" 
d="M554 534q-2 -18 -18 -20l-5 17q-11 33 -51 30q-61 -5 -132 -125q-27 -46 -88 -179q-65 -143 -83 -216q-8 -31 0 -33q14 -3 40 40q10 16 11 16q7 -2 -6 -23q-34 -56 -65 -55q-33 1 -29 50q2 26 11 55q25 79 68 170q63 132 112 198q4 7 2 16q-5 20 -35 20q-31 0 -63 -45
q-15 -21 -47 -82q-38 -72 -58 -121q-58 -141 -74 -201q-10 -36 -1 -38q14 -3 40 40q10 16 11 16q7 -2 -6 -23q-34 -56 -65 -55q-33 1 -29 50q2 26 11 55q24 75 66 167q31 67 58 110q37 59 82 97q50 44 94 43q38 0 30 -31q75 87 146 93q34 3 54.5 -7t18.5 -29z" />
    <glyph glyph-name="pi" unicode="&#x3c0;" horiz-adv-x="457" 
d="M488 251q-5 -31 -53 -52q-12 -4 -13 -3q-6 3 2 15q11 16 11 19q2 16 -8 17q-9 1 -19 -7q-15 -12 -29 -28q-27 -30 -51 -68q-26 -56 -71 -132q-3 -2 -10 -10q-11 -11 -29 -16t-22 1l8 11q19 28 58 124q26 64 26 100q0 68 -101 71t-155 -48q-27 -26 -27 -63q0 -38 33 -53
q8 -4 21 -6q-7 -11 -23 -11q-23 0 -37 16t-14 39q0 43 39 80q65 61 165 61q152 0 148 -100q-1 -24 -15 -59q18 27 56 75q25 27 45.5 41t40.5 14q28 0 24 -28z" />
    <glyph glyph-name="endash" unicode="&#x2013;" 
d="M280 148q-62 8 -183 6q-23 0 -46 -2t-26 -2q-7 0 -7 4q3 33 94 35q104 3 168 -41z" />
    <glyph glyph-name="emdash" unicode="&#x2014;" horiz-adv-x="600" 
d="M580 148q-117 11 -276 11q-97 0 -168 -3q-49 -1 -85 -4q-31 -3 -30 -3q-3 0 -3 3q3 21 36 30q52 14 198 14q230 0 328 -48z" />
    <glyph glyph-name="quoteleft" unicode="&#x2018;" horiz-adv-x="138" 
d="M192 408q-30 -40 -51 -87q-15 -33 -32 -28q-20 5 -20 22q0 41 103 93z" />
    <glyph glyph-name="quoteright" unicode="&#x2019;" horiz-adv-x="138" 
d="M76 288q30 40 51 87q15 33 32 28q20 -5 20 -22q0 -41 -103 -93z" />
    <glyph glyph-name="quotesinglbase" unicode="&#x201a;" horiz-adv-x="106" 
d="M-59 -57q30 40 51 87q15 33 32 28q20 -5 20 -22q0 -41 -103 -93z" />
    <glyph glyph-name="quotedblleft" unicode="&#x201c;" horiz-adv-x="236" 
d="M290 408q-30 -40 -51 -87q-15 -33 -32 -28q-20 5 -20 22q0 41 103 93zM192 408q-30 -40 -51 -87q-15 -33 -32 -28q-20 5 -20 22q0 41 103 93z" />
    <glyph glyph-name="quotedblright" unicode="&#x201d;" horiz-adv-x="236" 
d="M174 288q30 40 51 87q15 33 32 28q20 -5 20 -22q0 -41 -103 -93zM76 288q30 40 51 87q15 33 32 28q20 -5 20 -22q0 -41 -103 -93z" />
    <glyph glyph-name="quotedblbase" unicode="&#x201e;" horiz-adv-x="204" 
d="M39 -57q30 40 51 87q15 33 32 28q20 -5 20 -22q0 -41 -103 -93zM-59 -57q30 40 51 87q15 33 32 28q20 -5 20 -22q0 -41 -103 -93z" />
    <glyph glyph-name="dagger" unicode="&#x2020;" horiz-adv-x="201" 
d="M242 254q-37 3 -92 3q-12 -25 -26 -56q-70 -161 -101 -260q-7 -24 -11 -24q-8 0 -4 44q11 124 59 239q13 32 27 58h-10q-59 0 -59 4q0 6 22.5 11.5t48.5 4.5h7q30 58 63 101q19 25 46 42q24 15 29 12q3 -2 -8 -20q-35 -56 -75 -137q49 -4 84 -22z" />
    <glyph glyph-name="daggerdbl" unicode="&#x2021;" horiz-adv-x="251" 
d="M272 254q-37 3 -92 3q-16 -32 -25.5 -55t-30.5 -72q58 -7 86 -22q-36 3 -94 3q-42 -102 -63 -170q-7 -24 -11 -24q-8 0 -4 44q5 61 30 151h-16q-59 0 -59 4q0 6 22.5 11.5t48.5 4.5h9q24 74 51 126h-10q-59 0 -59 4q0 6 22.5 11.5t48.5 4.5h7q30 58 63 101q19 25 46 42
q24 15 29 12q3 -2 -8 -20q-35 -56 -75 -137q49 -4 84 -22z" />
    <glyph glyph-name="bullet" unicode="&#x2022;" horiz-adv-x="190" 
d="M150 166q0 -25 -17 -42.5t-43 -17.5q-25 0 -42.5 17.5t-17.5 42.5q0 26 17.5 43t42.5 17q26 0 43 -17t17 -43z" />
    <glyph glyph-name="ellipsis" unicode="&#x2026;" horiz-adv-x="332" 
d="M274 28q-4 -34 -37 -36q-15 -1 -24 7t-8 23q1 13 11.5 25t24.5 13q16 1 25 -8.5t8 -23.5zM161 28q-4 -34 -37 -36q-16 -1 -25 7t-8 23q1 13 11.5 25t24.5 13q16 1 25.5 -8.5t8.5 -23.5zM47 28q-4 -34 -36 -36q-16 -1 -25 7t-8 23q1 13 11.5 25t24.5 13q16 1 25 -8.5
t8 -23.5z" />
    <glyph glyph-name="perthousand" unicode="&#x2030;" horiz-adv-x="288" 
d="M877 749q-4 -147 -213 -299q-68 -49 -174 -83q-110 -35 -207 -35q-66 0 -100 12q-39 -78 -53 -113q62 59 123 59q45 0 45 -27q0 -24 -31 -39.5t-78 -15.5q-15 0 -21 1q9 -69 46 -168q66 -177 138 -179q71 -2 82 79l5 -1q11 -9 11 -24q-1 -27 -33.5 -44.5t-72.5 -16.5
q-107 3 -178 175q-39 93 -45 177q-46 -125 -88 -193q-5 -8 -13 -19t-20 -8q-18 4 -18 28q0 40 13 73q22 56 71 107q37 101 73 165q-29 15 -38 37q-5 13 1 13q-1 0 8 -14q10 -17 33 -28q100 181 223 304q83 83 177 134q103 56 190 56q67 0 106 -31.5t38 -81.5zM835 754
q3 45 -22 71q-28 28 -82 28q-137 0 -317 -189q-142 -149 -227 -312q43 -9 96 -9q85 0 191 38q102 36 167 86q183 140 194 287zM246 254q0 16 -23 16q-40 0 -91 -47q26 -7 57 -5q57 4 57 36zM60 179q-34 -44 -51 -88t-15 -89q13 20 36 90q15 44 30 87z" />
    <glyph glyph-name="guilsinglleft" unicode="&#x2039;" horiz-adv-x="178" 
d="M166 233q2 -3 -8 -14q-40 -45 -91 -82q14 -39 20 -81q2 -18 -2 -18q-1 0 -8 12q-27 46 -71 92q73 35 149 87q9 6 11 4z" />
    <glyph glyph-name="guilsinglright" unicode="&#x203a;" horiz-adv-x="178" 
d="M139 134q-72 -35 -149 -87q-9 -6 -11 -4q-2 3 8 14q40 45 91 82q-14 39 -20 81q-2 18 2 18q1 0 8 -12q27 -46 71 -92z" />
    <glyph glyph-name="fraction" unicode="&#x2044;" horiz-adv-x="257" 
d="M685 584q-3 -26 -26 -42q-18 -14 -35 -14q20 30 22 60q3 45 -22 71q-28 28 -82 28q-133 0 -286 -195q-66 -84 -127 -215q-47 -101 -71 -165q23 32 64 79q44 51 74 75q27 22 46 16q16 -5 5 -32q-17 -41 -51 -124q-13 -33 -36 -104q-3 -12 1 -14q5 -2 32 18q9 6 10 5
q3 -2 -6 -11q-44 -44 -75 -40q-19 2 -14 32q8 48 38 121q14 32 40 95q4 10 1 12q-4 2 -12 -6q-41 -41 -76 -84q-19 -23 -79 -122q-5 -6 -15.5 -21t-26.5 -9q-10 3 -1 28q22 63 45 122q19 49 62 148q59 121 128 205q66 80 148 133q97 62 184 62q73 0 110.5 -31t30.5 -81z" />
    <glyph glyph-name="trademark" unicode="&#x2122;" horiz-adv-x="500" 
d="M261 429l-8 -1q-6 28 -15 33.5t-47 5.5q-1 -25 -1 -39v-83q0 -37 31 -38v-7q-8 0 -23 1h-23h-22q-13 -1 -20 -1v7q15 1 22.5 7.5t7.5 30.5v122q-38 0 -47 -5.5t-15 -33.5l-8 1l2 32q1 13 7 19q9 -3 15 -3h120q3 0 15 3q6 -6 7 -19zM521 300q-6 0 -19 1h-21h-22
q-13 -1 -20 -1v7q16 1 21 7t5 23q-1 29 -8 117l-30 -70q-10 -24 -34 -81l-10 -3q-3 7 -35 80q-16 35 -31 69q-4 -40 -9 -107q-1 -33 23 -35v-7q-3 0 -14 1h-18h-18q-11 -1 -16 -1v7q23 1 28 36q8 57 11 100q1 17 -4.5 21.5t-22.5 7.5v7h16q10 -1 16 -1q5 0 13 1h12
q8 -20 32 -76q9 -20 29 -65l61 141h14q9 -1 13 -1q5 0 14 1h14v-7q-28 -1 -24 -31q2 -38 8 -105q2 -26 26 -29v-7z" />
    <glyph glyph-name="partialdiff" unicode="&#x2202;" horiz-adv-x="252" 
d="M278 379q0 -124 -79 -255q-31 -51 -77 -90q-49 -41 -81 -39q-51 2 -51 67t47 127q50 66 118 88q12 4 25 4q10 0 14.5 -3.5t2.5 -5.5q2 3 -17 3q-10 0 -19 -5q-52 -30 -87 -106q-39 -84 -39 -133q0 -21 12 -24q19 -4 52 37q39 47 74 130q53 127 51 223q-1 47 -26 77
q-35 43 -111 37q-27 -2 -26 -3q-8 8 29 12q19 2 37 2q151 0 151 -143z" />
    <glyph glyph-name="product" unicode="&#x220f;" horiz-adv-x="665" 
d="M653 250q-17 -41 -51 -124q-13 -33 -36 -104q-3 -13 2 -14t22 12q8 7 10 5q3 -2 -6 -11q-38 -38 -66 -34q-18 2 -16 29q3 33 40 124q14 32 40 95q4 10 1 12q-4 2 -12 -6q-44 -44 -75.5 -83.5t-49.5 -70.5q-14 -23 -28 -47q-5 -8 -19 -22q-17 -17 -28 -13q-7 2 2 28
q10 32 39 107q14 32 40 95q4 10 1 12q-4 2 -12 -6q-41 -41 -76 -84q-25 -30 -78 -118q-5 -6 -15.5 -21.5t-23.5 -10.5t-4 30q16 45 44 118q17 45 19 73q2 37 -21 54t-84 18q-102 2 -155 -48q-28 -27 -27 -63q1 -34 33 -52q9 -5 21 -7q-8 -11 -25 -11q-52 1 -50 58
q1 40 40 77q66 63 166 63q151 0 155 -83q2 -34 -36 -115q37 48 64 79q44 51 74 75q27 22 46 16q16 -5 5 -32q-20 -47 -54 -131q21 27 59 72q43 50 74 75q27 22 46 16q16 -5 5 -32z" />
    <glyph glyph-name="summation" unicode="&#x2211;" horiz-adv-x="645" 
d="M647 254q0 -26 -17 -59q-21 -41 -64 -90q-37 -35 -104 -101q-6 -16 -25 -12q-12 3 -12 12q0 15 13 32q8 29 13 86q5 61 10 80q-16 -35 -58 -87q-38 -44 -96 -116q-7 -9 -9 -11q-3 -1 -14 2q-20 6 -19 23q1 13 14 34q11 17 20 46q23 71 19 120q-6 76 -112 78
q-104 2 -155 -46q-28 -27 -27 -63t32 -52q9 -5 22 -7q-7 -11 -22 -11q-24 0 -38.5 17t-14.5 40q0 39 40 78q63 61 169 61q151 0 160 -91q5 -51 -32 -141q-11 -28 -25 -52q30 35 86 104q32 41 61 94q5 10 16 27q22 28 44 28q7 0 11 -4q8 -7 -16 -38q-3 -31 -12 -111
q-6 -53 -22 -88q22 22 63 71q64 86 77 162q2 9 0 17q-2 5 0 5q24 0 24 -37z" />
    <glyph glyph-name="minus" unicode="&#xad;" horiz-adv-x="684" 
d="M658 102q4 -7 4 -15q0 -18 -27 -38q-24 -15 -48 -31q-19 -14 -33 -18q1 -1 2 -2.5t2.5 -3.5t9 -7t7.5 -7q0 -7 -10 -7q-14 0 -26 17l-3 6q-9 -3 -31 -6q1 -3 3 -11q2 -22 -7 -24q-5 -1 -6.5 8.5t-2.5 18.5q0 1 -1 3.5t-2 4.5q-17 -1 -34 0q0 -37 -1 -43q-2 -13 -16 -13
q-6 0 -4 9q3 9 5 17q2 21 5 30q-16 0 -59 15.5t-60 15.5q-27 1 -70.5 -15t-70.5 -16q3 -9 6 -31q4 -27 -4 -27q-11 0 -13 14q1 -6 1 44q-13 0 -37 2q0 -3 -2.5 -12t-4 -18t-7.5 -8q-12 3 -7 24l4 16q-10 1 -31 7q-2 -4 -7 -12q-17 -26 -30 -14q-3 2 -3 5q0 -2 14 14l11 11
q-32 14 -44 54.5t-12 39.5q0 8 4 16q14 27 47 27q11 0 51 -6q-14 11 -14 25q0 13 13 34q-5 -1 -16.5 -7t-15.5 -6q-1 0 -2 1q-4 7 17 17q12 8 28 12q3 3 12 14q-5 2 -19 5q-9 1 -16.5 1.5t-6.5 5.5q1 4 10 4q20 5 39 -10q2 3 10 9q-14 24 -26 33q-6 5 -23 9q-10 3 -7 9
q5 10 36 -9q11 -6 25 -37q12 12 23.5 20.5t40.5 30.5q-8 -1 -19 -6t-16 -5q-10 0 -17.5 9t-7.5 19q0 16 20 53.5t20 50.5q0 10 -5.5 14.5t-5.5 14.5q0 11 8.5 20t18.5 9q24 0 27 -21q19 1 37.5 -8t29.5 -9q12 0 35 8t33 8q4 0 8 -1q4 24 30 24q13 0 23 -8.5t7 -22.5
q-1 -4 -5.5 -15.5t-4.5 -21.5q0 -20 15 -54t15 -45q0 -24 -27 -24q-11 0 -28 7q-20 10 -22 10q5 -13 24 -20q25 -10 33 -16.5t21 -17.5q11 9 32 32q2 2 8 12q4 7 7 7q2 0 4.5 -2.5t2.5 -6.5q0 -14 -49 -47q4 -3 15 -16q7 3 23 7q22 5 25 -4q1 -6 -7.5 -6.5t-17.5 -0.5
q-2 0 -17 -3q5 -5 16 -21q41 0 47 -1q13 -2 13 -13q0 -5 -4 -5q-3 0 -11 3t-11 4q-10 2 -29 5q18 -33 18 -49q0 -12 -10 -18q80 11 85 11q23 0 43 -35zM444 452q-1 9 -8 14.5t-12 3.5q-9 -1 -14.5 -8t-3.5 -12q2 -19 21 -17q9 1 14 7.5t3 11.5zM245 449q-1 9 -8.5 15
t-12.5 4q-9 -1 -15 -8.5t-4 -12.5q1 -8 9 -13.5t13 -3.5q9 1 14.5 7.5t3.5 11.5zM411 343q-24 -11 -53 -11q-14 0 -38 3t-34 3q-9 0 -41 -7q30 2 58 -3q32 -6 31 -6q40 0 77 21zM400 348l-2 3q-20 -11 -68 -4q-19 3 -37 6q-20 3 -38 -2q-14 -4 -36 -16q-25 -14 -33 -25l1 -3
q32 30 70 39q22 5 73 -3q46 -7 70 5zM454 307v3q-27 17 -50 17q-12 0 -34.5 -7.5t-34.5 -7.5q-25 0 -40 5q-27 8 -34 9l-6 -1q18 -6 36.5 -12t44.5 -6q10 0 29 5q23 6 29 7q16 3 60 -12zM433 452q0 -8 -7 -8q-9 0 -9 6q0 9 7 9q9 0 9 -7zM234 449q0 -9 -8 -9q-10 0 -10 7
q0 10 8 10q10 0 10 -8z" />
    <glyph glyph-name="minus" unicode="&#x2212;" horiz-adv-x="684" 
d="M658 102q4 -7 4 -15q0 -18 -27 -38q-24 -15 -48 -31q-19 -14 -33 -18q1 -1 2 -2.5t2.5 -3.5t9 -7t7.5 -7q0 -7 -10 -7q-14 0 -26 17l-3 6q-9 -3 -31 -6q1 -3 3 -11q2 -22 -7 -24q-5 -1 -6.5 8.5t-2.5 18.5q0 1 -1 3.5t-2 4.5q-17 -1 -34 0q0 -37 -1 -43q-2 -13 -16 -13
q-6 0 -4 9q3 9 5 17q2 21 5 30q-16 0 -59 15.5t-60 15.5q-27 1 -70.5 -15t-70.5 -16q3 -9 6 -31q4 -27 -4 -27q-11 0 -13 14q1 -6 1 44q-13 0 -37 2q0 -3 -2.5 -12t-4 -18t-7.5 -8q-12 3 -7 24l4 16q-10 1 -31 7q-2 -4 -7 -12q-17 -26 -30 -14q-3 2 -3 5q0 -2 14 14l11 11
q-32 14 -44 54.5t-12 39.5q0 8 4 16q14 27 47 27q11 0 51 -6q-14 11 -14 25q0 13 13 34q-5 -1 -16.5 -7t-15.5 -6q-1 0 -2 1q-4 7 17 17q12 8 28 12q3 3 12 14q-5 2 -19 5q-9 1 -16.5 1.5t-6.5 5.5q1 4 10 4q20 5 39 -10q2 3 10 9q-14 24 -26 33q-6 5 -23 9q-10 3 -7 9
q5 10 36 -9q11 -6 25 -37q12 12 23.5 20.5t40.5 30.5q-8 -1 -19 -6t-16 -5q-10 0 -17.5 9t-7.5 19q0 16 20 53.5t20 50.5q0 10 -5.5 14.5t-5.5 14.5q0 11 8.5 20t18.5 9q24 0 27 -21q19 1 37.5 -8t29.5 -9q12 0 35 8t33 8q4 0 8 -1q4 24 30 24q13 0 23 -8.5t7 -22.5
q-1 -4 -5.5 -15.5t-4.5 -21.5q0 -20 15 -54t15 -45q0 -24 -27 -24q-11 0 -28 7q-20 10 -22 10q5 -13 24 -20q25 -10 33 -16.5t21 -17.5q11 9 32 32q2 2 8 12q4 7 7 7q2 0 4.5 -2.5t2.5 -6.5q0 -14 -49 -47q4 -3 15 -16q7 3 23 7q22 5 25 -4q1 -6 -7.5 -6.5t-17.5 -0.5
q-2 0 -17 -3q5 -5 16 -21q41 0 47 -1q13 -2 13 -13q0 -5 -4 -5q-3 0 -11 3t-11 4q-10 2 -29 5q18 -33 18 -49q0 -12 -10 -18q80 11 85 11q23 0 43 -35zM444 452q-1 9 -8 14.5t-12 3.5q-9 -1 -14.5 -8t-3.5 -12q2 -19 21 -17q9 1 14 7.5t3 11.5zM245 449q-1 9 -8.5 15
t-12.5 4q-9 -1 -15 -8.5t-4 -12.5q1 -8 9 -13.5t13 -3.5q9 1 14.5 7.5t3.5 11.5zM411 343q-24 -11 -53 -11q-14 0 -38 3t-34 3q-9 0 -41 -7q30 2 58 -3q32 -6 31 -6q40 0 77 21zM400 348l-2 3q-20 -11 -68 -4q-19 3 -37 6q-20 3 -38 -2q-14 -4 -36 -16q-25 -14 -33 -25l1 -3
q32 30 70 39q22 5 73 -3q46 -7 70 5zM454 307v3q-27 17 -50 17q-12 0 -34.5 -7.5t-34.5 -7.5q-25 0 -40 5q-27 8 -34 9l-6 -1q18 -6 36.5 -12t44.5 -6q10 0 29 5q23 6 29 7q16 3 60 -12zM433 452q0 -8 -7 -8q-9 0 -9 6q0 9 7 9q9 0 9 -7zM234 449q0 -9 -8 -9q-10 0 -10 7
q0 10 8 10q10 0 10 -8z" />
    <glyph glyph-name="periodcentered" unicode="&#xb7;" horiz-adv-x="106" 
d="M90 178q-4 -34 -37 -36q-16 -1 -25 7t-8 23q1 13 11.5 25t24.5 13q16 1 25.5 -8.5t8.5 -23.5z" />
    <glyph glyph-name="periodcentered" unicode="&#x2219;" horiz-adv-x="106" 
d="M90 178q-4 -34 -37 -36q-16 -1 -25 7t-8 23q1 13 11.5 25t24.5 13q16 1 25.5 -8.5t8.5 -23.5z" />
    <glyph glyph-name="radical" unicode="&#x221a;" horiz-adv-x="457" 
d="M474 264q0 -25 -17 -53q-26 -43 -86 -103q-48 -43 -114 -114q-7 -9 -12 -8q-25 3 -25 22q0 20 10 34q10 22 18 46q10 30 15 50q10 37 12 64q7 92 -91 98q-95 6 -142 -45q-25 -27 -25 -64q0 -20 11.5 -37t30.5 -21q-10 -6 -24 -6q-39 0 -39 41q0 49 38 89q61 63 158 60
q67 -2 104 -31t33 -81q-4 -51 -43 -139q-11 -24 -21 -43q26 27 77 84q80 100 105 164q3 7 4 13q2 14 1 14q5 0 13 -9q9 -12 9 -25z" />
    <glyph glyph-name="infinity" unicode="&#x221e;" horiz-adv-x="247" 
d="M265 282q0 -1 -16 1q-13 -75 -49 -146q-29 -57 -79.5 -101t-81.5 -41q-51 5 -49 70q1 52 33 104q45 74 139 112q16 7 32 8q7 48 5 78q-8 111 -49 169q-53 74 -111 105q-51 27 -122 27q-54 0 -80.5 -28t-23.5 -73q1 -14 5 -27q3 -8 0 -9q-6 -3 -19 5t-15 18.5t-2 20.5
q0 44 45 74q41 27 88 27q85 0 156 -30q79 -34 121 -96q55 -81 61 -177q3 -42 -3 -84q17 -3 15 -7zM193 282q-16 -2 -27 -8q-59 -32 -98 -123q-33 -76 -33 -118q0 -22 11 -26q16 -6 46 30q39 47 73 141q19 51 28 104z" />
    <glyph glyph-name="integral" unicode="&#x222b;" horiz-adv-x="246" 
d="M883 750q0 -146 -210 -300q-65 -47 -174 -82q-114 -36 -210 -36q-74 0 -125 19q-17 -30 -37 -74q-64 -139 -84 -226q-10 -43 11 -46q20 -3 50 37q26 34 44 79.5t23 76.5q7 39 -20 56q-18 11 -5 23q10 9 27 -10q9 -10 15 -22q10 -12 26 -12q10 0 22 4t10 6q5 -3 -6.5 -12
t-24.5 -9q-12 0 -19 4q14 -21 14 -54q0 -32 -12 -59q-24 -56 -68 -90q-41 -30 -78 -28q-57 4 -52 76q4 66 72 211q22 47 45 87q-29 15 -38 37q-5 13 1 13q-1 0 8.5 -15t33.5 -27q81 145 223 290q74 75 185 133q120 62 209 62q68 0 106 -30t38 -82zM841 754q3 45 -22 71
q-28 28 -82 28q-79 0 -181 -62q-89 -54 -165 -133q-128 -133 -222 -298q53 -17 120 -17q85 0 191 38q102 36 167 86q183 140 194 287z" />
    <glyph glyph-name="approxequal" unicode="&#x2248;" horiz-adv-x="353" 
d="M401 242l-38 2h-55q-42 -96 -83 -214q19 19 47 35q8 8 8 -1l-15 -12q-7 -6 -37 -36t-32 -33q-11 -9 -21 -8q-19 1 -12 19q40 140 91 250q-50 0 -94 -6q-102 -14 -144 -59q-24 -26 -24 -64q0 -29 16 -45q10 -10 25 -13q-10 -6 -18 -6q-45 0 -47 46q-1 42 40 87
q55 59 158 70q38 4 94 4q10 23 40 76q37 67 62 62q8 -2 8 -7q0 -3 -11 -26q-17 -33 -45 -105q29 0 51 -3q38 -5 36 -13z" />
    <glyph glyph-name="approxequal" unicode="&#x22f2;" horiz-adv-x="353" 
d="M401 242l-38 2h-55q-42 -96 -83 -214q19 19 47 35q8 8 8 -1l-15 -12q-7 -6 -37 -36t-32 -33q-11 -9 -21 -8q-19 1 -12 19q40 140 91 250q-50 0 -94 -6q-102 -14 -144 -59q-24 -26 -24 -64q0 -29 16 -45q10 -10 25 -13q-10 -6 -18 -6q-45 0 -47 46q-1 42 40 87
q55 59 158 70q38 4 94 4q10 23 40 76q37 67 62 62q8 -2 8 -7q0 -3 -11 -26q-17 -33 -45 -105q29 0 51 -3q38 -5 36 -13z" />
    <glyph glyph-name="notequal" unicode="&#x2260;" horiz-adv-x="331" 
d="M587 529q-3 -25 -19 -25l-5 17q-9 29 -51 29q-47 0 -93 -59q-24 -31 -65 -109q-28 -54 -55 -123q11 0 43 -2q40 -2 38 -9h-37h-49q-27 -70 -92 -231q-58 -137 -150.5 -221t-179.5 -83q-30 0 -50 14q-78 -41 -126 -41q-79 0 -112 65q-15 30 -9 34q1 1 3 -5q5 -10 13 -21
q35 -46 119 -46q55 0 104 22q-10 10 -15.5 22.5t-2.5 15.5l9 -10q11 -14 28 -19q74 47 166 269q39 93 57 147q7 19 4 42q-3 28 -27 37q-12 5 -10 9q3 8 31.5 10t41.5 2q27 68 60 119q39 59 95 98.5t108 39.5q26 0 26 -24q0 -4 -1 -8q24 27 59 50q48 32 90 34q31 1 45 -12
q11 -11 9 -28zM365 464q1 4 1 8q0 26 -40 26q-59 0 -120 -116q-28 -53 -56 -123q15 1 50 1h23q14 -1 21 -1q29 74 63 126t58 79zM90 246q-10 0 -34 -3q18 -20 9 -61zM239 248h-43q-35 0 -51 -1q-29 -75 -95 -240q-79 -188 -202 -266q6 -2 28 -2q105 1 167 74q44 53 108 210
q22 55 88 225z" />
    <glyph glyph-name="lessequal" unicode="&#x2264;" horiz-adv-x="257" 
d="M854 749q-4 -147 -213 -299q-68 -49 -174 -83q-110 -35 -207 -35q-66 0 -100 12q-29 -59 -45 -93q-27 -60 -57 -139q29 38 64 79q44 51 74 75q27 22 46 16q16 -5 5 -32q-17 -41 -51 -124q-13 -33 -36 -104q-3 -12 1 -14q5 -2 32 18q9 6 10 5q3 -2 -6 -11q-44 -44 -75 -40
q-19 2 -14 32q8 48 38 121q14 32 40 95q4 10 1 12q-4 2 -12 -6q-41 -41 -76 -84q-19 -23 -79 -122q-5 -6 -15.5 -21t-26.5 -9q-10 3 -1 28q22 63 45 122q30 78 54 131q22 48 40 81q-30 16 -38 37q-5 13 1 13q-1 0 8 -14q10 -17 33 -28q100 181 223 304q83 83 177 134
q103 56 190 56q67 0 106 -31.5t38 -81.5zM812 754q3 45 -22 71q-28 28 -82 28q-137 0 -317 -189q-142 -149 -227 -312q43 -9 96 -9q85 0 191 38q102 36 167 86q183 140 194 287z" />
    <glyph glyph-name="greaterequal" unicode="&#x2265;" horiz-adv-x="505" 
d="M506 294q3 -3 -2 -10q-33 -51 -66 -141q-11 -31 -40 -97q13 13 30.5 24.5t25.5 15.5q12 6 13 3t-6 -7q-14 -9 -37 -26q-51 -39 -77 -65q-10 -10 -13 -10q-10 2 2 20q14 40 41 115q-29 -46 -49 -69q-42 -49 -67 -49q-35 0 -37 28t34 119q28 72 28 93q0 52 -82 53
q-105 2 -155 -46q-28 -27 -27 -63q1 -34 32 -52q8 -5 22 -7q-9 -10 -22 -10q-23 1 -37.5 16.5t-14.5 37.5q0 63 74 106q63 37 130 37q134 0 134 -71q0 -7 -2 -15q-5 -23 -28 -79q-26 -62 -34 -95q-7 -27 4 -31q12 -4 42 32t65 96l7 15q12 28 35 75q16 31 34 43q13 9 27 12.5
t16 1.5z" />
    <glyph glyph-name="lozenge" unicode="&#x25ca;" horiz-adv-x="246" 
d="M685 584q-3 -27 -22.5 -41.5t-38.5 -14.5q20 30 22 60q3 45 -22 71q-28 28 -82 28q-134 0 -286 -195q-73 -94 -129 -215q-64 -139 -84 -226q-10 -43 11 -46q20 -3 50 37q26 34 44 79.5t23 76.5q7 39 -20 56q-18 11 -5 23q10 9 27 -10q9 -10 15 -22q10 -12 26 -12
q10 0 22 4t10 6q5 -3 -6.5 -12t-24.5 -9q-12 0 -19 4q14 -21 14 -54q0 -32 -12 -59q-24 -56 -68 -90q-41 -30 -78 -28q-57 4 -52 76q4 69 72 211q55 116 140 219q66 80 148 133q97 62 184 62q67 0 106.5 -31t34.5 -81z" />
    <glyph glyph-name="fi" unicode="&#xf001;" horiz-adv-x="315" 
d="M370 421q-20 -24 -45 -62q-3 -9 -6.5 -17t-13.5 -8t-16 9.5t-4 19.5q4 16 34 35q25 16 51 23zM397 493q-3 -23 -41 -45q-15 -8 -16 -4l9 9q15 15 15 30q0 25 -25 25q-67 0 -133 -126q-24 -45 -55 -123q22 -2 39 -2q29 0 43 3q10 2 42 17q29 14 34 14q9 0 1 -13
q-27 -46 -61 -130q-25 -61 -43 -118q24 22 47 33q10 5 10 1q0 -1 -17 -13t-42 -37q-34 -34 -42 -34q-17 0 -17 16q0 5 2 12q14 46 49 140q15 37 49 106q-18 -9 -58 -9q-30 0 -42 1q-27 -68 -91 -226q-63 -148 -146 -236q-93 -98 -191 -98q-35 0 -57 21q-20 18 -14 27l16 -9
q22 -12 57 -12q113 0 175 82q32 43 105 218q39 95 57 147q7 19 4 42q-3 28 -27 37q-12 5 -10 9q3 8 30 10q15 1 43 1q28 70 60 120q40 61 93 100q59 43 113 43q39 0 35 -29zM90 245q-18 0 -34 -2q18 -20 9 -61z" />
    <glyph glyph-name="fl" unicode="&#xf002;" horiz-adv-x="326" 
d="M617 531q0 -12 -8 -18.5t-14 -6.5q-2 15 -5 34q-10 24 -48 21q-46 -4 -89 -47q-31 -31 -74 -99q-32 -51 -68 -131q-63 -141 -90 -238q-10 -36 -1 -38q14 -3 40 40q10 16 11 16q7 -2 -6 -23q-34 -56 -65 -55q-33 1 -29 50q2 26 11 55q24 76 81 204q29 65 70 125
q8 11 26 36q6 10 6 23q0 29 -26 29q-67 0 -133 -126q-28 -53 -56 -123q30 -4 51 -4q10 0 15 2.5t6 1.5q2 -4 -5.5 -9t-18.5 -7q-14 -2 -54 0q-26 -67 -90 -223q-63 -148 -146 -236q-93 -98 -191 -98q-35 0 -57 21q-20 18 -14 27l16 -9q22 -12 57 -12q113 0 175 82
q32 43 105 218q39 95 57 147q7 19 4 42q-3 28 -27 37q-12 5 -10 9q2 6 30 10q15 2 44 2q28 72 59 119q40 61 93 100q59 43 113 43q22 0 28.5 -7.5t6.5 -16.5q21 21 59 41q46 25 87 29q32 3 53 -7.5t21 -29.5zM90 245q-18 0 -34 -2q18 -20 9 -61z" />
    <glyph glyph-name="glyph245" horiz-adv-x="500" 
 />
    <glyph glyph-name="Euro" horiz-adv-x="227" 
d="M83 148q-13 -31 -18 -50q-9 -32 -9 -52q0 -24 22 -24q19 0 45.5 29.5t39.5 57.5q10 22 11 22q8 -2 -4 -27q-45 -97 -109 -97q-53 0 -55 55q-2 38 17 86q-34 0 -33 4q2 15 42 16q2 4 6 10.5t6 9.5q-39 0 -38 5q2 15 52 15q63 89 143 90q29 0 30 -16q1 -11 -11 -22.5
t-17 -6.5q-3 3 1 10q12 25 -3 27q-37 5 -90 -86q54 -7 68 -18q-28 2 -77 2l-12 -24q56 -8 73 -18q-30 2 -80 2z" />
    <glyph glyph-name="apple" unicode="&#xf000;" horiz-adv-x="684" 
d="M658 102q4 -7 4 -15q0 -18 -27 -38q-24 -15 -48 -31q-19 -14 -33 -18q1 -1 2 -2.5t2.5 -3.5t9 -7t7.5 -7q0 -7 -10 -7q-14 0 -26 17l-3 6q-9 -3 -31 -6q1 -3 3 -11q2 -22 -7 -24q-5 -1 -6.5 8.5t-2.5 18.5q0 1 -1 3.5t-2 4.5q-17 -1 -34 0q0 -37 -1 -43q-2 -13 -16 -13
q-6 0 -4 9q3 9 5 17q2 21 5 30q-16 0 -59 15.5t-60 15.5q-27 1 -70.5 -15t-70.5 -16q3 -9 6 -31q4 -27 -4 -27q-11 0 -13 14q1 -6 1 44q-13 0 -37 2q0 -3 -2.5 -12t-4 -18t-7.5 -8q-12 3 -7 24l4 16q-10 1 -31 7q-2 -4 -7 -12q-17 -26 -30 -14q-3 2 -3 5q0 -2 14 14l11 11
q-32 14 -44 54.5t-12 39.5q0 8 4 16q14 27 47 27q11 0 51 -6q-14 11 -14 25q0 13 13 34q-5 -1 -16.5 -7t-15.5 -6q-1 0 -2 1q-5 9 14 19q5 4 31 10q2 3 11 13q-4 2 -18 6q-9 1 -16.5 1.5t-6.5 5.5t12 6q21 1 37 -12q2 3 10 9q-12 21 -27 31q-5 3 -22 10q-10 4 -7 10
q2 4 14 3q12 -2 21 -7q15 -9 29 -39q9 9 20.5 17.5t40.5 30.5q-8 -1 -19 -6t-16 -5q-10 0 -17.5 9.5t-7.5 20.5q0 14 14.5 48.5t14.5 49.5t-11 23q-7 7 -7 25q0 13 10.5 24t23.5 11q34 0 38 -31q23 1 39.5 -13.5t27.5 -14.5q12 0 40 15q25 15 40 11q2 35 36 35
q19 0 30.5 -11.5t8.5 -29.5q-4 -8 -11 -26q-5 -14 -5 -29q0 -20 9.5 -50t9.5 -40q0 -27 -29 -27q-11 0 -28 7q-20 10 -22 10q5 -13 24 -20q25 -10 32.5 -15.5t19.5 -15.5q11 7 34 29q2 2 8 12q4 7 7 7q2 0 4 -2q14 -12 -8 -30q-13 -8 -38 -24q4 -3 15 -16q5 4 23 10
q21 5 25 -7q1 -6 -7.5 -6.5t-17.5 -0.5q-2 0 -17 -3q5 -5 16 -21q22 6 44 2q16 -3 16 -16q0 -5 -4 -5q-3 0 -11 3t-11 4q-10 2 -29 5q18 -33 18 -49q0 -12 -10 -18q80 11 85 11q23 0 43 -35zM463 462q-1 13 -11.5 21.5t-17.5 5.5q-12 -1 -20.5 -11.5t-6.5 -17.5
q5 -26 32 -24q12 1 19.5 10t4.5 16zM244 459q-2 12 -12.5 21t-17.5 7q-12 -3 -21 -13.5t-7 -17.5q3 -12 13.5 -18.5t19.5 -5.5q11 1 18.5 10.5t6.5 16.5zM388 359l-3 1q-9 -5 -27 -2q-15 3 -29 6q-19 3 -37 6q-20 3 -38 -2q-12 -3 -35.5 -19.5t-32.5 -28.5l1 -3q32 30 70 39
q22 5 73 -3q35 -5 58 6zM425 353q-24 -11 -58 -11q-16 0 -43.5 3t-37.5 3q-28 0 -57 -19q11 2 26 2q20 0 48.5 -4.5t30.5 -4.5q40 0 91 31zM454 307v3q-27 17 -50 17q-12 0 -34.5 -7.5t-34.5 -7.5q-25 0 -40 5q-27 8 -34 9l-6 -1q8 -2 34 -15q19 -9 43 -9q10 0 31 5
q25 7 31 8q27 4 60 -7zM445 462q0 -9 -9 -9q-10 0 -10 7q0 11 8 11q11 0 11 -9zM226 459q0 -11 -10 -11q-12 0 -12 8q0 12 10 12q12 0 12 -9z" />
    <glyph glyph-name=".null" horiz-adv-x="0" 
 />
    <glyph glyph-name="nonbreakingspace" unicode="&#xa0;" horiz-adv-x="100" 
 />
  </font>
</defs>
</svg>
